<svg id="Layer_1" data-name="Layer 1" xmlns="http://www.w3.org/2000/svg" viewBox="0 0 1024 1024"><defs><style>.cls-1{fill:#fefefe;}.cls-2{fill:#7f7f7f;}.cls-3{fill:#bebb9e;}.cls-4{fill:#ebebeb;}</style></defs><path class="cls-1" d="M0,1024V0H1024V1024Zm388-59c1-.08,1,.61,1,1.29v6.54h97c0-10.13,0-20.1,0-30.06a.84.84,0,0,0-.16-.43.72.72,0,0,0-.19-.19H389v7.56c0,.68,0,1.37-1,1.29H355c-2.19-1-.93-2.9-.94-4.29q-.1-75.48,0-151c0-1.25-.5-2.62.62-3.94h32.23V776.13h-48l-17,17V808.8h-15.8V727.21H437.87v48.9h-50V793H355.78a.89.89,0,0,0-.43.15,2.75,2.75,0,0,0-.35.31V950h32.22a.76.76,0,0,0,.43-.16,4.14,4.14,0,0,0,.53-.53V908.1h16.87v9H421.1v8H438c0,2.81,0,5.45,0,8.09a69.49,69.49,0,0,0,.14,7.78H487c0,11,0,21.6,0,32.24a.84.84,0,0,1-.16.42,2.33,2.33,0,0,1-.36.34H387.82v-7.82H355.1V1007H520V908.19h99v98.6h49.8V932.87H652.17V917c3,0,5.78,0,8.59,0s5.52.09,8.43-.1V801.11h90.6v5.72c-2.19.84-1.44-1.34-2-1.66H677q0,47.21,0,94.08a.85.85,0,0,1-.17.42,5.55,5.55,0,0,1-.58.52h-6.12v49.9h7v23.66h33V838h47.89c-.31-1.52.05-2.47,2.05-1.59V842h40.25l34.84,34.88h18v-12H882V844h9.86V693.9H859.15v-99H990.84V380H859.78a.89.89,0,0,1-.43-.15c-.14-.09-.25-.22-.17-.15V314H891.8V182.12H759.91v32.74H677.24v-33h32.67V124h-33v-91H643.89V21.25H610.83V90.91H578v-41H561.9V17.15H512c0,2.78,0,5.42,0,8.06a74.81,74.81,0,0,1-.13,7.79H446c0-3,0-5.61,0-8.26s.1-5.19-.06-7.74H330V82.8H296.91V50.23H263.86V83h-32.1a.77.77,0,0,0-.43.17c-.13.09-.22.24-.14.15v98.72h32.59V298.73c-2.38,1.15-1.3-1.39-1.8-1.56h-61.8c-.17,1.16-.23,2.24-2.09,1.67V264.23H132c0,32.89,0,65.55,0,98.21,0,.13-.19.27-.31.37-.5.44-.16-.62-.7,0V264.11H115.92v99H43.18c-.54,2.38.28,4.73-.52,7.06H33.1v13.89H44.87v29.06H33.16V446c2.12,0,4.1,0,6.07,0s3.87.08,5.58.11v28.94H33.22v45.06H44.76v29.06H33.1V560.8H115c0-21.85,0-43.5,0-65.16,0-.13.14-.28.25-.39a3.39,3.39,0,0,1,.7-.29V693.79c13.89.7,110.87.43,115.22-.34V661.11h41.89V874.87h33.05V859.16H322V974.5l16.35,16.35H354v-5.06c0-6.33,0-12.66,0-19,0-.72-.39-1.78,1-1.79ZM709.84,114.91V50.24H678.16V73.78c2.34.66,4.7-.34,6.67.48V91h-6.64v23.89Zm182,762V845.1H883V866H854.19v10.88Zm-693.66-638V181.83h7.66V173.1H190.16v65.81Zm48.67-157V50c-2.82,0-5.46,0-8.1,0s-5.19-.11-7.56.05V81.91Zm331-33V17.25H563.16V48.91Zm-315,33V50c-2.63,0-5.11,0-7.58,0s-4.88-.23-7.1.15V81.91ZM436.91,926.17H405c0,2.65,0,5.13,0,7.6s-.26,4.87.16,7.06h31.74Zm-33.07,14.74V909.25H389.16v31.66Zm191.07,50.25h-50c.27,2.72-.19,5.31.25,7.68h49.74ZM33.17,521.09V548c2,0,3.79.07,5.6,0s3.56.37,5.06-.19v-26.7Zm0-136V412c2,0,3.77,0,5.57,0s3.53-.09,5.11-.13V385.09Zm10.76,62.08H33c0,8.8,0,17.43,0,26.06a.75.75,0,0,0,.16.42c.09.14.23.24.16.18H43.92ZM668.83,931.92V918c-2.8,0-5.44,0-8.07,0a70.26,70.26,0,0,0-7.59.12v13.79Zm41.08-815.76h-32c.22,2.4-.22,4.65.26,6.68h31.71ZM405.09,924.83h15c-.21-2.39.21-4.65-.26-6.66H405.09ZM678.17,75.09V90.18c2.06-.51,4,.27,5.66-.41V75.09Zm-645,288V369c3.06-.06,6,.1,8.66-.09v-5.84ZM701.74,802.16H686.31a1.43,1.43,0,0,0,0,1.68h15.43A1.43,1.43,0,0,0,701.74,802.16Z"/><path class="cls-2" d="M355,965c-1.38,0-1,1.07-1,1.79,0,6.34,0,12.67,0,19v5.06H338.35L322,974.5V859.16H306.12v15.71H273.07V661.11H231.18v32.34c-4.35.77-101.33,1-115.22.34V495a3.39,3.39,0,0,0-.7.29c-.11.11-.25.26-.25.39,0,21.66,0,43.31,0,65.16H33.1V549.17H44.76V520.11H33.22V475.05H44.81V446.11c-1.71,0-3.64-.09-5.58-.11s-3.95,0-6.07,0V413.11H44.87V384.05H33.1V370.16h9.56c.8-2.33,0-4.68.52-7.06h72.74v-99H131v98.72c.54-.64.2.42.7,0,.12-.1.31-.24.31-.37,0-32.66,0-65.32,0-98.21h66.09v34.61c1.86.57,1.92-.51,2.09-1.67H262c.5.17-.58,2.71,1.8,1.56V182.05H231.19V83.33c-.08.09,0-.06.14-.15a.77.77,0,0,1,.43-.17h32.1V50.23h33.05V82.8H330V17h49V181.81c15.54.71,112.75.42,117-.33V116h15.83c.65-16.09.41-61.73-.34-66H496V33h15.86a74.81,74.81,0,0,0,.13-7.79c0-2.64,0-5.28,0-8.06h49.9V49.93H578v41h32.87V21.25h33.06V32.91h33.05V124h33v57.88H677.24v33h82.67V182.12H891.8V314H859.18v65.72c-.08-.07,0,.06.17.15a.89.89,0,0,0,.43.15H990.84V594.86H859.15v99h32.73V844H882v20.88H853.15v12h-18L800.35,842H760.1V836.4c-2-.88-2.36.07-2.05,1.59H710.16V973.75h-33V950.09h-7v-49.9h6.12a5.55,5.55,0,0,0,.58-.52.85.85,0,0,0,.17-.42q0-46.95,0-94.08h80.8c.55.32-.2,2.5,2,1.66v-5.72h-90.6V916.9c-2.91.19-5.67.08-8.43.1s-5.62,0-8.59,0v15.87h16.69v73.92h-49.8v-98.6H520V1007H455V974h31.47a2.33,2.33,0,0,0,.36-.34.84.84,0,0,0,.16-.42c0-10.64,0-21.27,0-32.24H454V859H618.9V825.94H603.13V671.23h50c-.47,2.24.79,3.85,1.31,5.64,2.2,7.55,5.24,14.83,7.72,22.3,1.69,5.09,3,10.35,5.56,15.2a12.77,12.77,0,0,1,1.36,6.45c-.22,4.29-.06,8.6-.06,13.26h8.11v16.81h131.8l17-17v-106H793.15V529.21c12.69-.66,94.73-.41,99,.33V561.9h65.61V495.13H891.88v32.71H826c0-21.8,0-43.44,0-65.08a.77.77,0,0,0-.17-.43,4.62,4.62,0,0,0-.56-.52H768v-7.59H750.89v7.92H677.17V479h24.88v16.06h7.72V669c-11.72,0-23.22-.18-34.71,0s-22.73-.78-34.1.82c-5.23.74-10.65.24-16,.1s-10.77.65-16.11-.89c-1.8-.52-3.88-.08-5.73-.08V635.86h73.69V578H529v-8.06H519.9v-8.06H512c0-3,0-5.79,0-8.6s.07-5.54-.06-8.09H495v32.89H379.9v99.06H355.17v16.69c15.35.68,53.77.42,58-.41V677.12h73.59v149H455V842H355V793.47a2.75,2.75,0,0,1,.35-.31.89.89,0,0,1,.43-.15h32.09V776.11h50v-48.9H306.11V808.8h15.8V793.13l17-17h48v15.68H354.65c-1.12,1.32-.62,2.69-.62,3.94q0,75.48,0,151c0,1.39-1.25,3.29.94,4.29Zm10.38-734h63.44c6.12,0,12.18.07,18.23-1.81a53.46,53.46,0,0,1,8.85-1.61,68.76,68.76,0,0,0,8.79-1.79c2-.56,4.08-.43,6.05-1A30.42,30.42,0,0,1,480,223c2.29,0,4.58,0,7,0v-6.79h50.06v6.91h7.75V297H462.76a.77.77,0,0,0-.43.17c-.13.09-.22.23-.14.15v49.72h57.89v98.81h91V363.17H727c0,10.8,0,21.45,0,32.09a.78.78,0,0,0,.18.42,4.48,4.48,0,0,0,.59.51h23.29v8.59h17.06v-8.7c8.4-.27,16.65.17,24.69-.24V297H611.2V265H742.36a.68.68,0,0,0,.39-.25,3.35,3.35,0,0,0,.28-.7H652.35c-.48-.88-.17-1.68-.53-1.85H636.18l-.42,1.59H611.14V164.87h16.69V149.1H577.4c-3.74,3.74-7.29,7.51-11.08,11S559.74,168,555.1,170.4c-2.28,4.75-7.14,7.19-10.1,11.36q0,16.19,0,32.46a.89.89,0,0,1-.15.43c-.09.14-.22.25-.15.17H363V132.2H297.13v98.91H363c0,1.55.33,2.26,1.69,1.73ZM182,355c0,84.85,0,169.16,0,253.47,0,2.26-.12,4.51,1.4,6.42,1.56,0,2.2,1.26,3.11,2.13,1.92,1.85,3.86,3.69,5.64,5.67s3.33,4.06,5.51,5.19H346.79v-83H264.12v-98L298,413h31.25a.79.79,0,0,0,.43-.16c.13-.09.23-.23.16-.16V330H264.56c-.92-.6-.09-2-1.38-2-1.68-.26-.75,1.59-1.37,1.84H200.27c-.42-.67-.08-1.48-.8-1.85h-1c-.86.39-.08,1.68-1.77,2.2H165.13v16.91h8V355ZM643,479h-58.1l-6.48,3.24-6.3-3.24H542.92l-6.29,3.14c-2.19-.78-3.9-1.6-5.11-3.14H501.25c-2.5.75-3.8,2.2-5.5,3.33l-7.05-3.51H462.11V445.93h41.76V395.88h-58V264H365.78c-1.27-.5-.15-2.06-1.78-2-1.67-.49-.52,1.58-1.89,2.08H347.24v17.06h7.95v8h7.87V446.07h57.8v33.05h-107V487h-8.6c-2.76,0-5.53-.08-8.06.06v17h16.9v7.8h98.64l.7-2H446V504.2h33.06v5.89H611.12v18.66h33V413H661V396.11c5.52-.37,10.72.25,15.86-.91H643ZM826.09,272.84H851c0-11.13,0-22.09,0-33a.81.81,0,0,0-.14-.43.89.89,0,0,0-.18-.2H826.09Z"/><path class="cls-3" d="M496,116v65.48c-4.25.75-101.46,1-117,.33V17h66.93c.16,2.55,0,5.15.06,7.74S446,30,446,33h50V50H445.85V66.16H413.22v98.72h48.87v-17h8v-16H479c0-2.81,0-5.45,0-8.09a66.84,66.84,0,0,1,.14-7.76Z"/><path class="cls-3" d="M454,859v82H438.15a69.49,69.49,0,0,1-.14-7.78c-.05-2.64,0-5.28,0-8.09H421.1v-8H405.05v-9H388.18v41.2a4.14,4.14,0,0,1-.53.53.76.76,0,0,1-.43.16H355V842h83v17Z"/><path class="cls-3" d="M455,974v33H355.1V966.18h32.72V974Z"/><path class="cls-2" d="M388,951c1,.08,1-.61,1-1.29v-7.56h96.64a.72.72,0,0,1,.19.19.84.84,0,0,1,.16.43c0,10,0,19.93,0,30.06H389v-6.54c0-.68,0-1.37-1-1.29Z"/><path class="cls-2" d="M709.84,114.91H678.19V91h6.64V74.26c-2-.82-4.33.18-6.67-.48V50.24h31.68Z"/><path class="cls-2" d="M891.82,876.91H854.19V866H883V845.1h8.85Z"/><path class="cls-2" d="M198.16,238.91h-8V173.1h15.66v8.73h-7.66Z"/><path class="cls-2" d="M246.83,81.91H231.17V50.06c2.37-.16,5,0,7.56-.05s5.28,0,8.1,0Z"/><path class="cls-2" d="M577.84,48.91H563.16V17.25h14.68Z"/><path class="cls-2" d="M262.84,81.91H248.16V50.16c2.22-.38,4.68-.1,7.1-.15s4.95,0,7.58,0Z"/><path class="cls-2" d="M436.91,926.17v14.66H405.17c-.42-2.19-.1-4.64-.16-7.06s0-4.95,0-7.6Z"/><path class="cls-2" d="M403.84,940.91H389.16V909.25h14.68Z"/><path class="cls-3" d="M388,951v14H355V951Z"/><path class="cls-2" d="M594.91,991.16v7.68H545.17c-.44-2.37,0-5-.25-7.68Z"/><path class="cls-2" d="M33.17,521.09H43.83v26.7c-1.5.56-3.31.1-5.06.19s-3.62,0-5.6,0Z"/><path class="cls-2" d="M33.16,385.09H43.84v26.77c-1.58,0-3.34.11-5.11.13s-3.61,0-5.57,0Z"/><path class="cls-2" d="M43.92,447.17v26.66H33.33c.07.06-.07,0-.16-.18a.75.75,0,0,1-.16-.42c0-8.63,0-17.26,0-26.06Z"/><path class="cls-2" d="M668.83,931.92H653.17V918.13a70.26,70.26,0,0,1,7.59-.12c2.63,0,5.27,0,8.07,0Z"/><path class="cls-2" d="M709.91,116.16v6.68H678.2c-.48-2,0-4.28-.26-6.68Z"/><path class="cls-2" d="M405.09,924.83v-6.66H419.8c.47,2,.05,4.27.26,6.66Z"/><path class="cls-2" d="M678.17,75.09h5.66V89.77c-1.66.68-3.6-.1-5.66.41Z"/><path class="cls-2" d="M33.17,363.08h8.66v5.84c-2.7.19-5.6,0-8.66.09Z"/><path class="cls-2" d="M701.74,802.16a1.43,1.43,0,0,1,0,1.68H686.26a1.43,1.43,0,0,1,0-1.68Z"/><path class="cls-1" d="M454,859H438V842h17V826.12h31.78v-149H413.19v16.29c-4.25.83-42.67,1.09-58,.41V677.13H379.9V578.07H495V545.18h17c.13,2.55,0,5.33.06,8.09s0,5.62,0,8.6h7.9v8.06H529V578H676.83v57.87H603.14V669c1.85,0,3.93-.44,5.73.08,5.34,1.54,10.74.75,16.11.89s10.75.64,16-.1c11.37-1.6,22.74-.6,34.1-.82s23,0,34.71,0V495.08h-7.72V479H677.17V462.14h73.72v-7.92H768v7.59h57.31a4.62,4.62,0,0,1,.56.52.77.77,0,0,1,.17.43c0,21.64,0,43.28,0,65.08h65.88V495.13h65.91V561.9H892.18V529.54c-4.3-.74-86.34-1-99-.33V627.9h32.73v106l-17,17H677.11V734.08H669c0-4.66-.16-9,.06-13.26a12.77,12.77,0,0,0-1.36-6.45c-2.53-4.85-3.87-10.11-5.56-15.2-2.48-7.47-5.52-14.75-7.72-22.3-.52-1.79-1.78-3.4-1.31-5.64h-50V825.94H618.9V859ZM678.17,718.08V750h31.06a.81.81,0,0,0,.43-.16c.13-.09.23-.23.17-.17V718.08ZM486.91,843.16H439c0,2.62,0,5.09,0,7.57s-.23,4.88.15,7.11h47.75Zm24-297H496c0,10.46,0,20.76,0,31.05a.89.89,0,0,0,.15.43c.09.14.22.25.16.18h14.6ZM356.09,692.84H380V678.16H356.09Zm107,149H487c0-2.63,0-5.1,0-7.57a53.74,53.74,0,0,0-.14-7.11H463.09ZM678.17,463.08V478c2.79,0,5.43,0,8.07,0a70.31,70.31,0,0,0,7.59-.12V463.08Zm-166,108V578c2.81,0,5.45,0,8.08,0a67.65,67.65,0,0,0,7.58-.12v-6.79Zm197.67-77.17V479.26h-6.68v14.65ZM670.16,732.75h6.66V718.09h-6.66ZM461.83,841.91V827.28h-5.66v14.63Zm57.08-278.75h-6.66v6.68h6.66Z"/><path class="cls-1" d="M365.38,231l-.72,1.84c-1.36.53-1.73-.18-1.69-1.73H297.13V132.2H363v82.62H544.69c-.07.08.06,0,.15-.17a.89.89,0,0,0,.15-.43q0-16.26,0-32.46c3-4.17,7.82-6.61,10.1-11.36,4.64-2.43,7.49-6.84,11.22-10.28s7.34-7.28,11.08-11h50.43v15.77H611.14v98.91h24.62l.42-1.59h15.64c.36.17,0,1,.53,1.85H743a3.35,3.35,0,0,1-.28.7.68.68,0,0,1-.39.25H611.2v32H792.82v98.87c-8,.41-16.29,0-24.69.24v8.7H751.07v-8.59H727.78a4.48,4.48,0,0,1-.59-.51.78.78,0,0,1-.18-.42c0-10.64,0-21.29,0-32.09H611.13v82.69h-91V347.05H462.19V297.33c-.08.08,0-.06.14-.15a.77.77,0,0,1,.43-.17h82.08V223.12h-7.75v-6.91H487V223c-2.45,0-4.74,0-7,0a30.42,30.42,0,0,0-9.26,1.79c-2,.58-4,.45-6.05,1a68.76,68.76,0,0,1-8.79,1.79,53.46,53.46,0,0,0-8.85,1.61c-6.05,1.88-12.11,1.8-18.23,1.81H365.38Zm245.71-67.17H627c0-2.48,0-4.79,0-7.09s.27-4.54-.19-6.57H611.09Z"/><path class="cls-1" d="M182,355h-8.85v-7.88h-8V330.21h31.59c1.69-.52.91-1.81,1.77-2.2h1c.72.37.38,1.18.8,1.85h61.54c.62-.25-.31-2.1,1.37-1.84,1.29,0,.46,1.37,1.38,2h65.26v82.69c.07-.07,0,.07-.16.16a.79.79,0,0,1-.43.16H298l-33.86,33.86v98h82.67v83H197.65c-2.18-1.13-3.75-3.25-5.51-5.19s-3.72-3.82-5.64-5.67c-.91-.87-1.55-2.18-3.11-2.13-1.52-1.91-1.4-4.16-1.4-6.42C182,524.16,182,439.85,182,355Zm-15.82-23.91V346c2.81,0,5.45,0,8.09,0s5.18.1,7.55-.05V331.09Zm7.9,22.74h8c-.31-2.4.19-4.65-.3-6.66h-7.72Z"/><path class="cls-1" d="M643,479V395.2H676.9c-5.14,1.16-10.34.54-15.86.91V413H644.17V528.75h-33V510.09h-132V504.2H446v5.64H413.43l-.7,2H314.09v-7.8h-16.9v-17c2.53-.14,5.3,0,8.06-.06h8.6v-7.88h107V446.07h-57.8V289.19h-7.87v-8h-7.95V264.09h14.87c1.37-.5.22-2.57,1.89-2.08,1.63-.05.51,1.51,1.78,2h80.08V395.88h58v50.05H462.11v32.89H488.7l7.05,3.51c1.7-1.13,3-2.58,5.5-3.33h30.27c1.21,1.54,2.92,2.36,5.11,3.14l6.29-3.14h29.22l6.3,3.24,6.48-3.24Zm16.82-67.09V396c-2.8,0-5.44,0-8.07,0a73.47,73.47,0,0,0-7.61.11v15.79ZM298.08,502.83H314c0-2.63,0-5.1,0-7.57s.23-4.88-.15-7.09H298.08Zm64.83-237.67H348c0,2.63,0,5.11,0,7.57a53.71,53.71,0,0,0,.14,7.11h14.76ZM356,287.82a27.28,27.28,0,0,0,6.82,0v-6.87c-2.39.22-4.64-.22-6.82.31Z"/><path class="cls-1" d="M496,116H479.15a66.84,66.84,0,0,0-.14,7.76c-.05,2.64,0,5.28,0,8.09h-8.87v16h-8v17H413.22V66.16h32.63V50h65.64c.75,4.27,1,49.91.34,66ZM414.16,67.09V164h31a.89.89,0,0,0,.44-.15c.13-.08.24-.22.19-.17V67.09Zm63.75,49.07H447c0,2.63,0,5.1,0,7.57s-.23,4.88.15,7.11h30.75Zm-17.08,47.75V132c-2.47,0-4.78-.05-7.08,0s-4.55-.26-6.58.19v31.71Zm1.33-31.82v14.65h6.68V132.09Z"/><path class="cls-4" d="M826.09,272.84V239.16h24.58a.89.89,0,0,1,.18.2.81.81,0,0,1,.14.43c0,11,0,21.92,0,33Zm14.83-32.66H827c0,10.46,0,20.76,0,31.05a.81.81,0,0,0,.16.43c.09.13.23.23.16.16h13.59Zm1.23-.08v32.06c2.72-.53,5.32.34,7.7-.46V240.1Z"/><path class="cls-2" d="M678.17,718.08h31.66v31.58c.06-.06,0,.08-.17.17a.81.81,0,0,1-.43.16H678.17Z"/><path class="cls-2" d="M486.91,843.16v14.68H439.16c-.38-2.23-.1-4.68-.15-7.11s0-5,0-7.57Z"/><path class="cls-2" d="M510.92,546.17v31.66h-14.6c.06.07-.07,0-.16-.18a.89.89,0,0,1-.15-.43c0-10.29,0-20.59,0-31.05Z"/><path class="cls-2" d="M356.09,692.84V678.16H380v14.68Z"/><path class="cls-2" d="M463.09,841.84V827.16h23.76a53.74,53.74,0,0,1,.14,7.11c.05,2.47,0,4.94,0,7.57Z"/><path class="cls-2" d="M678.17,463.08h15.66v14.79a70.31,70.31,0,0,1-7.59.12c-2.64.05-5.28,0-8.07,0Z"/><path class="cls-2" d="M512.17,571.08h15.66v6.79a67.65,67.65,0,0,1-7.58.12c-2.63,0-5.27,0-8.08,0Z"/><path class="cls-2" d="M709.84,493.91h-6.68V479.26h6.68Z"/><path class="cls-2" d="M670.16,732.75V718.09h6.66v14.66Z"/><path class="cls-2" d="M461.83,841.91h-5.66V827.28h5.66Z"/><path class="cls-2" d="M518.91,563.16v6.68h-6.66v-6.68Z"/><path class="cls-2" d="M611.09,163.83V150.17H626.8c.46,2,.13,4.31.19,6.57s0,4.61,0,7.09Z"/><path class="cls-2" d="M166.18,331.09h15.64v14.85c-2.37.15-5,0-7.55.05s-5.28,0-8.09,0Z"/><path class="cls-2" d="M174.08,353.83v-6.66h7.72c.49,2,0,4.26.3,6.66Z"/><path class="cls-2" d="M659.84,411.91H644.16V396.12a73.47,73.47,0,0,1,7.61-.11c2.63-.05,5.27,0,8.07,0Z"/><path class="cls-2" d="M298.08,502.83V488.17h15.76c.38,2.21.1,4.66.15,7.09s0,4.94,0,7.57Z"/><path class="cls-2" d="M362.91,265.16v14.68H348.15a53.71,53.71,0,0,1-.14-7.11c-.05-2.46,0-4.94,0-7.57Z"/><path class="cls-2" d="M356,287.82v-6.57c2.18-.53,4.43-.09,6.82-.31v6.87A27.28,27.28,0,0,1,356,287.82Z"/><path class="cls-2" d="M414.16,67.09h31.68v96.58c.05,0-.06.09-.19.17a.89.89,0,0,1-.44.15h-31Z"/><path class="cls-2" d="M477.91,116.16v14.68H447.16c-.38-2.23-.1-4.68-.15-7.11s0-4.94,0-7.57Z"/><path class="cls-2" d="M460.83,163.91H447.17V132.2c2-.45,4.32-.13,6.58-.19s4.61,0,7.08,0Z"/><path class="cls-2" d="M462.16,132.09h6.68v14.65h-6.68Z"/><path class="cls-2" d="M840.92,240.18v31.64H827.33c.07.07-.07,0-.16-.16a.81.81,0,0,1-.16-.43c0-10.29,0-20.59,0-31.05Z"/><path class="cls-2" d="M842.15,240.1h7.7v31.6c-2.38.8-5-.07-7.7.46Z"/></svg>