<svg id="Layer_1" data-name="Layer 1" xmlns="http://www.w3.org/2000/svg" viewBox="0 0 1000 1000"><defs><style>.cls-1{fill:#fefefe;}.cls-2{fill:#7f7f7f;}.cls-3{fill:#a5a28a;}.cls-4{fill:#c5c5c5;}</style></defs><path class="cls-1" d="M0,0H1000V1000H0ZM315.12,858.58h-2.24c-4.32.3-4.34-2.61-4.21-5.63,9.08-.79,18.24.73,27.28-1L337,852a1.62,1.62,0,0,0,1.94,0l1.05,0c8.86,1.53,17.74.35,27.13.62V672.07l.89-1h6v69a25.66,25.66,0,0,0,.05,15v20H481.74c1.35-2.33-1.16-8,5.48-5.54v11.49H541c7.92,2,16,.41,24,.87,1.71.1,3.68.68,5.09-1,18.3.88,36.62.38,54.93.24.25,0,.51-.36,1.24-.9V677.7h234c0-12.35,0-24.17,0-36-.14-.64-.29-1.28-.44-1.92V615H966.92c0-12.51,0-24.48,0-36.45a3.88,3.88,0,0,0-1.64-3.36c-4-3.2-7.62-6.91-11.82-9.8-6-4.1-9.91-11.49-19-10.92V517.34H836c.64-5.26-1.08-9.78-1.08-14.64,0-46.61.67-93.23-.79-139.84,0-1.12.32-2.35-1.14-3.81H815.51V300.87H743.92V315H702a2.59,2.59,0,0,0,0-1c0-.33,0-.66,0-1,0-.67,0-1.34,0-2V228.45H626.35a75.3,75.3,0,0,0-15.67,0l-81.38,0a75.1,75.1,0,0,0-14.84,0c-.2,3.07-1.27,5.91.68,8.6l-.13,4c0,.34,0,.68,0,1-.87,3.18.49,6.61-1,10.05-2.29-.38-4.6.54-7.23-.93V113H493.41V91.8h13.16V47.19H464.82v82.38H430.77V107.22c-.3-.78-.61-1.55-.91-2.33q0-6.37,0-12.74l-.06-1.36c.1-3.88.67-7.78-.44-11.85H404a2.14,2.14,0,0,0-2.1-.82L355,78.05c-5.38-1.16-10.75-1.77-16.09.24q-26.67-.14-53.36-.23c-.56,0-1.13.54-1.69.84a9.61,9.61,0,0,0-1,.16L271,79a3.1,3.1,0,0,0-3-.94l-4.94.08a21,21,0,0,0-14.07.12h-20.5V224.76H142.64V328.07H131.23v42.26H143.5c.11,2.8.56,5.05-.43,7.77H41.37V503.2h103v6.41q0,84.23-.1,168.44c0,4.64,1.27,5.9,5.85,5.81,14.83-.29,29.66-.08,44.49-.14,1.75,0,3.66.62,5.3-.76.75-3.88-.47-7.92.77-11.78,2.14-.14,4.1-.61,6.48.54V733q0,17.49,0,35A2,2,0,0,0,208,770l.06,11a6.76,6.76,0,0,0-.15.9c-1.32,1.19-.85,2.78-.85,4.21q0,31.36,0,62.74c0,1.12.19,2.24.35,4.13h26.92c-.27,1.59.36,3.32-1,5.32H221.23v55.49H322.15c0-13.64,0-26.94,0-40.24A3.52,3.52,0,0,0,320,870c1.11.21,2.05,0,2-1.33,0-3.38.49-6.8-.32-10.11A14.68,14.68,0,0,0,315.12,858.58Z"/><path class="cls-2" d="M541,780.94H487.22V769.45c-6.64-2.47-4.13,3.21-5.48,5.54H374.1V755H388c1.75-2.44.11-4.95,1.72-6.6,2.26-1,4.78.44,6.78-1.1.89-7.09.71-7.3-6-7.31l-16.44,0V671h-6c-.68,0-1,.36-.89,1V852.62c-9.39-.27-18.27.91-27.13-.62q0-74.44.08-148.88a22.93,22.93,0,0,0-.11-2.49c-.13-1.23-1-1.62-2.09-1.61s-1.9.52-2,1.73-.07,2.33-.07,3.49v25.43H238.45c-.88-10.39.49-20.57-.85-31-1.25.58-2,.75-2,1-1.24,11.09-.25,22.23-.58,33.35l-27.85,0V671.72c-2.38-1.15-4.34-.68-6.48-.54-1.24,3.86,0,7.9-.77,11.78-1.64,1.38-3.55.76-5.3.76-14.83.06-29.66-.15-44.49.14-4.58.09-5.87-1.17-5.85-5.81q.24-84.21.1-168.44V503.2h-103V378.1h101.7c1-2.72.54-5,.43-7.77H131.23V328.07h11.41V224.76h85.81V78.23H249V92.91c4.8-.32,9,1.31,13.06-.92l0,0c2.14-4.49.48-9.28,1-13.9L268,78q0,45.45,0,90.91c-1.57.33-3.31-.46-5.07.91v5.26q0,39.4,0,78.82c0,2.21.48,4.55-2.37,6.29l5.29,1.13c0,4,.1,7.79,0,11.59-.08,2.26.59,3.5,3,3.36a89.45,89.45,0,0,1,.18,14.64c-2.24-.18-3.33.62-3.2,3.11.19,3.49,0,7,.06,10.49,0,1.92-.43,3.25-2.72,3.24-11.29,0-22.57,0-33.72,0a8.59,8.59,0,0,1-.64-1.95c0-14,0-28-.17-42,0-2.11,1.78-2.84,2.29-4.62H179.21V329H185q32.49,0,65,0c1.73,0,3.68-.78,5.18.85-.25,4.26-.63,8.52.31,12.91,4.82.21,9.39.56,14.53-.29V329c1.22-1.63.61-3.51.64-5.27.18-8.57.26-17.15.37-25.72,4.26-.12,8.57.62,12.67-.42a5.55,5.55,0,0,0,.37-1.23q.08-6.25.09-12.49c0-7.2,0-7.19,6.91-7.92.27,0,.5-.38.83-.66v-8.35c5.87-5.32,12.82-9.13,19.08-13.9a6.23,6.23,0,0,1,4.2-1l39.8.06c-2.27,2.57-5.66,4.65-3.92,9l0,0c.63,2.12,3.49,1.71,4.68,4.53H317.34c3,2,4.87,1.41,6.62,1.46,12.14.3,24.3-.5,36.44.43.41,1.72-.46,3.68,1,5.27,4,1,6.09-.07,5.7-4.57-.19-2.15,0-4.32,0-6.48V238.93h14.62c.15-3.08.58-5.65-.46-8.62H360.88c-1.57-4.25.22-8.37-1.27-12.18l-5.54-.48V93.1c1.83-4.92.24-10.06,1-15l46.85.07v29.1h28.88v22.35h34.05V47.19h41.75V91.8H493.41V113h13.33V251.12c2.63,1.47,4.94.55,7.23.93,1.52-3.44.16-6.87,1-10.05h13.12c1.5-4.79-.21-9.34,1.18-13.61l81.38,0c1.08,4.36-.44,8.92.93,13.36l5.69.6c1.42,2.19-.2,4.69,1.62,6.48,2.24.11,4.54.7,7.43-.81V228.45H702V311c-9.49,0-19,0-28.48.15-1.74,0-4.41-1.06-4.53,2.24s2.53,2.43,4.32,2.46c5.16.1,10.33.23,15.48,0,4.41-.21,8.93,1.13,13.22-.82h41.92V300.87h71.59v58.18H833c1.46,1.46,1.1,2.69,1.14,3.81,1.46,46.61.77,93.23.79,139.84,0,4.86,1.72,9.38,1.08,14.64h98.44v37.13c9.13-.57,13.09,6.82,19,10.92,4.2,2.89,7.83,6.6,11.82,9.8a3.88,3.88,0,0,1,1.64,3.36c0,12,0,23.94,0,36.45H859.74v24.8c-4.81,4.22-9.25,9.28-16.76,7.23-.33-.33-.67-.66-1-1s-.67-.66-1-1-.67-.66-1-1-.68-.67-1-1-.67-.67-1-1c0-3.68,0-7.35,0-11l1-1,1-1,1-1,1-1,1-1,11,0,1,1,1,1,1,1,1,1a1.24,1.24,0,0,0,.09.39c0,.06.17.08.26.11-.14-.14-.28-.29-.41-.44-.34-.33-.67-.66-1-1s-.67-.66-1-1-.67-.66-1-1-.68-.67-1-1c-3.43-2.81-8.15-2.81-11,0a1,1,0,0,0-1,1,1,1,0,0,0-1,1,1,1,0,0,0-1,1,1,1,0,0,0-1,1,1,1,0,0,0-1,1c-2.84,2.8-2.83,8.23,0,11l1,1c.34.33.68.67,1,1l1,1c.34.33.67.66,1,1l1,1c2.82,2.71,8.2,2.67,11.26,0,2-1.73,3.37-4.11,5.89-5.24v36h-234V780.12c-.73.54-1,.9-1.24.9-18.31.14-36.63.64-54.93-.24,0-7.1.1-14.21.06-21.31,0-1.54.69-3.37-1.14-4.5l.06.06c-9.2-2.54-18.46-.41-28-1.18ZM266,708a1,1,0,0,0,1,1c0,.84.12,1.49,1.85,1.22L267,709l-1-1-1-1-1-1v-2l1-1,5.66-3.19c-2.4.29-5.25,0-5.6,3.25l-1,1c-.71,0-1.37.18-1.37,1s.66,1,1.37,1l1,1Zm96-77c1.35,1.82,3.3.75,5,1,.77,3.36-.56,6.92.79,10.22,2.17.42,4.1.86,6.34-.54V615.37h69.82v76H423.39v42.21h58.48c.84,7.6.84,7.6,5.47,6.75V669.75h19.29V629H487.45V555.79c7.75,0,15.21,0,22.67,0,2.45,0,4.44-.31,2.83-4H434.16V531.6c4.48-1.13,8.71.29,12.79-1.07.13-4.44.57-8.68-.23-12.91-4.27-1.25-8.54.39-12.48-1.13-.11-.83-.2-1.48-.27-2.14-.16-1.39.38-3.36-1.9-3.33s-1.73,2-1.88,3.37.4,3-.7,4.18c-1.67,1.06-3.8-.14-5.46,1.6-.11,4.37-.49,9,.25,13.61.87.13,1.51.28,2.15.31,1.82.09,3.87-.24,3.71,2.64s-2.46,2-4.09,2.18c-2.92.28-5.92-.51-8.95.6v11.56c-14.17,1.93-28.36.22-43.12.92V518.53H308.67c3.74,3.14,6.88,2.22,9.6,2a10.28,10.28,0,0,1,9.86,4.43c4.62,6.14,10.46,11.14,15.84,16.57a8.92,8.92,0,0,1,2.95,6.94c-.15,13.83-.05,27.65-.1,41.47,0,1.59.58,3.36-1.32,5.19H299.21c-.23,2.42-.71,4.36.64,6.79H316v32.62H268.53V615.67l-1,.1v19.86h50.1c.22-4.16-1-9.13,1-11.42,2.54-3,2.08-5.61,2.21-8.52.22-4.65.13-9.31.17-14,5.23.17,10.5-.45,16.17.47v20.9h20.8C358.34,626.21,357.46,630,362,631ZM123,438c-3.3,2.32-3.15,4.64,0,7,2.26,4.47,5.73,2.82,8,.74S135,440.54,131,438C128,434,125.44,434,123,438ZM785,576a1,1,0,0,0,1-1c4.33-3.56,4.32-9.2,0-14-4.53-4.88-11-5.13-15.58-.58s-4.29,11.1.61,15.55C775.73,580.32,781.45,580.33,785,576ZM527,501c3.06-1.12,3.17-3.44,2.24-6-1-2.83-3.26-4-6.18-4-3.17,0-4.86,2-5.59,4.68-.61,2.29-.79,4.74,2.56,5.29C522.34,504.26,524.66,504.16,527,501ZM180.1,579.9V502.71H179V608.34h21.28v33.94c2.44.33,4.35.71,6.53-.15.14-1.94.28-3.86.45-6.34h39.93V601.44h29.7c.27-2.52.81-4.46-.4-6.29-4.46-.87-9,.46-13.27-.76V520.64a67,67,0,0,0,8.32-.08c2.18-.28,5.27,1.63,6.6-2-3-1.66-6.22.15-9.5-1.65v-14H202.47V448.19l-1.94,0V579.9ZM640.88,385.18c-1.9-1.56-1-3.72-1.06-5.59-.06-24.26,0-48.52-.06-72.78,0-1.79.43-3.64-.48-5.38-1.74-.92-3.6-.49-5.38-.49-14.95,0-29.91,0-44.86-.06-1.75,0-3.67.67-5.24-.75a52.1,52.1,0,0,0-.2-12.89,61.59,61.59,0,0,0-13.38.12c-.15,4.67-.54,8.78.21,12.89-1.66,1.17-3.55.63-5.33.64-12,.05-24,0-36,0H514.61v-23.2c-2.89-.58-5.13-.93-7.27.09-.95,3,.34,6.09-.9,9H444.51v-36h20.14V165.34h-34v65.18H409.35c-.23,3.22-.68,5.82.29,8.33,4.78.78,9.47-.4,14.42.84v82.22a62.35,62.35,0,0,0,13.64-.25V309.12h55.15v55.12H472.22v34h12.31L640,398.11c3.66,1.63,7.5.48,11.25.68a2.26,2.26,0,0,0,2.46-2.54c0-3.6.51-7.25-.42-11A49.66,49.66,0,0,0,640.88,385.18Zm-281-83.27H318.85V303H360v12.47H304.61v54.8H180.35a14.85,14.85,0,0,0,0,7.83H200.7v40.86l1.69.09c1.57-4.32-.24-9.19,1-13.5h39.69v41.34c0,15.4,0,15.39,11.32,25.89a6,6,0,0,0,3.79,2c6.51.49,12.59.24,16.72-6a21.16,21.16,0,0,1,4.56-4.6c2.83-2.27,3.85-5,3.69-8.65-.31-7.1-.09-14.22-.09-21.4h50v34.39h41.11V440.34h55.5c.15,1.81.43,3.62.44,5.43,0,10.81,0,21.61.05,32.42,0,1.7-.63,4.32,1.95,4.34,2.87,0,1.71-2.73,1.73-4.28.21-12.62.29-25.25.4-37.87,2.64.15,2.6-1.51,2.75-3.51.27-3.69-1.16-7.52.82-11.07H507.1v35.3l.6,0V425H438c0-.67,0-1.35-.07-2,4.57,0,9.16.5,13.89-.36.25-4.27.73-8.3-.34-12.54H438c-.12-1.82-.33-3.64-.33-5.45,0-17,0-34,0-51,0-3.43-.28-6.87-.44-10.47H424.39c-1.13,4.71.43,9.43-.95,13.76H367V295.4c-2.42-.49-4.33-.72-6.37.14Q360.25,298.75,359.92,301.91ZM637.82,461.8c-12.67.06-25.39.89-38,0-11.51-.84-20.64,1.67-27.64,11.26-1.66,2.27-2.74,4.11-2.78,7-.12,7.59-.63,15.18-1,23.12H556.71V504H569v47.89H535.66c-1.28,4.12,1.14,3.89,3.37,3.89h24v52.8H535.46V635.3h188V538.36l-6.21-.47V461.75h26.49V350.19H688.17V462H656.09c-1.14,0-2.38.21-3.17-1,.22-4.26.65-8.52-.42-13.18H638.89V425.31H541.24v36h1V426.47h95.56ZM270.38,711.16c1.48,2.21,3.42,1.78,5.15,1.78,9.65,0,19.3-.19,28.94.1,5,.15,6.77-1.38,6.53-6.53-.4-8.49-.1-8.51-8.66-8.53H272.89A217,217,0,0,0,303.24,699c5.09-.13,5.91,2.21,6,6.66s-1.37,5.67-5.69,5.56C292.63,711,281.69,711.16,270.38,711.16ZM557.11,489.37l0,.31h9.81v-.31Z"/><path class="cls-3" d="M207.13,733,235,733c1.68,1.64,3.8.93,5.72.93,25.32.05,50.65,0,76,.06,1.93,0,4-.55,6.34,1v11.5c4.45,1.41,8.76-.42,12.93,1.44v104c-9,1.76-18.2.24-27.27,1l-14.53.09c-1-1.21-2.36-1-3.67-1H251.64c-1.29,0-2.7-.28-3.66,1l-13.7,0H207.36c-.16-1.89-.35-3-.35-4.13q0-31.37,0-62.74c0-1.43-.47-3,.86-4.21,4.24.17,8.49.62,13.14-.41,0-3.62-.05-7.06,0-10.51,0-2.13-1-3-3-2.93-3.64,0-7.29,0-10.93-.09Q207.12,750.46,207.13,733Zm76.42,53c-3.49,2.57-7,5-11.72,4-2.68,1.41-2.61,10.21.1,13,4.67-.3,9.77,1.32,13.56-3,2.82,0,5.65-.08,8.46.1s4.24-.63,4.16-3.84c-.32-12.74,1.58-10-10.08-10.3C286.54,785.9,285,786,283.55,786Z"/><path class="cls-3" d="M354.07,93.1V217.65a23,23,0,0,1-2.47.25q-39.14,0-78.28,0c-1.12,0-2.36.26-3.69-1.42V169.26c.12-2,.34-4,.34-5.95,0-21.43,0-42.86,0-64.29,0-1.9-.67-4,.86-5.72,4.22-.82,8.6.47,13-.89V78.9c.56-.3,1.13-.84,1.69-.84q26.69.06,53.36.23c.19,4.76-.53,9.56.57,14.81ZM297.93,196.64h42.12c0-3.55-.22-6.71.06-9.81.32-3.69-.94-4.93-4.73-4.85-10.94.22-21.9.06-32.85.09-1.45,0-3-.38-4.6,1.25v13.32ZM322.32,113c-4,0-6.81.23-9.6-.06-3.85-.38-4.72,1.24-4.81,4.86s2.41,8.2-3.3,10c-.33.1-.41,1.18-.5,1.82-1.58,10.32-.54,11.51,9.82,11.41a8.34,8.34,0,0,1,1,0c3,.37,4.23-.87,4.06-4s-1.12-7.32.41-8.73C324.49,123.68,320.81,118.49,322.32,113Z"/><path class="cls-2" d="M294.15,853.05l14.53-.09c-.14,3-.12,5.93,4.2,5.63.68,2.47-1.29,5.7,2.11,7.39l0,0,1,1,0,0,1,1,0,0,1,1,0,0a1.64,1.64,0,0,0,2,1l.06,0a3.52,3.52,0,0,1,2.16,3.5c-.08,13.3,0,26.6,0,40.24H221.23V858.28h12.08c1.33-2,.7-3.73,1-5.32l13.7,0c1.49,1.64,3.44.88,5.17.89,11.81.08,23.62,0,35.43.1,1.56,0,4.34-1.19,4,3.38H248.69l.06,1h45.4Z"/><path class="cls-4" d="M336,851.93v-104c-4.17-1.86-8.48,0-12.93-1.44V735c-2.36-1.54-4.41-1-6.34-1-25.33,0-50.66,0-76-.06-1.92,0-4,.71-5.72-.93.33-11.12-.66-22.26.58-33.35,0-.24.79-.41,2-1,1.34,10.44,0,20.62.85,31h97.39V704.24c0-1.16,0-2.33.07-3.49s.8-1.72,2-1.73,2,.38,2.09,1.61a22.93,22.93,0,0,1,.11,2.49Q340,777.57,340,852L339,852V700.71l-1.79-.05v5.09q0,41.65-.07,83.32,0,31.45-.08,62.92ZM324.39,746c3.8-.44,7.07.51,10.36-.7,0-3.74.72-7.3-.47-10.91-3.44,0-6.69-.7-9.89.46Z"/><path class="cls-2" d="M429.84,92.15q0,6.38,0,12.74H404.08a58.22,58.22,0,0,1,.07-12.74Z"/><path class="cls-2" d="M404,78.94h25.35c1.11,4.07.54,8,.44,11.86H404.24A50.69,50.69,0,0,1,404,78.94Z"/><path class="cls-2" d="M337,852q0-31.46.08-62.92,0-41.66.07-83.32v-5.09l1.79.05V852A1.62,1.62,0,0,1,337,852Z"/><path class="cls-4" d="M283.9,78.9V92.41c-4.42,1.36-8.8.07-13,.89C269.35,95,270,97.12,270,99c0,21.43,0,42.86,0,64.29,0,2-.22,4-.33,5.95l-1.7-.32q0-45.46,0-90.91a3.1,3.1,0,0,1,3,.94c.06,4.19-.66,8.44.49,12.6h11.45V79.06A9.61,9.61,0,0,1,283.9,78.9Z"/><path class="cls-2" d="M282.94,79.06V91.57H271.49c-1.15-4.16-.43-8.41-.49-12.6Z"/><path class="cls-4" d="M404,78.94a50.69,50.69,0,0,0,.25,11.86h25.54l.06,1.35H404.15a58.22,58.22,0,0,0-.07,12.74h25.78c.3.78.61,1.55.91,2.33H401.89V78.12A2.14,2.14,0,0,1,404,78.94Z"/><path class="cls-4" d="M569,755c1.83,1.13,1.13,3,1.14,4.5,0,7.1,0,14.21-.06,21.31-1.41,1.71-3.38,1.13-5.09,1-8-.46-16.05,1.18-24-.87V753.85c9.58.77,18.84-1.36,28,1.18H542.46v24.65h26.09A9.05,9.05,0,0,0,569,778C569,770.3,569,762.63,569,755Z"/><path class="cls-4" d="M702,315c-4.29,1.95-8.81.61-13.22.82-5.15.26-10.32.13-15.48,0-1.79,0-4.44.87-4.32-2.46s2.79-2.21,4.53-2.24C683,311,692.5,311,702,311v2H670.69v1H702A2.59,2.59,0,0,1,702,315Z"/><path class="cls-2" d="M208,781,208,770c3.86.17,7.79-.67,11.58.57v9.76c-.6.27-.89.52-1.18.52C214.91,780.92,211.47,780.94,208,781Z"/><path class="cls-4" d="M529.3,228.39c-1.39,4.27.32,8.82-1.18,13.61H515c0-.34,0-.68,0-1,3.91-.19,7.87.57,12.15-.64-.77-3.52,1.11-7.14-1.29-10.54-3.67,1.48-.74,5.18-3.23,7.21h-7.5c-1.95-2.69-.88-5.53-.68-8.6A75.1,75.1,0,0,1,529.3,228.39Zm-7.66,7.22c.74-6.05.59-6.19-5.22-5.16a5.85,5.85,0,0,0,0,5.1A7.26,7.26,0,0,0,521.64,235.61Z"/><path class="cls-4" d="M374.05,740l16.44,0c6.68,0,6.86.22,6,7.31-2,1.54-4.52.13-6.78,1.1-1.61,1.65,0,4.16-1.72,6.6H374.1A25.66,25.66,0,0,1,374.05,740Zm1.22,13.73c4.45.18,8.35.63,12.16-.24,1.82-12.53-.72-14.9-12.16-11.53Zm19.44-7.21c.59-5.82.23-6.12-5.42-4.67-.39,1.59-.67,3.17.26,4.71A7.62,7.62,0,0,0,394.71,746.51Z"/><path class="cls-4" d="M626.35,228.45V248c-2.89,1.51-5.19.92-7.43.81-1.82-1.79-.2-4.29-1.62-6.48l-5.69-.6c-1.37-4.44.15-9-.93-13.36A76,76,0,0,1,626.35,228.45Zm-13.74,12.32c4.18.25,8.06.57,12.14-.19.14-3.63.7-7-.35-10.31C610.47,229.4,611.52,228.39,612.61,240.77Zm6.71,1.89c-.22,1.87-.7,3.5.47,5,1.63.33,3.23.65,4.78-.31a6.22,6.22,0,0,0-.25-5A7.57,7.57,0,0,0,619.32,242.66Z"/><path class="cls-4" d="M354.07,93.1H339.52c-1.1-5.25-.38-10-.57-14.81,5.34-2,10.71-1.4,16.09-.24C354.31,83,355.9,88.18,354.07,93.1Zm-1.21-13.68H340.35V91.63c4.35.21,8.39.69,12.51-.31Z"/><path class="cls-2" d="M315.12,858.58a14.68,14.68,0,0,1,6.63,0c.81,3.31.31,6.73.32,10.11,0,1.31-.93,1.54-2,1.33l-.06,0c-.31-1-1.11-1-2-1l0,0-1-1,0,0-1-1,0,0-1-1,0,0C315,863.52,315.08,861.05,315.12,858.58Z"/><path class="cls-2" d="M515.14,237h7.5c2.49-2-.44-5.73,3.23-7.21,2.4,3.4.52,7,1.29,10.54-4.28,1.21-8.24.45-12.15.64Z"/><path class="cls-4" d="M263,78.11c-.55,4.62,1.11,9.41-1,13.9V79.41h-11.6V92H262c-4.05,2.23-8.26.6-13.06.92V78.23A21,21,0,0,1,263,78.11Z"/><path class="cls-4" d="M208,781c3.45,0,6.89-.06,10.34-.13.29,0,.58-.25,1.18-.52v-9.76c-3.79-1.24-7.72-.4-11.58-.57a2,2,0,0,1-.87-2.06c3.64,0,7.29.12,10.93.09,2,0,3,.8,3,2.93-.06,3.45,0,6.89,0,10.51-4.65,1-8.9.58-13.14.41A5.44,5.44,0,0,1,208,781Z"/><path class="cls-4" d="M843,647c7.51,2.05,11.95-3,16.76-7.23.15.64.3,1.28.44,1.91-2.51,1.13-3.9,3.51-5.88,5.24-3.06,2.69-8.44,2.73-11.26,0Z"/><path class="cls-2" d="M702,314h-31.3v-1H702C702,313.33,702,313.66,702,314Z"/><path class="cls-3" d="M315.12,858.58c0,2.47-.09,4.94-.13,7.4-3.4-1.69-1.43-4.92-2.11-7.39Z"/><path class="cls-4" d="M367.13,672.07c-.08-.67.21-1,.89-1Z"/><path class="cls-1" d="M652.92,461.06c.79,1.18,2,1,3.17,1h32.08V350.19h55.56V461.75H717.24v76.14l6.21.47V635.3h-188V608.59H563v-52.8H539c-2.23,0-4.65.23-3.37-3.89H569V504h-12.3v-.92h11.71c.37-7.94.88-15.53,1-23.12,0-2.85,1.12-4.69,2.78-7,7-9.59,16.13-12.1,27.64-11.26,12.59.93,25.31.1,38,0,1.24.42,2.2-.29,3.2-.82h11A3.82,3.82,0,0,0,652.92,461.06Z"/><path class="cls-1" d="M429.73,440.34h-55.5v28.19H333.12V434.14h-50c0,7.18-.22,14.3.09,21.4.16,3.68-.86,6.38-3.69,8.65a21.16,21.16,0,0,0-4.56,4.6c-4.13,6.25-10.21,6.5-16.72,6a6,6,0,0,1-3.79-2c-11.32-10.5-11.32-10.49-11.32-25.89V405.53H203.4c-1.25,4.31.56,9.18-1,13.5l-1.69-.09V378.08H180.35a14.85,14.85,0,0,1,0-7.83H304.61v-54.8H360V303c0-.35-.07-.71-.1-1.07q.33-3.17.67-6.37c2-.86,4-.63,6.37-.14v61.53h56.48c1.38-4.33-.18-9.05.95-13.76h12.77c.16,3.6.43,7,.44,10.47,0,17,0,34,0,51,0,1.81.21,3.63.33,5.45.11.4.23.8.34,1.2q0,5.25,0,10.5L438,423c0,.67.05,1.35.07,2a7.6,7.6,0,0,0-.16.83c-2,3.55-.55,7.38-.82,11.07-.15,2-.11,3.66-2.75,3.51Z"/><path class="cls-1" d="M640,398.11l-155.48.13H472.22v-34h20.63V309.12H437.7v12.54a62.35,62.35,0,0,1-13.64.25V239.69c-4.95-1.24-9.64-.06-14.42-.84-1-2.51-.52-5.11-.29-8.33h21.32V165.34h34v85.44H444.51v36h61.93c1.24-2.93-.05-6,.9-9,2.14-1,4.38-.67,7.27-.09v23.2H529.1c12,0,24,0,36,0,1.78,0,3.67.53,5.33-.65A.62.62,0,0,0,571,300l12-.06a2,2,0,0,0,.84.17c1.57,1.42,3.49.74,5.24.75,15,.06,29.91,0,44.86.06,1.78,0,3.64-.43,5.38.49.91,1.74.48,3.59.48,5.38,0,24.26,0,48.52.06,72.78,0,1.87-.84,4,1.06,5.59a3.39,3.39,0,0,0,0,.71c-.09,3.7-.19,7.4-.28,11.11Z"/><path class="cls-1" d="M316,601.9H299.85c-1.35-2.43-.87-4.37-.64-6.79H345.5c1.9-1.83,1.31-3.6,1.32-5.19.05-13.82-.05-27.64.1-41.47a8.92,8.92,0,0,0-2.95-6.94c-5.38-5.43-11.22-10.43-15.84-16.57a10.28,10.28,0,0,0-9.86-4.43c-2.72.24-5.86,1.16-9.6-2H374V552c14.76-.7,28.95,1,43.12-.92l1-.22c3.94.1,7.89.6,11.79-.33.95,1.91,2.63,1.5,4.23,1.31H513c1.61,3.66-.38,4-2.83,4-7.46,0-14.92,0-22.67,0V629h19.18v40.77H487.34v70.54c-4.63.85-4.63.85-5.47-6.75H423.39V691.33h20.52v-76H374.09v26.35c-2.24,1.4-4.17,1-6.34.54-1.35-3.3,0-6.86-.79-10.22l0-1.13a18.05,18.05,0,0,0-.25-7.86h-6.61l-2.14,0h-20.8v-20.9c-5.67-.92-10.94-.3-16.17-.47A4.08,4.08,0,0,0,316,601.9Z"/><path class="cls-1" d="M180.1,579.9h20.43V448.22l1.94,0v54.68h66.15v14c3.28,1.8,6.51,0,9.5,1.65-1.33,3.66-4.42,1.75-6.6,2a67,67,0,0,1-8.32.08v73.75c4.27,1.22,8.81-.11,13.27.76,1.21,1.83.67,3.77.4,6.29h-29.7v34.35H207.24c-.17,2.48-.31,4.4-.45,6.34-2.18.86-4.09.48-6.53.15V608.34H179V580Z"/><path class="cls-1" d="M267.94,168.94l1.7.32c0,15.94,0,31.88,0,47.23,1.33,1.68,2.57,1.42,3.69,1.42q39.14,0,78.28,0a23,23,0,0,0,2.47-.25l5.54.48c1.49,3.81-.3,7.93,1.27,12.18h20.31c1,3,.61,5.54.46,8.62H367v22.69c0,2.16-.15,4.33,0,6.48.39,4.5-1.74,5.59-5.7,4.57-1.43-1.59-.56-3.55-1-5.27,1-3.06.3-6.23.51-9.33.3-4.4-1.33-6.65-6-6l-39.8-.06a6.23,6.23,0,0,0-4.2,1c-6.26,4.77-13.21,8.58-19.08,13.9l-1,.21-6.76,0L283,267c-3.93-.89-7.87-.51-11.85-.19-1,3.1-.18,6.13-.63,9.06l-1.76.43c-2.42.14-3.09-1.1-3-3.36.14-3.8,0-7.61,0-11.59l-5.29-1.13c2.85-1.74,2.37-4.08,2.37-6.29q0-39.42,0-78.82v-5.26C264.63,168.48,266.37,169.27,267.94,168.94Z"/><path class="cls-1" d="M255.13,329.91c-1.5-1.63-3.45-.85-5.18-.85q-32.49-.09-65,0h-5.76v-69.8h51.63c-.51,1.78-2.32,2.51-2.29,4.62.21,14,.13,28,.17,42a8.59,8.59,0,0,0,.64,1.95c11.15,0,22.43,0,33.72,0,2.29,0,2.74-1.32,2.72-3.24-.05-3.5.13-7-.06-10.49-.13-2.49,1-3.29,3.2-3.11l1.58.18c.16,2,.33,3.91.49,5.87q0,.5,0,1c-.11,8.57-.19,17.15-.37,25.72,0,1.76.58,3.64-.64,5.27l-2,1-11.93.11C255.76,330,255.44,330,255.13,329.91Z"/><path class="cls-4" d="M434.16,551.83c-1.6.19-3.28.6-4.23-1.31-.63-3.35.6-6.89-.84-10.3-3.7,0-7.29-.73-10.95.53v10.1l-1,.22V539.51c3-1.11,6-.32,8.95-.6,1.63-.16,3.92.82,4.09-2.18s-1.89-2.55-3.71-2.64c-.64,0-1.28-.18-2.15-.31-.74-4.65-.36-9.24-.25-13.61,1.66-1.74,3.79-.54,5.46-1.6,1.1-1.17.55-2.75.7-4.18s-.37-3.35,1.88-3.37,1.74,1.94,1.9,3.33c.07.66.16,1.31.27,2.14,3.94,1.52,8.21-.12,12.48,1.13.8,4.23.36,8.47.23,12.91-4.08,1.36-8.31-.06-12.79,1.07Zm.09-32.6c-.11,3.66-.52,7,.28,10.48H445.8c.17-3.65.57-7-.28-10.48Zm-8.95,13.52c2,0,3.7.8,5.41-.69.06-3.6.69-7.21-.46-10.86-1.75-.18-3.35-.7-4.95.4Z"/><path class="cls-4" d="M641,461c-1,.53-2,1.24-3.2.82V426.47H542.26v34.84h-1v-36h97.65v22.57H652.5c1.07,4.66.64,8.92.42,13.18A3.82,3.82,0,0,1,652,461c-.19-3.86.66-7.79-.56-11.54H641Z"/><path class="cls-4" d="M316,601.9a4.08,4.08,0,0,1,4.92-.18c0,4.66.05,9.32-.17,14-.13,2.91.33,5.55-2.21,8.52-1.95,2.29-.76,7.26-1,11.42h-50.1V615.77l1-.1v18.85H316Zm2.07,19.24.51-.12V602.94l-.51,0Z"/><path class="cls-4" d="M354.93,252.05c4.65-.63,6.28,1.62,6,6-.21,3.1.53,6.27-.51,9.33-12.14-.93-24.3-.13-36.44-.43-1.75-.05-3.61.54-6.62-1.46h38.31c-1.19-2.82-4-2.41-4.68-4.53,2.5-.83,6.1,4.49,7.92-1.71-2.35.23-3.91-1.46-6.05-2-.69,1.4-1.26,2.57-1.83,3.74C349.27,256.7,352.66,254.62,354.93,252.05Z"/><path class="cls-4" d="M429.73,440.34l4.57,0c-.11,12.62-.19,25.25-.4,37.87,0,1.55,1.14,4.31-1.73,4.28-2.58,0-1.95-2.64-1.95-4.34-.06-10.81,0-21.61-.05-32.42C430.16,444,429.88,442.15,429.73,440.34Z"/><path class="cls-4" d="M270.38,711.16c11.31,0,22.25-.18,33.18.1,4.32.11,5.78-1,5.69-5.56s-.92-6.79-6-6.66A217,217,0,0,1,272.89,698h29.45c8.56,0,8.26,0,8.66,8.53.24,5.15-1.57,6.68-6.53,6.53-9.64-.29-19.29-.07-28.94-.1C273.8,712.94,271.86,713.37,270.38,711.16Z"/><path class="cls-4" d="M437.87,425.8A7.6,7.6,0,0,1,438,425H507.7v36.1l-.6,0V425.8Z"/><path class="cls-4" d="M180.1,579.9,179,580V502.71h1.12Z"/><path class="cls-4" d="M771,576c-4.9-4.45-5.16-11-.61-15.55s11.05-4.3,15.58.58l0,0c-2,.26-3.43-1.09-5.15-1.61a9.42,9.42,0,0,0-11.82,10.56c.39,2.11,2.15,3.8,1.91,6.11Z"/><path class="cls-4" d="M640,398.11l.63-1.11h11.2c.08-3.88.56-7.25-.35-11.11H640.92a3.39,3.39,0,0,1,0-.71,49.66,49.66,0,0,1,12.42.05c.93,3.77.41,7.42.42,11a2.26,2.26,0,0,1-2.46,2.54C647.51,398.59,643.67,399.74,640,398.11Z"/><path class="cls-4" d="M271,298q0-.5,0-1c3.86-.45,7.83.52,12-.74V267l1.13.14c.15,2.45-.44,5,.54,7.65,1.91.17,3.81.65,6.22-.47v-7.2l1-.21v8.35c-.33.28-.56.63-.83.66-6.91.73-6.9.72-6.91,7.92q0,6.24-.09,12.49a5.55,5.55,0,0,1-.37,1.23C279.55,298.6,275.24,297.86,271,298Z"/><path class="cls-4" d="M268,330l2-1v13.56c-5.14.85-9.71.5-14.53.29-.94-4.39-.56-8.65-.31-12.91.31,0,.63.09.94.16.25,3.85-.64,7.79.63,11.66,3.81.08,7.38.56,11.3-.39Z"/><path class="cls-4" d="M520,501c-3.35-.55-3.17-3-2.56-5.29.73-2.72,2.42-4.68,5.59-4.68,2.92,0,5.16,1.16,6.18,4,.93,2.54.82,4.86-2.24,6l0,0a18.69,18.69,0,0,0,.87-3.3c.25-2.95-1.17-4.79-4.17-4.88-3.21-.1-4.88,1.64-4.64,4.9A18.13,18.13,0,0,0,520,501Z"/><path class="cls-4" d="M359.92,301.91c0,.36.06.72.1,1.07H318.85v-1.07Z"/><path class="cls-4" d="M438.31,411.25c-.11-.4-.23-.8-.34-1.2h13.54c1.07,4.24.59,8.27.34,12.54-4.73.86-9.32.36-13.89.36.12-.4.24-.8.35-1.2,4.1.07,8.23.59,12.28-.31V411.25Z"/><path class="cls-4" d="M571,300a.62.62,0,0,1-.55.22c-.75-4.1-.36-8.21-.21-12.88a61.59,61.59,0,0,1,13.38-.12,52.1,52.1,0,0,1,.2,12.89A2,2,0,0,1,583,300c-.27-3.86.58-7.81-.66-11.9-3.7.19-7.26-.48-11.32.56Z"/><path class="cls-4" d="M131,438c4,2.52,2.26,5.75.08,7.71s-5.78,3.73-8-.74l0,0c7.09,1.92,8.52.67,8-7Z"/><path class="cls-4" d="M270.52,291.12l-1.58-.18a89.45,89.45,0,0,0-.18-14.64l1.76-.43A60.34,60.34,0,0,1,270.52,291.12Z"/><path class="cls-4" d="M786,561c4.34,4.79,4.35,10.43,0,14h0c2.67-4.67,1.33-9.35,0-14Z"/><path class="cls-4" d="M785,576c-3.55,4.33-9.27,4.32-14,0l0,0c4.68,1.34,9.36,2.65,14,0Z"/><path class="cls-4" d="M838,631c0,3.68,0,7.35,0,11L838,642c-2.85-2.72-2.86-8.15,0-11Z"/><path class="cls-4" d="M854,626l-11,0,0,0c2.81-2.8,7.53-2.8,11,0Z"/><path class="cls-4" d="M123,438c2.41-4,5-4,7.95,0l0,0a9.57,9.57,0,0,0-8,0Z"/><path class="cls-4" d="M357.91,623.09l2.14,0c-.86,3,.47,5.51,1.94,8v0C357.46,630,358.34,626.21,357.91,623.09Z"/><path class="cls-4" d="M527,501c-2.33,3.18-4.65,3.28-7,0l0,0c2.35,1.11,4.69.31,7,0Z"/><path class="cls-1" d="M557.11,489.37h9.77v.31h-9.81Z"/><path class="cls-4" d="M123,445c-3.14-2.33-3.29-4.65,0-7l0,0a9.54,9.54,0,0,0,0,7Z"/><path class="cls-4" d="M265,703c.35-3.29,3.2-3,5.6-3.25L265,703Z"/><path class="cls-4" d="M366.91,630.91l0,1.13c-1.66-.3-3.61.77-5-1v0Z"/><path class="cls-4" d="M264,704v2l0,0c-.71,0-1.37-.18-1.37-1s.66-1,1.37-1Z"/><path class="cls-4" d="M267,709l1.88,1.18c-1.73.27-1.89-.38-1.85-1.22Z"/><path class="cls-4" d="M786,575a1,1,0,0,1-1,1h0l1-1Z"/><path class="cls-4" d="M842,627a1,1,0,0,1,1-1l0,0-1,1Z"/><path class="cls-4" d="M843,647l-1-1,0,0c.33.34.67.67,1,1Z"/><path class="cls-4" d="M264,704l1-1L265,703l-1,1Z"/><path class="cls-4" d="M264,706l1,1,.06,0-1-1Z"/><path class="cls-4" d="M265,707l1,1,.06,0-1-1Z"/><path class="cls-4" d="M266,708l1,1,0,0a1,1,0,0,1-1-1Z"/><path class="cls-4" d="M842,646c-.33-.34-.66-.67-1-1l0,0c.33.34.67.67,1,1Z"/><path class="cls-4" d="M841,645c-.33-.34-.66-.67-1-1l0,0c.33.34.67.67,1,1Z"/><path class="cls-4" d="M858,630l.41.44c-.09,0-.22-.05-.26-.11A1.24,1.24,0,0,1,858,630Z"/><path class="cls-4" d="M839,630l-1,1,0,0a1,1,0,0,1,1-1Z"/><path class="cls-4" d="M857,629c.33.34.66.67,1,1L858,630l-1-1Z"/><path class="cls-4" d="M840,629l-1,1,0,0a1,1,0,0,1,1-1Z"/><path class="cls-4" d="M856,628c.33.34.66.67,1,1L857,629l-1-1Z"/><path class="cls-4" d="M840,629a1,1,0,0,1,1-1l0,0-1,1Z"/><path class="cls-4" d="M856,628l-1-1L855,627c.33.34.66.67,1,1Z"/><path class="cls-4" d="M839,643l-1-1L838,642c.33.33.66.67,1,1Z"/><path class="cls-4" d="M841,628a1,1,0,0,1,1-1l0,0-1,1Z"/><path class="cls-4" d="M839,643c.33.34.67.68,1,1l0,0c-.33-.34-.67-.68-1-1Z"/><path class="cls-4" d="M855,627l-1-1L854,626c.33.34.67.68,1,1Z"/><path class="cls-2" d="M271.83,790c4.71,1,8.23-1.44,11.72-4,4,2.64,8.82-.1,13.32,1.86,0,1.8.09,3.61,0,5.41s.57,3.66-.65,5.21c-3.53,1.28-7.44-.93-10.71,1.51-3.79,4.3-8.89,2.68-13.56,3Q271.89,796.49,271.83,790Z"/><path class="cls-4" d="M294.15,853.05v5.38h-45.4l-.06-1h43.87c.36-4.57-2.42-3.37-4-3.38-11.81-.1-23.62,0-35.43-.1-1.73,0-3.68.75-5.17-.89,1-1.27,2.37-1,3.66-1h38.84C291.79,852,293.17,851.84,294.15,853.05Z"/><path class="cls-4" d="M285.49,800c3.27-2.44,7.18-.23,10.71-1.51,1.22-1.55.54-3.45.65-5.21s0-3.61,0-5.41c-4.5-2-9.29.78-13.32-1.86,1.49,0,3-.1,4.48,0,11.66.32,9.76-2.44,10.08,10.3.08,3.21-1.31,4-4.16,3.84S288.31,800,285.49,800Z"/><path class="cls-4" d="M271.83,790q0,6.48.1,13C269.22,800.22,269.15,791.42,271.83,790Z"/><path class="cls-4" d="M297.93,196.64V183.32c1.58-1.63,3.15-1.24,4.6-1.25,11,0,21.91.13,32.85-.09,3.79-.08,5.05,1.16,4.73,4.85-.28,3.1-.06,6.26-.06,9.81Zm1.37-1h39.31v-11.3H299.3Z"/><path class="cls-4" d="M322.32,113c-1.51,5.52,2.17,10.71-2.92,15.36-1.53,1.41-.57,5.75-.41,8.73s-1.06,4.33-4.06,4a8.34,8.34,0,0,0-1,0c-10.36.1-11.4-1.09-9.82-11.41.09-.64.17-1.72.5-1.82,5.71-1.81,3.21-6.54,3.3-10s1-5.24,4.81-4.86C315.51,113.2,318.34,113,322.32,113Zm-1.66,1.43a39.65,39.65,0,0,0-10.34.1,43,43,0,0,0-.1,11.23c3.7.12,7.08.62,10.53-.34A45,45,0,0,0,320.66,114.4Zm-14.44,13.93c-.26,4-.6,7.54.23,11.19h10.18a45.09,45.09,0,0,0,.16-11.19Z"/><path class="cls-3" d="M318,869c.84-.06,1.64,0,2,1A1.64,1.64,0,0,1,318,869Z"/><path class="cls-3" d="M315,866l1,1Z"/><path class="cls-3" d="M316,867l1,1Z"/><path class="cls-3" d="M317,868l1,1Z"/><path class="cls-2" d="M324.39,746V734.89c3.2-1.16,6.45-.5,9.89-.46,1.19,3.61.49,7.17.47,10.91C331.46,746.55,328.19,745.6,324.39,746Z"/><path class="cls-2" d="M569,755c0,7.66,0,15.33,0,23a9.05,9.05,0,0,1-.41,1.72H542.46V755H569Z"/><path class="cls-2" d="M521.64,235.61a7.26,7.26,0,0,1-5.18-.06,5.85,5.85,0,0,1,0-5.1C522.23,229.42,522.38,229.56,521.64,235.61Z"/><path class="cls-2" d="M375.27,753.72V742c11.44-3.37,14-1,12.16,11.53C383.62,754.35,379.72,753.9,375.27,753.72Z"/><path class="cls-2" d="M394.71,746.51a7.62,7.62,0,0,1-5.16,0c-.93-1.54-.65-3.12-.26-4.71C394.94,740.39,395.3,740.69,394.71,746.51Z"/><path class="cls-2" d="M612.61,240.77c-1.09-12.38-2.14-11.37,11.79-10.5,1.05,3.3.49,6.68.35,10.31C620.67,241.34,616.79,241,612.61,240.77Z"/><path class="cls-2" d="M619.32,242.66a7.57,7.57,0,0,1,5-.31,6.22,6.22,0,0,1,.25,5c-1.55,1-3.15.64-4.78.31C618.62,246.16,619.1,244.53,619.32,242.66Z"/><path class="cls-2" d="M352.86,79.42v11.9c-4.12,1-8.16.52-12.51.31V79.42Z"/><path class="cls-2" d="M262,92H250.39V79.41H262V92Z"/><path class="cls-2" d="M641,461V449.44h10.39c1.22,3.75.37,7.68.56,11.54Z"/><path class="cls-2" d="M438.31,411.25h12.28v10.19c-4,.9-8.18.38-12.28.31Z"/><path class="cls-2" d="M571,300v-11.4c4.06-1,7.62-.37,11.32-.56,1.24,4.09.39,8,.66,11.9Z"/><path class="cls-2" d="M640.92,385.89h10.57c.91,3.86.43,7.23.35,11.11h-11.2C640.73,393.29,640.83,389.59,640.92,385.89Z"/><path class="cls-2" d="M418.14,550.85v-10.1c3.66-1.26,7.25-.49,10.95-.53,1.44,3.41.21,6.95.84,10.3C426,551.45,422.08,551,418.14,550.85Z"/><path class="cls-2" d="M366.91,630.91,362,631c-1.47-2.45-2.8-4.94-1.94-8h6.61A18.05,18.05,0,0,1,366.91,630.91Z"/><path class="cls-2" d="M270.52,291.12a60.34,60.34,0,0,0,0-15.25c.45-2.93-.41-6,.63-9.06,4-.32,7.92-.7,11.85.19v29.25c-4.16,1.26-8.13.29-12,.74C270.85,295,270.68,293.08,270.52,291.12Z"/><path class="cls-2" d="M290.89,267.12v7.2c-2.41,1.12-4.31.64-6.22.47-1-2.69-.39-5.2-.54-7.65Z"/><path class="cls-2" d="M268,330v11.38c-3.92,1-7.49.47-11.3.39-1.27-3.87-.38-7.81-.63-11.66Z"/><path class="cls-2" d="M434.25,519.23h11.27c.85,3.47.45,6.83.28,10.48H434.53C433.73,526.25,434.14,522.89,434.25,519.23Z"/><path class="cls-2" d="M425.3,532.75V521.6c1.6-1.1,3.2-.58,4.95-.4,1.15,3.65.52,7.26.46,10.86C429,533.55,427.26,532.8,425.3,532.75Z"/><path class="cls-2" d="M318.09,621.14V603l.51,0V621Z"/><path class="cls-2" d="M351,261c.57-1.17,1.14-2.34,1.83-3.74,2.14.53,3.7,2.22,6.05,2-1.82,6.2-5.42.88-7.92,1.71Z"/><path class="cls-2" d="M786,575l-1,1c-4.67,2.67-9.35,1.36-14,0,.24-2.31-1.52-4-1.91-6.11a9.42,9.42,0,0,1,11.82-10.56c1.72.52,3.18,1.87,5.15,1.61C787.34,565.65,788.68,570.33,786,575Z"/><path class="cls-2" d="M527,501c-2.34.32-4.68,1.12-7,0a18.13,18.13,0,0,1-.91-3.29c-.24-3.26,1.43-5,4.64-4.9,3,.09,4.42,1.93,4.17,4.88A18.69,18.69,0,0,1,527,501Z"/><path class="cls-2" d="M123,445a9.54,9.54,0,0,1,0-7,9.57,9.57,0,0,1,8,0C131.51,445.68,130.08,446.93,123,445Z"/><path class="cls-2" d="M299.3,195.63v-11.3h39.31v11.3Z"/><path class="cls-2" d="M320.66,114.4a45,45,0,0,1,.09,11c-3.45,1-6.83.46-10.53.34a43,43,0,0,1,.1-11.23A39.65,39.65,0,0,1,320.66,114.4Z"/><path class="cls-2" d="M306.22,128.33h10.57a45.09,45.09,0,0,1-.16,11.19H306.45C305.62,135.87,306,132.32,306.22,128.33Z"/></svg>