<svg id="Layer_1" data-name="Layer 1" xmlns="http://www.w3.org/2000/svg" viewBox="0 0 1000 1000"><defs><style>.cls-1{fill:#fefefe;}.cls-2{fill:#7f7f7f;}.cls-3{fill:#a5a28a;}.cls-4{fill:#c5c5c5;}</style></defs><path class="cls-1" d="M1000,1000H0V0H1000ZM315,858h-6v-5h9a90.38,90.38,0,0,1,9.46.07c3,.32,5.62-1.59,8.57-1.07h4c-.08,1,.61,1,1.29,1H367V672a.85.85,0,0,0,1-1h6v69a.76.76,0,0,0-1,.79q0,6.71,0,13.42a.76.76,0,0,0,1,.79v19.82H482V769.2h5V781H541a.76.76,0,0,0,.79,1q13.71,0,27.42,0a.76.76,0,0,0,.79-1h56.14V678h233.1a.77.77,0,0,0,.42-.17,2.26,2.26,0,0,0,.34-.35V615H966.24a.77.77,0,0,0,.42-.17c.14-.09.23-.23.16-.15V576.44L941,554.79h-6V521.13c0-1.46.41-3.07-1.84-4.13H836.79a.75.75,0,0,1-.43-.15,1.88,1.88,0,0,1-.36-.33V510c-.38-1,.93-2.53-1-3V443.52c0-10.66.17-21.32,0-32s.57-21-.78-31.6c-.88-6.83-.17-13.87-.17-21H816.11V301.61l-1.46-1.46H744c0,2.63,0,5.1,0,7.58a48.88,48.88,0,0,1-.18,7.27H702V228H514v12.71c0,.68,0,1.37,1,1.29v9.9h-8V113H493.17V92c2.48,0,4.79,0,7.1,0s4.54.28,6.55-.19V47.15c-16.44-.6-37.79-.39-42,.44V130H431.77a.79.79,0,0,1-.43-.16,2.26,2.26,0,0,1-.34-.35V107c-.33-.67-.67-1.33-1-2V79H404c-.09-1.5-1.24-.85-2-1H355c-1,.07-1.36-1.1-2.52-1.06-4.24.15-8.48,0-12.72.08a.76.76,0,0,0-.76,1H320.1c-11.27,0-22.55,0-33.82,0-.8,0-2.11-.7-2.28,1H271c-.47-1.93-2-.62-3-1h-5a.76.76,0,0,0-.78-1q-6.23,0-12.44,0a.76.76,0,0,0-.78,1H229.5l-1.58,1.59V225.1h-85v103H131.17V370H142.8c2,2.57,1,5.3,1.12,8.12H41.2c-.69,14-.42,120.66.34,125H144V682.52l1.26,1.26h54.84V671.25H207V768c.15.76-.5,1.91,1,2v12c-1.94.61-.94,2.21-.95,3.29q-.11,32,0,63.94c0,1.25-.49,2.63.44,3.77H234v5H221.18v55.74H321.85V871.34c-.67-.6-2,0-1.85-1.34.61-.13,1.33.31,2-.53,0-1.79,0-3.76,0-5.73s-.08-3.85-.12-5.74Z"/><path class="cls-2" d="M541,781H487.07V769.2h-5v5.62H374V755h14.74c.68-2.51-.28-4.86.65-7.18h7.51V740H374V671h-6a.85.85,0,0,0-1,1V853H341.29c-.68,0-1.37,0-1.29-1V699.21c-1.53-.25-2.79-.46-4.15.3v30.25h-98V699.09H235V733H207V671.25h-6.88v12.53H145.28L144,682.52V503.17H41.54c-.76-4.37-1-111.06-.34-125H143.92c-.12-2.82.91-5.55-1.12-8.12H131.17V328.15h11.71v-103h85V79.59L229.5,78H249V93h11.71c.68,0,1.37,0,1.29-1,1.34,0,1-1,1-1.74,0-4.09,0-8.17,0-12.26h5v91h-5.13v89.91c-1.4,0-2.24.3-1.72,1.81,1.43.86,3.2-.3,4.85.71,0,2.36,0,4.83,0,7.3a51.78,51.78,0,0,0,.17,7.27H269v15c-.95.13-2-.31-3,.46V307c-4,2-8.14.7-12.13.94-4.15.24-8.33.05-12.49.05H229.14V261.27l1.88-.65c-.1-.56.2-1.11-.37-1.45-14.29-.62-47.5-.39-51.48.32V329h74.54c.68,0,1.37,0,1.29,1v13c2.8,0,5.28,0,7.75,0s4.88.24,7.25-.18V329c1.66-.17,1-1.47,1-2.27,0-9.57,0-19.15,0-28.73h13.06V277.44l1.49-1.49H292V267c6.4-5.52,13.84-9.64,20.61-15h40.61c.72,0,1.77-.38,1.78,1-.6.12-1.32-.31-1.81.32a14.59,14.59,0,0,0-3.17,6.45c-.12.66.05,1.3,1,1.23.63,2.52,3.6,1.95,5.06,4h-38v2H361v4.9h6V239h14.82v-7.6l-1.5-1.5H360c0-2.14,0-4.11,0-6.08s-.08-3.87-.12-5.78H354V93c1.34,0,1-1,1-1.75,0-4.41,0-8.83,0-13.25h47v29h29v22.48a2.26,2.26,0,0,0,.34.35.79.79,0,0,0,.43.16h33.06V47.59c4.2-.83,25.55-1,42-.44V91.8c-2,.47-4.3.12-6.55.19s-4.62,0-7.1,0v21H507V251.9h8V242h14V228h82v13.74c2.51.68,4.86-.28,7.18.65v6.51H626V228h76v83H669.21v5c10.48,0,20.74,0,31,0,.72,0,1.77.38,1.78-1h41.81a48.88,48.88,0,0,0,.18-7.27c0-2.48,0-5,0-7.58h70.65l1.46,1.46V359H834c0,7.12-.71,14.16.17,21,1.35,10.56.57,21.07.78,31.6s0,21.32,0,32V507c-1.85.73-.89,1.91-.58,3H836v6.51a1.88,1.88,0,0,0,.36.33.75.75,0,0,0,.43.15h96.37c2.25,1.06,1.83,2.67,1.84,4.13v33.66h6l25.83,21.65v38.23c.07-.08,0,.06-.16.15a.77.77,0,0,1-.42.17H860v25a2.54,2.54,0,0,0-2.22.67c-2,2.19-4.17,4.27-6.21,6.33H843a.85.85,0,0,0-1-1,.85.85,0,0,0-1-1,.85.85,0,0,0-1-1,.85.85,0,0,0-1-1,.85.85,0,0,0-1-1V631a.85.85,0,0,0,1-1,.85.85,0,0,0,1-1,.85.85,0,0,0,1-1,.85.85,0,0,0,1-1,.85.85,0,0,0,1-1h11a.85.85,0,0,0,1,1,.85.85,0,0,0,1,1,.85.85,0,0,0,1,1,.85.85,0,0,0,1,1,.71.71,0,0,0,.6.89c.07,0,.31-.22.29-.29a.71.71,0,0,0-.89-.6.85.85,0,0,0-1-1,.85.85,0,0,0-1-1,.85.85,0,0,0-1-1,.85.85,0,0,0-1-1c0-1-1-1.21-1.42-2-1.6,0-3.24,0-4.87,0s-3.21-.32-4.71.28V626a.85.85,0,0,0-1,1,.85.85,0,0,0-1,1,.85.85,0,0,0-1,1,.85.85,0,0,0-1,1,.85.85,0,0,0-1,1c-.61.13-1.33-.31-1.85.34,0,3.44,0,6.88,0,10.31,0,.13.21.25.3.35H838a.85.85,0,0,0,1,1,.85.85,0,0,0,1,1,.85.85,0,0,0,1,1,.85.85,0,0,0,1,1,.85.85,0,0,0,1,1c.12.61-.29,1.31.42,1.91h9.09c2.63-2.17,4.54-5.1,7.49-6.91v35.47a2.26,2.26,0,0,1-.34.35.77.77,0,0,1-.42.17H626.14V781H570V754H541.76a.84.84,0,0,0-.42.16,2.33,2.33,0,0,0-.34.36ZM265,707a.85.85,0,0,0-1-1v-2a.85.85,0,0,0,1-1c1.3-1,3.49-.9,3.46-2.84,1.18-.34,2.08.3,2.46-.76-.69-.66-1.32-.58-1.92.6-3.34,0-3.59.23-4,3a.85.85,0,0,0-1,1c-.61.12-1.31-.3-1.84.33-.64,1.94.74,1.65,1.84,1.67a.85.85,0,0,0,1,1,.85.85,0,0,0,1,1,.85.85,0,0,0,1,1v1.5c1.35,1.08,3.27,1.12,4.5,2.5h35.43c1.47,0,3.05.31,4-1.54V699.34a12.71,12.71,0,0,0-5.57-1.39c-10.16.11-20.32,0-30.48.07-.93,0-2-.44-2.84.44.94,1.07,2.16.51,3.22.51q13.74.07,27.47,0c2.26,0,4.51-.16,6.1,1.39V711H280.16c-2.66,0-5.34.15-8-.06-1.68-.13-2.89-1.81-4.67-1.94H267a.85.85,0,0,0-1-1A.85.85,0,0,0,265,707Zm97-76c-.06.89.51,1,1.2,1H367v9.5l1.37,1.37h5.75V615.15H443.8c.65,13,.4,71.72-.34,76H423.1v41.87h59v7.72h5.05V670h13.58c2.11,0,4.21-.06,6.11-.09V629H487.2v-73h25.35c1.38-1.24,2.24-2.37,1-3.93H434V531h12.79V516.91H434.28c-.76-2,.3-4.08-.68-5.89-1.19.08-2.35-.32-3.48.31-.47,2.53.33,5.18-.49,7.86h-5.51v14.9h5.73V539h-6.56c-2.1,0-4.21.07-6.29.1V551c.08,1-.61,1-1.29,1H373.94V518.13H310.28c-.32,1.06-.62,2,.36,3h14.18c4.9,5.28,9.24,10.9,14.48,15.69,2.7,2.46,5.24,5.09,7.48,7.27v51H299.25V602H316v32.77H268.87V615.1h-1.7v20.66h51V623.15l2.85-.31V602H337c.22,7.22-.2,14.13.24,21H358c0,1.12-.08,2.24,0,3.35C358.25,629,359.39,630.28,362,631ZM123,438c-.61.13-1.33-.31-1.74.21V445H123v1.52c1.36.25,2.28,1.66,4.22,1.43.79-1.12,2.6-.64,3.6-1.2,2.64-2.84,2.35-5.76,2-8.75H131v-1.47a7.94,7.94,0,0,0-6.63-1.39C123.48,435.89,122.64,436.66,123,438ZM785,576a.85.85,0,0,0,1-1h1.47c2.47-3.26,1.22-7,1.57-10.49-1.34-1-1-3.25-3-3.51-.67-2.26-2.93-2.72-4.65-4-9.18-1.19-15.55,5.18-14.36,14.36,1.29,1.72,1.75,4,4,4.65.26,2,2.48,1.7,3.51,3,3.46-.35,7.23.9,10.49-1.57ZM520,501c.13.61-.31,1.33.21,1.74H527V501h1.48c2.58-5.48,2.12-6.87-3.12-9.92H520.5c-2.81,2.29-4.08,5-3.47,8.09C517.78,500.68,518.72,501.2,520,501ZM180,580q0-38.73,0-77.46c0-.12-.19-.26-.32-.36-.51-.42-.16.64-.67-1.08V608h20.87v33.35l1.47,1.47h5.44c.66-2.34-.34-4.7.63-7H247V601.94h29.83v-7.06H263.16v-74c4.93,0,9.72,0,14.5,0,.12,0,.23-.22.34-.34-.18-.78.35-1.66-.55-2.53h-8.52V502.9H202.88V448c-1.13.14-2-.29-2.88.48q0,65.22,0,130.74a.89.89,0,0,1-.15.44,2.18,2.18,0,0,1-.33.35ZM641,385c-1.94-.61-1-2.21-1-3.28q-.09-38.14,0-76.3V301H621.69c-11.8,0-23.6,0-35.41,0-.79,0-2.1.7-2.28-1V287c-2.64,0-4.94-.05-7.25,0s-4.55-.26-6.75.22V300c0,1.38-1.07,1-1.79,1-7.5,0-15,0-22.49,0H515.13V278.63l-1.48-1.48H507c0,1.79.05,3.44,0,5.07s.31,3.26-.21,4.61H444.1V251h20.79V165.21h-34v64.73H410.67l-1.48,1.36v7.75h14.88v82.82h14V309.15h54.64v55H472.09V398H640c-.08,1,.59,1,1.27,1H652.5c.57-.56,1-1,1.37-1.37V385ZM360,302H318.54c-.12,0-.26.19-.36.32-.42.51.64.15-1.08.67H360v12H305v55H180.2v8h19.9V419c1.13-.06,2,.31,3.05-.52V405.17H243v56L256.75,475h11.53L283.22,460V434.14h49.91v34.7H374c0-9.46,0-18.77,0-28.07a.79.79,0,0,1,.16-.43,2.26,2.26,0,0,1,.35-.34H430v41.38c1.18,1.61,2.3,2,4,1.3V440h4V426h69v27.22a34.7,34.7,0,0,0,.75,8.78V425H438v-2h14c0-2.47,0-4.61,0-6.75s.25-4.22-.23-6.25H438q0-30.45,0-60.91c0-2.11,0-4.17-1.49-6.09-2,0-4.15-.05-6.3,0s-4.21-.27-6.42.29v13.57c-19.21.63-52.51.39-57-.43V295.25H360ZM638,462H583.5l-13.65,13.65c1.1,7.36-1.2,14.79-.86,22.34.07,1.63,0,3.26,0,5-2.49,0-4.64,0-6.78,0s-4.17-.28-6.19.9h12.74v48.23H535.14c-.09,1.43-.51,2.71.47,4.05h27.27v51.72H536.59l-1.41,1.41V635.9H722.53c2.2-1.34,1.44-3.36,1.44-5.07q.06-44.49,0-89c0-1.26.47-2.63-.51-4h-6.28c-.7-15.37-.42-71.74.4-76h26.3V350.22h-56V462H654.29c-.68,0-1.37,0-1.29-1V448H639V425.13c-23.27-.72-93.45-.43-98,.4q0,18,0,36c0,.12.21.26.34.35.56.37.14-.67.69,1V426.13c24-.73,91.46-.43,96,.4Zm-70.16,27.83c0-.28,0-.55,0-.83-2,0-3.9-.06-5.85,0s-4-.38-5.79.81Z"/><path class="cls-3" d="M207,733h28c.79,2.14,2.58.93,3.79.93,26.81.09,53.62.06,80.44.1,1.25,0,2.62-.49,3.95.58V747H336V852c-2.95-.52-5.56,1.39-8.57,1.07A90.38,90.38,0,0,0,318,853H294a.76.76,0,0,0-.79-1q-22.21,0-44.42,0a.76.76,0,0,0-.79,1H207.47c-.93-1.14-.44-2.52-.44-3.77q-.06-32,0-63.94c0-1.08-1-2.68.95-3.29h13c0-2.64.05-4.94,0-7.25s.26-4.55-.22-6.75H207Zm77,53c-1.3-.32-2.05.48-2.84,1.32s-1.6,2.08-3.16,1.68h-7.81v14h10.54c.68,0,1.35,0,1.27-1,.78,0,1.53.12,2.18-.62.48-.55.84-1.42,1.82-1.38h12c0-2.64.05-5,0-7.25s.26-4.55-.22-6.75Z"/><path class="cls-3" d="M354,93V218H270V93c2.61,0,4.92,0,7.22,0s4.56.24,6.78-.21V79c.17-1.67,1.48-1,2.28-1,11.27,0,22.55,0,33.82,0H339V93ZM298.09,196.84H340c0-2.63,0-5.1,0-7.57s.23-4.89-.15-7.11H298.09Zm7.25-56h13.81V127.11c1.1-.29,2,.23,2.61-.37V113.15H307.88v14H304.1c0,4.28,0,8.38,0,12.49Z"/><path class="cls-2" d="M234,853h14v5.83c14.93.6,41.8.39,46-.34V853h15v5h4v6.6c.81.44,1,1.45,2,1.4a.85.85,0,0,0,1,1,.85.85,0,0,0,1,1,.85.85,0,0,0,1,1c.09,1.5,1.24.85,2,1-.11,1.37,1.18.74,1.85,1.34v42.42H221.18V858H234Z"/><path class="cls-4" d="M336,852V747H323.18V734.61c-1.33-1.07-2.7-.58-3.95-.58-26.82,0-53.63,0-80.44-.1-1.21,0-3,1.21-3.79-.93V699.09h2.86v30.67h98V699.51c1.36-.76,2.62-.55,4.15-.3V852h-1V700.09h-2V852Zm-1.17-106.08V734c-2,0-3.78-.06-5.58,0s-3.57-.34-5.08.17v11.73Z"/><path class="cls-2" d="M430,92v13H404c0-2.47,0-4.61,0-6.75s-.26-4.22.23-6.25Z"/><path class="cls-2" d="M404,79h26V91H404Z"/><path class="cls-2" d="M337,852V700.09h2V852Z"/><path class="cls-4" d="M284,79V92.78c-2.22.45-4.51.15-6.78.21s-4.61,0-7.22,0v76h-2V78c1,.38,2.53-.93,3,1V92c2.3,0,4.28,0,6.25,0s3.85-.08,5.75-.12V79Z"/><path class="cls-2" d="M283,79V91.88c-1.9,0-3.82.1-5.75.12s-3.95,0-6.25,0V79Z"/><path class="cls-4" d="M404,79V91h26v1H404.24c-.49,2-.18,4.16-.23,6.25s0,4.28,0,6.75h26c.33.67.67,1.33,1,2H402V78C402.76,78.15,403.91,77.5,404,79Z"/><path class="cls-4" d="M541,781V754.53a2.33,2.33,0,0,1,.34-.36.84.84,0,0,1,.42-.16H570v27a.76.76,0,0,1-.79,1q-13.71,0-27.42,0A.76.76,0,0,1,541,781Zm1.17-25.92V780h26.07a.84.84,0,0,0,.42-.16c.13-.1.23-.24.17-.17V755.08Z"/><path class="cls-4" d="M702,315c0,1.37-1.06,1-1.78,1-10.27,0-20.53,0-31,0v-5H702v2H670.54c-.12,0-.26.19-.36.32-.42.51.64.15-1.08.67H702Z"/><path class="cls-2" d="M208,781V770h12c0,2.14.06,4,0,5.75s.34,3.57-.23,5.25Z"/><path class="cls-4" d="M529,228v14H515c-1,.08-1-.61-1-1.29V228Zm-2.17,12.91V230.09H524v6.7c-2.86.58-5.51-.27-8,.55.19,1.31-.35,2.5.4,3.57Zm-5-4.91a17.22,17.22,0,0,0,0-5.82h-5.53V236Z"/><path class="cls-4" d="M374,740h22.9v7.82h-7.51c-.93,2.32,0,4.67-.65,7.18H374a.76.76,0,0,1-1-.79q0-6.71,0-13.42A.76.76,0,0,1,374,740Zm14,13.91c0-3.53-.06-7,0-10.41,0-1.23-.83-1.69-1.42-2.39H375.19v12.8Zm6.8-6.91a17.22,17.22,0,0,0,0-5.82h-5.53V747Z"/><path class="cls-4" d="M626,228v20.9h-7.82v-6.51c-2.32-.93-4.67,0-7.18-.65V228Zm-1.16,12.91V230.25H612.16v10.66Zm0,7v-5.66h-5.68v5.66Z"/><path class="cls-4" d="M354,93H339V78a.76.76,0,0,1,.76-1c4.24,0,8.48.07,12.72-.08,1.16,0,1.52,1.13,2.52,1.06,0,4.42,0,8.84,0,13.25C355,92,355.34,93,354,93ZM340.17,79.08V92c2.31,0,4.44,0,6.58,0s4.22.25,6.08-.18V79.08Z"/><path class="cls-2" d="M315,858h6.88c0,1.89.1,3.82.12,5.74s0,3.94,0,5.73c-.67.84-1.39.4-2,.53-.09-1.5-1.24-.85-2-1a.85.85,0,0,0-1-1,.85.85,0,0,0-1-1,.85.85,0,0,0-1-1Z"/><path class="cls-4" d="M263,78c0,4.09,0,8.17,0,12.26,0,.72.35,1.73-1.06,1.67-.07-4.19-.07-8.46-.07-12.72H250.11V91.86c4,0,8,0,11.82.07.15,1-.54,1.07-1.22,1.07H249V78a.76.76,0,0,1,.78-1q6.22,0,12.44,0A.76.76,0,0,1,263,78Z"/><path class="cls-4" d="M208,781h11.75c.57-1.68.15-3.5.23-5.25s0-3.61,0-5.75H208c-1.5-.09-.85-1.24-1-2h13.77c.48,2.2.16,4.49.22,6.75s0,4.61,0,7.25H208Z"/><path class="cls-4" d="M860,642c-3,1.81-4.86,4.74-7.49,6.91h-9.09c-.71-.6-.3-1.3-.42-1.91h8.57c2-2.06,4.18-4.14,6.21-6.33A2.54,2.54,0,0,1,860,640Z"/><path class="cls-2" d="M702,314H669.1c1.72-.52.66-.16,1.08-.67.1-.13.24-.32.36-.32H702Z"/><path class="cls-3" d="M315,858v8c-1,0-1.19-1-2-1.4V858Z"/><path class="cls-4" d="M836,510h-1.58c-.31-1.09-1.27-2.27.58-3C836.93,507.47,835.62,509,836,510Z"/><path class="cls-4" d="M367,672a.85.85,0,0,1,1-1A.85.85,0,0,1,367,672Z"/><path class="cls-1" d="M653,461c-.08,1,.61,1,1.29,1h33.59V350.22h56V461.81h-26.3c-.82,4.3-1.1,60.67-.4,76h6.28c1,1.35.51,2.72.51,4q.06,44.51,0,89c0,1.71.76,3.73-1.44,5.07H535.18V609.32l1.41-1.41h26.29V556.19H535.61c-1-1.34-.56-2.62-.47-4.05h33.63V503.91H556c2-1.18,4.12-.84,6.19-.9s4.29,0,6.78,0c0-1.75.06-3.38,0-5-.34-7.55,2-15,.86-22.34L583.5,462H638c1.27.49,1.94-.86,3-1h12Z"/><path class="cls-1" d="M430,440H374.52a2.26,2.26,0,0,0-.35.34.79.79,0,0,0-.16.43c0,9.3,0,18.61,0,28.07H333.13v-34.7H283.22V460L268.28,475H256.75L243,461.2v-56H203.15v13.27c-1.09.83-1.92.46-3.05.52V378.07H180.2v-8H305V315h55V295.25h6.85v61.19c4.45.82,37.75,1.06,57,.43V343.3c2.21-.56,4.34-.23,6.42-.29s4.29,0,6.3,0c1.51,1.92,1.49,4,1.49,6.09q0,30.46,0,60.91v30h-8Z"/><path class="cls-1" d="M640,398H472.09V364.17h20.66v-55H438.11v12.72h-14V239.05H409.19V231.3l1.48-1.36h20.24V165.21h34V251H444.1v35.87h62.68c.52-1.35.15-3,.21-4.61s0-3.28,0-5.07h6.65l1.48,1.48V301h30.59c7.49,0,15,0,22.49,0,.72,0,1.78.39,1.79-1h14c.18,1.67,1.49,1,2.28,1,11.81,0,23.61,0,35.41,0H640v4.42q0,38.15,0,76.3c0,1.07-1,2.67,1,3.28v12A.85.85,0,0,0,640,398Z"/><path class="cls-1" d="M316,602H299.25v-6.88h47.53v-51c-2.24-2.18-4.78-4.81-7.48-7.27-5.24-4.79-9.58-10.41-14.48-15.69H310.64c-1-1-.68-1.95-.36-3h63.66V552h41.77c.68,0,1.37,0,1.29-1h13c-.06.87.49,1,1.18,1H513.5c1.29,1.56.43,2.69-1,3.93H487.2v73h19.62v40.94c-1.9,0-4,.07-6.11.09H487.13v70.77h-5.05v-7.72h-59V691.18h20.36c.74-4.31,1-63,.34-76H374.12v27.72h-5.75L367,641.5V623H337.19c-.44-6.87,0-13.78-.24-21H321A3.43,3.43,0,0,0,316,602Z"/><path class="cls-1" d="M180,580h19.51a2.18,2.18,0,0,0,.33-.35.89.89,0,0,0,.15-.44q0-65.44,0-130.74c.9-.77,1.75-.34,2.88-.48V502.9h66.05V518h8.52c.9.87.37,1.75.55,2.53-.11.12-.22.34-.34.34-4.78,0-9.57,0-14.5,0v74h13.71v7.06H247v33.88H207.41c-1,2.32,0,4.68-.63,7h-5.44l-1.47-1.47V608H179V580Z"/><path class="cls-1" d="M268,169h2v49h89.88c0,1.91.1,3.84.12,5.78s0,3.94,0,6.08h20.36l1.5,1.5V239H367V271.9h-6V267c-.15-.76.5-1.91-1-2v-3a.76.76,0,0,0,1-.74c0-2.7,0-5.4,0-7.85-1.84-1.35-1.84-1.35-3-.41h-3c0-1.37-1.06-1-1.78-1H312.61c-6.77,5.36-14.21,9.48-20.61,15h-9c-.12-.28-.22-.81-.35-.81q-3-.17-5.92-.18c-1.92,0-3.84.07-5.73.1V276h-4.82a51.78,51.78,0,0,1-.17-7.27c-.05-2.47,0-4.94,0-7.3-1.65-1-3.42.15-4.85-.71-.52-1.51.32-1.77,1.72-1.81V169Z"/><path class="cls-1" d="M255,330c.08-1-.61-1-1.29-1H179.17V259.49c4-.71,37.19-.94,51.48-.32.57.34.27.89.37,1.45l-1.88.65V308h12.22c4.16,0,8.34.19,12.49-.05,4-.24,8.18,1.1,12.13-.94V291.46c1-.77,2.07-.33,3-.46h2v7c0,9.58,0,19.16,0,28.73,0,.8.69,2.1-1,2.27-.76.15-1.91-.5-2,1H255Z"/><path class="cls-4" d="M418,551h-1V539.1c2.08,0,4.19-.08,6.29-.1h6.56v-4.91h-5.73v-14.9h5.51c.82-2.68,0-5.33.49-7.86,1.13-.63,2.29-.23,3.48-.31,1,1.81-.08,3.87.68,5.89h12.51V531H434v21h-2.82c-.69,0-1.24-.13-1.18-1V540c-2.3,0-4.28,0-6.25,0s-3.85.08-5.75.12Zm27.83-21.08V519c-2,0-3.78-.06-5.59,0s-3.56-.34-5.07.18v10.72Zm-20.66-8.83v11.64h5.66V521.09Z"/><path class="cls-4" d="M641,461c-1.06.14-1.73,1.49-3,1V426.53c-4.5-.83-71.92-1.13-96-.4v36.71c-.55-1.67-.13-.63-.69-1-.13-.09-.34-.23-.34-.35q0-18,0-36c4.52-.83,74.7-1.12,98-.4V448h14v13h-1V449c-2.14,0-4-.06-5.75,0s-3.57-.34-5.25.23Z"/><path class="cls-4" d="M316,602a3.43,3.43,0,0,1,5,0v20.84l-2.85.31v12.61h-51V615.1h1.7v19.67H316Zm2.83.2c-1.18,7.39-1,16.57,0,20.26Z"/><path class="cls-4" d="M430,440h4v42.68c-1.7.69-2.82.31-4-1.3Z"/><path class="cls-4" d="M267,709h.5c1.78.13,3,1.81,4.67,1.94,2.65.21,5.33.06,8,.06H308.8V700.38c-1.59-1.55-3.84-1.4-6.1-1.39q-13.72,0-27.47,0c-1.06,0-2.28.56-3.22-.51.85-.88,1.91-.43,2.84-.44,10.16,0,20.32,0,30.48-.07a12.71,12.71,0,0,1,5.57,1.39v12.12c-.92,1.85-2.5,1.54-4,1.54H271.5c-1.23-1.38-3.15-1.42-4.5-2.5Z"/><path class="cls-4" d="M360,265c1.5.09.85,1.24,1,2H318.1v-2h38c-1.46-2.06-4.43-1.49-5.06-4,2.19-.32,3.87.81,5.56,1.94.09-1.6,1.62-2.39,2.43-3.5-1.42-1.08-3.32.69-4-1.44,4.3-.3,4.85-1.21,3-5,1.16-.94,1.16-.94,3,.41,0,2.45,0,5.15,0,7.85a.76.76,0,0,1-1,.74c-1.72.15-.58,2.21-1.91,2.59C358.71,265.28,359.4,264.89,360,265Z"/><path class="cls-4" d="M438,426v-1h69.75v37a34.7,34.7,0,0,1-.75-8.78V426Z"/><path class="cls-4" d="M180,580h-1V501.1c.51,1.72.16.66.67,1.08.13.1.32.24.32.36Q180,541.27,180,580Z"/><path class="cls-4" d="M771,576c-2.26-.67-2.72-2.93-4-4.65-1.19-9.18,5.18-15.55,14.36-14.36,1.72,1.29,4,1.75,4.65,4-1.09-.15-2.13.18-3.24-.65-2.49-1.85-5.12-1.41-8-.48a6.55,6.55,0,0,0-4.55,4c-.68,2.35-2.49,4.88-.35,7.71A5.2,5.2,0,0,1,771,576Z"/><path class="cls-4" d="M640,398a.85.85,0,0,1,1-1h11.1c-.32-3.89.22-7.47-.31-11H641v-1h12.87v12.63c-.34.34-.8.81-1.37,1.37H641.27C640.59,399,639.92,399,640,398Z"/><path class="cls-4" d="M271,298v-1h12V267h1v8.07c2.56-.22,4.81.2,7-.31V267h1V276h-6.45l-1.49,1.49V298Z"/><path class="cls-4" d="M268,330c.09-1.5,1.24-.85,2-1v13.81c-2.37.42-4.83.13-7.25.18s-4.95,0-7.75,0V330h1v12c2.3,0,4.28,0,6.25,0s3.85-.08,5.75-.12Z"/><path class="cls-4" d="M520,501c-1.28.2-2.22-.32-3-1.83-.61-3.06.66-5.8,3.47-8.09h4.86c5.24,3.05,5.7,4.44,3.12,9.92H527c-.18-1.93,1.83-3.49.7-5.78L525.51,493h-4l-2.19,2.22C518.17,497.51,520.18,499.07,520,501Z"/><path class="cls-4" d="M360,302v1H317.1c1.72-.52.66-.16,1.08-.67.1-.13.24-.32.36-.32Z"/><path class="cls-4" d="M438,411v-1h13.76c.48,2,.18,4.16.23,6.25s0,4.28,0,6.75H438v-1h13c0-2.14.06-3.95,0-5.75s.34-3.57-.23-5.25Z"/><path class="cls-4" d="M584,300h-1V288c-2.3,0-4.28,0-6.25,0s-3.85.08-5.75.12V300h-1V287.23c2.2-.48,4.49-.16,6.75-.22s4.61,0,7.25,0Z"/><path class="cls-4" d="M271,291h-2V276h2Z"/><path class="cls-4" d="M131,438h1.81c.36,3,.65,5.91-2,8.75-1,.56-2.81.08-3.6,1.2-1.94.23-2.86-1.18-4.22-1.43V445c1.93-.18,3.49,1.83,5.68.75l2.32-2.24Z"/><path class="cls-4" d="M786,561c2,.26,1.7,2.48,3,3.51-.35,3.46.9,7.23-1.57,10.49H786a7.28,7.28,0,0,1,.28-1.84c2-4.62,2.13-4.7.28-9A11.22,11.22,0,0,1,786,561Z"/><path class="cls-4" d="M785,576v1.47c-3.26,2.47-7,1.22-10.49,1.57-1-1.34-3.25-1-3.51-3a11.22,11.22,0,0,1,3.19.56c4.27,1.85,4.35,1.75,9-.28A7.28,7.28,0,0,1,785,576Z"/><path class="cls-4" d="M838,642h-1.53c-.09-.1-.3-.22-.3-.35,0-3.43,0-6.87,0-10.31.52-.65,1.24-.21,1.85-.34Z"/><path class="cls-4" d="M843,626v-1.71c1.5-.6,3.13-.22,4.71-.28s3.27,0,4.87,0c.42.79,1.47,1,1.42,2Z"/><path class="cls-4" d="M351,261c-.93.07-1.1-.57-1-1.23a14.59,14.59,0,0,1,3.17-6.45c.49-.63,1.21-.2,1.81-.32v5c-.81.16-1-.74-1.46-.91C352,258,351.85,259.7,351,261Z"/><path class="cls-4" d="M123,438c-.36-1.34.48-2.11,1.36-2.86a8,8,0,0,1,6.64,1.39V438c-1.53.47-2.47-1.1-4-1.1S124.53,438.47,123,438Z"/><path class="cls-4" d="M358,623h2a11.6,11.6,0,0,0,2,8c-2.61-.72-3.75-2-4-4.65C357.92,625.24,358,624.12,358,623Z"/><path class="cls-4" d="M527,501v1.74h-6.79c-.52-.41-.08-1.13-.21-1.74,1.26-.43,1.94.85,3.14,1C524.15,500.92,525.57,500.94,527,501Z"/><path class="cls-1" d="M567.84,489.83H556.19c1.83-1.19,3.85-.73,5.79-.81s3.9,0,5.85,0C567.83,489.28,567.83,489.55,567.84,489.83Z"/><path class="cls-4" d="M123,445h-1.74v-6.79c.41-.52,1.13-.08,1.74-.21A11.31,11.31,0,0,0,123,445Z"/><path class="cls-4" d="M269,700c-.51,2.1-2.7,2-4,3C265.41,700.23,265.66,700.05,269,700Z"/><path class="cls-4" d="M367,631v1h-3.8c-.69,0-1.26-.11-1.2-1Z"/><path class="cls-4" d="M264,706c-1.1,0-2.48.27-1.84-1.67.53-.63,1.23-.21,1.84-.33Z"/><path class="cls-4" d="M268.46,700.16c1.14-1.34,1.77-1.42,2.46-.76C270.54,700.46,269.64,699.82,268.46,700.16Z"/><path class="cls-4" d="M786,575a.85.85,0,0,1-1,1A.85.85,0,0,1,786,575Z"/><path class="cls-4" d="M843,626a.85.85,0,0,1-1,1A.85.85,0,0,1,843,626Z"/><path class="cls-4" d="M854,626a.85.85,0,0,1,1,1A.85.85,0,0,1,854,626Z"/><path class="cls-4" d="M841,628a.85.85,0,0,1,1-1A.85.85,0,0,1,841,628Z"/><path class="cls-4" d="M855,627a.85.85,0,0,1,1,1A.85.85,0,0,1,855,627Z"/><path class="cls-4" d="M841,628a.85.85,0,0,1-1,1A.85.85,0,0,1,841,628Z"/><path class="cls-4" d="M842,646a.85.85,0,0,1,1,1A.85.85,0,0,1,842,646Z"/><path class="cls-4" d="M840,644a.85.85,0,0,1-1-1A.85.85,0,0,1,840,644Z"/><path class="cls-4" d="M266,708a.85.85,0,0,1,1,1A.85.85,0,0,1,266,708Z"/><path class="cls-4" d="M265,707a.85.85,0,0,1,1,1A.85.85,0,0,1,265,707Z"/><path class="cls-4" d="M838,631a.85.85,0,0,1,1-1A.85.85,0,0,1,838,631Z"/><path class="cls-4" d="M264,704a.85.85,0,0,1,1-1A.85.85,0,0,1,264,704Z"/><path class="cls-4" d="M858,630a.85.85,0,0,1-1-1A.85.85,0,0,1,858,630Z"/><path class="cls-4" d="M839,630a.85.85,0,0,1,1-1A.85.85,0,0,1,839,630Z"/><path class="cls-4" d="M857,629a.85.85,0,0,1-1-1A.85.85,0,0,1,857,629Z"/><path class="cls-4" d="M858,630a.71.71,0,0,1,.89.6c0,.07-.22.31-.29.29A.71.71,0,0,1,858,630Z"/><path class="cls-4" d="M842,646a.85.85,0,0,1-1-1A.85.85,0,0,1,842,646Z"/><path class="cls-4" d="M264,706a.85.85,0,0,1,1,1A.85.85,0,0,1,264,706Z"/><path class="cls-4" d="M841,645a.85.85,0,0,1-1-1A.85.85,0,0,1,841,645Z"/><path class="cls-4" d="M838,642a.85.85,0,0,1,1,1A.85.85,0,0,1,838,642Z"/><path class="cls-2" d="M278,789c1.56.4,2.31-.79,3.16-1.68s1.54-1.64,2.84-1.32c0,1.37,1.06,1,1.78,1,1.83,0,3.65,0,5.48,0s3.84.08,5.57.11V799h-9.55c-.68,0-1.36,0-1.28,1-1,0-1.34.83-1.82,1.38-.65.74-1.4.61-2.18.62h-9.82V790c1.8,0,3.42,0,5.05,0A.77.77,0,0,0,278,789Z"/><path class="cls-4" d="M294,853v5.49c-4.2.73-31.07.94-46,.34V853a.76.76,0,0,1,.79-1q22.22,0,44.42,0A.76.76,0,0,1,294,853Zm-44.9,3.82h43.8v-2.64H249.1Z"/><path class="cls-4" d="M278,789a.77.77,0,0,1-.77,1c-1.63,0-3.25,0-5.05,0v12H282c.08,1-.59,1-1.27,1H270.19V789Z"/><path class="cls-4" d="M286,800c-.08-1,.6-1,1.28-1h9.55V787.11c-1.73,0-3.65-.09-5.57-.11s-3.65,0-5.48,0c-.72,0-1.77.38-1.78-1h13.77c.48,2.2.16,4.49.22,6.75s0,4.61,0,7.25Z"/><path class="cls-4" d="M298.09,196.84V182.16h41.75c.38,2.22.1,4.68.15,7.11s0,4.94,0,7.57Zm1-1H339c0-2.13,0-4.11,0-6.08s-.08-3.85-.11-5.58h-39.8Z"/><path class="cls-4" d="M305.34,140.84l-1.24-1.23V127.12h3.78v-14h13.88v13.59c-.64.6-1.51.08-2.61.37v13.73Zm.75-1h10.66V128.16H306.09Zm14.74-13.92V114c-2,0-3.77,0-5.57,0s-3.53.09-5.09.13v11.78Z"/><path class="cls-3" d="M318,869c.76.15,1.91-.5,2,1C319.24,869.85,318.09,870.5,318,869Z"/><path class="cls-3" d="M315,866a.85.85,0,0,1,1,1A.85.85,0,0,1,315,866Z"/><path class="cls-3" d="M316,867a.85.85,0,0,1,1,1A.85.85,0,0,1,316,867Z"/><path class="cls-3" d="M317,868a.85.85,0,0,1,1,1A.85.85,0,0,1,317,868Z"/><path class="cls-2" d="M334.83,745.92H324.17V734.19c1.51-.51,3.32-.09,5.08-.17s3.61,0,5.58,0Z"/><path class="cls-2" d="M542.17,755.08h26.66v24.58c.06-.07,0,.07-.17.17a.84.84,0,0,1-.42.16H542.17Z"/><path class="cls-2" d="M526.83,240.91H516.37c-.75-1.07-.21-2.26-.4-3.57,2.5-.82,5.15,0,8-.55v-6.7h2.85Z"/><path class="cls-2" d="M521.8,236h-5.53v-5.82h5.53A17.22,17.22,0,0,1,521.8,236Z"/><path class="cls-2" d="M388,753.91H375.19v-12.8h11.42c.59.7,1.46,1.16,1.42,2.39C387.94,746.94,388,750.38,388,753.91Z"/><path class="cls-2" d="M394.8,747h-5.53v-5.82h5.53A17.22,17.22,0,0,1,394.8,747Z"/><path class="cls-2" d="M624.84,240.91H612.16V230.25h12.68Z"/><path class="cls-2" d="M624.84,247.91h-5.68v-5.66h5.68Z"/><path class="cls-2" d="M340.17,79.08h12.66V91.81c-1.86.43-4,.13-6.08.18s-4.27,0-6.58,0Z"/><path class="cls-2" d="M261.86,91.86H250.11V79.21h11.75Z"/><path class="cls-2" d="M641,461V449.25c1.68-.57,3.5-.15,5.25-.23s3.61,0,5.75,0v12Z"/><path class="cls-2" d="M438,411h12.75c.57,1.68.15,3.5.23,5.25s0,3.61,0,5.75H438Z"/><path class="cls-2" d="M571,300V288.12c1.9,0,3.82-.1,5.75-.12s4,0,6.25,0v12Z"/><path class="cls-2" d="M641,386h10.79c.53,3.53,0,7.11.31,11H641Z"/><path class="cls-2" d="M418,551V540.12c1.9,0,3.82-.1,5.75-.12s3.95,0,6.25,0v11Z"/><path class="cls-2" d="M367,631h-5a11.6,11.6,0,0,1-2-8h7Z"/><path class="cls-2" d="M271,291V266.11c1.89,0,3.81-.11,5.73-.1s3.95.07,5.92.18c.13,0,.23.53.35.81v30H271Z"/><path class="cls-2" d="M291,267v7.76c-2.19.51-4.44.09-7,.31V267Z"/><path class="cls-2" d="M355,258v-5h3C359.85,256.79,359.3,257.7,355,258Z"/><path class="cls-2" d="M360,265c-.6-.11-1.29.28-1.91-.41,1.33-.38.19-2.44,1.91-2.59Z"/><path class="cls-2" d="M268,330v11.88c-1.9,0-3.82.1-5.75.12s-3.95,0-6.25,0V330Z"/><path class="cls-2" d="M445.83,529.92H435.17V519.2c1.51-.52,3.32-.1,5.07-.18s3.61,0,5.59,0Z"/><path class="cls-2" d="M425.17,521.09h5.66v11.64h-5.66Z"/><path class="cls-2" d="M318.83,602.2v20.26C317.79,618.77,317.65,609.59,318.83,602.2Z"/><path class="cls-2" d="M351,261c.85-1.3,1-3,2.54-3.91.49.17.65,1.07,1.46.91.67,2.13,2.57.36,4,1.44-.81,1.11-2.34,1.9-2.43,3.5C354.87,261.81,353.19,260.68,351,261Z"/><path class="cls-2" d="M786,575a.85.85,0,0,0-1,1,7.28,7.28,0,0,0-1.84.28c-4.62,2-4.7,2.13-9,.28A11.22,11.22,0,0,0,771,576a5.2,5.2,0,0,0-1.17-4.47c-2.14-2.83-.33-5.36.35-7.71a6.55,6.55,0,0,1,4.55-4c2.91-.93,5.54-1.37,8,.48,1.11.83,2.15.5,3.24.65a11.22,11.22,0,0,0,.56,3.19c1.85,4.27,1.75,4.35-.28,9A7.28,7.28,0,0,0,786,575Z"/><path class="cls-2" d="M527,501c-1.43-.06-2.85-.08-3.86,1-1.2-.17-1.88-1.45-3.14-1,.18-1.93-1.83-3.49-.7-5.78l2.19-2.22h4l2.19,2.22C528.83,497.51,526.82,499.07,527,501Z"/><path class="cls-2" d="M123,445a11.31,11.31,0,0,1,0-7c1.53.47,2.47-1.1,4-1.1s2.47,1.57,4,1.1v5.51l-2.32,2.24C126.49,446.83,124.93,444.82,123,445Z"/><path class="cls-2" d="M249.1,856.82v-2.64h43.8v2.64Z"/><path class="cls-2" d="M299.09,195.83V184.17h39.8c0,1.73.09,3.65.11,5.58s0,3.95,0,6.08Z"/><path class="cls-2" d="M306.09,139.84V128.16h10.66v11.68Z"/><path class="cls-2" d="M320.83,125.92H310.17V114.14c1.56,0,3.33-.11,5.09-.13s3.61,0,5.57,0Z"/></svg>