<svg id="Layer_1" data-name="Layer 1" xmlns="http://www.w3.org/2000/svg" viewBox="0 0 1024 1024"><defs><style>.cls-1{fill:#fefefe;}.cls-2{fill:#ebebeb;}.cls-3{fill:#38a691;}.cls-4{fill:#59dcc4;}.cls-5{fill:#7f7f7f;}.cls-6{fill:#b9b9b9;}.cls-7{fill:#a5a289;}</style></defs><path class="cls-1" d="M1024,1024H0V0H1024ZM139,454c.61-.13,1.34.31,2-.53V433.29c0-.68,0-1.37-1-1.29-3.65.29-7.5-.95-10.57,1.56s-3.4,6.57-5.59,9.46c2.6,3.65,3.2,8.19,6.68,11Zm846,63c.08-1-.6-1-1.28-1H973.08L968,525.92c-.51,4.75,2.64,8.37,5.29,12.08H984c1.35,0,1-1,1-1.76C985,529.83,985,523.41,985,517ZM811.1,325.82h22.58L835,324.5V274.12c0-2.83-.1-5.67,0-8.49.06-1.26-.74-1.74-1.53-2.63H821.17c-5.77-8.08-13.47-14.34-20.38-21.86h20.57l1.49-1.49v-49.3l-1.24-1.24H735.39l-1.17,1.16c-.67,1.51.35,3.26-.64,4.72h-1.26c-1-1.46.78-4.2-2.39-5-13.24,0-26.91-.18-40.57,0-29.87.47-59.71-1.77-89.58-1.06-.26,0-.52-.32-.78-.5q0-35,0-70l-1.75-1.75c-.76-5.12-2.71-9.92-3.93-14.9C592,96.41,590.48,91,589,85.64c-1.21-4.33-2.89-8.56-3.67-13-.59-3.32-3.48-5.66-3.32-9.15a263.18,263.18,0,0,1-10.18-24.28c-1.21-3.17-2.8-6.15-4-9.37-1.29-3.6-2.82-7.16-4.29-10.71-.75-1.8-1.6-3.7-4.08-4.33a6.52,6.52,0,0,1-3.9-2.73h-50c-2.06,1.23-2.74,3.08-3.63,4.76-1.66,3.14-3.14,6.38-4.89,9.47s-2.24,6.7-3.74,10c-2.06,4.45-3.43,9.22-5.33,13.78-2.24,5.41-3.77,11.12-6.2,16.43-2.18,4.79-3.7,9.8-5.73,14.63-1.3,3.09-2.83,6.18-3.49,9.58a3.71,3.71,0,0,1-1.84,2.9c1.16,3.71-.23,7.38-1,10.94-.51,2.38-.28,4.81-1,7.06A35.39,35.39,0,0,0,467,122.36q0,30.75,0,61.5v5.07H379.31c-3.21,1.13-1.82,3.45-2.58,5l-1.62-.09c-.07-1.2-.13-2.33-.19-3.45l-1.25-1.25H208.33l-1.4,1.4v65.36h-60.3L145,257.47v91l1.59,1.59H201v47.19l1.67,1.91H235l-.15,1.73H220.63l-1.81,1.72v16.13a1.48,1.48,0,0,1-1.72-.14v-4l-1.43-1.43H147.33l-1.41,1.41v15.59c-1.71-.78-2.06.69-2.91,1.34v23c.63,1.29,2.08,1.4,3.06,2.23v13.85a3.39,3.39,0,0,0,3,1.49c5.5-.1,11,0,16.5,0h10.5V572.58L177.5,574h5.74c1.93,0,3.86.08,5.57.11v8.95H174.44l-1.34,1.34v45.9L239.81,697h89.84a15.31,15.31,0,0,0,5.62-.89A29.78,29.78,0,0,1,347.91,694c8,.58,16.09-.84,24.1,1,3.82.86,7.65-.73,11.08-2.1s5.76-.66,8.36,1c5.59,1.19,11-1.34,16.55-.82.17,0,.41.07.49,0,1.95-2,4.42-.89,6.6-.89s4.2-1.44,6.59-1.18c3.13.33,6.67-.79,9.4.31,3.11,1.25,6.54-.42,9.26,1.77,5.64-.14,10.88,2.52,16.66,2v8.84c0,.83-.35,2,.07,2.44a4.38,4.38,0,0,1,.86,4.13c-.44,1.83,1.49,2.89,1.08,4.6-.55,2.32,1.5,4.2,1.05,6.59-.42,2.22,1.49,4.18,1.05,6.6-.16.85,1.17,1.81.9,3.07-.59,2.8,1.72,5.25,1,8.08,2,1.83.81,4.51,1.77,6.77.84,2,.78,4.64,1.15,7,.69,4.39,2,8.66,2.23,13.15.06,1,1.06,2.3.82,3.59-.36,1.91.7,3.38,1.36,4.95s1.85,2.92,2.4,4.5c2.63,7.61,6.89,14.48,9.93,21.89.62,1.51,1.15,2.65,3.23,3a6.91,6.91,0,0,1,4.59,3c1.78,3.59,5,5.84,7.38,8.87,4.16,5.34,8.71,10.45,12.6,15,1.69,5.32,4.83,9.2,6,13.89,4.71,5.82,9.32,11.77,14.92,16.76,2.53,2.25,5.13,4.71,6.94,5.21,5.17,4.5,8.18,8.89,11.71,12.86,0,11.83,0,23.67,0,35.5a14.57,14.57,0,0,0,2.48,8.45,66.37,66.37,0,0,1,3.5,6.09c2.37,4.31,3,5.22,7.55,8.21.4.27.67.75,1.07,1,3.2,2.33,6.44,4.59,9.61,7,3.39,2.54,7.13,4.68,10.29,8-3.57,3.05-4.47,7.53-7.4,10.56v3.93c3,3.78,3.11,9,6.19,12.3h47.67c2.1-4.34,6.1-6.9,9.09-10.44V967.6c.92-1.46,2.18-2.4,3.09-3.83,4.21-6.64,8.88-13,13.15-19.58,3.53-5.46,7.8-10.52,9.32-17.15.41-1.78.22-3.7,1.36-5.44,1.23-1.9,1.11-4.27,1.09-6.54,0-8.66,0-17.33-.06-26a7.94,7.94,0,0,1,1.79-5.26c4.65-5.77,9.26-11.57,14.17-17.11,2.59-2.93,4.58-6.38,7.7-8.86.42-.34.49-1.11.8-1.86h4.25c5.43-6.17,11.51-11.5,16.78-17.68,6.51-7.65,13.91-14.55,20.83-21.87,12.83-13.55,26.29-26.49,39.49-39.69l7.33-7.33V664.45l23.23-11.63H896q0-54.74,0-109.11c0-.24.37-.47.56-.71.48,0,1-.12,1.51.72v15.16h45.53L962,540.5v-25l-18.19-20.43h-45.9v14.73H869.1V508H884V470.94h17.84V414.37L900.5,413H835.75a.77.77,0,0,1-.42-.17,2.54,2.54,0,0,1-.34-.38V359.49l-1.61-1.61H811.1Zm-720,458H459.9V772H103.1V449H123c0-2.36-2-3.55-2-5.07.08-2.67,3.14-4.23,1.7-6.71H91.08Zm700,0h218.67V521.17H987c0,2.14,0,4.11,0,6.09s-.24,3.88.3,5.93h10.57c.86,29.3.48,234.13-.46,239H791.09Z"/><path class="cls-2" d="M811.1,325.82v32.06h22.28l1.61,1.61v52.95a2.54,2.54,0,0,0,.34.38.77.77,0,0,0,.42.17H900.5l1.37,1.37v56.57H884V508H869.1v1.85h28.81V495.12h45.9L962,515.55v25l-18.38,18.38H898.09V543.72c-.5-.84-1-.7-1.51-.72-.19.24-.56.47-.56.71q0,54.46,0,109.11H804.33L781.1,664.45V769.4l-7.33,7.33c-13.2,13.2-26.66,26.14-39.49,39.69-6.92,7.32-14.32,14.22-20.83,21.87-5.27,6.18-11.35,11.51-16.78,17.68h-4.25c-.31.75-.38,1.52-.8,1.86-3.12,2.48-5.11,5.93-7.7,8.86C679,872.23,674.4,878,669.75,883.8a7.94,7.94,0,0,0-1.79,5.26c.1,8.67,0,17.34.06,26,0,2.27.14,4.64-1.09,6.54-1.14,1.74-.95,3.66-1.36,5.44-1.52,6.63-5.79,11.69-9.32,17.15-4.27,6.6-8.94,12.94-13.15,19.58-.91,1.43-2.17,2.37-3.09,3.83v2.79c-3,3.54-7,6.1-9.09,10.44H583.25c-3.08-3.35-3.16-8.52-6.19-12.3V964.6c2.93-3,3.83-7.51,7.4-10.56-3.16-3.35-6.9-5.49-10.29-8-3.17-2.37-6.41-4.63-9.61-7-.4-.29-.67-.77-1.07-1-4.53-3-5.18-3.9-7.55-8.21a66.37,66.37,0,0,0-3.5-6.09,14.57,14.57,0,0,1-2.48-8.45c.09-11.83,0-23.67,0-35.5-3.53-4-6.54-8.36-11.71-12.86-1.81-.5-4.41-3-6.94-5.21-5.6-5-10.21-10.94-14.92-16.76-1.14-4.69-4.28-8.57-6-13.89-3.89-4.53-8.44-9.64-12.6-15-2.35-3-5.6-5.28-7.38-8.87a6.91,6.91,0,0,0-4.59-3c-2.08-.34-2.61-1.48-3.23-3-3-7.41-7.3-14.28-9.93-21.89-.55-1.58-1.74-2.94-2.4-4.5s-1.72-3-1.36-4.95c.24-1.29-.76-2.54-.82-3.59-.26-4.49-1.54-8.76-2.23-13.15-.37-2.36-.31-5-1.15-7-1-2.26.21-4.94-1.77-6.77.73-2.83-1.58-5.28-1-8.08.27-1.26-1.06-2.22-.9-3.07.44-2.42-1.47-4.38-1.05-6.6.45-2.39-1.6-4.27-1.05-6.59.41-1.71-1.52-2.77-1.08-4.6a4.38,4.38,0,0,0-.86-4.13c-.42-.47-.07-1.61-.07-2.44V695c-5.78.55-11-2.11-16.66-2-2.72-2.19-6.15-.52-9.26-1.77-2.73-1.1-6.27,0-9.4-.31-2.39-.26-4.28,1.19-6.59,1.18s-4.65-1.15-6.6.89c-.08.08-.32,0-.49,0-5.56-.52-11,2-16.55.82-2.6-1.65-5-2.33-8.36-1s-7.26,3-11.08,2.1c-8-1.8-16.09-.38-24.1-1a29.78,29.78,0,0,0-12.64,2.13,15.31,15.31,0,0,1-5.62.89H239.81L173.1,630.3V584.4l1.34-1.34h14.37v-8.95c-1.71,0-3.64-.09-5.57-.11H177.5l-1.42-1.42V472h-10.5c-5.5,0-11-.06-16.5,0a3.39,3.39,0,0,1-3-1.49V456.7c-1-.83-2.43-.94-3.06-2.23v-23c.85-.65,1.2-2.12,2.91-1.34V414.58l1.41-1.41h68.34l1.43,1.43v4a1.48,1.48,0,0,0,1.72.14V402.65l1.81-1.72h14.21l.15-1.73H202.62L201,397.29V350.1H146.6L145,348.51v-91l1.62-1.54h60.3V190.57l1.4-1.4H373.67l1.25,1.25c.06,1.12.12,2.25.19,3.45l1.62.09c.76-1.58-.63-3.9,2.58-5H467v-5.07q0-30.75,0-61.5a35.39,35.39,0,0,1,1.82-10.74c.71-2.25.48-4.68,1-7.06.76-3.56,2.15-7.23,1-10.94a3.71,3.71,0,0,0,1.84-2.9c.66-3.4,2.19-6.49,3.49-9.58,2-4.83,3.55-9.84,5.73-14.63,2.43-5.31,4-11,6.2-16.43,1.9-4.56,3.27-9.33,5.33-13.78,1.5-3.26,2-6.83,3.74-10S500.35,20,502,16.87c.89-1.68,1.57-3.53,3.63-4.76h50a6.52,6.52,0,0,0,3.9,2.73c2.48.63,3.33,2.53,4.08,4.33,1.47,3.55,3,7.11,4.29,10.71,1.16,3.22,2.75,6.2,4,9.37A263.18,263.18,0,0,0,582,63.53c-.16,3.49,2.73,5.83,3.32,9.15.78,4.4,2.46,8.63,3.67,13,1.49,5.38,3,10.77,4.32,16.2,1.22,5,3.17,9.78,3.93,14.9l1.75,1.75q0,35,0,70c.26.18.52.5.78.5,29.87-.71,59.71,1.53,89.58,1.06,13.66-.22,27.33,0,40.57,0,3.17.79,1.42,3.53,2.39,5h1.26c1-1.46,0-3.21.64-4.72l1.17-1.16h86.22l1.24,1.24v49.3l-1.49,1.49H800.79c6.91,7.52,14.61,13.78,20.38,21.86h12.35c.79.89,1.59,1.37,1.53,2.63-.15,2.82,0,5.66,0,8.49V324.5l-1.32,1.32ZM522,517h-3v3c.15.76-.5,1.91,1,2v2c-1.5.09-.85,1.24-1,2v69.82c-15.48.68-92.72.41-97.18-.36V584h-4.61v-5.06h21.57v-92H427.24V475.84H439v-8.61a6.86,6.86,0,0,1,4.06.1v14.54h42.16l21.7-21.7V441.8l-20.56-20.57H442.86v15c-1.39-.69-2.74.48-3.87-.78v-5.07c-2-1.31-3.35-3.29-5.52-4.65-4.23-2.65-9-3-13.49-3.54a44.38,44.38,0,0,0-13.11.55c-5,.91-9.54,1.85-13.4,5.22-.28.25-1,0-1.47,0a2.64,2.64,0,0,1,1.87-3c6-2.7,12.13-5.11,18.93-5,5.15.07,10.16.23,15.22,1.87,4.14,1.34,8.05,2.62,11.1,5.81.43.45.89.3,1.72.4V420.3c1-1.65,2.5-1.3,3.81-1.3H487l21.88,21.88v20.7l-22.47,22.47c-14.66-.29-29.45.34-44.22-.35-.25,0-.54-.68-.7-.64-.64.17.26.49-.54.22v96.23l-1.58,1.58H418.2c2.29,1.57,5-.2,6,4v8.8h92.72V516.61l1.56-1.61h52c2.17,0,4.35-.12,6.5,0s4.28-.76,6.21.67c1.89-1,3.95-.7,6-.71,8.67,0,17.33,0,26,0,1.26,0,2.63.47,3.67-.29V496H595.5l-1.37-1.37V444.37l1.54-1.54H618.9V432.25c-1.44-.34-3.06-.15-3.74-1.55V406c.7-2.77,3-1.26,3.62-2.18V392.89H584.39L583,391.5c0-10.48,0-21.13,0-31.77,0-2.54-.78-5.22.93-7.61a1.53,1.53,0,0,0,0-1.44c-1.81-1.84-.89-4.09-.92-6.12-.12-7,0-14,0-21V312.5l1.39-1.39h46.22l1.52,1.52v15.21H647V311.49l1.58-1.58h25.34c0-.82.25-1.33-.46-1.88H656.85l-2.06-1.62v-9.5H610.41l-1.32-1.32V232.41l1.49-1.49h8.32c.08-.82.27-1.32-.41-1.88H599.22c-1.23-3.32-3.89-5.56-6-8.08-4.77-5.67-9.12-11.7-14.1-17.16-4.16-4.57-7.64-9.65-11.82-14.2a75.09,75.09,0,0,1-6-7,71,71,0,0,0-9.73-11.54H518.3c-15.61,19.45-30.95,39-46.57,57.8H379.51c-3.76-1-1.68-3.55-3-4.89h-1.22c-1,1.45.79,4.2-3.35,5.21H361.15v38.93h12.68v44.52l-1.41,1.41h-22.2V436.85h38.93V429H391v9.9H348v-17H334.23V404.86H348c0-10.48,0-20.79,0-31.1a.83.83,0,0,0-.17-.43c-.09-.13-.23-.22-.15-.14H300.11v51.89h11.75v25.06H300.18V485h14.88v14.84h33.06V464.16h43c-.43,1.72.34,3.35-.65,5H377.94v54.9H347.88v29.7c-12.78.67-128.75.41-132.7-.26V445.1h5.71v5.29L233.47,463h34.6L281,450c0-15.27,0-30.77,0-46.27a.84.84,0,0,0-.16-.43,4.83,4.83,0,0,0-.55-.53H263v-4.59H236.89v4.92H220.83V420.9H215v-5.77H147.89v16.7c-1.12.39-2-.22-2.72.48q0,10.69,0,21.36c0,.11.23.22,0,0,1.07.58,2-.13,2.84.86v15.52h30.06V572.15h12.7V585H175.15v44.62L240.5,695q44.44,0,88.95,0c1.41,0,3,.57,4.09-1,4.4-.58,8.55-2.36,13.17-2.09,6.15.36,12.33,0,18.5.13,2.21,0,4.44-.51,6.66.83.95.57,2.74,0,4.22-.31,4.44-1,8.63-3.53,13.6-2.36a6.54,6.54,0,0,0,4.53,1.83c4.43.31,8.65-1.71,13.09-1,2-1.87,4.4-1,6.58-.91,2.34.11,4.2-1.53,6.6-1.16a49.35,49.35,0,0,0,7,.07,23.77,23.77,0,0,1,7.12.88c2.06.63,4.51-.27,6.55,1.12,6-.08,11.58,2.59,17.94,1.92A71.88,71.88,0,0,0,461,714.78c.59,2.64.7,5.37,1.33,8a45.64,45.64,0,0,1,1.52,7.81,40.68,40.68,0,0,0,1.42,8c1.23,4.59,1.47,9.31,2.65,13.87.68,2.61,1.51,5.28,1.05,8.07,2.05,1.4.18,3.83,1.4,5.42,1.39,1.78.08,3.86.91,5.61,4.73,10.19,9.45,20.38,14.06,30.34a10.76,10.76,0,0,1,7.33,4.58,32.06,32.06,0,0,0,3.33,4.09,34.12,34.12,0,0,1,2.79,2.86,68,68,0,0,0,8.52,10.46,28.08,28.08,0,0,1,6.4,9.35c1.19,2.84,3.26,5.38,4.07,8.3a16.19,16.19,0,0,0,4.38,7.2c1.51,1.55,3.44,2.84,4.52,4.64,3.17,5.32,8.11,8.54,13.17,11.61a5.8,5.8,0,0,1,1.89,1.39A100.74,100.74,0,0,0,552,878.55c0,12,.06,24,0,36a13.09,13.09,0,0,0,2.35,8c3,3.89,4,8.81,6.16,11.09,9.57,6.92,18.19,12.21,25.53,18.72,0,1.18.26,2,0,2.48-2.27,3.74-4.64,7.42-7.13,11.35l5.5,12.69h45.11c2.18-3.94,6-6.23,8.63-9.67v-3.85c1.06-.48,2.2-.72,2.83-1.78,4.91-8.23,10.47-16,15.85-24,2.33-3.43,5-6.81,6-11,1.5-6.14,3.71-12.08,3.32-18.68-.47-8.14-.11-16.33-.11-24.64,7.57-11.08,17.43-20.45,25.4-31.33h4.17c5.1-5.72,10.8-10.93,15.93-16.77,7.52-8.55,15.77-16.47,23.64-24.72,13.12-13.75,26.78-27,40.22-40.39,1.28-1.27,2.58-2.51,3.52-3.42V693.9h-7v-5.65c-2-.68-4.08.31-5.69-.54V675H778.9V663.1l24.29-12.23h90.6c.61-11.83.4-41.85-.34-46H881v-6.89H845.14v-3.06h49V541.1H900v15.77h42.37L960,539.33V516.54l-17.23-19.41H899.9v14.71H867.26v-6h14.79V468.92h17.81V414.86H797c.1-.82-.17-1.37.69-1.88h11.4V399.92h23.72V381.86h-7.69c-.27-7.4.18-14.65-.28-22.05H809.12v-35.9h23.73V303.35c-.89-.89-2.62.57-2.85-1.35.94-.13,2,.3,3.1-.51-.56-1,.54-2.37-.59-3.49H830c.22-1.94,2-.43,2.79-1.29V265.14H661.44l-4.63,4.54v5.21h-16.6V226.8c3.38,1.09,6.18-.94,9.28-.83,3.32.12,6.66,0,10,0H730v-4.8h6.06v17.91h45.76v4.72c-1.62-.11-1.57,1.31-2.24,2a91.42,91.42,0,0,1-7.61,6.84c-4,3.27-7.39,7.15-11.08,10.8.41.22.68.5,1,.5q28.26,0,56.5,0a.61.61,0,0,0,.39-.25c.41-.52-.51-.19-.16-.28-2.25-3.93-5.59-7.09-8.91-10.24s-6.32-7.14-10.58-9.82V239h21.77V191.23h-85v5.5h-6.05V192c-15,0-29.82.12-44.63,0s-29.71.25-44.6-.78c-12.93-.9-26-.19-39-.19H597V119.54l-1.48-1.48c-1.55-5.48-3-10.41-4.34-15.35s-2.82-10.18-4.12-15.28c-1.14-4.53-2.59-9-3.7-13.49-.66-2.71-2.46-5.06-3.27-7.63-2.81-8.84-7.31-17-10.18-25.8-1-3.21-2.63-6.24-4-9.36-1.91-4.54-3.8-9.09-5.72-13.69-2.13-.87-4.28-1.58-5.64-3.32H506c-1.32,2.64-2.63,5.28-3.95,7.9s-2.77,5.18-4,7.86-1.92,5.54-2.88,8.29C494.53,40,493.5,41.5,493,43.3c-2.48,8.28-6.15,16.12-9.17,24.2-1.82,4.89-3.63,9.82-5.67,14.65-1.31,3.09-2.82,6.18-3.5,9.58a3.77,3.77,0,0,1-1.83,2.9c1.17,3.71-.23,7.38-1,10.94-.51,2.38-.29,4.8-1,7.05A35.72,35.72,0,0,0,469,123.37q.06,31.24,0,62.5v5.24H378.86v4.62h-6.05v-4.6c-8.59-.28-158.78-.18-163.89.11V258.1H147.24v35.06h6.66v1.89h-6.77V348.1h67.72V373c-2.13,0-4.1,0-6.08,0s-3.87.08-5.59.11v23.78h66c7-8.49,12.25-17.8,19.15-26,8.6.81,17.1-.34,25.68.94,7,1,14.3.21,21.45.21l1.61-1.61v-9.53h11.06V312H371.8V269.92H359.23V226.86h13.51c.68-1.68-.32-3.43.58-4.67h5.73v4.67h91.73l46.44-57.81h36l47.87,58.18h19.74v5.65c-3.37.35-6.66-.17-9.65.31v61.86h45.89v11.06h18.67v6.06H649V329.8H629.91V313.23H585V333a95.23,95.23,0,0,1-.08,10c-.33,3.17,1.56,6.16.93,9.05a46.13,46.13,0,0,0-.84,9.62c0,3.34,0,6.67,0,10v19.5h35.75V406c-1.36.18-2.54-.29-3.65.39v23.51c1.26.49,2.71-.4,3.77.5v14.76H596.16V494h24.09a.77.77,0,0,1,.42.17c.13.1.22.24.14.15v22.73H585.35c-.86,1.66.22,3.43-.72,4.89-.86,0-1.69.32-2.43-.24-.63-1.51.37-3.27-.64-4.71H528c-.76.15-1.91-.5-2,1h-2C523.91,516.5,522.76,517.15,522,517ZM388.81,466.88l0-.7H350v33.29c-.75,2.59-1.92,2.54-3.13,2.54H299.56l-1.38-1.31V448h11.61v-21h-11.9V373H289.2L270.55,399.2H265l.15,1.73h16.21l1.63,1.55q0,24.56,0,49L269.53,465h-37L219,451.29c-.42-1.15.6-2.89-.52-4.29-.56,0-1.09-.1-1.36.35V551.78H346c0-8.87,0-17.52,0-26.18,0-1.38,0-2.66,1.7-3.62h28.18V468.64l1.76-1.76ZM730.06,228h-66a103.21,103.21,0,0,1-11-.08c-3.83-.42-7.2,1.67-10.92,1-.61,17-.39,40,.37,43.85h12.54v-4.26l5.6-5.71h98c4.4-4.4,8.34-9,13-12.75A34.24,34.24,0,0,0,780,241H735.7l-1.89-1.64V223l-1.55.12C731.53,224.63,732.8,226.65,730.06,228ZM213.83,371.91V349c-2,0-3.78-.06-5.59,0s-3.56-.35-5.07.18v22.71ZM767.08,686.83H779c0-2,0-3.77,0-5.57s-.09-3.53-.13-5.09H767.08ZM310.92,489.17H300c0,2,0,3.77,0,5.57s.09,3.53.13,5.09h10.78Zm509.92-77.26V401c-2,0-3.77,0-5.57,0s-3.53.09-5.11.13v10.77Zm5.33-50.82v19.82h5.66V361.09Zm5.67,50.82V401.25h-9.68v10.66ZM428.08,485.83H438c0-1.63.07-3.11,0-4.58s.43-2.92-.31-4.08h-9.59Zm-80.25-67.91V409c-1.8,0-3.44-.05-5.07,0s-3.24-.31-4.59.21v8.7Zm-12.75,2.92h12.61a1.53,1.53,0,0,0-.05-1.85H337c0-2.14-.06-3.95,0-5.75s-.35-3.56.3-5.41H347.9v-1.65H335.08Zm3-51h9c-.15-2.73.12-5.31-.15-7.68h-8.8ZM882.2,598a16.71,16.71,0,0,0,0,5.82h11.51V598ZM300,487.89l12.17.22V499.7a1.4,1.4,0,0,0,1.66,0V486c-4.72.36-9.3-.58-13.83.56C300,486.53,300,486.84,300,487.89ZM893.8,596.83c-8.62-1.29-44.51-1.05-48.26,0Zm-115,96.09v-4.67h-5.66v4.67Z"/><path class="cls-3" d="M91.08,783.83V437.17h31.6c1.44,2.48-1.62,4-1.7,6.71,0,1.52,2.08,2.71,2,5.07H103.1V772H459.9v11.86Z"/><path class="cls-3" d="M791.09,783.83V772.17H997.42c.94-4.85,1.32-209.68.46-239H987.31c-.54-2.05-.25-4-.3-5.93s0-4,0-6.09h22.76V783.83Z"/><path class="cls-4" d="M984,538H973.28c-2.65-3.71-5.8-7.33-5.29-12.08l5.09-9.92h10.64c.68,0,1.36,0,1.28,1-2.49,2.33-2.84,5.9-5,8.51a10.74,10.74,0,0,0,1.46,6.68C982.52,534,984.17,535.65,984,538Z"/><path class="cls-4" d="M139,454h-8.48c-3.48-2.79-4.08-7.33-6.68-11,2.19-2.89,2.63-6.83,5.59-9.46s6.92-1.27,10.57-1.56a70.53,70.53,0,0,1-3.52,6.94c-1.84,2.85-1.76,5.29,0,8.2C137.73,449.17,139.44,451.26,139,454Z"/><path class="cls-3" d="M139,454c.44-2.74-1.27-4.83-2.51-6.86-1.77-2.91-1.85-5.35,0-8.2A70.53,70.53,0,0,0,140,432c1-.08,1,.61,1,1.29v20.18C140.34,454.31,139.61,453.87,139,454Z"/><path class="cls-3" d="M984,538c.17-2.35-1.48-4-2.5-5.81a10.74,10.74,0,0,1-1.46-6.68c2.12-2.61,2.47-6.18,5-8.51,0,6.41,0,12.83,0,19.24C985,537,985.35,538,984,538Z"/><path class="cls-5" d="M528,517h53.56c1,1.44,0,3.2.64,4.71.74.56,1.57.2,2.43.24.94-1.46-.14-3.23.72-4.89h35.46V494.33c.08.09,0-.05-.14-.15a.77.77,0,0,0-.42-.17H596.16V445.12h24.71V430.36c-1.06-.9-2.51,0-3.77-.5V406.35c1.11-.68,2.29-.21,3.65-.39V391.12H585v-19.5c0-3.33,0-6.66,0-10a46.13,46.13,0,0,1,.84-9.62c.63-2.89-1.26-5.88-.93-9.05a95.23,95.23,0,0,0,.08-10V313.23h44.91V329.8H649V312.17h26.78v-6.06H657.08V295.05H611.19V233.19c3-.48,6.28,0,9.65-.31v-5.65H601.1l-47.87-58.18h-36l-46.44,57.81H379.05v-4.67h-5.73c-.9,1.24.1,3-.58,4.67H359.23v43.06H371.8V312H348.17v48.88H337.11v9.53L335.5,372c-7.15,0-14.44.83-21.45-.21-8.58-1.28-17.08-.13-25.68-.94-6.9,8.24-12.13,17.55-19.15,26h-66V373.11c1.72,0,3.66-.09,5.59-.11s3.95,0,6.08,0V348.1H147.13V295.05h6.77v-1.89h-6.66V258.1h61.68V191.24c5.11-.29,155.3-.39,163.89-.11v4.6h6.05v-4.62H469v-5.24q0-31.26,0-62.5a35.72,35.72,0,0,1,1.83-10.75c.7-2.25.48-4.67,1-7.05.76-3.56,2.16-7.23,1-10.94a3.77,3.77,0,0,0,1.83-2.9c.68-3.4,2.19-6.49,3.5-9.58,2-4.83,3.85-9.76,5.67-14.65,3-8.08,6.69-15.92,9.17-24.2.54-1.8,1.57-3.33,2.19-5.11,1-2.75,1.68-5.62,2.88-8.29s2.64-5.24,4-7.86,2.63-5.26,3.95-7.9h48.69c1.36,1.74,3.51,2.45,5.64,3.32,1.92,4.6,3.81,9.15,5.72,13.69,1.32,3.12,2.91,6.15,4,9.36,2.87,8.81,7.37,17,10.18,25.8.81,2.57,2.61,4.92,3.27,7.63,1.11,4.53,2.56,9,3.7,13.49,1.3,5.1,2.71,10.19,4.12,15.28s2.79,9.87,4.34,15.35l1.48,1.48V191h4.56c13,0,26-.71,39,.19,14.89,1,29.74.62,44.6.78s29.63,0,44.63,0v4.73h6.05v-5.5h85V239H799.1v4.45c4.26,2.68,7.15,6.56,10.58,9.82s6.66,6.31,8.91,10.24c-.35.09.57-.24.16.28a.61.61,0,0,1-.39.25q-28.25,0-56.5,0c-.27,0-.54-.28-1-.5,3.69-3.65,7.13-7.53,11.08-10.8a91.42,91.42,0,0,0,7.61-6.84c.67-.7.62-2.12,2.24-2v-4.72H736.08V221.2H730V226H659.48c-3.33,0-6.67.09-10,0-3.1-.11-5.9,1.92-9.28.83v48.09h16.6v-5.21l4.63-4.54H832.79v31.57c-.81.86-2.57-.65-2.79,1.29a2.48,2.48,0,0,0,0,4c.23,1.92,2,.46,2.85,1.35v20.56H809.12v35.9H824.8c.46,7.4,0,14.65.28,22.05h7.69v18.06H809.05V413h-11.4c-.86.51-.59,1.06-.69,1.88h102.9v54.06H882.05v36.89H867.26v6H899.9V497.13h42.83L960,516.54v22.79l-17.55,17.54H900V541.1h-5.88v53.77h-49v3.06H881v6.89h12.49c.74,4.2.95,34.22.34,46h-90.6L778.9,663.1V675H766.18v12.76c1.61.85,3.66-.14,5.69.54v5.65h7v74.82c-.94.91-2.24,2.15-3.52,3.42-13.44,13.43-27.1,26.64-40.22,40.39-7.87,8.25-16.12,16.17-23.64,24.72-5.13,5.84-10.83,11-15.93,16.77H691.4c-8,10.88-17.83,20.25-25.4,31.33,0,8.31-.36,16.5.11,24.64.39,6.6-1.82,12.54-3.32,18.68-1,4.16-3.71,7.54-6,11-5.38,7.93-10.94,15.73-15.85,24-.63,1.06-1.77,1.3-2.83,1.78v3.85c-2.65,3.44-6.45,5.73-8.63,9.67H584.33l-5.5-12.69c2.49-3.93,4.86-7.61,7.13-11.35.3-.48,0-1.3,0-2.48-7.34-6.51-16-11.8-25.53-18.72-2.12-2.28-3.19-7.2-6.16-11.09a13.09,13.09,0,0,1-2.35-8c.1-12,0-24,0-36a100.74,100.74,0,0,1-10.23-12.23,5.8,5.8,0,0,0-1.89-1.39c-5.06-3.07-10-6.29-13.17-11.61-1.08-1.8-3-3.09-4.52-4.64a16.19,16.19,0,0,1-4.38-7.2c-.81-2.92-2.88-5.46-4.07-8.3a28.08,28.08,0,0,0-6.4-9.35,68,68,0,0,1-8.52-10.46,34.12,34.12,0,0,0-2.79-2.86,32.06,32.06,0,0,1-3.33-4.09,10.76,10.76,0,0,0-7.33-4.58c-4.61-10-9.33-20.15-14.06-30.34-.83-1.75.48-3.83-.91-5.61-1.22-1.59.65-4-1.4-5.42.46-2.79-.37-5.46-1.05-8.07-1.18-4.56-1.42-9.28-2.65-13.87a40.68,40.68,0,0,1-1.42-8,45.64,45.64,0,0,0-1.52-7.81c-.63-2.59-.74-5.32-1.33-8a71.88,71.88,0,0,1-1.94-21.86c-6.36.67-12-2-17.94-1.92-2-1.39-4.49-.49-6.55-1.12a23.77,23.77,0,0,0-7.12-.88,49.35,49.35,0,0,1-7-.07c-2.4-.37-4.26,1.27-6.6,1.16-2.18-.09-4.62-1-6.58.91-4.44-.68-8.66,1.34-13.09,1a6.54,6.54,0,0,1-4.53-1.83c-5-1.17-9.16,1.35-13.6,2.36-1.48.33-3.27.88-4.22.31-2.22-1.34-4.45-.8-6.66-.83-6.17-.11-12.35.23-18.5-.13-4.62-.27-8.77,1.51-13.17,2.09-1.07,1.55-2.68,1-4.09,1q-44.49,0-88.95,0l-65.35-65.35V585h15.67V572.15h-12.7V470.09H148.06V454.57c-.85-1-1.77-.28-2.84-.86.2.18,0,.07,0,0q0-10.68,0-21.36c.71-.7,1.6-.09,2.72-.48v-16.7H215v5.77h5.88V403.14h16.06v-4.92H263v4.59h17.33a4.83,4.83,0,0,1,.55.53.84.84,0,0,1,.16.43c0,15.5,0,31,0,46.27L268.07,463h-34.6l-12.58-12.58V445.1h-5.71V553.53c3.95.67,119.92.93,132.7.26v-29.7h30.06v-54.9h12.54c1-1.68.22-3.31.65-5h-43v35.71H315.06V485H300.18V450.14h11.68V425.08H300.11V373.19h47.56c-.08-.08.06,0,.15.14a.83.83,0,0,1,.17.43c0,10.31,0,20.62,0,31.1H334.23v17.06H348v17H391V429a.85.85,0,0,0,1-1c.5,0,1.19.22,1.47,0,3.86-3.37,8.44-4.31,13.4-5.22A44.38,44.38,0,0,1,420,422.2c4.53.51,9.26.89,13.49,3.54,2.17,1.36,3.53,3.34,5.52,4.65v5.07c1.13,1.26,2.48.09,3.87.78v-15h43.51l20.56,20.57v18.37l-21.7,21.7H443.07V467.33a6.86,6.86,0,0,0-4.06-.1v8.61H427.24v11.05h11.54v92H417.21V584h4.61v11.49c4.46.77,81.7,1,97.18.36V526c3.55,3.48,4.8,4.13,10.92,1.58C531.87,521.65,531.55,520.59,528,517ZM687,646a2.48,2.48,0,0,0-4,0c-1.94-.61-1-2.21-1-3.29-.06-26.31,0-52.62-.08-78.93,0-1.25.48-2.63-.55-3.94h-53.2c-.6-2,.27-4.05-.63-6H584.8c0-5,0-9.74,0-14.52,0-.1-.23-.2-.37-.31-.75.19-1.65-.38-2.49.6v20.5H559v2.52c-2.29,2.24-4.77,4.47-7,6.93-1.1,1.24-2.41,1.45-4.15,1.71v37.87H537c0,2.14,0,4.12,0,6.09a.76.76,0,0,1-1,.79,3.43,3.43,0,0,0-5,0,2.48,2.48,0,0,0,0,4c-.35,2-1.88,1-2.79,1-14.15.07-28.31,0-42.46.08-1.25,0-2.62-.5-3.57.3V656.9h17.87V645.12h31v66H556c.59,2.87,3.62,4,4.32,6.53,6.05,3.07,12,6,17.88,9.06,6.55,3.33,6.54,3.34,13.6,3.35.31,0,.62.11.43.07,2.33,1.09,2.56,3.34,3.87,4.49,4.11,1,8,2.09,12,2.93,4.79,1,9.39,3.12,13.8,2.53L641,728h4.1l1.38-2.06h3.8c6.32-4.48,12.73-8.28,18.4-12.94h49.57a.84.84,0,0,0,.43-.14c.14-.09.24-.23.2-.19V651h-4.57c-8.33,0-16.65,0-25,0-.8,0-2.11.7-2.29-1A2.48,2.48,0,0,0,687,646ZM604,350v3a.85.85,0,0,0,1,1h40v25h6.25c1.93,0,3.85-.08,5.75-.11V354h18a.85.85,0,0,0,1-1v-3h18v34.83c17.43.71,92.69.43,96.83-.32V287.17c-16.83-.7-92.52-.42-96.83.35V334H676v-8a.85.85,0,0,0-1-1H664a.85.85,0,0,0-1,1v23H605A.85.85,0,0,0,604,350ZM711.17,600.83H803V579h7.06V573.1c1.7-.33,3.39.26,5-.5V560.07c8.07-.24,16,.15,24-.22V512H850.8v-6.06H838.9v-61H760.24v-30h12.67V413h-6V394.21H719.14v10.91h11.7V434H679.79c-7,4-14.08,6.68-20.83,10.08a8.66,8.66,0,0,1-4.11.93h-9.7v31c2.12,0,4.1,0,6.07,0s3.87.08,5.95.12V529h71.08a.75.75,0,0,1,.42.18,3.94,3.94,0,0,1,.52.58v6.29h7.6v54.8H712V560C710.79,564,710.58,587.09,711.17,600.83ZM590.51,873c2.9,3.25,6.6,5.83,8.65,9.9,1.9,0,3.88.5,5.43-.1,4-1.56,8.18-2.78,12.28-4.15,3.81-1.28,7.6-2.61,11.94-4.11l22.38-25.46v-4.76c11.95-15.51,23.48-30,34.94-45.09V792h11.74c2-3.83,5.29-6.59,8.15-9.54-.47-3.63,2.43-6.39,2-10,2.84-2.11,3.95-5.86,7-7.83v-7.72c-1.74-4.06-4.39-7.19-6.47-10.8l-2.35-.26L699.78,735c-1.43.16-2.75-.52-3.91.57-2.53,2.41-5.86,3.64-8.83,5.25-7.23,3.91-14.27,8.14-21.45,12.12-3.26,1.81-6.63,3.4-9.74,5.53a12.75,12.75,0,0,1-7.94,2.59c-6.65-.29-13.33-.14-20-.06a23.1,23.1,0,0,0-5.65.72c-2,.54-4.33,1.35-6.51,1.17-2.83-.23-5.27,1.81-8.09,1.08-1.49,1.85-3.67.65-5.48,1.25-4.22,1.39-10.43,1.12-14.09-.7-6.22-3.08-12.6-5.78-19-8.54s-12.71-5.56-19-8.52-12.91-5.86-19.27-9c-4.42-2.18-9.13-3.77-13.62-6.5-4.36.78-8.46-2.92-13.07-1.8-2,11-5.42,21.53-6.4,32.62,5.56,3.6,9.71,8.3,14.17,12.67v4.84c11.1,12,23.49,22.6,34,35,3.31,3.94,7.27,7.33,10.89,11a7.06,7.06,0,0,0,3.14,2.08v9.79l18,21.17v6.16c2.7,2.53,6.19,4.24,8.27,7.38ZM457.91,621H377c0-6.48-.05-12.63,0-18.77s-.26-12.17.21-18.42h18.66v-4.54c-7.21-.5-92.52-.37-96.76.13v47.7h13v30h19v11.77H343V657c12.33,0,24.31,0,36.29,0,.22,0,.45-.38.68-.59,0-.49-.07-1,.32-1.24h58.39c.25.71.45,1.29.59,1.7h18.6ZM342,317.92V251.18c-16.32-.69-80.71-.42-84.83.31v66.43Zm-101.9-85.1h96.8v-5.61h-104v65.91H178c0,.82-.21,1.34.33,1.71,2.17.59,4.52-.36,6.85.57v22.48h66.59v-12H240.1ZM555.91,17.17H544c0,2.15,0,4.12,0,6.1s.08,3.84.11,5.56h11.8ZM233.17,635.84l.83,0c0-2.78.08-5.56,0-8.34s.45-5.6-.81-8.29Zm26.67-26,0-.83c-2.78,0-5.56-.08-8.34,0s-5.6-.45-8.29.81Zm9.33,25,.83,0c0-2.61.07-5.23,0-7.84s.4-5.27-.81-7.79Zm-31.39,3.46c-.48.25-1.33-1-1.64.37C236.74,639.15,237.3,639.19,237.78,638.3Zm5,5c-.48.25-1.33-1-1.64.37C241.74,644.15,242.3,644.19,242.78,643.3Z"/><path class="cls-1" d="M392,428a.85.85,0,0,1-1,1h-1.85v7.85H350.22V314.08h22.2l1.41-1.41V268.15H361.15V229.22H372c4.14-1,2.35-3.76,3.35-5.21h1.22c1.28,1.34-.8,3.92,3,4.89h92.22c15.62-18.79,31-38.35,46.57-57.8h33.23a71,71,0,0,1,9.73,11.54,75.09,75.09,0,0,0,6,7c4.18,4.55,7.66,9.63,11.82,14.2,5,5.46,9.33,11.49,14.1,17.16,2.11,2.52,4.77,4.76,6,8.08h19.27c.68.56.49,1.06.41,1.88h-8.32l-1.49,1.49v63.18l1.32,1.32h44.38v9.5l2.06,1.62h16.62c.71.55.5,1.06.46,1.88H648.59L647,311.49v16.35H632.13V312.63l-1.52-1.52H584.39L583,312.5v11.07c0,7-.07,14,0,21,0,2-.89,4.28.92,6.12a1.53,1.53,0,0,1,0,1.44c-1.71,2.39-.91,5.07-.93,7.61-.09,10.64,0,21.29,0,31.77l1.39,1.39h34.39v10.88c-.67.92-2.92-.59-3.62,2.18V430.7c.68,1.4,2.3,1.21,3.74,1.55v10.58H595.67l-1.54,1.54v50.26L595.5,496h23.34v18.68c-1,.76-2.41.28-3.67.29-8.67.06-17.33,0-26,0-2,0-4.07-.3-6,.71-1.93-1.43-4.14-.52-6.21-.67s-4.33,0-6.5,0h-52l-1.56,1.61v77.26H424.21v-8.8c-1-4.18-3.72-2.41-6-4h21.21l1.58-1.58V483.28c.8.27-.1,0,.54-.22.16,0,.45.63.7.64,14.77.69,29.56.06,44.22.35l22.47-22.47v-20.7L487,419H444.65c-1.31,0-2.77-.35-3.81,1.3v7.75c-.83-.1-1.29.05-1.72-.4-3.05-3.19-7-4.47-11.1-5.81C423,420.2,418,420,412.8,420c-6.8-.08-12.89,2.33-18.93,5A2.64,2.64,0,0,0,392,428Zm221,0V408c-.12-.28-.23-.81-.35-.82-3.51-.11-7.09-.89-9.89.76A53.55,53.55,0,0,0,597,418.11c1,1.83,2.14,3.67,3,5.63s1.74,4.06,3.77,5.26h8C612.39,429,613.08,429,613,428Zm-84.9,28.83H557c0-10.8,0-21.44,0-32.07a.77.77,0,0,1,.17-.43,4.44,4.44,0,0,1,.55-.51H596c.23-2.22-1.9-3.38-2-6,.1-1.58,3.1-3.15,1.7-5.72H544.89v33H528.1ZM511,450.91c2.14,3.51,3.07,8.1,6.3,10.86h8.93c-.44-1,0-1.76-.45-2.6-1.05-1.86-1.72-3.95-2.88-5.74a4.07,4.07,0,0,1-.06-4.8c1.51-2.71,2.69-5.61,4.13-8.7-3.78.36-7.4-.76-10.1,1C514.22,444.17,512.82,447.46,511,450.91Z"/><path class="cls-1" d="M388.81,466.88H377.62l-1.76,1.76V522H347.68c-1.71,1-1.71,2.24-1.7,3.62,0,8.66,0,17.31,0,26.18H217.13V447.35c.27-.45.8-.33,1.36-.35,1.12,1.4.1,3.14.52,4.29L232.57,465h37L283,451.51v-49l-1.63-1.55H265.16L265,399.2h5.54L289.2,373h8.69v53.89h11.9v21H298.18v52.73l1.38,1.31h47.28c1.21,0,2.38.05,3.13-2.54V466.18h38.88Z"/><path class="cls-1" d="M730.06,228c2.74-1.35,1.47-3.37,2.2-4.86l1.55-.12v16.37L735.7,241H780a34.24,34.24,0,0,1-8.36,9.06c-4.64,3.75-8.58,8.35-13,12.75h-98l-5.6,5.71v4.26H642.52c-.76-3.85-1-26.82-.37-43.85,3.72.63,7.09-1.46,10.92-1a103.21,103.21,0,0,0,11,.08Z"/><path class="cls-5" d="M213.83,371.91H203.17V349.2c1.51-.53,3.32-.1,5.07-.18s3.62,0,5.59,0Z"/><path class="cls-5" d="M767.08,686.83V676.17h11.78c0,1.56.11,3.32.13,5.09s0,3.6,0,5.57Z"/><path class="cls-5" d="M310.92,489.17v10.66H300.14c0-1.56-.11-3.33-.13-5.09s0-3.61,0-5.57Z"/><path class="cls-5" d="M820.84,411.91H810.16V401.14c1.58,0,3.34-.11,5.11-.13s3.6,0,5.57,0Z"/><path class="cls-5" d="M826.17,361.09h5.66v19.82h-5.66Z"/><path class="cls-5" d="M831.84,411.91h-9.68V401.25h9.68Z"/><path class="cls-5" d="M428.08,485.83v-8.66h9.59c.74,1.16.22,2.66.31,4.08s0,2.95,0,4.58Z"/><path class="cls-5" d="M347.83,417.92h-9.66v-8.7c1.35-.52,3-.15,4.59-.21s3.27,0,5.07,0Z"/><path class="cls-5" d="M335.08,420.84V406.18H347.9v1.65H337.32c-.65,1.85-.22,3.66-.3,5.41s0,3.61,0,5.75h10.64a1.53,1.53,0,0,1,.05,1.85Z"/><path class="cls-5" d="M338.09,369.84v-7.68h8.8c.27,2.37,0,4.95.15,7.68Z"/><path class="cls-5" d="M882.2,598h11.52v5.82H882.21A16.71,16.71,0,0,1,882.2,598Z"/><path class="cls-5" d="M524,518h2c1.79,1.39,3.73,2.68,4,5.21-.87,2.59-2.5,4.32-5,4.75-2.51-.46-3.66-2.3-5-4v-2c1.93-.47.62-2,1-3C522,518.62,523.53,519.93,524,518Z"/><path class="cls-5" d="M300,487.89c0-1.05,0-1.36,0-1.37,4.53-1.14,9.11-.2,13.83-.56v13.77a1.4,1.4,0,0,1-1.66,0V488.11Z"/><path class="cls-5" d="M893.8,596.83H845.54C849.29,595.78,885.18,595.54,893.8,596.83Z"/><path class="cls-6" d="M520,524c1.31,1.66,2.46,3.5,5,4,2.53-.43,4.16-2.16,5-4.75-.27-2.53-2.21-3.82-4-5.21.09-1.5,1.24-.85,2-1,3.55,3.59,3.87,4.65,1.92,10.58-6.12,2.55-7.37,1.9-10.92-1.58C519.15,525.24,518.5,524.09,520,524Z"/><path class="cls-5" d="M778.83,692.92h-5.66v-4.67h5.66Z"/><path class="cls-5" d="M830,298h2.51c1.13,1.12,0,2.46.59,3.49-1.15.81-2.16.38-3.1.51Z"/><path class="cls-5" d="M519,520v-3h3l-1,2Z"/><path class="cls-6" d="M519,520l2-1c-.38,1,.93,2.53-1,3C518.5,521.91,519.15,520.76,519,520Z"/><path class="cls-6" d="M521,519l1-2c.76.15,1.91-.5,2,1C523.53,519.93,522,518.62,521,519Z"/><path class="cls-1" d="M536,616a.76.76,0,0,0,1-.79c0-2,0-4,0-6.09h10.89V571.25c1.74-.26,3.05-.47,4.15-1.71,2.22-2.46,4.7-4.69,7-6.93v-2.52h22.89v-20.5c.84-1,1.74-.41,2.49-.6.14.11.37.21.37.31,0,4.78,0,9.56,0,14.52h42.79c.9,2,0,4,.63,6h53.2c1,1.31.55,2.69.55,3.94,0,26.31,0,52.62.08,78.93,0,1.08-1,2.68,1,3.29v4h4c.18,1.67,1.49,1,2.29,1,8.33,0,16.65,0,25,0h4.57v61.66s-.06.1-.2.19a.84.84,0,0,1-.43.14H668.64c-5.67,4.66-12.08,8.46-18.4,12.94h-3.8L645.06,728H641l-19.13,12c-4.41.59-9-1.51-13.8-2.53-4-.84-7.87-1.91-12-2.93-1.31-1.15-1.54-3.4-3.87-4.49.19,0-.12-.07-.43-.07-7.06,0-7,0-13.6-3.35-5.91-3-11.83-6-17.88-9.06-.7-2.51-3.73-3.66-4.32-6.53H531.07v-66h-31V656.9H482.18V621.33c.95-.8,2.32-.3,3.57-.3,14.15,0,28.31,0,42.46-.08.91,0,2.44,1,2.79-1h5Zm49.1-56.15h41.84c0-1.73.34-3.33-.18-4.7H585.1Zm-46.94,50.24v10.66h9.68V610.09Z"/><path class="cls-1" d="M711.17,600.83c-.59-13.74-.38-36.8.83-40.82v30.85h24.79v-54.8h-7.6v-6.29a3.94,3.94,0,0,0-.52-.58.75.75,0,0,0-.42-.18H657.17V476.12c-2.08,0-4-.1-5.95-.12s-4,0-6.07,0V445h9.7a8.66,8.66,0,0,0,4.11-.93c6.75-3.4,13.84-6.09,20.83-10.08h51.05V405.12h-11.7V394.21H767V413h6v1.88H760.24v30H838.9v61h11.9V512H839.17v47.87c-8,.37-16,0-24,.22V572.6c-1.66.76-3.35.17-5,.5V579H803v21.88Zm-11-83.75V528h36a.89.89,0,0,0,.44-.15c.13-.08.24-.22.18-.16v-10.6Zm-43.34-48.16V446c-2,0-3.78-.06-5.58,0s-3.57-.34-5.08.18v22.72Zm147.33,92.17V572c1.8,0,3.44,0,5.07,0s3.25.3,4.61-.21V561.09ZM720.09,403.83H730c-.07-3.07.11-6-.1-8.66h-9.82Zm-74,71h11c-.3-1.73.25-3.34-.32-4.68H646.09Zm84.08,54.24v5.66h5.66v-5.66Zm78.67,48.83v-5.06c-1.72.46-3.34-.33-4.68.47v4.59Z"/><path class="cls-1" d="M590.51,873h-4.23c-2.08-3.14-5.57-4.85-8.27-7.38v-6.16l-18-21.17v-9.79a7.06,7.06,0,0,1-3.14-2.08c-3.62-3.69-7.58-7.08-10.89-11-10.49-12.45-22.88-23-34-35v-4.84c-4.46-4.37-8.61-9.07-14.17-12.67,1-11.09,4.39-21.61,6.4-32.62,4.61-1.12,8.71,2.58,13.07,1.8,4.49,2.73,9.2,4.32,13.62,6.5,6.36,3.14,12.87,6,19.27,9s12.61,5.76,19,8.52,12.74,5.46,19,8.54c3.66,1.82,9.87,2.09,14.09.7,1.81-.6,4,.6,5.48-1.25,2.82.73,5.26-1.31,8.09-1.08,2.18.18,4.47-.63,6.51-1.17a23.1,23.1,0,0,1,5.65-.72c6.66-.08,13.34-.23,20,.06a12.75,12.75,0,0,0,7.94-2.59c3.11-2.13,6.48-3.72,9.74-5.53,7.18-4,14.22-8.21,21.45-12.12,3-1.61,6.3-2.84,8.83-5.25,1.16-1.09,2.48-.41,3.91-.57l6.39,10.82,2.35.26c2.08,3.61,4.73,6.74,6.47,10.8v7.72c-3.06,2-4.17,5.72-7,7.83.47,3.62-2.43,6.38-2,10-2.86,2.95-6.13,5.71-8.15,9.54H686.13v7.19c-11.46,15.06-23,29.58-34.94,45.09v4.76l-22.38,25.46c-4.34,1.5-8.13,2.83-11.94,4.11-4.1,1.37-8.23,2.59-12.28,4.15-1.55.6-3.53.1-5.43.1C597.11,878.8,593.41,876.22,590.51,873Z"/><path class="cls-1" d="M457.91,621v35.84h-18.6c-.14-.41-.34-1-.59-1.7H380.33c-.39.24-.34.75-.32,1.24-.23.21-.46.59-.68.59-12,0-24,0-36.29,0v11.91H331.16V657.14h-19v-30h-13V579.4c4.24-.5,89.55-.63,96.76-.13v4.54H377.22c-.47,6.25-.15,12.34-.21,18.42s0,12.29,0,18.77h80.91ZM332.09,667.84h9.66v-9.68h-9.66Z"/><path class="cls-7" d="M694,334V287.52c4.31-.77,80-1,96.83-.35v97.34c-4.14.75-79.4,1-96.83.32V350h32c0-3,0-5.61,0-8.25s.1-5.2-.06-7.75Zm84.83,3V324H754.77a.81.81,0,0,0-.43.16c-.13.09-.23.23-.18.18V361h6.56c2.1,0,4.2-.06,6.44-.1V337Z"/><path class="cls-7" d="M342,317.92H257.17V251.49c4.12-.73,68.51-1,84.83-.31v66.74Zm-18-49.74H311v11.88H269.13v24.06h13V315h29.1a.77.77,0,0,0,.42-.17,5.05,5.05,0,0,0,.52-.57V303.94H325c0-3-.18-5.78,0-8.56C325.71,286.32,323.55,277.39,324,268.18Z"/><path class="cls-1" d="M240.1,232.82v73.06h11.68v12H185.19V295.4c-2.33-.93-4.68,0-6.85-.57-.54-.37-.29-.89-.33-1.71h54.9V227.21h104v5.61Zm10.82,74.35H241c0,1.8-.05,3.44,0,5.08s-.31,3.24.21,4.58h9.7Z"/><path class="cls-1" d="M664,325h11a.85.85,0,0,0,1,1v8a.76.76,0,0,0-1,.79q0,7.21,0,14.42a.76.76,0,0,0,1,.79v3a.85.85,0,0,0-1,1H657a.76.76,0,0,0-.78-1q-5.22-.06-10.44,0a.76.76,0,0,0-.78,1H605a.85.85,0,0,0-1-1v-3a.85.85,0,0,0,1-1h58V326A.85.85,0,0,0,664,325Z"/><path class="cls-2" d="M676,350a.76.76,0,0,1-1-.79q0-7.21,0-14.42a.76.76,0,0,1,1-.79h49.93c.16,2.55,0,5.16.06,7.75s0,5.28,0,8.25H676Zm1.1-1.18h47.8V335.18H677.1Z"/><path class="cls-2" d="M645,354a.76.76,0,0,1,.78-1q5.22-.06,10.44,0a.76.76,0,0,1,.78,1v24.89c-1.9,0-3.82.09-5.75.11H645Zm10.83,17.92V355c-1.8,0-3.44-.05-5.08,0s-3.24-.32-4.58.21v16.7Zm-9.74,5.91H656c0-1.74.35-3.33-.19-4.66h-9.67Z"/><path class="cls-2" d="M555.91,17.17V28.83h-11.8c0-1.72-.09-3.64-.11-5.56s0-3.95,0-6.1Zm-1,1H545c0,1.82,0,3.46,0,5.09s-.32,3.24.21,4.57h9.69Z"/><path class="cls-2" d="M233.17,635.84V619.19c1.26,2.69.71,5.52.81,8.29s0,5.56,0,8.34Z"/><path class="cls-2" d="M259.84,609.83H243.19c2.69-1.26,5.52-.71,8.29-.81s5.56,0,8.34,0Z"/><path class="cls-2" d="M269.17,634.84V619.19c1.21,2.52.71,5.19.81,7.79s0,5.23,0,7.84Z"/><path class="cls-2" d="M531,616a3.43,3.43,0,0,1,5,0Z"/><path class="cls-2" d="M531,620a2.48,2.48,0,0,1,0-4Z"/><path class="cls-2" d="M830,298v4A2.48,2.48,0,0,1,830,298Z"/><path class="cls-1" d="M683,646a2.48,2.48,0,0,1,4,0Z"/><path class="cls-1" d="M687,646a2.48,2.48,0,0,1,0,4Z"/><path class="cls-2" d="M237.78,638.3c-.48.89-1,.85-1.64.37C236.45,637.31,237.3,638.55,237.78,638.3Z"/><path class="cls-2" d="M242.78,643.3c-.48.89-1,.85-1.64.37C241.45,642.31,242.3,643.55,242.78,643.3Z"/><path class="cls-2" d="M664,325a.85.85,0,0,1-1,1A.85.85,0,0,1,664,325Z"/><path class="cls-2" d="M676,326a.85.85,0,0,1-1-1A.85.85,0,0,1,676,326Z"/><path class="cls-2" d="M605,349a.85.85,0,0,1-1,1A.85.85,0,0,1,605,349Z"/><path class="cls-2" d="M604,353a.85.85,0,0,1,1,1A.85.85,0,0,1,604,353Z"/><path class="cls-2" d="M675,354a.85.85,0,0,1,1-1A.85.85,0,0,1,675,354Z"/><path class="cls-3" d="M528.1,456.83v-11.7h16.79v-33h50.78c1.4,2.57-1.6,4.14-1.7,5.72.09,2.59,2.22,3.75,2,6H557.73a4.44,4.44,0,0,0-.55.51.77.77,0,0,0-.17.43c0,10.63,0,21.27,0,32.07Z"/><path class="cls-4" d="M613,428c.08,1-.61,1-1.28,1h-8c-2-1.2-2.86-3.22-3.77-5.26s-2-3.8-3-5.63a53.55,53.55,0,0,1,5.81-10.17c2.8-1.65,6.38-.87,9.89-.76.12,0,.23.54.35.82-2.49,2.35-2.94,5.9-4.93,8.57a3.08,3.08,0,0,0,0,2.86C610.06,422.1,610.51,425.65,613,428Z"/><path class="cls-4" d="M511,450.91c1.87-3.45,3.27-6.74,5.87-10,2.7-1.72,6.32-.6,10.1-1-1.44,3.09-2.62,6-4.13,8.7a4.07,4.07,0,0,0,.06,4.8c1.16,1.79,1.83,3.88,2.88,5.74.47.84,0,1.6.45,2.6h-8.93C514,459,513.09,454.42,511,450.91Z"/><path class="cls-3" d="M613,428c-2.49-2.35-2.94-5.9-4.93-8.57a3.08,3.08,0,0,1,0-2.86c2-2.67,2.44-6.22,4.93-8.57Z"/><path class="cls-5" d="M585.1,559.85v-4.7h41.66c.52,1.37.18,3,.18,4.7Z"/><path class="cls-5" d="M538.16,610.09h9.68v10.66h-9.68Z"/><path class="cls-5" d="M531,620v-4h5v4Z"/><path class="cls-5" d="M687,646v4h-4v-4Z"/><path class="cls-5" d="M700.17,517.08h36.66v10.6c.06-.06-.05.08-.18.16a.89.89,0,0,1-.44.15h-36Z"/><path class="cls-5" d="M656.83,468.92H646.17V446.2c1.51-.52,3.32-.1,5.08-.18s3.61,0,5.58,0Z"/><path class="cls-5" d="M804.16,561.09h9.68v10.69c-1.36.51-3,.15-4.61.21s-3.27,0-5.07,0Z"/><path class="cls-5" d="M720.09,403.83v-8.66h9.82c.21,2.69,0,5.59.1,8.66Z"/><path class="cls-5" d="M646.09,474.84v-4.68h10.68c.57,1.34,0,2.95.32,4.68Z"/><path class="cls-5" d="M730.17,529.08h5.66v5.66h-5.66Z"/><path class="cls-5" d="M808.84,577.91h-4.68v-4.59c1.34-.8,3,0,4.68-.47Z"/><path class="cls-5" d="M332.09,667.84v-9.68h9.66v9.68Z"/><path class="cls-2" d="M778.83,337H767.16V360.9c-2.24,0-4.34.08-6.44.1h-6.56V324.35s.05-.09.18-.18a.81.81,0,0,1,.43-.16h24.06Zm-13,22.91V337c-2,0-3.77-.06-5.58,0s-3.57-.33-5.08.17v22.73Zm-10.74-24.08H778c0-2,0-3.78,0-5.58s-.09-3.53-.13-5.1H755.09Z"/><path class="cls-2" d="M324,268.18c-.48,9.21,1.68,18.14,1,27.2-.21,2.78,0,5.59,0,8.56H312.19v10.31a5.05,5.05,0,0,1-.52.57.77.77,0,0,1-.42.17h-29.1V304.12h-13V280.06H311V268.18Zm-53.94,34.65H324c0-7.13,0-14.1,0-21.07a.83.83,0,0,0-.17-.43c-.09-.13-.23-.22-.17-.16H270.09Zm13,11H311c0-1.79.05-3.44,0-5.07s.31-3.25-.21-4.61H283.09Zm39.74-33.92V269c-2,0-3.77,0-5.57,0s-3.53.09-5.09.13v10.78Z"/><path class="cls-5" d="M250.92,307.17v9.66h-9.7c-.52-1.34-.15-3-.21-4.58s0-3.28,0-5.08Z"/><path class="cls-5" d="M677.1,348.82V335.18h47.8v13.64Z"/><path class="cls-5" d="M655.83,371.92h-9.66v-16.7c1.34-.53,3-.15,4.58-.21s3.28,0,5.08,0Z"/><path class="cls-5" d="M646.09,377.83v-4.66h9.67c.54,1.33.17,2.92.19,4.66Z"/><path class="cls-5" d="M554.91,18.17v9.66h-9.69c-.53-1.33-.14-3-.21-4.57s0-3.27,0-5.09Z"/><path class="cls-5" d="M765.83,359.92H755.17V337.19c1.51-.5,3.33-.1,5.08-.17s3.62,0,5.58,0Z"/><path class="cls-5" d="M755.09,335.84V325.16h22.77c0,1.57.11,3.34.13,5.1s0,3.61,0,5.58Z"/><path class="cls-5" d="M270.09,302.83V281.17h53.56c-.06-.06.08,0,.17.16a.83.83,0,0,1,.17.43c0,7,0,13.94,0,21.07Z"/><path class="cls-5" d="M283.09,313.84v-9.68h27.69c.52,1.36.15,3,.21,4.61s0,3.28,0,5.07Z"/><path class="cls-5" d="M322.83,279.92H312.17V269.14c1.56,0,3.33-.11,5.09-.13s3.61,0,5.57,0Z"/></svg>