<svg id="Layer_1" data-name="Layer 1" xmlns="http://www.w3.org/2000/svg" viewBox="0 0 1024 1024"><defs><style>.cls-1{fill:#fefefe;}.cls-2{fill:#7f7f7f;}.cls-3{fill:#a5a28a;}.cls-4{fill:#dedede;}</style></defs><path class="cls-1" d="M0,1024V0H1024V1024ZM987,411c0-.16.07-.43,0-.47q-10-6.57-20.06-13.1c-5.38-3.49-10.81-6.91-16.17-10.44-8.25-5.44-16.36-11.12-24.73-16.36-5.57-3.49-11-7.13-16.48-10.8-8.2-5.53-16.48-11-24.71-16.46-4.29-2.87-8.74-5.5-13-8.39-9.09-6.16-18.18-12.31-27.47-18.16-6.1-3.85-12.05-7.92-18-11.82H772.76a.84.84,0,0,1-.42-.16,5.58,5.58,0,0,1-.52-.56V261c-11.5,0-22.81,0-34.13,0-.23,0-.46.37-.69.57,0,.48.09,1-.63,1.44-3-.63-5.7.55-8.46,1.9-1.09.53-1.57,1.58-2.63,2.08-6.09,2.88-11.42,7-17.24,10.32-2.95,1.69-5.59,4-9.07,5V383.53c-.92,1-2.17-.11-2.84.82V416.5c2.42-1.77,4,.7,6.12.54s4.33,0,6.49,0c2.33,0,4.67,0,7,0,2.09-.05,4.22.25,6.27-.23,0-34.95,0-69.61,0-104.27,0-.12.21-.26.34-.35.58-.34.14.71.44-.17V417.89l-2.91.28v14H705.24c-.65,2,.3,4.07-.7,6.05H700v22.89H669.14v47.05H700v12.41c2.85,2.61,5.76,5.22,8.66,7.83,6.37,5.72,12.13,12.11,19.18,17.49h19.3V531.17H762V539h8.06v7.06h49.78V561H799.17v42H851.8v27.86H836.9V617.15H771.23c-1.61,3.9-2.06,8-3.24,11.82s-1.86,7.57-2.69,11.36c-1,4.58-2.43,9-3.27,13.65-.66,3.56-1.63,7-2.36,10.58-.64,3.09-1.74,6.29-2.47,9.39-.77,3.34-1.89,6.64-2.37,10.1-.27,2-.57,4.91-3.71,5.33C744.94,694,738.41,698,731.87,702c-4.12,2.56-8,5.45-12.29,8.34L698,675.53c-.13-1.86.44-3.89-1-5.53a.76.76,0,0,0,1-.77c0-3.07,0-6.13,0-9.12h-9V667c-1-.13-2,.31-2.86-.34,0-1.29,1.52-.16,1.73-.91v-5.68c-1.72,0-3.31-.3-4.87.19a11.25,11.25,0,0,1,0,2.69c-.26.9,1.39,1,.68,2-1.6.38-2.24-1.28-4.4-1.21l2.63-1.07c0-3.17,2.15-6.14.86-9.41h-6.56v7.49c.67.42,1.47.06,1.78.82-.83.79-1.76.5-3.05.1v-8.78h-6.74c-.14-1.43-.51-2.7.41-4H689.9V510H667.12V419.9h24v-3.61c1.32-.76,2.81.34,3.69-.58V384.08l-3.89-.18v-5h-5.06V361.08c-1.46-.24-2.64.23-3.67-.37-.58-.85.35-2.06-.82-2.75H663.46c-.12,0-.28-.2-.34-.35-.29-.6.75-.12-.85-.7h19.86v-5.06h9V256H771.8v-27H689.9V196.88H612.25v-7.71H699v14.26l25.34,20.47h47.49V186.3c-.5-.77-1.48-1.28-1.94-2.5a34.08,34.08,0,0,0-4-8.29c-3.45-4.68-5.47-10.15-8.71-14.93-1-1.5-1.16-3.6-2.22-5.05-3.87-5.31-6.36-11.41-9.82-16.95-.64-1-.73-2.45-1.48-3.37-3.8-4.62-7.72-9.15-11.63-13.68a35.72,35.72,0,0,1-2.79-2.86A84.27,84.27,0,0,0,720.54,108H707v-2c1,0,1.39,1.13,2.58,1.06,3.09-.18,6.2-.06,9.61-.06-2.52-4.46-6.24-7.31-8.56-11.08l-5.63.24V98c-1.38.12-.73-1.21-1.28-1.79h-9.83v5.55H682.83V96.1H665.36c-.93,1.57.23,3.35-.66,4.77h-8.58V95.3l1.69-.61c.65-13.37.41-57.61-.3-61.51H546.91C538.46,50.09,530,66.93,521.5,84H470.76a.84.84,0,0,0-.42.16,6.63,6.63,0,0,0-.53.56v9.16H456.35c-.89-1.24.26-2.74-.93-4h-4.16c-.16-.63-.28-1.08-.49-1.88h-4.42c-.81-1.5.32-3-.64-3.81H379.92v4.57h-8.06V84.09H284.2l-15.6,21.46c3.2,3.86,8,6.53,11.77,10.38-2.76,3.53-5.29,6.8-7.85,10s-5.2,6.51-7.77,9.78-4.39,7-7.87,9.35c-1.31.37-2-.67-2.7-1.15a5.89,5.89,0,0,0-6.67.08c-2.93,1.75-5.91,3.43-8.85,5.13-2.55,1.48-5.17,2.87-7.71,4.38-3.61,2.15-7.16,4.42-10.85,6.42-3.94,2.13-7.93,4.23-11.81,6.44-6.33,3.61-12.71,7.18-19,10.9-3.88,2.29-7.85,4.4-12.39,6.82H62.51c-5.7,5-10.31,10.61-16.07,15.13-4.56,3.57-8.34,8.12-12.44,12.2V399.52c.77.54,1.16,1.42,2.39,1.54,3.41.34,6.58,1.78,9.87,2.68,4.93,1.35,9.8,3.06,14.77,4.08,2.93.59,5.69,1.71,8.59,2.37s5.93,1.73,8.86,2.61c4.06,1.2,8.17,2.41,12.61,2.28,9.49-.27,19-.08,28.5-.08h4.28v53.12H92.16V552h27.08a.77.77,0,0,1,.42.17c.13.09.23.23.15.15v14.72H92.22V623h76.2c7.71-6.54,15.57-13,22.68-20.66V500.11h5.28c1.1.34.19,1.38,1.39,1.9h30V647.88h-59.9V632.15H107.25v56H227v5.1q0,21.75,0,43.5a11.18,11.18,0,0,0,.24,3.9c1.36,3.52,1.69,7.28,2.78,10.85,1.45,4.72,3,9.45,5.68,13.63A84.69,84.69,0,0,0,249.43,782a42.53,42.53,0,0,0,11.69,8c1.28.55,2.46,1.31,3.68,2a65.33,65.33,0,0,0,7,0c2.74-.31,4.88.94,7.19,2a6.67,6.67,0,0,1,3.89,5.07c.41,2.84,1.28,5.58,1.21,8.57-.24,10-.16,20-.07,30,.08,7.93-.92,16,2,23.67-.36,4.71,2.11,9,2,13.67,2.13,2.06.64,4.88,1.56,7.35a42.4,42.4,0,0,1,2.31,12c.17,2.76,1.86,5.25,1.13,8.08,2,1.44.19,3.86,1.35,5.43,1.37,1.84.21,3.86.79,5.62,1,2.8,3.12,3.8,5.9,4.73,6.12,2,12.16,4.42,18.11,6.93,6.54,2.75,13.22,5.1,19.79,7.76s13.46,5.33,20.28,7.77c4.65,1.66,9.16,3.68,13.8,5.28,6.71,2.32,13.28,5,19.87,7.58,4.73,1.86,9.54,3.5,14.25,5.42,3.12,1.27,6.19,2.81,9.58,3.49.83.16,2.24.47,2.8,1.62a22.43,22.43,0,0,0,5-.08c1.83-.41,2.89,1.19,4.6,1.16a57,57,0,0,1,11.62.74c4.57.85,9.37.07,14.07,1.09,3.43.74,7-.21,10.61.93,2.58.82,5.62.23,8.45.14s5.23,1.34,8.1,1.13a23.58,23.58,0,0,1,9.13.71c2.72.87,6-.28,8.91.31a33.5,33.5,0,0,0,8.05.85l16.74-8.38V897.19c-.74-.44-1-1-1.74-1.24a6.77,6.77,0,0,1-5.13-6,45,45,0,0,0-2.43-8c-1-2.72-1-5.7-1.74-8.3s0-4.93-.84-7.13a16.9,16.9,0,0,1-.91-6.14c2.11-5.62,4.75-10.06,5.3-15.45h56.94a.77.77,0,0,0,.43-.17,4.62,4.62,0,0,0,.52-.56V831.12h8.89v10.09c5.95-1.09,11.37,1.39,16.91.73,3.83-.45,7.32,1.59,11.09,1.06,1.82,2,4.86,0,6.67,2,3.55-.13,6.77,1.44,10.13,2.19,2.45.54,5.25.57,7.43,2.54,4.43,4,9.24,7.64,13.59,11.75,5.33,5,11,9.69,16.44,14.56,3.77,3.36,7.74,6.5,11.32,10,1.6,0,3.47-.57,4.53.12,2.37,1.52,4.87.29,7.14.94a21.18,21.18,0,0,0,7.1,1,41.06,41.06,0,0,0,7.12-.85c3-.66,6.3-.07,9.46-.19s6.26-1.7,8.35-1.16c4.65-1.06,7-4.08,10.51-5.18,1.94-3.43,5.82-4.61,8.42-7.32a40.72,40.72,0,0,0,6.71-9.15V762.08c0-3.17.65-6.53-.19-9.45-.78-2.7-2.57-5.23-3.82-7.89-.66-1.39-1.47-2.71-2.29-4.22l61-37.62h14.47V675.17H830V696h7.06v6.73h69.06V687.84h9.78c-2.13-1.88-2-3.67-1.9-5.44.1-2.56,0-5,.83-7.64.77-2.32.37-5,1-7.57a42,42,0,0,0,1-8.06c.47-8.94.18-17.92.18-27.23H893.15V588h25.44c1.42-3.62,4.34-6,6.12-9.16a37.23,37.23,0,0,1,4.6-6.59c3.4-3.8,5.58-8.38,7.52-12.9,1.56-3.65,3-7.43,4.46-11.15s3.05-7.74,4.75-11.53a20.43,20.43,0,0,0,2-5.69c.63.11.81-.3,1-.79,1.87-4.54,3.48-9.18,5.68-13.61a46.19,46.19,0,0,0,3.18-7.14c1.3-4.48,3.45-8.56,5.13-12.85s3.19-8.64,5.68-12.79h21.25V412.41ZM107.09,630.84h61c-.21-2.4.22-4.65-.26-6.68H107.09Zm721.83,45.34H817c0,8.8,0,17.42,0,26.05a.76.76,0,0,0,.16.43c.09.13.23.23.17.16h11.58ZM799.09,559.83H819c0-2.31,0-4.45,0-6.59s.26-4.21-.19-6.07H799.09Zm-680.18-6.66H105c0,2.31,0,4.45,0,6.59s-.25,4.21.19,6.07h13.71Zm629.26-21.09V546c2.3,0,4.44,0,6.58,0s4.22.24,6.08-.18V532.08Zm89.92,97.76h12.66V617.16H838.09ZM700.1,418c0,2.07-.13,4.17-.08,6.27.05,2.25-.28,4.54.18,6.55H713c0-2.31,0-4.45,0-6.59s.26-4.21-.24-6.23ZM92,565.88c1.9,0,3.84.14,5.77.1,2.09,0,4.21.27,6-.19V553H97.73c-1.92,0-3.84.07-5.73.11Zm824.35,137c-.93-4.85-1.75-9.26-1.3-13.94-3,.11-5.53-.13-7.89.14v13.8ZM771.91,225.17H737.09v2.66h34.82ZM737.1,259.83h34.8v-2.66H737.1ZM684.17,653.08V659c2.47,0,4.78,0,7.08,0s4.54.24,6.58-.17v-5.74Zm34.75-234.91h-4.67v12.66h4.67ZM684.17,96.08V101c3.07-.06,6,.1,8.66-.1V96.08Zm77.83,450c2.33-.27,4.67.24,6.82-.27v-5.86c-2.39.22-4.64-.22-6.82.3ZM689.79,650.18H669.35a1.37,1.37,0,0,0-.14,1.64h20.44A1.37,1.37,0,0,0,689.79,650.18Zm140.38,46.91v5.65h5.66v-5.65ZM455.91,84.16h-8.82v2.47c1.52,1,3.29-.23,4.74.69l.44,1.72c1.13-.29,2.36.35,3.64-.37Zm208,12h-6.77c-.1,1.41-.49,2.68.19,3.68h6.58ZM379,84c-2,.2-4-.2-6,.3.18,1.38-.29,2.55.29,3.49H379ZM703.91,432c-1.52.18-2.68-.26-3.86.42,0,1.53-.33,3.12.25,4.66,1.31-.16,2.47.28,3.61-.38Z"/><path class="cls-2" d="M948,531a20.43,20.43,0,0,1-2,5.69c-1.7,3.79-3.2,7.67-4.75,11.53s-2.9,7.5-4.46,11.15c-1.94,4.52-4.12,9.1-7.52,12.9a37.23,37.23,0,0,0-4.6,6.59c-1.78,3.16-4.7,5.54-6.12,9.16H893.15V631.9H917c0,9.31.29,18.29-.18,27.23a42,42,0,0,1-1,8.06c-.66,2.57-.26,5.25-1,7.57-.86,2.6-.73,5.08-.83,7.64-.08,1.77-.23,3.56,1.9,5.44h-9.78v14.93H837.07V696H830V675.17H816.13V702.9H801.66l-61,37.62c.82,1.51,1.63,2.83,2.29,4.22,1.25,2.66,3,5.19,3.82,7.89.84,2.92.19,6.28.19,9.45V864.16a40.72,40.72,0,0,1-6.71,9.15c-2.6,2.71-6.48,3.89-8.42,7.32-3.47,1.1-5.86,4.12-10.51,5.18-2.09-.54-5.14,1.05-8.35,1.16s-6.44-.47-9.46.19a41.06,41.06,0,0,1-7.12.85,21.18,21.18,0,0,1-7.1-1c-2.27-.65-4.77.58-7.14-.94-1.06-.69-2.93-.12-4.53-.12-3.58-3.46-7.55-6.6-11.32-10-5.46-4.87-11.11-9.52-16.44-14.56-4.35-4.11-9.16-7.72-13.59-11.75-2.18-2-5-2-7.43-2.54-3.36-.75-6.58-2.32-10.13-2.19-1.81-2-4.85,0-6.67-2-3.77.53-7.26-1.51-11.09-1.06-5.54.66-11-1.82-16.91-.73V831.12h-8.89v13.14a4.62,4.62,0,0,1-.52.56.77.77,0,0,1-.43.17H517.3c-.55,5.39-3.19,9.83-5.3,15.45a16.9,16.9,0,0,0,.91,6.14c.81,2.2.08,4.64.84,7.13s.74,5.58,1.74,8.3a45,45,0,0,1,2.43,8,6.77,6.77,0,0,0,5.13,6c.73.22,1,.8,1.74,1.24V962.6L508.05,971a33.5,33.5,0,0,1-8.05-.85c-2.87-.59-6.19.56-8.91-.31a23.58,23.58,0,0,0-9.13-.71c-2.87.21-5.34-1.22-8.1-1.13s-5.87.68-8.45-.14c-3.59-1.14-7.18-.19-10.61-.93-4.7-1-9.5-.24-14.07-1.09a57,57,0,0,0-11.62-.74c-1.71,0-2.77-1.57-4.6-1.16a22.43,22.43,0,0,1-5,.08c-.56-1.15-2-1.46-2.8-1.62-3.39-.68-6.46-2.22-9.58-3.49-4.71-1.92-9.52-3.56-14.25-5.42-6.59-2.59-13.16-5.26-19.87-7.58-4.64-1.6-9.15-3.62-13.8-5.28-6.82-2.44-13.59-5.06-20.28-7.77s-13.25-5-19.79-7.76c-5.95-2.51-12-4.89-18.11-6.93-2.78-.93-4.87-1.93-5.9-4.73-.58-1.76.58-3.78-.79-5.62-1.16-1.57.63-4-1.35-5.43.73-2.83-1-5.32-1.13-8.08a42.4,42.4,0,0,0-2.31-12c-.92-2.47.57-5.29-1.56-7.35.11-4.67-2.36-9-2-13.67-2.9-7.7-1.9-15.74-2-23.67-.09-10-.17-20,.07-30,.07-3-.8-5.73-1.21-8.57A6.67,6.67,0,0,0,279,794c-2.31-1.08-4.45-2.33-7.19-2a65.33,65.33,0,0,1-7,0c-1.22-.67-2.4-1.43-3.68-2a42.53,42.53,0,0,1-11.69-8,84.69,84.69,0,0,1-13.72-16.85c-2.67-4.18-4.23-8.91-5.68-13.63-1.09-3.57-1.42-7.33-2.78-10.85a11.18,11.18,0,0,1-.24-3.9q0-21.75,0-43.5v-5.1H107.25v-56h60.66v15.73h59.9V502h-30c-1.2-.52-.29-1.56-1.39-1.9H191.1v102.2c-7.11,7.7-15,14.12-22.68,20.66H92.22V567.05h27.59V552.33c.08.08,0-.06-.15-.15a.77.77,0,0,0-.42-.17H92.16V468.12h31.71V415h-4.28c-9.5,0-19-.19-28.5.08-4.44.13-8.55-1.08-12.61-2.28-2.93-.88-5.92-1.95-8.86-2.61S64,408.41,61,407.82c-5-1-9.84-2.73-14.77-4.08-3.29-.9-6.46-2.34-9.87-2.68-1.23-.12-1.62-1-2.39-1.54V211.46c4.1-4.08,7.88-8.63,12.44-12.2,5.76-4.52,10.37-10.13,16.07-15.13h114.4c4.54-2.42,8.51-4.53,12.39-6.82,6.28-3.72,12.66-7.29,19-10.9,3.88-2.21,7.87-4.31,11.81-6.44,3.69-2,7.24-4.27,10.85-6.42,2.54-1.51,5.16-2.9,7.71-4.38,2.94-1.7,5.92-3.38,8.85-5.13a5.89,5.89,0,0,1,6.67-.08c.74.48,1.39,1.52,2.7,1.15,3.48-2.37,5.34-6.15,7.87-9.35s5.19-6.51,7.77-9.78,5.09-6.52,7.85-10c-3.79-3.85-8.57-6.52-11.77-10.38l15.6-21.46h87.66v4.68h8.06V84.2h65.79c1,.82-.17,2.31.64,3.81h4.42c.21.8.33,1.25.49,1.88h4.16c1.19,1.26,0,2.76.93,4h13.46V84.73a6.63,6.63,0,0,1,.53-.56.84.84,0,0,1,.42-.16H521.5c8.54-17.07,17-33.91,25.41-50.82h110.6c.71,3.9,1,48.14.3,61.51l-1.69.61v5.57h8.58c.89-1.42-.27-3.2.66-4.77h17.47v5.66h11.06V96.21h9.83c.55.58-.1,1.91,1.28,1.79v2.82c0,.69.13,1.24,1,1.18v2.82c0,.69.13,1.24,1,1.18v2h13.54a84.27,84.27,0,0,1,8.68,10.67,35.72,35.72,0,0,0,2.79,2.86c3.91,4.53,7.83,9.06,11.63,13.68.75.92.84,2.34,1.48,3.37,3.46,5.54,6,11.64,9.82,16.95,1.06,1.45,1.21,3.55,2.22,5.05,3.24,4.78,5.26,10.25,8.71,14.93a34.08,34.08,0,0,1,4,8.29c.46,1.22,1.44,1.73,1.94,2.5v37.6H724.36L699,203.43V189.17H612.25v7.71H689.9v32.05h81.9v27H691.18v95.86h-9v5.06H662.27c1.6.58.56.1.85.7.06.15.22.35.34.35h17.92c1.17.69.24,1.9.82,2.75,1,.6,2.21.13,3.67.37V378.9h5.06v5l3.89.18v31.63c-.88.92-2.37-.18-3.69.58v3.61h-24V510H689.9V648.82H668.57c-.92,1.35-.55,2.62-.41,4h6.74v8.78c1.29.4,2.22.69,3.05-.1-.31-.76-1.11-.4-1.78-.82v-7.49h6.56c1.29,3.27-.86,6.24-.86,9.41l-2.63,1.07c2.16-.07,2.8,1.59,4.4,1.21.71-1-.94-1.08-.68-2a11.25,11.25,0,0,0,0-2.69c1.56-.49,3.15-.23,4.87-.19v5.68c-.21.75-1.69-.38-1.73.91.89.65,1.91.21,2.94.4,1.23,1,1.23,1,2.89.06-1.12,0-2.05,0-2.89-.06-.08-2.32-.08-4.59-.08-6.95h9c0,3,0,6,0,9.12,0,.5-.36.88-1.06.71-1.23-1-1.23-1-2.89-.06,1.12,0,2.05,0,2.89.06,1.54,1.7,1,3.73,1.1,5.59l21.56,34.84c4.24-2.89,8.17-5.78,12.29-8.34,6.54-4,13.07-8.07,19.25-12.65,3.14-.42,3.44-3.37,3.71-5.33.48-3.46,1.6-6.76,2.37-10.1.73-3.1,1.83-6.3,2.47-9.39.73-3.53,1.7-7,2.36-10.58.84-4.6,2.27-9.07,3.27-13.65.83-3.79,1.55-7.63,2.69-11.36s1.63-7.92,3.24-11.82H836.9v13.73h14.9V603H799.17V561h20.68V546.1H770.07V539H762v-7.87H747.13v14.69h-19.3c-7.05-5.38-12.81-11.77-19.18-17.49-2.9-2.61-5.81-5.22-8.66-7.83V508.13H669.14V461.08H700V438.19h4.59c1-2,.05-4,.7-6.05h14.65v-14l2.91-.28V312c-.3.88.14-.17-.44.17-.13.09-.34.23-.34.35,0,34.66,0,69.32,0,104.27-2,.48-4.18.18-6.27.23-2.33.05-4.67,0-7,0-2.16,0-4.34-.13-6.49,0s-3.7-2.31-6.12-.54V384.35c.67-.93,1.92.18,2.84-.82V282.35c3.48-1.05,6.12-3.32,9.07-5,5.82-3.31,11.15-7.44,17.24-10.32,1.06-.5,1.54-1.55,2.63-2.08,2.76-1.35,5.5-2.53,8.46-1.9.72-.44.62-1,.63-1.44.23-.2.46-.57.69-.57,11.32,0,22.63,0,34.13,0v43.27a5.58,5.58,0,0,0,.52.56.84.84,0,0,0,.42.16h53.65c5.9,3.9,11.85,8,18,11.82,9.29,5.85,18.38,12,27.47,18.16,4.27,2.89,8.72,5.52,13,8.39,8.23,5.49,16.51,10.93,24.71,16.46,5.43,3.67,10.91,7.31,16.48,10.8,8.37,5.24,16.48,10.92,24.73,16.36,5.36,3.53,10.79,6.95,16.17,10.44Q977,404,987,410.53c.08,0,0,.31,0,.47-13.66,0-27.32.12-41,0s-27.41.85-41.07-1H804.5l-8.12,8.12c-1.77,1.77-3.33,3.83-5.35,5.25-5.41,3.82-9.7,8.73-14,13.63-1.67.18-1,1.49-1,2.29q-.06,18.48,0,36.95c0,8.49,0,17,0,25.47,0,.8-.7,2.11,1,2.29-.16.63.38.87.71,1.2,8.93,9,17.87,17.9,26.9,26.95,25.79-.8,51.62.29,77.47-.94C904,530.18,926,531,948,531ZM700.07,760.4c.19.21.48.59.52.57.44-.27,1.53.6,1.32-.42-.16-.8-1.14-.77.09.45.38,1-.93,2.53,1,3v2.82c0,.69.13,1.24,1,1.18,0,3.69.38,7.43-1.6,12.93.21-.19.59-.48.57-.52-.27-.44.6-1.53-.42-1.32-.8.16-.77,1.14.45-.09,1,0,1.21-1,2-1.42v-8.31c0-.68,0-1.34-1-1.27v-2.82c0-.69-.13-1.24-1-1.18C702.62,763,703.93,761.47,700.07,760.4ZM678,764c1-.38,2.53.93,3-1,1.7-.31,1-2.24,2-3,1.93-.47.62-2,1-3a45.1,45.1,0,0,1,7,.08c2.33.36,4.35,2.27,7.29,1.76-4.63-3.14-9.36-3.22-14.23-1.84-1.93.47-.62,2-1,3h-2v3c-1,.38-2.53-.93-3,1-1.5.09-.85,1.24-1,2a3.43,3.43,0,0,0,0,5c-.15,1.07.29,2.16-.63,3.2-1.44,1.62-1.54,3.71-1.37,5.8-.61.13-1.33-.31-2,.53,0,2.1,0,4.4,0,6.69,0,.51.35.89.14.78l5.68,3a68.65,68.65,0,0,1,7.72.78c2.7.43,5.44,2.49,8.94.47a43.63,43.63,0,0,1-9.13-1.64,25.62,25.62,0,0,0-5.71-.55c-2.18-.06-3.42-2.38-5.66-2.07a6.68,6.68,0,0,1-1,0,30,30,0,0,0,0-4.45c-.21-1.43.52-2.42,1-3.55,1.84-1.32,1.09-4,2.83-5.4.26-.21.23-.92.15-1.37-.15-.8.66-2.07-1-2.23v-5C678.5,765.91,677.85,764.76,678,764ZM416,438a2.69,2.69,0,0,0,1.91-1.64c-.5-.53-1.05-.49-1.79,0,0,.49-.08,1.08-.09,1.67-1.5.09-.85,1.24-1,2H275.1V546.61a88.49,88.49,0,0,0,7.67,6.8c3.47,2.69,6.27,6.15,9.82,8.85s6.53,6.36,10.2,9.17c3.48,2.66,6.27,6.14,9.82,8.85s6.54,6.36,10.2,9.17c3.48,2.67,6.52,5.92,9.79,8.87,6.79,6.13,13.51,12.34,20.46,18.29,3.22,2.75,6,6,9.43,8.55,3.64,2.72,6.53,6.35,10.19,9.18s6.81,6.11,10.14,9.22c4.55,4.25,9.48,8.07,13.53,12.2h59.49V588c-2,0-3.77.06-5.58,0s-3.57.34-5.26-.23V532h6.76c.61-2.53-.23-4.86.54-7H471c1.64,0,1.38,1.72,1.78,2.47,3.41,6.45,8.51,9.76,15.87,9.54,3-.08,6,0,8.9,0,.53-1.3,1.92-1.25,2.83-1.73,6.42-3.39,9.85-8.43,9.63-15.81-.08-2.82,0-5.64,0-8.46h19.79V496h-29a.93.93,0,0,0-.42.15,3.83,3.83,0,0,0-.35.3V499c-1.55.47-2.48-1.3-4.07-1.05a29,29,0,0,1-4.47.05H484c-.13-.61.31-1.33-.53-2H413.1V447h21.78V388.22h-6V424c-1.48,0-2.78,0-4.09,0a1.79,1.79,0,0,0-1.31.88c.15,2.42-2.69,4.24-.73,7-.27-2.45,2.25-4.33,1.25-6.93h4.8v16H416.27c-.68,0-1.35,0-1.27-1C416.5,439.91,415.85,438.76,416,438Zm34-101v-2.82c0-.69-.13-1.24-1-1.18-.12-.94.29-1.94-.54-3.16-.58.92-2.12-.9-2.46,1.16h-4.79c-.68,0-1.28.1-1.21,1h-3.8c-.69,0-1.26.11-1.2,1h-3.8c-.69,0-1.26.11-1.2,1h-4.79c-.68,0-1.28.1-1.21,1h-3.83c0,1.3-1,2.6.83,3v2.82c0,.69.13,1.24,1,1.18v3.8c0,.69.11,1.26,1,1.2.12.94-.29,1.94.54,3.16.58-.92,2.12.9,2.46-1.16h3.8c.69,0,1.26-.11,1.2-1h2.82c.69,0,1.24-.13,1.18-1h3.8c.69,0,1.26-.11,1.2-1h3.8c.69,0,1.26-.11,1.2-1h2.82c.69,0,1.24-.13,1.18-1,.94-.12,1.94.29,3.16-.54-.92-.58.9-2.12-1.16-2.46v-2.82C451,337.49,450.87,336.94,450,337Zm51,25c-1,.25-2.17-.53-3,.59l2.85,1.37a18.8,18.8,0,0,1,.23-2.09c.93-1.16.93-1.16,0-2.82C501.12,360.15,501.12,361.08,501,362Zm305-18v-2.82c0-.69-.13-1.24-1-1.18-.13-.94.3-1.95-.44-3-1.86,0-3.82,0-5.78,0a.76.76,0,0,0-.78,1h-8c.45,1.54-1.11,3.18,1,4v4.73c-2.18.65-4.2-.23-6.16.69V355c-1.46,0-2.76,0-4.06,0a.77.77,0,0,0-.78,1h-5.78c-.68,0-1.29.09-1.22,1h-4.79c-.68,0-1.28.1-1.21,1h-4.79c-.68,0-1.28.1-1.21,1h-4.79c-.68,0-1.28.1-1.21,1h-3.83c0,1.3-1,2.6.83,3v3.8c0,.69.11,1.26,1,1.2v4.79c0,.68.1,1.28,1,1.21v3.8c0,.69.11,1.26,1,1.2.12.94-.29,1.94.54,3.16.58-.92,2.12.9,2.46-1.16h4.79c.68,0,1.28-.1,1.21-1h3.8c.69,0,1.26-.11,1.2-1h4.79c.68,0,1.28-.1,1.21-1h3.8c.69,0,1.26-.11,1.2-1h4.79c.68,0,1.28-.1,1.21-1h3.8c.69,0,1.26-.11,1.2-1h4.79c.68,0,1.28-.1,1.21-1h3.8c.69,0,1.26-.11,1.2-1h4.79c.68,0,1.28-.1,1.21-1,.94-.12,2,.29,3.12-.52-.89-1,1.09-2.69-1.12-3.48v-5.78c0-.68-.09-1.29-1-1.22v-4.79c0-.68-.1-1.28-1-1.21v-4.79c0-.68-.1-1.28-1-1.21v-3.8C807,344.51,806.89,343.94,806,344ZM504.11,355l1.92-5.44a1.29,1.29,0,0,0-1.92-.19,35.4,35.4,0,0,1-.23,4.82c-.93,1.16-.93,1.16,0,2.82C503.88,355.85,503.88,354.92,504.11,355ZM709,849c-2.8-.41-4.68,1.69-7,2.51V853h-2a2.48,2.48,0,0,0,.56,2H692a24,24,0,0,1-4,0c-1.31-.22-2.4-1.77-3.93-.55.29,1.17,1.95.16,2.25,1.4,0,.13.57.19.88.19,3.16,0,6.32.06,9.48,0,1.1,0,2.32.5,3.29-1a2.44,2.44,0,0,0,2-2c2.29-1.41,5.08-2,7-4,1.5-.09.85-1.24,1-2a2.7,2.7,0,0,0,2-1.81c.94-1.89,1.84-3.8,3-6.25,0-1.3,0-3.24,0-5.18a.76.76,0,0,0-1-.76c0-1.34-1.12-1.17-1.73-1a37.19,37.19,0,0,1-9.93,2.15c-.13,0-.23.53-.34.81-1,.38-2.53-.93-3,1-2.46,0-4.91,0-7.37,0s-5.12-.11-7.63.06a8.18,8.18,0,0,0,.12,1.93h-1.84a18,18,0,0,0,.38,15c-.5-5.08-2.14-10.26,1.34-15a7,7,0,0,1,3.5-1.06c3.41.18,6.83.06,10.25.06.68,0,1.32-.06,1.25-1,1-.38,2.53.93,3-1,4.21.59,8-1.26,12-2a15.48,15.48,0,0,1-2.6,10.19c-.68,1.11-1.74,2.25-1.4,3.81C708.5,847.09,709.15,848.24,709,849ZM482,338c-.17-1.27.33-2.6-.32-4-2,0-3.94,0-5.9,0a.76.76,0,0,0-.78,1h-8c0,2.62,0,4.92,0,7.21a.76.76,0,0,0,1,.79v8c2.62,0,4.92,0,7.21,0a.76.76,0,0,0,.79-1h8c-.45-1.54,1.11-3.18-1-4v-6.77C483,338.55,482.92,337.93,482,338ZM197,246a.77.77,0,0,0-.79-1c-1.33-.06-2.67,0-4,0h-60a1.15,1.15,0,0,1-1.19-.58c-.33-.74.36-1.66-.63-2.49H98.92v-25.8h-30v94h-8v8.05H54.1v41.87h8v7.06h7.06V383H98.22a.86.86,0,0,0,.43-.15,3.83,3.83,0,0,0,.35-.3V353H204.81c.68-14.91.41-102.73-.31-107Zm217,22v-5H400V247.92H385.12V214.73c3-6.32,7.49-11.41,10.23-17.57,15.72-.66,68.42-.4,72.83.4v5.33h9.58c.7-1.95-.27-4,.56-5.76h47.79v19.72H542c0-6.46,0-12.76,0-19.07a.89.89,0,0,1,.15-.43,5.05,5.05,0,0,1,.48-.53H555.9V188H471V157.21H457.14c-.14.68-.24,1.13-.34,1.63-1.24.56-2.72-.47-3.78.63-.09.47.19,1-.45,1.42l-2.61.28v4.72h-72v-4.75h-5.65c-.73,1.64.28,3.4-.6,4.7h-30.5l-15.49-12.2c-3.12,3.88-6,7.51-8.95,11.12s-5.81,7.29-8.85,10.81-5.51,7.53-8.79,10.88-5.19,7.53-8.91,9.83v76.77h11.89v15.82h39v-16h43.61c.72-1.32-.35-2.8.75-3.86h68.65v14.14h3.63c.67,2-.33,4.07.64,5.86H468v7h78.81v71H526.22v8.06h5.93v8.06H547V459.8h15.05V447.22h48v14.93h21.7V467H624.2v36.05h7.57V510H582.21c-.63,12.65-.41,54.9.33,59.18H600.9v11.88h-19v7.05H526.15v66h55.68V774c-2.47,0-4.78,0-7.09,0s-4.55-.28-6.55.19v8.87h6.9v12.78h8.65c.69-1.66-.31-3.41.83-5H634q0-68.72,0-137.08a.85.85,0,0,1,.17-.42,5.55,5.55,0,0,1,.58-.52h22.12v-3.9h-23v-68h-8.72V569h8.64V500.94h-7.59V468.89h7.54V409.84H622.17c-.61-14.53-.4-36.87.42-41h11.48v-6.9h9.78V351.85h-10V260H558.24c-1.31,0-2.77.25-3.89-.23-4.68-2.05-9.53-3.55-14.33-5.26s-9.76-3.82-14.73-5.46c-6-2-11.78-4.57-17.89-6.33-2.61-.75-5.1-2.07-7.83-2.81s-5.38-2.23-8.19-3.13c-4.54-1.44-8.92-3.38-13.51-5.17V224c-1.81,0-3.45-.05-5.09,0s-3.25-.3-4.78.27V268H443.21c-.57-1.82.34-3.56-.58-4.83h-7.46c-.54,1.68.4,3.41-.66,4.83ZM370.32,853.82H405.9v-8.88h-8.77V782.88h15.71V773c-2.8,0-5.44,0-8.09,0s-5.2.1-7.76-.06V730.48c-1.64-1.57-3.55-2.85-5.17-4.34-5.38-5-11.05-9.61-16.52-14.47-5.22-4.65-10.59-9.12-15.79-13.79s-10.81-9.37-16.13-14.14-10.56-9.16-15.79-13.79-10.89-9.3-16.11-14.17c-4.08-3.8-8.73-7-12.41-11.2a5.12,5.12,0,0,0-1.07-1.06c-4.86-3-8.22-7.79-13.12-10.7V623h-8.6c-2.77,0-5.54-.06-8.28.06,0,36.11,0,71.77,0,107.44a21.68,21.68,0,0,0,6.33,15.38c2.9,3.07,6.51,5,10.52,7.12a24.18,24.18,0,0,1,5.19.82c2.24.76,4.95.36,7.43.13,2.65-.24,4.92,1.45,7.6,1.11a48.46,48.46,0,0,1,6.37-.06,6.15,6.15,0,0,0,1.69,1.06c3,1.08,6,2.34,9,3.59a54.55,54.55,0,0,1,13.35,7.51c2.64,2.13,5.6,4.13,7.69,6.71,3.94,4.88,7.11,10.39,10.86,15.44,3,4.05,4.55,8.84,7.1,13.05a23.84,23.84,0,0,1,2.7,7.87c1.05,5.07,2.17,10.15,3,15.25.26,1.6,1.39,2.83,1.2,4.57-.79,7.55,1.78,15,.88,22.37ZM165.1,468.18h25.64c.73,1.31-.48,2.82.56,3.61h5.61c.07-1.32.13-2.44.22-3.9H242V436.56a56.14,56.14,0,0,0-.05-6.49c-.28-2.35,1.47-4.2,1.13-6.6-.28-2,1.49-3.64,2.07-5.62,1.56-5.3,3.89-10.37,8.45-14,1-.82,2.32-1.7,2.77-2.84,1.28-3.28,4.15-5,6.79-6.52,5.41-3.17,11.21-5.52,17.7-5.51q41.75,0,83.48,0h4.75v16.85h14.67V323.16H289v12.33c-6.18,3.8-12.3,7.26-18.1,11.19-7.89,5.37-16.2,10.07-24.13,15.36-5.68,3.78-12,6.72-16.47,12.16-.21.25-.43.6-.71.69-3.18,1-4.48,4.05-7.25,6.14,4.88,3.9,7.59,9,11.89,12.65-5.68,8.58-14,14.27-19.38,22.45H165.1ZM523.83,773V744.24h-66v28.91H447.17v9.62h85.68V773ZM298.64,133.09c-3.45,2.07-5,6.09-8,8.83-4,3.65-6.74,8.42-10.94,11.88-.82,2.71-3.66,4-4.91,6.4,1.87,2.33,4.27,3.53,6.49,5,3.12-3.22,5.81-6.51,8.72-9.51,5.16-5.29,9.69-11.13,15-16.27.08-.08,0-.32,0,0Zm172.2-1.18V118.24H457.09c-.28,1,.24,1.88-.41,2.58-1.51.59-3.25-.39-4.51.51v7.53c1.69.44,3.39-.32,4.54.36.58,1.07-.13,2,.69,2.69ZM650.09,621.84H673c-.09-2.73.13-5.3-.13-7.68h-22.8ZM242.85,273.75h6V209c-6.72.15-13.29-.2-19.65.21V226h13.67ZM478,845c.09,3-.1,6,.11,8.82H487c-.07-3.06.11-6-.12-8.82Zm-32.14,8.92v-8.68h-9.21c1.19,3-.94,6.17,1.69,8.68Zm-195-225v-5.86c-1.74,0-3.34-.35-4.66.18v5.68ZM697.91,786.74c-1.72,1.26-2.47,2.37-1.17,4.93C696.52,789.54,698.18,789,697.91,786.74ZM502,348.91c.09-2.23-.74-2.24-2.07-1.47l.28,1.47ZM699.48,785.12l1.42-3h-1.52A2.78,2.78,0,0,0,699.48,785.12Z"/><path class="cls-3" d="M948,531c-22,0-44-.82-65.92.21-25.85,1.23-51.68.14-77.47.94-9-9-18-18-26.9-26.95-.33-.33-.87-.57-.71-1.2V437c4.33-4.9,8.62-9.81,14-13.63,2-1.42,3.58-3.48,5.35-5.25L804.5,410H905c13.66,1.82,27.38.81,41.07,1s27.32,0,41,0l2.93,1.41v71.41H968.68c-2.49,4.15-4,8.5-5.68,12.79s-3.83,8.37-5.13,12.85a46.19,46.19,0,0,1-3.18,7.14c-2.2,4.43-3.81,9.07-5.68,13.61C948.81,530.7,948.63,531.11,948,531ZM848,442.18H791.1v57.61h57V479.24h21.06v20.58c14.49.66,52.8.41,56.66-.33V442.12h-56.9v20.73H848Z"/><path class="cls-2" d="M107.09,630.84v-6.68H167.8c.48,2,0,4.28.26,6.68Z"/><path class="cls-2" d="M828.92,676.18v26.64H817.34c.06.07-.08,0-.17-.16a.76.76,0,0,1-.16-.43c0-8.63,0-17.25,0-26.05Z"/><path class="cls-2" d="M799.09,559.83V547.17H818.8c.45,1.86.14,4,.19,6.07s0,4.28,0,6.59Z"/><path class="cls-2" d="M118.91,553.17v12.66H105.2c-.44-1.86-.14-4-.19-6.07s0-4.28,0-6.59Z"/><path class="cls-2" d="M748.17,532.08h12.66v13.73c-1.86.42-4,.13-6.08.18s-4.28,0-6.58,0Z"/><path class="cls-2" d="M838.09,629.84V617.16h12.66v12.68Z"/><path class="cls-2" d="M700.1,418h12.65c.5,2,.19,4.15.24,6.23s0,4.28,0,6.59H700.2c-.46-2-.13-4.3-.18-6.55C700,422.17,700.06,420.07,700.1,418Z"/><path class="cls-2" d="M92,565.88V553.11c1.89,0,3.81-.09,5.73-.11h6.09v12.79c-1.84.46-4,.16-6,.19C95.84,566,93.9,565.92,92,565.88Z"/><path class="cls-2" d="M916.35,702.91h-9.19v-13.8c2.36-.27,4.93,0,7.89-.14C914.6,693.65,915.42,698.06,916.35,702.91Z"/><path class="cls-2" d="M771.91,225.17v2.66H737.09v-2.66Z"/><path class="cls-2" d="M737.1,259.83v-2.66h34.8v2.66Z"/><path class="cls-2" d="M705,98V96.16l5.63-.24c2.32,3.77,6,6.62,8.56,11.08-3.41,0-6.52-.12-9.61.06-1.19.07-1.57-1.11-2.58-1.06v-2.82c0-.69-.13-1.24-1-1.18V99.18C706,98.49,705.87,97.94,705,98Z"/><path class="cls-2" d="M684.17,653.08h13.66v5.74c-2,.41-4.33.11-6.58.17s-4.61,0-7.08,0Z"/><path class="cls-2" d="M718.92,418.17v12.66h-4.67V418.17Z"/><path class="cls-2" d="M684.17,96.08h8.66v4.83c-2.69.2-5.59,0-8.66.1Z"/><path class="cls-2" d="M762,546.07v-5.83c2.18-.52,4.43-.08,6.82-.3v5.86C766.67,546.31,764.33,545.8,762,546.07Z"/><path class="cls-2" d="M689.79,650.18a1.37,1.37,0,0,1-.14,1.64H669.21a1.37,1.37,0,0,1,.14-1.64Z"/><path class="cls-2" d="M830.17,697.09h5.66v5.65h-5.66Z"/><path class="cls-2" d="M455.91,84.16v4.51c-1.28.72-2.51.08-3.64.37l-.44-1.72c-1.45-.92-3.22.28-4.74-.69V84.16Z"/><path class="cls-2" d="M663.91,96.16v3.68h-6.58c-.68-1-.29-2.27-.19-3.68Z"/><path class="cls-2" d="M379,84v3.79h-5.75c-.58-.94-.11-2.11-.29-3.49C375,83.75,377,84.15,379,84Z"/><path class="cls-2" d="M703.91,432v4.7c-1.14.66-2.3.22-3.61.38-.58-1.54-.24-3.13-.25-4.66C701.23,431.69,702.39,432.13,703.91,432Z"/><path class="cls-1" d="M468,268V224.28c1.53-.57,3.18-.21,4.78-.27s3.28,0,5.09,0v7.6c4.59,1.79,9,3.73,13.51,5.17,2.81.9,5.4,2.37,8.19,3.13s5.22,2.06,7.83,2.81c6.11,1.76,11.89,4.35,17.89,6.33,5,1.64,9.8,3.7,14.73,5.46s9.65,3.21,14.33,5.26c1.12.48,2.58.23,3.89.23h75.59v91.85h10v10.06h-9.78v6.9H622.59c-.82,4.16-1,26.5-.42,41h11.59v59.05h-7.54v32.05h7.59V569h-8.64v11.88h8.72v68h23v3.9H634.76a5.55,5.55,0,0,0-.58.52.85.85,0,0,0-.17.42q0,68.44,0,137.08H584.57c-1.14,1.61-.14,3.36-.83,5h-8.65V783.07h-6.9V774.2c2-.47,4.3-.12,6.55-.19s4.62,0,7.09,0V654.15H526.15v-66h55.76v-7.05h19V569.18H582.54c-.74-4.28-1-46.53-.33-59.18h49.56v-6.92H624.2V467h7.62v-4.88h-21.7V447.22h-48V459.8H547V383.18H532.15v-8.06h-5.93v-8.06h20.59V296H468V268ZM631.9,511.18H583.1v11.64h48.8Zm-8,58H602c0,2.12,0,4.1,0,6.07s.08,3.86.12,5.61h21.79ZM533.17,368.09V382c2.48,0,4.79.05,7.09,0s4.54.26,6.57-.19V368.09ZM634.24,651.83h21.42a1.38,1.38,0,0,0,.1-1.66H634.34A1.38,1.38,0,0,0,634.24,651.83ZM527.17,368.09V374c1.74,0,3.34.35,4.66-.18v-5.68Z"/><path class="cls-1" d="M415,440c-.08,1,.59,1,1.27,1H428.8V425H424a.77.77,0,0,1,.79-1c1.31-.06,2.61,0,4.09,0V388.22h6V447H413.1V496H445v91.75c1.69.57,3.5.15,5.26.23s3.62,0,5.58,0v67.76H396.35c-4.05-4.13-9-8-13.53-12.2-3.33-3.11-6.54-6.44-10.14-9.22s-6.55-6.46-10.19-9.18c-3.45-2.58-6.21-5.8-9.43-8.55-6.95-6-13.67-12.16-20.46-18.29-3.27-3-6.31-6.2-9.79-8.87-3.66-2.81-6.59-6.41-10.2-9.17s-6.34-6.19-9.82-8.85c-3.67-2.81-6.58-6.42-10.2-9.17s-6.35-6.16-9.82-8.85a88.49,88.49,0,0,1-7.67-6.8V440Zm18.75,6V389c-1.36.15-2.53-.3-3.91.53v52.64h-16.7c-.1,1.42-.51,2.7.32,3.85Z"/><path class="cls-1" d="M370.32,853.82l-1.4-1.4c.9-7.4-1.67-14.82-.88-22.37.19-1.74-.94-3-1.2-4.57-.83-5.1-1.95-10.18-3-15.25a23.84,23.84,0,0,0-2.7-7.87c-2.55-4.21-4.09-9-7.1-13.05-3.75-5-6.92-10.56-10.86-15.44-2.09-2.58-5.05-4.58-7.69-6.71a54.55,54.55,0,0,0-13.35-7.51c-3-1.25-6-2.51-9-3.59a6.15,6.15,0,0,1-1.69-1.06,48.46,48.46,0,0,0-6.37.06c-2.68.34-4.95-1.35-7.6-1.11-2.48.23-5.19.63-7.43-.13a24.18,24.18,0,0,0-5.19-.82c-4-2.11-7.62-4-10.52-7.12A21.68,21.68,0,0,1,268,730.5c0-35.67,0-71.33,0-107.44,2.74-.12,5.51,0,8.28-.06h8.6v9.82c4.9,2.91,8.26,7.69,13.12,10.7a5.12,5.12,0,0,1,1.07,1.06c3.68,4.23,8.33,7.4,12.41,11.2,5.22,4.87,10.76,9.42,16.11,14.17s10.58,9.13,15.79,13.79,10.81,9.36,16.13,14.14,10.57,9.14,15.79,13.79c5.47,4.86,11.14,9.49,16.52,14.47,1.62,1.49,3.53,2.77,5.17,4.34v42.45c2.56.16,5.17,0,7.76.06s5.29,0,8.09,0v9.88H397.13v62.06h8.77v8.88Z"/><path class="cls-1" d="M414,269H385.48c-1.1,1.06,0,2.54-.75,3.86H341.12v16h-39V273.05H290.19V196.28c3.72-2.3,5.73-6.6,8.91-9.83s5.73-7.35,8.79-10.88,5.92-7.19,8.85-10.81,5.83-7.24,8.95-11.12l15.49,12.2h30.5c.88-1.3-.13-3.06.6-4.7h5.65v4.75h72v-4.72l2.61-.28c.64-.39.36-.95.45-1.42,1.06-1.1,2.54-.07,3.78-.63.1-.5.2-1,.34-1.63H471V188H555.9v8.86H542.64a5.05,5.05,0,0,0-.48.53.89.89,0,0,0-.15.43c0,6.31,0,12.61,0,19.07H526.11V197.13H478.32c-.83,1.76.14,3.81-.56,5.76h-9.58v-5.33c-4.41-.8-57.11-1.06-72.83-.4-2.74,6.16-7.26,11.25-10.23,17.57v33.19H400V263H414v6ZM303.09,287.83H333c0-2.64,0-5.11,0-7.58s.24-4.88-.15-7.08H303.09ZM527,209c4.67-.05,9.34.2,13.82-.16V197c-2.48,0-4.78-.05-7.09,0s-4.53-.27-6.73.23ZM339.92,273.17H334c0,2.64,0,5.1,0,7.57a53.37,53.37,0,0,0,.14,7.09h5.77Zm201-63H527.27v5.66h13.64Zm-84.08-44.26v-5.82h-2.47l-.69,1.79-2.48.28a7.12,7.12,0,0,0,.05,3.75Z"/><path class="cls-1" d="M165.1,468.18V416.13h49.75c5.39-8.18,13.7-13.87,19.38-22.45-4.3-3.63-7-8.75-11.89-12.65,2.77-2.09,4.07-5.11,7.25-6.14.28-.09.5-.44.71-.69,4.46-5.44,10.79-8.38,16.47-12.16,7.93-5.29,16.24-10,24.13-15.36,5.8-3.93,11.92-7.39,18.1-11.19V323.16h94.76v82.69H369.09V389h-4.75q-41.74,0-83.48,0c-6.49,0-12.29,2.34-17.7,5.51-2.64,1.55-5.51,3.24-6.79,6.52-.45,1.14-1.73,2-2.77,2.84-4.56,3.62-6.89,8.69-8.45,14-.58,2-2.35,3.59-2.07,5.62.34,2.4-1.41,4.25-1.13,6.6a56.14,56.14,0,0,1,.05,6.49v31.33H197.13c-.09,1.46-.15,2.58-.22,3.9H191.3c-1-.79.17-2.3-.56-3.61Zm205.07-79.1V405c2.3,0,4.44,0,6.58,0s4.21.24,6.08-.18V389.08Z"/><path class="cls-3" d="M197,246h7.5c.72,4.27,1,92.09.31,107H99V246Zm-39,78a.71.71,0,0,0,.6.89c.07,0,.31-.22.29-.29-.1-.46-.41-.68-.73-.06-.34-1.18.3-2.08-.76-2.46C156.74,322.77,156.82,323.4,158,324Zm-3.86-40c-2.09,0-4.59.17-7.07,0-4.52-.37-7.95,1.52-11.14,4.52-2.15,2-3.43,4.54-4.93,7.38,0,2.09.17,4.59,0,7.07-.37,4.53,1.53,8,4.52,11.14,2,2.15,4.54,3.44,7.38,4.93a55.12,55.12,0,0,1,5.57,0c2,.2,4.32-1,6,.89.87-.26.29-1.16.77-1.65a15.56,15.56,0,0,0,8.63-7.23c.66-1.1,1.75-.61,2.14-1.6,0-3.07-.18-6.24,0-9.38.33-4.52-1.52-7.95-4.52-11.14C159.49,286.78,157,285.5,154.14,284Z"/><path class="cls-1" d="M523.83,773h9v9.75H447.17v-9.62h10.69V744.24h66Z"/><path class="cls-1" d="M510,511c0,2.82-.07,5.64,0,8.46.22,7.38-3.21,12.42-9.63,15.81-.91.48-2.3.43-2.83,1.73-2.95,0-5.93-.07-8.9,0-7.36.22-12.46-3.09-15.87-9.54-.4-.75-.14-2.47-1.78-2.47V510c2-1.92,2.86-4.68,5-6.68s4.83-3.36,7-5.32h8.46a29,29,0,0,0,4.47-.05c1.59-.25,2.52,1.52,4.07,1.05h1c1.13,2.18,3.06,3.69,4.83,5.23s2.36,4.16,4.17,5.77Zm-2.5,10a13.84,13.84,0,0,0,0-7A13.84,13.84,0,0,0,507.5,521Zm-34.33-.17c.65-2.24,1.18-4.49,0-6.65Zm20.66-20c-2.24-.65-4.49-1.18-6.65,0Zm-7.61,33.34a6.64,6.64,0,0,0,4.3.8c1.12,0,2.37.39,4-.8Zm-.18-.69c-.87-.63-1.51-.92-2,.28A1.48,1.48,0,0,0,486,533.48Zm11,0c-.9-.6-1.54-.9-2,.32C495.74,534,496.3,534.28,497,533.46Zm-2.12-32c.91.65,1.55.94,2-.15C496.3,500.81,495.74,500.85,494.92,501.5Zm-8.84,0c-.91-.65-1.55-.94-2,.15C484.7,502.19,485.26,502.15,486.08,501.5Zm-11.6,9.43c-.62.93-.92,1.57.18,1.95C475.15,512.26,475.19,511.7,474.48,510.93Zm32,0c-.62.93-.92,1.57.18,1.95C507.15,512.26,507.19,511.7,506.48,510.93Zm-32,13.15c.65-.91.94-1.55-.15-2C473.81,522.7,473.85,523.26,474.5,524.08Zm32,0c.62-.93.92-1.57-.18-2C505.85,522.74,505.81,523.3,506.52,524.07Zm-8,8.92c.47-.32.47-.66,0-1C498,532.33,498,532.67,498.5,533Zm2-29c.47-.32.47-.66,0-1C500,503.33,500,503.67,500.5,504Zm-20,0c.47-.32.47-.66,0-1C480,503.33,480,503.67,480.5,504Zm-5,5c-.47.32-.47.66,0,1C476,509.67,476,509.33,475.5,509ZM504,507.5c.32.47.66.47,1,0C504.67,507,504.33,507,504,507.5Zm1,2c.32.47.66.47,1,0C505.67,509,505.33,509,505,509.5ZM498.5,502c-.47.32-.47.66,0,1C499,502.67,499,502.33,498.5,502Zm-16,0c-.47.32-.47.66,0,1C483,502.67,483,502.33,482.5,502Zm-7,24c.47-.32.47-.66,0-1C475,525.33,475,525.67,475.5,526ZM506,525.5c-.32-.47-.66-.47-1,0C505.33,526,505.67,526,506,525.5Zm-29,2c-.32-.47-.66-.47-1,0C476.33,528,476.67,528,477,527.5Zm27,0c.32.47.66.47,1,0C504.67,527,504.33,527,504,527.5ZM476.5,508c.47-.32.47-.66,0-1C476,507.33,476,507.67,476.5,508Zm4,23c-.47.32-.47.66,0,1C481,531.67,481,531.33,480.5,531Zm19.51.49c.32.47.66.47,1,0C500.67,531,500.33,531,500,531.5ZM482.5,533c.47-.32.47-.66,0-1C482,532.33,482,532.67,482.5,533Z"/><path class="cls-4" d="M197,246H73.25v43.16H87c0,9.14,0,18.1,0,27.07a.81.81,0,0,1-.16.43,5.21,5.21,0,0,1-.53.52H73c0,6.14,0,12.12,0,18.09S73,347.1,73,353H99v29.54a3.83,3.83,0,0,1-.35.3.86.86,0,0,1-.43.15H69.14V367.11H62.08v-7.06h-8V318.18h6.74v-8.05h8v-94h30v25.8h31.5c1,.83.3,1.75.63,2.49a1.15,1.15,0,0,0,1.19.58h60c1.33,0,2.67,0,4,0A.77.77,0,0,1,197,246ZM97.83,381.92V354H70.77a.81.81,0,0,0-.43.16c-.13.09-.23.23-.17.17v27.58Zm0-137V217h-27a.86.86,0,0,0-.43.15c-.14.09-.25.22-.18.16v27.6Zm-29,114V319.09H55.17v39.82Zm4.25-43.08H86q0-13.08,0-25.66H73.08Zm-2.9-69.73V352.9h1.64V246.1Zm28.92-1.28h30.8v-1.64H99.1Zm-30.27,73.1v-7c-2.4.21-4.65-.21-6.66.26v6.72Zm-5.75,47.91h5.66v-5.66H63.08Z"/><path class="cls-1" d="M298.64,133.09l6.36,6.36c0-.31.07-.07,0,0-5.3,5.14-9.83,11-15,16.27-2.91,3-5.6,6.29-8.72,9.51-2.22-1.51-4.62-2.71-6.49-5,1.25-2.44,4.09-3.69,4.91-6.4,4.2-3.46,7-8.23,10.94-11.88C293.63,139.18,295.19,135.16,298.64,133.09Z"/><path class="cls-1" d="M470.84,131.91H457.4c-.82-.71-.11-1.62-.69-2.69-1.15-.68-2.85.08-4.54-.36v-7.53c1.26-.9,3,.08,4.51-.51.65-.7.13-1.57.41-2.58h13.75Zm-14-4v-5.77c-1.41-.11-2.68-.48-3.68.19v5.58Z"/><path class="cls-1" d="M650.09,621.84v-7.68h22.8c.26,2.38,0,5,.13,7.68Z"/><path class="cls-4" d="M242.85,273.75V226H229.18V209.18c6.36-.41,12.93-.06,19.65-.21v64.78Zm5.08-63.81c-1.55.2-2.72-.27-3.78.38-.62,16.06-.38,58.33.37,62.81,1.08-.46,2.29.31,3.41-.53Zm-17.75.15V225c2.31,0,4.45,0,6.59,0s4.21.26,6-.19V210.09Z"/><path class="cls-4" d="M414,269v-1h20.51c1.06-1.42.12-3.15.66-4.83h7.46c.92,1.27,0,3,.58,4.83H468v1H454.93c.22,2.56-.21,4.81.31,7H468v1H455.05c0,1.9-.35,3.5.25,5H468v1h-8.95c0,1.9-.35,3.5.25,5H468v1h-9.6c-1-1.79,0-3.83-.64-5.86h-3.63V269Z"/><path class="cls-1" d="M478,845h8.91c.23,2.86.05,5.76.12,8.82h-8.92C477.88,851,478.07,848,478,845Z"/><path class="cls-1" d="M445.84,853.92h-7.52c-2.63-2.51-.5-5.71-1.69-8.68h9.21Z"/><path class="cls-4" d="M777,437v67c-1.67-.18-1-1.49-1-2.29,0-8.49,0-17,0-25.47q0-18.48,0-36.95C776,438.49,775.33,437.18,777,437Z"/><path class="cls-4" d="M501,499h-1v-2.54a3.83,3.83,0,0,1,.35-.3.93.93,0,0,1,.42-.15h29v15H510v-1h18.79V497h-27a.86.86,0,0,0-.43.15,2.75,2.75,0,0,0-.35.31Z"/><path class="cls-4" d="M484,498h-1c-.17-1.66-1.47-1-2.27-1-11.91,0-23.82,0-35.73,0v-1h38.47C484.31,496.67,483.87,497.39,484,498Z"/><path class="cls-4" d="M471,524v1H452.3c-.77,2.14.07,4.47-.54,7H445v-1h5.74v-6H445v-1Z"/><path class="cls-4" d="M780,356a.77.77,0,0,1,.78-1c1.3-.06,2.6,0,4.06,0v-7.58c2-.92,4,0,6.16-.69V342c.92-.07,1,.55,1,1.23V350c-1.62.19-.49-1.76-.76-1.82h-5V354H792c-.11.28-.23.8-.33.8C787.72,354.64,784,356.56,780,356Z"/><path class="cls-1" d="M250.83,628.91h-4.66v-5.68c1.32-.53,2.92-.16,4.66-.18Z"/><path class="cls-4" d="M673.16,788a18.27,18.27,0,0,0,1.84,0c2.24-.31,3.48,2,5.66,2.07a25.62,25.62,0,0,1,5.71.55,43.63,43.63,0,0,0,9.13,1.64c-3.5,2-6.24,0-8.94-.47a68.65,68.65,0,0,0-7.72-.78Z"/><path class="cls-4" d="M714,833a.76.76,0,0,1,1,.76c0,1.94,0,3.88,0,5.18-1.17,2.45-2.07,4.36-3,6.25a2.7,2.7,0,0,1-2,1.81c-.34-1.56.72-2.7,1.4-3.81A15.48,15.48,0,0,0,714,833Z"/><path class="cls-4" d="M684.12,838c-3.6,4.69-2,9.87-1.46,15a18,18,0,0,1-.38-15Z"/><path class="cls-4" d="M700.56,855c-1.53,1.47-2.75.94-3.85,1-3.16.08-6.32,0-9.48,0-.31,0-.85-.06-.88-.19-.3-1.24-2-.23-2.25-1.4,1.53-1.22,2.62.33,3.93.55a24,24,0,0,0,4,0h8.55Z"/><path class="cls-4" d="M684,838v-1.93c2.51-.17,5.08,0,7.63-.06s4.91,0,7.37,0c.07.94-.57,1-1.25,1-3.42,0-6.84.12-10.25-.06A7,7,0,0,0,684,838Z"/><path class="cls-4" d="M684,757c4.91-1.38,9.64-1.3,14.27,1.84-2.94.51-5-1.4-7.29-1.76A45.1,45.1,0,0,0,684,757Z"/><path class="cls-4" d="M476,350a.76.76,0,0,1-.79,1c-2.29,0-4.59,0-7.21,0v-8c1-.08,1,.6,1,1.28,0,1.92.07,3.83.11,5.72Z"/><path class="cls-4" d="M468,343a.76.76,0,0,1-1-.79c0-2.29,0-4.59,0-7.21h8c.08,1-.6,1-1.28,1l-5.72.11Z"/><path class="cls-4" d="M702,835c.11-.28.21-.8.34-.81a37.19,37.19,0,0,0,9.93-2.15c.61-.21,1.72-.38,1.73,1C710,833.74,706.21,835.59,702,835Z"/><path class="cls-4" d="M704,768c1-.07,1,.59,1,1.27v8.31c-.79.42-1,1.47-2,1.42C704.38,775.43,704,771.69,704,768Z"/><path class="cls-4" d="M675,780c-.17-2.09-.07-4.18,1.37-5.8.92-1,.48-2.13.63-3.2,1.64.16.83,1.43,1,2.23.08.45.11,1.16-.15,1.37C676.09,776,676.84,778.68,675,780Z"/><path class="cls-4" d="M791,342c-2.11-.82-.55-2.46-1-4h8c.08,1-.6,1-1.28,1l-5.72.12Z"/><path class="cls-4" d="M483,346c2.11.82.55,2.46,1,4h-8c-.08-1,.6-1,1.28-1l5.72-.12Z"/><path class="cls-4" d="M475,335a.76.76,0,0,1,.78-1c2,0,3.93,0,5.9,0,.65,1.4.15,2.73.32,4-2.1-.18-.14-2.46-1.55-3Z"/><path class="cls-4" d="M702,853v-1.49c2.32-.82,4.2-2.92,7-2.51C707.08,851.05,704.29,851.59,702,853Z"/><path class="cls-4" d="M674,788a.76.76,0,0,1-1-.78c0-2.29,0-4.59,0-6.69.67-.84,1.39-.4,2-.53-.53,1.13-1.26,2.12-1,3.55A30,30,0,0,1,674,788Z"/><path class="cls-4" d="M798,338a.76.76,0,0,1,.78-1c2,0,3.92,0,5.78,0,.74,1.05.31,2.06.44,3-1.62.19-.49-1.76-1.59-2Z"/><path class="cls-4" d="M807,349c.9-.07,1,.53,1,1.21V355c-2.1-.19-.15-2.45-1.55-3H804c.19-2.1,2.44-.15,3-1.54Z"/><path class="cls-4" d="M482,338c.92-.07,1,.55,1,1.23V346c-.92.07-1-.55-1-1.23Z"/><path class="cls-1" d="M423.48,424.9c1.52,2.7-1,4.58-.73,7C420.79,429.14,423.63,427.32,423.48,424.9Z"/><path class="cls-4" d="M809,361c.91-.07,1,.54,1,1.22V368c-.91.07-1-.54-1-1.22Z"/><path class="cls-4" d="M773,357c-.07-.91.54-1,1.22-1H780c.07.91-.54,1-1.22,1Z"/><path class="cls-4" d="M504.11,355v-5.63a1.29,1.29,0,0,1,1.92.19Z"/><path class="cls-4" d="M440,332c-.07-.9.53-1,1.21-1H446c.07.9-.53,1-1.21,1Z"/><path class="cls-4" d="M764,380c.07.9-.53,1-1.21,1H758c-.07-.9.53-1,1.21-1Z"/><path class="cls-4" d="M797,374c.07.9-.53,1-1.21,1H791c-.07-.9.53-1,1.21-1Z"/><path class="cls-4" d="M424,335c-.07-.9.53-1,1.21-1H430c.07.9-.53,1-1.21,1Z"/><path class="cls-4" d="M775,378c.07.9-.53,1-1.21,1H769c-.07-.9.53-1,1.21-1Z"/><path class="cls-4" d="M808,372c.07.9-.53,1-1.21,1H802c-.07-.9.53-1,1.21-1Z"/><path class="cls-4" d="M810,368c2.21.79.23,2.52,1.12,3.48-1.17.81-2.18.4-3.12.52-.18-1.61,1.73-.5,2-1.57Z"/><path class="cls-4" d="M754,374c-.9.07-1-.53-1-1.21V368c.9-.07,1,.53,1,1.21Z"/><path class="cls-4" d="M786,376c.07.9-.53,1-1.21,1H780c-.07-.9.53-1,1.21-1Z"/><path class="cls-4" d="M421,338c-1.87-.4-.83-1.7-.83-3H424c-.19,2.1-2.44.15-3,1.54Z"/><path class="cls-4" d="M767,358c-.07-.9.53-1,1.21-1H773c.07.9-.53,1-1.21,1Z"/><path class="cls-4" d="M752,363c-1.87-.4-.83-1.7-.83-3H755c-.19,2.1-2.44.15-3,1.54Z"/><path class="cls-4" d="M755,360c-.07-.9.53-1,1.21-1H761c.07.9-.53,1-1.21,1Z"/><path class="cls-4" d="M761,359c-.07-.9.53-1,1.21-1H767c.07.9-.53,1-1.21,1Z"/><path class="cls-4" d="M808,355c.9-.07,1,.53,1,1.21V361c-.9.07-1-.53-1-1.21Z"/><path class="cls-4" d="M780,377c.06.89-.51,1-1.2,1H775c-.06-.89.51-1,1.2-1Z"/><path class="cls-4" d="M758,381c-.34,2.06-1.88.24-2.46,1.16-.83-1.22-.42-2.22-.54-3.16a.75.75,0,0,1,1,.76C755.93,381.44,757.13,380.92,758,381Z"/><path class="cls-4" d="M769,379c.06.89-.51,1-1.2,1H764c-.06-.89.51-1,1.2-1Z"/><path class="cls-4" d="M446,331c.34-2.06,1.88-.24,2.46-1.16.83,1.22.42,2.22.54,3.16a.75.75,0,0,1-1-.76C448.07,330.56,446.87,331.08,446,331Z"/><path class="cls-4" d="M435,333c-.06-.89.51-1,1.2-1H440c.06.89-.51,1-1.2,1Z"/><path class="cls-4" d="M677,771a3.43,3.43,0,0,1,0-5Z"/><path class="cls-4" d="M430,334c-.06-.89.51-1,1.2-1H435c.06.89-.51,1-1.2,1Z"/><path class="cls-4" d="M451,341c2.06.34.24,1.88,1.16,2.46-1.22.83-2.22.42-3.16.54a.75.75,0,0,1,.76-1C451.44,343.07,450.92,341.87,451,341Z"/><path class="cls-4" d="M423,347c-.89.06-1-.51-1-1.2V342c.89-.06,1,.51,1,1.2Z"/><path class="cls-4" d="M697.91,786.74c.27,2.27-1.39,2.8-1.17,4.93C695.44,789.11,696.19,788,697.91,786.74Z"/><path class="cls-4" d="M806,344c.89-.06,1,.51,1,1.2V349c-.89.06-1-.51-1-1.2Z"/><path class="cls-4" d="M445,345c.06.89-.51,1-1.2,1H440c-.06-.89.51-1,1.2-1Z"/><path class="cls-4" d="M440,346c.06.89-.51,1-1.2,1H435c-.06-.89.51-1,1.2-1Z"/><path class="cls-4" d="M426,349c-.34,2.06-1.88.24-2.46,1.16-.83-1.22-.42-2.22-.54-3.16a.75.75,0,0,1,1,.76C423.93,349.44,425.13,348.92,426,349Z"/><path class="cls-4" d="M431,348c.06.89-.51,1-1.2,1H426c-.06-.89.51-1,1.2-1Z"/><path class="cls-4" d="M753,368c-.89.06-1-.51-1-1.2V363c.89-.06,1,.51,1,1.2Z"/><path class="cls-4" d="M802,373c.06.89-.51,1-1.2,1H797c-.06-.89.51-1,1.2-1Z"/><path class="cls-4" d="M755,379c-.89.06-1-.51-1-1.2V374c.89-.06,1,.51,1,1.2Z"/><path class="cls-4" d="M791,375c.06.89-.51,1-1.2,1H786c-.06-.89.51-1,1.2-1Z"/><path class="cls-4" d="M705,98c.87-.06,1,.49,1,1.18V102c-.87.06-1-.49-1-1.18Z"/><path class="cls-4" d="M683,760c-1,.76-.3,2.69-2,3v-3Z"/><path class="cls-4" d="M501,362l-.15,2L498,362.57C498.87,361.45,500,362.23,501,362Z"/><path class="cls-4" d="M422,342c-.87.06-1-.49-1-1.18V338c.87-.06,1,.49,1,1.18Z"/><path class="cls-4" d="M502,348.91H500.2l-.28-1.47C501.25,346.67,502.08,346.68,502,348.91Z"/><path class="cls-4" d="M435,347c.06.87-.49,1-1.18,1H431c-.06-.87.49-1,1.18-1Z"/><path class="cls-4" d="M449,344c.06.87-.49,1-1.18,1H445c-.06-.87.49-1,1.18-1Z"/><path class="cls-4" d="M805,340c.87-.06,1,.49,1,1.18V344c-.87.06-1-.49-1-1.18Z"/><path class="cls-4" d="M450,337c.87-.06,1,.49,1,1.18V341c-.87.06-1-.49-1-1.18Z"/><path class="cls-4" d="M706,102c.87-.06,1,.49,1,1.18V106c-.87.06-1-.49-1-1.18Z"/><path class="cls-4" d="M699.48,785.12a2.78,2.78,0,0,1-.1-3h1.52Z"/><path class="cls-4" d="M449,333c.87-.06,1,.49,1,1.18V337c-.87.06-1-.49-1-1.18Z"/><path class="cls-4" d="M703,764c.87-.06,1,.49,1,1.18V768c-.87.06-1-.49-1-1.18Z"/><path class="cls-4" d="M501.12,361.85V359C502.05,360.69,502.05,360.69,501.12,361.85Z"/><path class="cls-1" d="M416,438l.12-1.68c.74-.45,1.29-.49,1.79,0A2.69,2.69,0,0,1,416,438Z"/><path class="cls-4" d="M696.85,669.88H694C695.69,669,695.69,669,696.85,669.88Z"/><path class="cls-4" d="M503.88,354.15V357C503,355.31,503,355.31,503.88,354.15Z"/><path class="cls-4" d="M702,853a2.44,2.44,0,0,1-2,2v-2Z"/><path class="cls-4" d="M702,835c-.47,1.93-2,.62-3,1C699.47,834.07,701,835.38,702,835Z"/><path class="cls-4" d="M684,757c-.38,1,.93,2.53-1,3C683.38,759,682.07,757.47,684,757Z"/><path class="cls-4" d="M678,764c.47-1.93,2-.62,3-1C680.53,764.93,679,763.62,678,764Z"/><path class="cls-4" d="M689.15,667.12H692C690.31,668.05,690.31,668.05,689.15,667.12Z"/><path class="cls-4" d="M703,764c-1.93-.47-.62-2-1-3C703.93,761.47,702.62,763,703,764Z"/><path class="cls-4" d="M710,847c-.15.76.5,1.91-1,2C709.15,848.24,708.5,847.09,710,847Z"/><path class="cls-4" d="M700.07,760.4c.7-.62,1.68-.65,1.84.15.21,1-.88.15-1.32.42C700.55,761,700.26,760.61,700.07,760.4Z"/><path class="cls-4" d="M678,764c-.15.76.5,1.91-1,2C677.15,765.24,676.5,764.09,678,764Z"/><path class="cls-1" d="M415,440c.15-.76-.5-1.91,1-2C415.85,438.76,416.5,439.91,415,440Z"/><path class="cls-4" d="M702.4,780.93c-.62-.7-.65-1.68.15-1.84,1-.21.15.88.42,1.32C703,780.45,702.61,780.74,702.4,780.93Z"/><path class="cls-4" d="M848,442.18v20.67h20.88V442.12h56.9v57.37c-3.86.74-42.17,1-56.66.33V479.24H848.09v20.55h-57V442.18Zm-55.95,56.65h54.75c.62-14.37.39-51.65-.31-55.66H792.08ZM925,443.5c-4.3-.72-51.18-.69-54.82,0v55.34c17,.64,50.67.4,54.82-.39Zm-56.08,20.67H848c0,2.47,0,4.78,0,7.08s-.26,4.55.18,6.58h20.73Z"/><path class="cls-2" d="M631.9,511.18v11.64H583.1V511.18Z"/><path class="cls-2" d="M623.91,569.16v11.68H602.12c0-1.75-.1-3.68-.12-5.61s0-4,0-6.07Z"/><path class="cls-2" d="M533.17,368.09h13.66V381.8c-2,.45-4.32.13-6.57.19s-4.61,0-7.09,0Z"/><path class="cls-2" d="M468,276H455.24c-.52-2.19-.09-4.44-.31-7H468Z"/><path class="cls-2" d="M468,282H455.3c-.6-1.5-.23-3.1-.25-5H468Z"/><path class="cls-2" d="M468,288h-8.7c-.6-1.5-.23-3.1-.25-5H468Z"/><path class="cls-2" d="M634.24,651.83a1.38,1.38,0,0,1,.1-1.66h21.42a1.38,1.38,0,0,1-.1,1.66Z"/><path class="cls-2" d="M527.17,368.09h4.66v5.68c-1.32.53-2.92.16-4.66.18Z"/><path class="cls-2" d="M445,497c11.91,0,23.82,0,35.73,0,.8,0,2.1-.69,2.27,1-2.19,2-4.84,3.26-7,5.32s-2.94,4.76-5,6.68H445Z"/><path class="cls-2" d="M433.75,446H413.46c-.83-1.15-.42-2.43-.32-3.85h16.7V389.51c1.38-.83,2.55-.38,3.91-.53Z"/><path class="cls-2" d="M471,524H445V511h18.17v7H471Z"/><path class="cls-4" d="M471,518h-7.83v-7H445v-1h26v1h-6.74v6H471Z"/><path class="cls-2" d="M445,525h5.74v6H445Z"/><path class="cls-2" d="M303.09,287.83V273.17h29.75c.39,2.2.1,4.65.15,7.08s0,4.94,0,7.58Z"/><path class="cls-2" d="M527,209V197.24c2.2-.5,4.48-.17,6.73-.23s4.61,0,7.09,0v11.83C536.34,209.19,531.67,208.94,527,209Z"/><path class="cls-2" d="M339.92,273.17v14.66h-5.77a53.37,53.37,0,0,1-.14-7.09c-.05-2.47,0-4.93,0-7.57Z"/><path class="cls-2" d="M540.91,210.17v5.66H527.27v-5.66Z"/><path class="cls-2" d="M456.83,165.91h-5.59a7.12,7.12,0,0,1-.05-3.75l2.48-.28.69-1.79h2.47Z"/><path class="cls-2" d="M370.17,389.08h12.66v15.73c-1.87.42-4,.13-6.08.18s-4.28,0-6.58,0Z"/><path class="cls-2" d="M99,353H73c-.09-5.9,0-11.82,0-17.73s0-11.95,0-18.09H86.3a5.21,5.21,0,0,0,.53-.52.81.81,0,0,0,.16-.43c0-9,0-17.93,0-27.07H73.25V246H99Z"/><path class="cls-1" d="M154.14,284c2.84,1.5,5.35,2.78,7.38,4.93,3,3.19,4.85,6.62,4.52,11.14-.22,3.14,0,6.31,0,9.38-.39,1-1.48.5-2.14,1.6a15.56,15.56,0,0,1-8.63,7.23c-.48.49.1,1.39-.77,1.65-1.71-1.91-4-.69-6-.89a55.12,55.12,0,0,0-5.57,0c-2.84-1.49-5.35-2.78-7.38-4.93-3-3.18-4.89-6.61-4.52-11.14.21-2.48,0-5,0-7.07,1.5-2.84,2.78-5.35,4.93-7.38,3.19-3,6.62-4.89,11.14-4.52C149.55,284.17,152.05,284,154.14,284ZM152,286.5a13.84,13.84,0,0,0-7,0A13.84,13.84,0,0,0,152,286.5Zm-.2,30.33c-2.2-.67-4.46-1.14-6.65,0Zm12-19.61a6.64,6.64,0,0,0-.8,4.3c0,1.12-.39,2.37.8,4Zm-30.66,7.6c.66-2.22,1.16-4.48,0-6.65Z"/><path class="cls-4" d="M158.16,324.54c-1.34-1.14-1.42-1.77-.76-2.46C158.46,322.46,157.82,323.36,158.16,324.54Z"/><path class="cls-4" d="M158,324a.71.71,0,0,1,.89.6c0,.07-.22.31-.29.29A.71.71,0,0,1,158,324Z"/><path class="cls-2" d="M501,499v-1.53a2.75,2.75,0,0,1,.35-.31.86.86,0,0,1,.43-.15h27v13H510c-1.81-1.61-2.29-4.13-4.17-5.77S502.13,501.18,501,499Z"/><path class="cls-2" d="M471,517h-6.74v-6H471Z"/><path class="cls-4" d="M507.5,521a13.84,13.84,0,0,1,0-7A13.84,13.84,0,0,1,507.5,521Z"/><path class="cls-4" d="M473.17,520.83v-6.65C474.35,516.34,473.82,518.59,473.17,520.83Z"/><path class="cls-4" d="M493.83,500.83h-6.65C489.34,499.65,491.59,500.18,493.83,500.83Z"/><path class="cls-4" d="M486.22,534.17h8.3c-1.63,1.19-2.88.8-4,.8A6.64,6.64,0,0,1,486.22,534.17Z"/><path class="cls-4" d="M486,533.48a1.48,1.48,0,0,1-2,.28C484.53,532.56,485.17,532.85,486,533.48Z"/><path class="cls-4" d="M497,533.46c-.74.82-1.3.54-2,.32C495.5,532.56,496.14,532.86,497,533.46Z"/><path class="cls-4" d="M494.92,501.5c.82-.65,1.38-.69,2-.15C496.47,502.44,495.83,502.15,494.92,501.5Z"/><path class="cls-4" d="M486.08,501.5c-.82.65-1.38.69-2,.15C484.53,500.56,485.17,500.85,486.08,501.5Z"/><path class="cls-4" d="M474.48,510.93c.71.77.67,1.33.18,1.95C473.56,512.5,473.86,511.86,474.48,510.93Z"/><path class="cls-4" d="M506.48,510.93c.71.77.67,1.33.18,1.95C505.56,512.5,505.86,511.86,506.48,510.93Z"/><path class="cls-4" d="M474.5,524.08c-.65-.82-.69-1.38-.15-2C475.44,522.53,475.15,523.17,474.5,524.08Z"/><path class="cls-4" d="M506.52,524.07c-.71-.77-.67-1.33-.18-2C507.44,522.5,507.14,523.14,506.52,524.07Z"/><path class="cls-4" d="M498.5,533c-.47-.32-.47-.66,0-1C499,532.33,499,532.67,498.5,533Z"/><path class="cls-4" d="M500.5,504c-.47-.32-.47-.66,0-1C501,503.33,501,503.67,500.5,504Z"/><path class="cls-4" d="M480.5,504c-.47-.32-.47-.66,0-1C481,503.33,481,503.67,480.5,504Z"/><path class="cls-4" d="M475.5,509c.47.32.47.66,0,1C475,509.67,475,509.33,475.5,509Z"/><path class="cls-4" d="M504,507.5c.32-.47.66-.47,1,0C504.67,508,504.33,508,504,507.5Z"/><path class="cls-4" d="M505,509.5c.32-.47.66-.47,1,0C505.67,510,505.33,510,505,509.5Z"/><path class="cls-4" d="M498.5,502c.47.32.47.66,0,1C498,502.67,498,502.33,498.5,502Z"/><path class="cls-4" d="M482.5,502c.47.32.47.66,0,1C482,502.67,482,502.33,482.5,502Z"/><path class="cls-4" d="M475.5,526c-.47-.32-.47-.66,0-1C476,525.33,476,525.67,475.5,526Z"/><path class="cls-4" d="M506,525.5c-.32.47-.66.47-1,0C505.33,525,505.67,525,506,525.5Z"/><path class="cls-4" d="M477,527.5c-.32.47-.66.47-1,0C476.33,527,476.67,527,477,527.5Z"/><path class="cls-4" d="M504,527.5c.32-.47.66-.47,1,0C504.67,528,504.33,528,504,527.5Z"/><path class="cls-4" d="M476.5,508c-.47-.32-.47-.66,0-1C477,507.33,477,507.67,476.5,508Z"/><path class="cls-4" d="M480.5,531c.47.32.47.66,0,1C480,531.67,480,531.33,480.5,531Z"/><path class="cls-4" d="M500,531.5c.32-.47.66-.47,1,0C500.67,532,500.33,532,500,531.5Z"/><path class="cls-4" d="M482.5,533c-.47-.32-.47-.66,0-1C483,532.33,483,532.67,482.5,533Z"/><path class="cls-2" d="M97.83,381.92H70.17V354.34c-.06.06,0-.08.17-.17a.81.81,0,0,1,.43-.16H97.83Z"/><path class="cls-2" d="M97.83,244.92H70.17v-27.6c-.07.06,0-.07.18-.16a.86.86,0,0,1,.43-.15H97.83Z"/><path class="cls-2" d="M68.83,358.91H55.17V319.09H68.83Z"/><path class="cls-2" d="M73.08,315.83V290.17H86q0,12.57,0,25.66Z"/><path class="cls-2" d="M70.18,246.1h1.64V352.9H70.18Z"/><path class="cls-2" d="M99.1,244.82v-1.64h30.8v1.64Z"/><path class="cls-2" d="M68.83,317.92H62.17V311.2c2-.47,4.26-.05,6.66-.26Z"/><path class="cls-2" d="M63.08,365.83v-5.66h5.66v5.66Z"/><path class="cls-2" d="M456.84,127.91h-3.68v-5.58c1-.67,2.27-.3,3.68-.19Z"/><path class="cls-2" d="M247.93,209.94V272.6c-1.12.84-2.33.07-3.41.53-.75-4.48-1-46.75-.37-62.81C245.21,209.67,246.38,210.14,247.93,209.94Z"/><path class="cls-2" d="M230.18,210.09h12.64V224.8c-1.84.45-4,.14-6,.19s-4.28,0-6.59,0Z"/><path class="cls-2" d="M791,375h-3.8c-.69,0-1.26.11-1.2,1h-4.79c-.68,0-1.28.1-1.21,1h-3.8c-.69,0-1.26.11-1.2,1h-4.79c-.68,0-1.28.1-1.21,1h-3.8c-.69,0-1.26.11-1.2,1h-4.79c-.68,0-1.28.1-1.21,1-.87-.08-2.07.44-2-1.24a.75.75,0,0,0-1-.76v-3.8c0-.69-.11-1.26-1-1.2v-4.79c0-.68-.1-1.28-1-1.21v-3.8c0-.69-.11-1.26-1-1.2v-1.46c.56-1.39,2.81.56,3-1.54h4.79c.68,0,1.28-.1,1.21-1h4.79c.68,0,1.28-.1,1.21-1h4.79c.68,0,1.28-.1,1.21-1h5.78c.68,0,1.29-.09,1.22-1,4,.56,7.72-1.36,11.67-1.2.1,0,.22-.52.33-.8h4.79c.68,0,1.28-.1,1.21-1h4.79c.68,0,1.28-.1,1.21-1h2.45c1.4.55-.55,2.81,1.55,3v4.79c0,.68.1,1.28,1,1.21v5.78c0,.68.09,1.29,1,1.22v2.43c-.27,1.07-2.18,0-2,1.57h-4.79c-.68,0-1.28.1-1.21,1h-3.8c-.69,0-1.26.11-1.2,1h-4.79C791.53,374,790.93,374.1,791,375Z"/><path class="cls-2" d="M805,340v2.82c0,.69.13,1.24,1,1.18v3.8c0,.69.11,1.26,1,1.2v1.46c-.56,1.39-2.81-.56-3,1.54h-4.79c-.68,0-1.28.1-1.21,1h-4.16c-1.52-1,.1-2.79-1.84-3v-6.77c0-.68-.08-1.3-1-1.23v-2.88l5.72-.12c.68,0,1.36,0,1.28-1h5.41C804.51,338.24,803.38,340.19,805,340Z"/><path class="cls-2" d="M792,354h-5.73v-5.82h5c.27.06-.86,2,.76,1.82Z"/><path class="cls-2" d="M482,338v6.77c0,.68.08,1.3,1,1.23v2.88l-5.72.12c-.68,0-1.36,0-1.28,1h-6.89c0-1.89-.07-3.8-.11-5.72,0-.68,0-1.36-1-1.28v-6.89l5.72-.11c.68,0,1.36,0,1.28-1h5.45C481.86,335.54,479.9,337.82,482,338Z"/><path class="cls-2" d="M449,333v2.82c0,.69.13,1.24,1,1.18v2.82c0,.69.13,1.24,1,1.18-.08.87.44,2.07-1.24,2a.75.75,0,0,0-.76,1h-2.82c-.69,0-1.24.13-1.18,1h-3.8c-.69,0-1.26.11-1.2,1h-3.8c-.69,0-1.26.11-1.2,1h-2.82c-.69,0-1.24.13-1.18,1h-3.8c-.69,0-1.26.11-1.2,1-.87-.08-2.07.44-2-1.24a.75.75,0,0,0-1-.76v-3.8c0-.69-.11-1.26-1-1.2v-2.82c0-.69-.13-1.24-1-1.18v-1.46c.56-1.39,2.81.56,3-1.54h4.79c.68,0,1.28-.1,1.21-1h3.8c.69,0,1.26-.11,1.2-1h3.8c.69,0,1.26-.11,1.2-1h4.79c.68,0,1.28-.1,1.21-1,.87.08,2.07-.44,2,1.24A.75.75,0,0,0,449,333Z"/><path class="cls-2" d="M792.08,498.83V443.17h54.44c.7,4,.93,41.29.31,55.66Z"/><path class="cls-2" d="M925,443.5v55c-4.15.79-37.82,1-54.82.39V443.51C873.82,442.81,920.7,442.78,925,443.5Z"/><path class="cls-2" d="M868.92,464.17v13.66H848.19c-.44-2-.12-4.32-.18-6.58s0-4.61,0-7.08Z"/><path class="cls-4" d="M152,286.5a13.84,13.84,0,0,1-7,0A13.84,13.84,0,0,1,152,286.5Z"/><path class="cls-4" d="M151.8,316.83h-6.65C147.34,315.69,149.6,316.16,151.8,316.83Z"/><path class="cls-4" d="M163.83,297.22v8.3c-1.19-1.63-.8-2.88-.8-4A6.64,6.64,0,0,1,163.83,297.22Z"/><path class="cls-4" d="M133.17,304.82v-6.65C134.33,300.34,133.83,302.6,133.17,304.82Z"/><path class="cls-4" d="M792,354v-4c1.94.21.32,2,1.84,3H798c.07.9-.53,1-1.21,1Z"/><path class="cls-4" d="M798,353c-.07-.9.53-1,1.21-1H804c.07.9-.53,1-1.21,1Z"/></svg>