<svg id="Layer_1" data-name="Layer 1" xmlns="http://www.w3.org/2000/svg" viewBox="0 0 1024 1024"><defs><style>.cls-1{fill:#fefefe;}.cls-2{fill:#7f7f7f;}.cls-3{fill:#a6a38a;}.cls-4{fill:#a5a289;}.cls-5{fill:#e6e5e0;}.cls-6{fill:#dedede;}</style></defs><path class="cls-1" d="M0,1024V0H1024V1024ZM945,492V452.17c-16.86-.7-88.69-.42-93,.35V492H810V468.21H762.91v35.56H698V455.59L661.4,419H438.17c-1,0-2,0-3,0a4.8,4.8,0,0,1-2.28-.52c-7.55-3.88-15.18-7.62-22.67-11.35h-61V549.23l7.82-8V512.36l20.14-20.1V449.12h21.68v65.34c-24.19,24.19-48.35,48.34-72.75,72.75h-53v42.91h12v14.79h59.44l89-89h52.53V463.16H555c0,30.47,0,60.78,0,91.09a.77.77,0,0,0,.17.42,5.55,5.55,0,0,0,.58.52h15.3V660.91h10.49c.31,1.49,2.43.47,2.3,2.45-4-2-8.36-1.19-12.63-1.39v6.93h12.63c0-2,0-4,.15-5.9a.76.76,0,0,1,1,.79c0,1.64,0,3.28,0,5h40.91c.73-32.92.39-100-.58-103.87-4.07,5.4-10.19,8.48-14.53,14v61h-8.57v-85h14.58c.64-13.56.41-45.84-.38-50.05H602.12V480.22h60v55.92h41.71V559.9H684.94V547.13H647.35L627,563.57V693.51L664.5,731H712a.85.85,0,0,1,1,1v17H621.92v7.06h-7.06V875.83H603V863.94H554.92V776.39c-2.06-1.74-2.86-4.14-4.71-5.82s-.49-4.71-2.44-6.4c-16.86-.73-87.62-.43-91.81.39q0,21.48,0,43c0,.12-.2.28-.35.34-.59.29-.12-.75-.7.85V779.15H390.23a7.8,7.8,0,0,1-.4,1.5c-4,7.68-8,15.34-12,23-2.33,4.53-4.35,9.24-6.91,13.63-1.49,2.55-2.11,5.61-4.2,7.52H337.27c-2.15-5.17-4.73-9.92-6.92-14.85-4.38-9.86-9.31-19.45-13.45-29.44-1.87-4.53-4.29-8.87-6.39-13.34-4.25-9.07-8.53-18.13-12.57-27.3-2.11-4.79-4.68-9.38-6.78-14.19-2.94-6.79-6-13.5-9.19-20.19-1.05-2.24-2.12-4.47-3.15-6.69-2-4.33-3.63-9-6.95-12.72V632.23h-51v84.62l-34,20.09-2.65-1.27c-2.11-4.39-3.77-9-6.33-12.95-4.3-6.68-7.26-14.06-11.41-20.81-2.09-3.4-3.63-7.15-5.39-10.69V629.94h38v-13.7h15.06v13.48h6V517h91.57V481.87H258.21c-.69-13.32-.42-103.73.27-107.69H291v25.89H313.1v4.69h35.06V338h45.68V252.34c-4.39-4.07-7.33-9.5-11.34-14.37H347.15V202.63l38.4-38.4h73.58V212.8c13.66.69,121.72.41,126-.35V162.11h81.89v15h5.69v24.06h-4.59c-1.45,5.33-3,10.5-3.13,15.87-.18,5.82,0,11.66,0,18.07l2.34,1.5c-1.39,3.92.84,7.45.64,11.18-.33,6.37.66,12.74-.85,19.12a24,24,0,0,0,0,9.94c.52,2.62,2.41,5,3.64,7.46,2.06,4.16,3.68,8.54,6.38,12.35,3.48,4.91,7,9.8,10.62,14.6,4.52,6,9.4,11.71,13.71,17.85,5.23,7.46,11,14.43,16.65,21.59,1.16,1.49,1.81,3.39,3.85,4.41h56.94q0,31.83,0,63.46c0,.12-.2.29-.34.34-.62.25-.11-.79-.58.44V373.16H756.18c-.72,16-.43,74.7.41,79h22.47v14.9h32.06v15c7.08-.16,14,.16,20.88-.21V352.54c-3.14-2.15-6.28-4.24-9.36-6.42-4.78-3.38-9.48-6.87-14.27-10.23-4.12-2.89-8.54-5.4-12.43-8.56-6.81-5.53-14.4-10-21-15.79a8.63,8.63,0,0,0-3.82-1.63c-2.52-.55-5.32-.3-7.51-1.15-2-.8-4.09.06-5.61-.87-1.88-1.15-3.77-.59-5.26-.93a19.07,19.07,0,0,0-4.53-2.07c-2.35-.7-5.14-1.47-6.35-3.72-1.08-2-3-3.29-4.17-5.48,1.84-1.29,2.76-3.23,5-4,1-.33,1.78-1.66,2.46-2.86,1.23-2.19,1.81-4.6,2.89-6.82-.54-1.77-1.58-3.29-2.13-5.13-1.42-4.7-3.54-9.19-5.28-13.8-1.91-5-3.76-10.11-5.69-15.14-1.19-3.08-1.59-6.29-2.69-9.38-1.81-5.11-2.81-10.51-4.22-15.76-1.17-4.34-2.48-8.64-3.67-13s-2.83-8.36-3.18-12.63c-.54-6.6-.14-13.27-.14-20.25h20V135.41c-1.75-1.25-2.64-3.43-4.17-5-3.76-4-6.9-8.59-10.68-12.53-4.32-4.51-8-9.63-12.62-13.83-2.4,0-4.85.28-7.08-1-6.74.59-13.33-1.58-20.09-1.06-4,.31-8,.06-12,.06-.83,0-1.91.34-2.45-.06-1.62-1.2-3.41-1.11-5.13-.88-2,.26-3.73-1.14-5.58-1-3.14.26-5.95-1.81-9.09-1.07-2-1.49-4.74-.21-6.48-1.19-2-1.13-4,0-5.64-.91-1.89-1-3.73-.83-5.64-.9-.83,0-1.92.34-2.46-.06-2.09-1.54-4.45-1.07-6.62-.84-2.39.25-4.35-1-6.59-1.13-1.4-.07-2.79.39-4.2-.83-.9-.78-2.93.44-4-1.14-4.41-.58-8.57-2.67-13.18-2a28.75,28.75,0,0,1-3.94,0c-2.64-.25-3.18-3.26-5.39-4-2-.69-3.08-3.27-5.75-2.88V114h53.18c.13,0,.28.16.38.27a2,2,0,0,1,.15.54H572V78.37c-3-1-5.3-3-7.79-4.63a14.6,14.6,0,0,0-8.36-2.82c-14.33.18-28.67.06-43,.11-1.26,0-2.63-.46-4,.5V99c-5.75-.05-11.31.06-17.05-.07v-16h-14.9V71.15H331.55l-57.34,57.33V253.1h24.55V312H197.58l-44.39,44.39v51.68h43.9V456h22.69c.57,10.62.39,33-.28,37H174c-.62-.13-1.34.32-2-.56V476.16H70v4.09c0,12.32,0,24.64,0,37,0,.92,1,2.44-1,2.79V466h74.05V393.92h8.72V365.16H131.16c-3.87,6.06-9.35,10.71-13.28,16.88v59H24.15V466c2.78,0,5.42,0,8.06,0a72.15,72.15,0,0,1,7.79.13v130H55.12v13.78H88.45c7.31-11.36,14.59-22.66,21.92-34H114c0-6.14,0-12.11,0-18.07,0-.72-.39-1.78,1-1.79v85H92.16v25.48c3.72,6.44,7.37,13,11.21,19.34s7.92,12.36,11.57,18.72c2.54,4.43,5.17,8.82,7.59,13.34,3.15,5.9,7,11.45,10.47,17.17,2.85,4.64,5.72,9.28,8.51,14,1.66,2.79,3.17,5.66,4.64,8.31-1.74,3.77-2,3.52-4.75,5.87-4,3.38-8.67,5.76-13,8.64-2.42,1.61-4.73,3.53-7.2,4.67v25.34h92.53c.62-.94-.26-2.13.52-2.69H231c-.11,5.72.14,11.29-.17,17H215.12V881h3.5c8,0,16,.14,24,0s16.12.92,24.08-1h44.24c9.61-4.56,17.7-10.42,26.59-14.84H366c0,5.81,0,11.45,0,17.09a.81.81,0,0,0,.18.43c.09.12.23.21.14.13h70.72V845.22H456.1V947.77h129V944H667c8.08-4,15.54-7.77,22.89-11.43V864.08c-8.39-.26-16.63.16-24.67-.23V803.1h77.87v23.78h67.14L882,755.06c0-7.61,0-15.44,0-23.27s0-15.87,0-24H861.1V689.94h20.77V636.89h-7.72V607h70.07a.89.89,0,0,0,.43-.15,2.75,2.75,0,0,0,.35-.31V492ZM295.1,578h24.5l19.07-19.06c-14,0-28.12,0-42.23,0-.12,0-.29-.2-.35-.34-.24-.62.8-.11-.26-.52h44.51l7.49-7.41V407H318.74a.78.78,0,0,0-.42.18,5.08,5.08,0,0,0-.5.58V482h-4.89v36H221.21v111.8h50.57v-43H233.24v-9H271c.18-6.72-.17-13.3.2-19.84,1.38,0,2.39-.08,3.38,0,.77.08,1.78-.44,2.43.61-1.69.87-3.46-.2-4.83.68v18.44H278c0-5.91,0-11.57,0-17.23,0-.12.2-.26.33-.36.55-.38.15.67.71-1.06v18.78H294.1V560C295.33,565.89,294.76,571.79,295.1,578Zm258.74-23.1V464.24H487.15v91.51h10v-76.5h47V554.9ZM395.08,337.82h11.83V269.33c-.76-2.13-2.48-3.43-4-4.88s-2.56-3.35-4-4.79-1.73-3.62-3.87-4.76ZM493,97.83h14.76V71.15h-29.5v11H493ZM761.86,502.92V468.11h-6.47c-.35.35-.83.64-1,1.07-2.25,4.54-4.4,9.14-6.76,13.63a4.56,4.56,0,0,0-.59,2.25v17.86Zm120,204V691H862.77a.76.76,0,0,0-.43.16c-.13.09-.23.23-.17.17v15.58ZM573.18,78.08V113.9h7.67V82.5C579.21,79.61,575.93,79.5,573.18,78.08ZM455,860c-.06-4.67.21-9.34-.17-13.82H438c0,2.48-.05,4.79,0,7.09s-.27,4.54.23,6.73ZM215.08,814.83H230c0-2.63,0-5.11,0-7.58s.23-4.87-.15-7.08H215.08ZM616.92,489.17H603c0,2.64,0,5.11,0,7.58s-.24,4.87.15,7.08h13.76Zm69.17,69.66H703c0-2.15,0-4.12,0-6.1s-.07-3.84-.11-5.56h-16.8ZM212.91,617.17H200c0,2.31,0,4.45,0,6.59s-.26,4.21.19,6.07h12.71Zm404-136h-14c.21,2.39-.21,4.64.26,6.66h13.72Zm-1.84,273.66h5.66v-5.66h-5.66Z"/><path class="cls-2" d="M712,731H664.5L627,693.51V563.57l20.34-16.44h37.59V559.9h18.88V536.14H662.11V480.22h-60v24.59h14.31c.79,4.21,1,36.49.38,50.05H602.23v85h8.57v-61c4.34-5.51,10.46-8.59,14.53-14,1,3.89,1.31,71,.58,103.87H585c0-1.72,0-3.36,0-5a.76.76,0,0,0-1-.79c0-1.62-2.14-.6-2.45-2.09H571.06V555.19h-15.3a5.55,5.55,0,0,1-.58-.52.77.77,0,0,1-.17-.42c0-30.31,0-60.62,0-91.09H486.12v92.75H433.59l-89,89H285.15V630.12h-12V587.21h53c24.4-24.41,48.56-48.56,72.75-72.75V449.12H377.19v43.14l-20.14,20.1v28.86l-7.82,8V407.12h61c7.49,3.73,15.12,7.47,22.67,11.35a4.8,4.8,0,0,0,2.28.52c1,0,2,0,3,0H661.4L698,455.59v48.18h64.89V468.21H810V492h42v95h48c0,1.37,1.06,1,1.78,1,7.63,0,15.26,0,22.89,0h6.4V556H945v50.53a2.75,2.75,0,0,1-.35.31.89.89,0,0,1-.43.15H874.15v29.89h7.72v53.05H861.1v17.88H882c.06,8.1,0,16,0,24s0,15.66,0,23.27l-71.81,71.82H743.05V803.1H665.18v60.75c8,.39,16.28,0,24.67.23v68.51C682.5,936.25,675,940,667,944H585.14v3.75h-129V845.22H437.05v37.59H366.33c.09.08-.05,0-.14-.13a.81.81,0,0,1-.18-.43c0-5.64,0-11.28,0-17.09H337.53c-8.89,4.42-17,10.28-26.59,14.84H266.7c-8,1.88-16,.78-24.08,1s-16,0-24,0h-3.5V816.19h15.73c.31-5.73.06-11.3.17-17H214.27c-.78.56.1,1.75-.52,2.69H121.22V776.52c2.47-1.14,4.78-3.06,7.2-4.67,4.31-2.88,9-5.26,13-8.64,2.8-2.35,3-2.1,4.75-5.87-1.47-2.65-3-5.52-4.64-8.31-2.79-4.69-5.66-9.33-8.51-14-3.51-5.72-7.32-11.27-10.47-17.17-2.42-4.52-5-8.91-7.59-13.34-3.65-6.36-7.79-12.43-11.57-18.72s-7.49-12.9-11.21-19.34V641H115V556h47v23.23c0,2.5,0,5,0,7.49s-.22,4.89.84,7.28V557H174.9c.08-1.47.14-2.59.22-4.05h16v-32H203c-9.67-1.13-19.36-.61-29-1V493h45.5c.67-4,.85-26.38.28-37H197.09V408.06h-43.9V356.38L197.58,312H298.76V253.1H274.21V128.48l57.34-57.33H476.91V82.94h14.9v16c5.74.13,11.3,0,17.05.07V71.53c1.35-1,2.72-.5,4-.5,14.33,0,28.67.07,43-.11a14.6,14.6,0,0,1,8.36,2.82c2.49,1.6,4.74,3.6,7.79,4.63v36.45h63.93a2,2,0,0,0-.15-.54c-.1-.11-.25-.27-.38-.27H582.21V83.09C584.88,82.7,586,85.28,588,86c2.21.77,2.75,3.78,5.39,4a28.75,28.75,0,0,0,3.94,0c4.61-.64,8.77,1.45,13.18,2,1,1.58,3.07.36,4,1.14,1.41,1.22,2.8.76,4.2.83,2.24.11,4.2,1.38,6.59,1.13,2.17-.23,4.53-.7,6.62.84.54.4,1.63,0,2.46.06,1.91.07,3.75-.11,5.64.9,1.6.86,3.62-.22,5.64.91,1.74,1,4.46-.3,6.48,1.19,3.14-.74,5.95,1.33,9.09,1.07,1.85-.15,3.54,1.25,5.58,1,1.72-.23,3.51-.32,5.13.88.54.4,1.62.06,2.45.06,4,0,8,.25,12-.06,6.76-.52,13.35,1.65,20.09,1.06,2.23,1.28,4.68,1,7.08,1,4.65,4.2,8.3,9.32,12.62,13.83,3.78,3.94,6.92,8.52,10.68,12.53,1.53,1.62,2.42,3.8,4.17,5v41.52H721c0,7-.4,13.65.14,20.25.35,4.27,2,8.43,3.18,12.63s2.5,8.64,3.67,13c1.41,5.25,2.41,10.65,4.22,15.76,1.1,3.09,1.5,6.3,2.69,9.38,1.93,5,3.78,10.1,5.69,15.14,1.74,4.61,3.86,9.1,5.28,13.8.55,1.84,1.59,3.36,2.13,5.13-1.08,2.22-1.66,4.63-2.89,6.82-.68,1.2-1.49,2.53-2.46,2.86-2.21.78-3.13,2.72-5,4,1.14,2.19,3.09,3.46,4.17,5.48,1.21,2.25,4,3,6.35,3.72a19.07,19.07,0,0,1,4.53,2.07c1.49.34,3.38-.22,5.26.93,1.52.93,3.59.07,5.61.87,2.19.85,5,.6,7.51,1.15a8.63,8.63,0,0,1,3.82,1.63c6.61,5.79,14.2,10.26,21,15.79,3.89,3.16,8.31,5.67,12.43,8.56,4.79,3.36,9.49,6.85,14.27,10.23,3.08,2.18,6.22,4.27,9.36,6.42V481.83c-6.89.37-13.8.05-20.88.21v-15H779.06v-14.9H756.59c-.84-4.33-1.13-63.06-.41-79H778v46.18c.47-1.23,0-.19.58-.44.14,0,.34-.22.34-.34q0-31.68,0-63.46H722c-2-1-2.69-2.92-3.85-4.41-5.6-7.16-11.42-14.13-16.65-21.59-4.31-6.14-9.19-11.86-13.71-17.85-3.63-4.8-7.14-9.69-10.62-14.6-2.7-3.81-4.32-8.19-6.38-12.35-1.23-2.49-3.12-4.84-3.64-7.46a24,24,0,0,1,0-9.94c1.51-6.38.52-12.75.85-19.12.2-3.73-2-7.26-.64-11.18L665,235.1c0-6.41-.14-12.25,0-18.07.17-5.37,1.68-10.54,3.13-15.87h4.59V177.1h-5.69v-15H585.18v50.34c-4.33.76-112.39,1-126,.35V164.23H385.55l-38.4,38.4V238H382.5c4,4.87,6.95,10.3,11.34,14.37V338H348.16v66.77H313.1v-4.69H291V374.18H258.48c-.69,4-1,94.37-.27,107.69h53.56V517H220.2V629.72h-6V616.24H199.09v13.7h-38v61.28c1.76,3.54,3.3,7.29,5.39,10.69,4.15,6.75,7.11,14.13,11.41,20.81,2.56,4,4.22,8.56,6.33,12.95l2.65,1.27,34-20.09V632.23h51v53.88c3.32,3.76,4.95,8.39,6.95,12.72,1,2.22,2.1,4.45,3.15,6.69,3.15,6.69,6.25,13.4,9.19,20.19,2.1,4.81,4.67,9.4,6.78,14.19,4,9.17,8.32,18.23,12.57,27.3,2.1,4.47,4.52,8.81,6.39,13.34,4.14,10,9.07,19.58,13.45,29.44,2.19,4.93,4.77,9.68,6.92,14.85h29.45c2.09-1.91,2.71-5,4.2-7.52,2.56-4.39,4.58-9.1,6.91-13.63,4-7.69,8-15.35,12-23a7.8,7.8,0,0,0,.4-1.5H454.9v29.58c.58-1.6.11-.56.7-.85.15-.06.35-.22.35-.34q0-21.49,0-43c4.19-.82,74.95-1.12,91.81-.39,2,1.69.67,4.81,2.44,6.4s2.65,4.08,4.71,5.82v87.55H603v11.89h11.88V756.11h7.06v-7.06H713V732c2.57-1.52,4.38-3.87,6.41-6,4.21-4.33,8.88-8.23,12.59-13h41v42.8h17.05V739.89h27.06V636.07c7.73-.26,15.32.19,23.74-.31-2.33-2-1.87-4-1.87-5.87,0-7.82,0-15.65,0-23.34L816.83,578V564.1H800v15H777.89v21.06h-92.8v41c2.32-1,3.3.74,4.54,2q20.7,20.67,41.37,41.36V712c-2.82,1.73-4.84,4.34-7.1,6.66C719.92,722.76,715.45,726.39,712,731ZM510,923c-.07.92.55,1,1.23,1H518c1.27,2,3.15.42,5,1.32v-6.38h7.75v-9c-3.33.38-6.54-.57-9.94.91v-9.69h-20v6.79c-1.46.21-2.63-.26-3.86.46,0,2.24,0,4.54,0,6.84s-.25,4.55.21,6.76H502c-.07.92.55,1,1.23,1ZM270,768c.61-.12,1.31.3,1.84-.33.64-1.94-.74-1.65-1.84-1.67v-2.48c-2.68-.89-4-3.06-5-5.52a2.42,2.42,0,0,0-1.67-2.84c-.61.55-.22,1.24-.33,1.84-1.27.84-1.93,2.29-3.35,3-1.67.89-3.9,1.62-4.46,3.43-.63,2-3.45,2.21-3.14,5.07a21.8,21.8,0,0,1,5.32,7.35h3.07c.8-.45.39-1.36.63-1.41,2.95-.59,4.15-3.85,7.05-4.52A2.37,2.37,0,0,0,270,768ZM197,369c-.6.11-1.28-.27-2.07.58.88.28.93,1.43,2.07,1.42a4.81,4.81,0,0,0,4.78,3.13c.4,2.46,2.49,3.29,3.59,4.75,5.51-2.4,7.66-8.7,12-9.79,4.15-4.15,7.38-7.37,10.59-10.59v-2.17c-3.52-2.35-4.89-6.79-8.66-9.3h-2.78c-1.42,1.25-3.06,2.41-2.57,4.59-2.07,1.1-9.69,8.1-11,10.06v1.88C200.28,364.66,198.54,366.71,197,369Z"/><path class="cls-2" d="M295.1,578c-.34-6.21.23-12.11-1-18v17.84H279.05V559.1c-.56,1.73-.16.68-.71,1.06-.13.1-.33.24-.33.36,0,5.66,0,11.32,0,17.23h-5.86V559.31c1.37-.88,3.14.19,4.83-.68-.65-1-1.66-.53-2.43-.61-1-.1-2,0-3.38,0-.37,6.54,0,13.12-.2,19.84H233.24v9h38.54v43H221.21V518.08h91.72V482h4.89V407.77a5.08,5.08,0,0,1,.5-.58.78.78,0,0,1,.42-.18h29.09V550.65l-7.49,7.41H295.83c1.06.41,0-.1.26.52.06.14.23.34.35.34,14.11,0,28.22,0,42.23,0L319.6,578ZM278,526.09c0,10.43,0,20.4,0,30.38,0,.12.2.26.32.36.54.4.16-.65.68,1V527c2.81,0,5.28,0,7.75,0s4.87-.25,7.24.19c0,10,0,19.63,0,29.28,0,.12.2.26.33.35.53.4.15-.65.49.42V526.09Zm2.16,32.08V559c2.12,0,4.24.08,6.35,0s4.29.4,6.29-.81Z"/><path class="cls-3" d="M174,493v26.85c9.64.42,19.33-.1,29,1H191.11v32h-16c-.08,1.46-.14,2.58-.22,4.05H162.85v37c-1.06-2.39-.79-4.85-.84-7.28s0-5,0-7.49V556H115c-1.38,0-1,1.07-1,1.79,0,6,0,11.93,0,18.07h-3.63c-7.33,11.37-14.61,22.67-21.92,34H55.12V596.11H40V520H69c2-.35,1-1.87,1-2.79.07-12.32,0-24.64,0-37v-4.09H172v16.28C172.66,493.32,173.38,492.87,174,493Zm0,34h-6.79c-.53-3.21.17-6.17-.4-8.83H150c0,3,0,5.78,0,8.58s-.07,5.53.07,8.42h15.81c.35,3.37-.17,6.65.33,9.83H174v7c3,0,5.62,0,8.26,0s5.19.1,7.58,0V521c-2.8,0-5.44,0-8.08,0a69.13,69.13,0,0,0-7.76.14Z"/><path class="cls-4" d="M900,587H852V452.52c4.31-.77,76.14-1,93-.35V491H880.25v65.16H930c0,10.13,0,20.1,0,30.07a.81.81,0,0,1-.16.43,2.26,2.26,0,0,1-.35.34Z"/><path class="cls-2" d="M69,520H40V466.14a72.15,72.15,0,0,0-7.79-.13c-2.64-.05-5.28,0-8.06,0V441.09h93.73V382c3.93-6.17,9.41-10.82,13.28-16.88h20.61v28.76h-8.72V466H69Z"/><path class="cls-4" d="M945,508v47H897.85V527.84H881c0-11.8,0-23.43,0-35.06a.86.86,0,0,1,.15-.43c.09-.14.22-.25.16-.19H929c0,2.8,0,5.44,0,8.08a66.84,66.84,0,0,0,.14,7.76Z"/><path class="cls-2" d="M553.84,554.9h-9.69V479.25h-47v76.5h-10V464.24h66.69Z"/><path class="cls-2" d="M395.08,337.82V254.9c2.14,1.14,2.51,3.38,3.87,4.76s2.46,3.33,4,4.79,3.22,2.75,4,4.88v68.49Z"/><path class="cls-2" d="M493,97.83V82.16H478.25v-11h29.5V97.83Z"/><path class="cls-2" d="M761.86,502.92H747V485.06a4.56,4.56,0,0,1,.59-2.25c2.36-4.49,4.51-9.09,6.76-13.63.21-.43.69-.72,1-1.07h6.47Z"/><path class="cls-5" d="M945,508H929.15a66.84,66.84,0,0,1-.14-7.76c0-2.64,0-5.28,0-8.08H881.32c.06-.06-.07,0-.16.19a.86.86,0,0,0-.15.43c0,11.63,0,23.26,0,35.06h16.85V555H945v1H931.07v32h-6.4c-7.63,0-15.26,0-22.89,0-.72,0-1.77.38-1.78-1h29.48a2.26,2.26,0,0,0,.35-.34.81.81,0,0,0,.16-.43c0-10,0-19.94,0-30.07H880.25V491H945v1H930c0,2.8,0,5.28,0,7.75s-.24,4.88.18,7.25H945Zm-63.84,21.09V555c2.8,0,5.44,0,8.08,0a68,68,0,0,0,7.6-.12V529.09Z"/><path class="cls-2" d="M881.83,706.92H862.17V691.34c-.06.06,0-.08.17-.17a.76.76,0,0,1,.43-.16h19.06Z"/><path class="cls-2" d="M573.18,78.08c2.75,1.42,6,1.53,7.67,4.42v31.4h-7.67Z"/><path class="cls-2" d="M455,860H438.24c-.5-2.19-.16-4.48-.23-6.73s0-4.61,0-7.09h16.82C455.2,850.66,454.93,855.33,455,860Z"/><path class="cls-4" d="M945,507H930.19c-.42-2.37-.13-4.83-.18-7.25s0-4.95,0-7.75h15Z"/><path class="cls-2" d="M215.08,814.83V800.17h14.76c.38,2.21.1,4.66.15,7.08s0,5,0,7.58Z"/><path class="cls-2" d="M616.92,489.17v14.66H603.16c-.39-2.21-.1-4.66-.15-7.08s0-4.94,0-7.58Z"/><path class="cls-2" d="M686.09,558.83V547.17h16.8c0,1.72.09,3.64.11,5.56s0,3.95,0,6.1Z"/><path class="cls-2" d="M212.91,617.17v12.66H200.2c-.45-1.86-.14-4-.19-6.07s0-4.28,0-6.59Z"/><path class="cls-2" d="M616.92,481.17v6.66H603.2c-.47-2-.05-4.27-.26-6.66Z"/><path class="cls-2" d="M583.85,663.36v5.54H571.22V662C575.49,662.17,579.81,661.33,583.85,663.36Z"/><path class="cls-6" d="M712,731c3.45-4.61,7.92-8.24,11.9-12.34,2.26-2.32,4.28-4.93,7.1-6.66a.85.85,0,0,0,1,1c-3.71,4.81-8.38,8.71-12.59,13-2,2.09-3.84,4.44-6.41,6A.85.85,0,0,0,712,731Z"/><path class="cls-2" d="M615.08,754.83v-5.66h5.66v5.66Z"/><path class="cls-1" d="M732,713a.85.85,0,0,1-1-1V684.5q-20.68-20.68-41.37-41.36c-1.24-1.24-2.22-3-4.54-2v-41h92.8V579.08H800v-15h16.88V578L839,606.55c0,7.69,0,15.52,0,23.34,0,1.91-.46,3.92,1.87,5.87-8.42.5-16,0-23.74.31V739.89H790.08V755.8H773V713Zm42.17,27.08V755c2.63,0,5.11,0,7.58,0s4.87.23,7.08-.15V740.08Zm27-175V579c2.65,0,5.12,0,7.59,0s4.87.24,7.07-.15V565.08Z"/><path class="cls-2" d="M197,369c1.54-2.29,3.28-4.34,6-5.44v-1.88c1.34-2,9-9,11-10.06-.49-2.18,1.15-3.34,2.57-4.59h2.78c3.77,2.51,5.14,7,8.66,9.3v2.17c-3.21,3.22-6.44,6.44-10.59,10.59-4.38,1.09-6.53,7.39-12,9.79-1.1-1.46-3.19-2.29-3.59-4.75A4.81,4.81,0,0,1,197,371Z"/><path class="cls-2" d="M265,758c1,2.46,2.32,4.63,5,5.52V768a2.37,2.37,0,0,1-1.88,2c-2.9.67-4.1,3.93-7.05,4.52-.24,0,.17,1-.63,1.41h-3.07a21.8,21.8,0,0,0-5.32-7.35c-.31-2.86,2.51-3.06,3.14-5.07.56-1.81,2.79-2.54,4.46-3.43,1.42-.76,2.08-2.21,3.35-3Z"/><path class="cls-6" d="M502,922h-4.78c-.46-2.21-.15-4.5-.21-6.76s0-4.6,0-6.84c1.23-.72,2.4-.25,3.86-.46v-6.79h20v9.69c3.4-1.48,6.61-.53,9.94-.91v9H523v6.38c-1.89-.9-3.77.69-5-1.32h3.81V912c-1.8,0-3.42,0-5,0-.5,0-.88-.36-3.2-1.21.76-2.27,3.24,1.45,6.21-.06v-8.6h-8.64a13.46,13.46,0,0,0,2.43,8.66c.5.23-1.42.23-3.35.23-.68,0-1.29-.09-4.65-1.53-.72-.25,1.89-1.06,4.2.45v-7.8h-7.64c0,2.21,0,4.31,3.44,7.35,1.63.53-.25.22-2,.61-2,.47-3.38-2.2-5.44-.77v11.38C499.44,921.64,501.33,919.87,502,922Zm21-4.18a27.28,27.28,0,0,0,6.82,0v-6.92c-2.39.32-4.65-.19-6.82.36Z"/><path class="cls-6" d="M518,924h-6.77c-.68,0-1.3-.08-1.23-1h6.77C517.45,923,518.07,923.08,518,924Z"/><path class="cls-6" d="M510,923h-6.77c-.68,0-1.3-.08-1.23-1h6.77C509.45,922,510.07,922.08,510,923Z"/><path class="cls-6" d="M265,758l-2-1c.11-.6-.28-1.29.33-1.84A2.42,2.42,0,0,1,265,758Z"/><path class="cls-6" d="M270,768v-2c1.1,0,2.48-.27,1.84,1.67C271.31,768.3,270.61,767.88,270,768Z"/><path class="cls-6" d="M197,369v2c-1.14,0-1.19-1.14-2.07-1.42C195.72,368.73,196.4,369.11,197,369Z"/><path class="cls-1" d="M278,526.09h16.83v31.16c-.34-1.07,0,0-.49-.42-.13-.09-.33-.23-.33-.35,0-9.65,0-19.29,0-29.28-2.37-.44-4.82-.13-7.24-.19s-4.94,0-7.75,0v30.88c-.52-1.7-.14-.65-.68-1-.12-.1-.32-.24-.32-.36C278,546.49,278,536.52,278,526.09Z"/><path class="cls-1" d="M280.16,558.17h12.65c-2,1.21-4.19.71-6.29.81s-4.23,0-6.35,0Z"/><path class="cls-2" d="M174,527v-5.85a69.13,69.13,0,0,1,7.76-.14c2.64,0,5.28,0,8.08,0v30.94c-2.39.15-5,0-7.58,0s-5.28,0-8.26,0v-7h9c0-6,0-11.6,0-17.23a.81.81,0,0,0-.16-.43,2.26,2.26,0,0,0-.35-.34Z"/><path class="cls-5" d="M174,527h8.48a2.26,2.26,0,0,1,.35.34.81.81,0,0,1,.16.43c0,5.63,0,11.26,0,17.23H166.21c-.5-3.18,0-6.46-.33-9.83H150.07c-.14-2.89,0-5.66-.07-8.42s0-5.61,0-8.58h16.81c.57,2.66-.13,5.62.4,8.83Zm0,1h-8c0-1.81.07-3.28,0-4.75s.44-2.93-.31-4.08H151c0,2.64,0,5.11,0,7.58a47.62,47.62,0,0,0,.21,7.42h15.67c.34,3.37-.18,6.65.32,9.83H182c0-3,0-5.61,0-8.25a66.66,66.66,0,0,0-.14-7.75Z"/><path class="cls-4" d="M881.16,529.09h15.68v25.78a68,68,0,0,1-7.6.12c-2.64,0-5.28,0-8.08,0Z"/><path class="cls-2" d="M774.17,740.08h14.66v14.76c-2.21.38-4.66.1-7.08.15s-5,0-7.58,0Z"/><path class="cls-2" d="M801.17,565.08h14.66v13.76c-2.2.39-4.65.1-7.07.15s-4.94,0-7.59,0Z"/><path class="cls-2" d="M510,923c.07-.92-.55-1-1.23-1H502c-.67-2.13-2.56-.36-3.83-1.31V909.31c2.06-1.43,3.43,1.24,5.44.77,1.71-.39,3.59-.08,5.39-.08-.07.91.54,1,1.22,1H516a.77.77,0,0,0,.77,1c1.62,0,3.24,0,5,0v12H518c.07-.92-.55-1-1.23-1Z"/><path class="cls-2" d="M511.14,910.54v-8.43h8.64v8.6C516.81,912.22,514.33,908.5,511.14,910.54Z"/><path class="cls-2" d="M502.13,908.94v-6.82h7.64v7.8C507.46,908.41,504.85,909.22,502.13,908.94Z"/><path class="cls-2" d="M523,917.82v-6.57c2.17-.55,4.43,0,6.82-.36v6.92A27.28,27.28,0,0,1,523,917.82Z"/><path class="cls-4" d="M174,544h-6.79c-.5-3.18,0-6.46-.32-9.83H151.22a47.62,47.62,0,0,1-.21-7.42c0-2.47,0-4.94,0-7.58h14.67c.75,1.15.22,2.66.31,4.08s0,2.94,0,4.75h8Z"/><path class="cls-2" d="M174,544V528h7.85a66.66,66.66,0,0,1,.14,7.75c0,2.64,0,5.28,0,8.25Z"/></svg>