<svg id="Layer_1" data-name="Layer 1" xmlns="http://www.w3.org/2000/svg" viewBox="0 0 1024 1024"><defs><style>.cls-1{fill:#fefefe;}.cls-2{fill:#7e807e;}.cls-3{fill:#a4a489;}.cls-4{fill:#fdfdfd;}.cls-5{fill:#7f807f;}</style></defs><path class="cls-1" d="M0,1024V0H1024V1024ZM680,280v-7c1.29-.08,1.06-.88.75-2H666.53a29,29,0,0,0-4.47.05c-1.58.25-2.51-1.52-4.06-1.05V247.17c-15.4-25.67-30.52-50.88-45.7-76.17H611a8.69,8.69,0,0,0-.57-3.21c-1.17-2.32-2.93-4.26-4-6.68A3,3,0,0,0,603,159c-.2-1.62,1.79-.48,1.8-.49V88.13H542.9v29.72H473.27c-.14-.29-.26-.43-.26-.57q0-14.25,0-28.49a.89.89,0,0,0-.15-.44,2.15,2.15,0,0,0-.32-.35H350a.76.76,0,0,0-.78-1c-4.72,0-9.44,0-14.22,0,0,5,0,9.63,0,14.24,0,.72-.36,1.75,1,1.76v22h-4c-.06-7,.14-14-.12-21H300c0,18,0,35.61,0,53.25a.77.77,0,0,1-.17.42,4.84,4.84,0,0,1-.56.51H220q0,72.18,0,144a.89.89,0,0,1-.15.44,3.92,3.92,0,0,1-.49.51H143c0,17.8,0,35.43,0,53.07a.81.81,0,0,1-.16.43,2.26,2.26,0,0,1-.35.34h-71l-34,45.34c2,.71,2.11,2.71,3.31,4a162.62,162.62,0,0,1,11.34,12.26c3,3.83,6.68,7.15,10,10.78,4.51,5,8.76,10.23,13.62,14.88,4.51,4.33,7.94,9.63,12.65,13.76A3,3,0,0,0,91,459v1a84.29,84.29,0,0,0,11.63,13h41.19c.62,14.63.35,57.35-.34,58-.78.18-1.66-.35-2.38.39V565H220c0,38.29,0,76.25,0,114.21a.77.77,0,0,0,.17.42,2.82,2.82,0,0,0,.36.33H280a.85.85,0,0,0,1,1v91a.76.76,0,0,0-1,.78c0,5.38,0,10.77,0,16.22,5.36,0,10.3,0,15.23,0,.72,0,1.76.37,1.77-1h22a.85.85,0,0,0,1,1v68a.76.76,0,0,0-1,.79q0,6.71,0,13.42a.76.76,0,0,0,1,.79v70h45.71c.68,0,1.37,0,1.29-1h13a.78.78,0,0,0,.76,1c.67.08,1.31,0,1.24-1h44V923h94V882h75v-5.69c7.58-.53,58.7-.4,63.05.17v30.68h21.82c.22,1.47-.25,2.64.38,3.71,16.7.71,81.48.42,85.51-.35V788H735.21v-7.83h46.9v22.71h38v-154H949.69L989,596V494.59c-.92-1.47-2.23-2.34-3.08-3.85-2.75-4.9-5.93-9.56-9-14.3-3.29-5.14-6.65-10.23-9.92-15.39-3.09-4.87-6.1-9.8-9.16-14.7-2.55-4.07-5.58-7.86-7.13-12.14h-76.8v53.56H797.15V473c2.62,0,5.09,0,7.57,0a50.45,50.45,0,0,0,7.28-.17V350.18c-15.89-.69-110.66-.42-115,.33V379.9h-5v-16H677.9V348.88H644.24v-7H681V321.77c0-11.83,0-23.65,0-35.48,0-.8.7-2.11-1-2.29v-4ZM297,120.1V134H267.78a.89.89,0,0,0-.43.15c-.14.09-.25.22-.18.16v22.43h31.68V120.1ZM810.84,486.91V474h-6.57c-2.1,0-4.2.06-6.11.09v12.82ZM679.1,350c0,2.07-.13,4.17-.08,6.27.05,2.25-.28,4.54.18,6.55H691c0-2.31,0-4.45,0-6.59s.26-4.21-.24-6.23Z"/><path class="cls-2" d="M109,357h33.48a2.26,2.26,0,0,0,.35-.34.81.81,0,0,0,.16-.43c0-17.64,0-35.27,0-53.07h76.35a3.92,3.92,0,0,0,.49-.51.89.89,0,0,0,.15-.44q0-71.92,0-144h79.26a4.84,4.84,0,0,0,.56-.51.77.77,0,0,0,.17-.42c0-17.64,0-35.27,0-53.25h30c0,4.33.28,8.69-.08,13-.36,4.47,1.19,8.69,1.1,13.09-.1,4.83.76,9.83-.23,14.45-1.06,4.95-.53,9.77-.74,14.63s-.05,9.66-.05,14.5c0,3.16.06,6.33,0,9.49,0,1.27.46,2.63-.49,4H259.2c-.66,13-.4,111.66.27,115.7H288.9V249H274.12V216.9h14V204h24.09c7.94,0,15.87,0,23.79,0v-4h56c2.31.67.52,2.76,1.42,4.14a9.13,9.13,0,0,1,1.52,6.69,10,10,0,0,0,4.1-.28c4.27-1.38,8.52-2.92,13-3.57a2.54,2.54,0,0,0,1.93-1.81c.34-1.91-1.55-3.3-1-5.17h19V88h40.52a2.15,2.15,0,0,1,.32.35.89.89,0,0,1,.15.44q0,14.24,0,28.49c0,.14.12.28.26.57H542.9V88.13h61.9v70.38s-2-1.13-1.8.49c-3.34.89-5.26,2-6.31,3.8-1.09.84-3-.92-3.69,1.2-.6.12-1.3-.29-1.82.31,0,2.21,0,2.21,1.82,3.69v1.49c2.69.71,3.57,2.8,4,5.23.12.66,0,1.36,1,1.28a2.42,2.42,0,0,0,1.68,2.85c.36-.66,1.37-.87,1.32-1.85a2.46,2.46,0,0,0,3-2h1.54l.92-2H608a2.46,2.46,0,0,0,3-2h1.3c15.18,25.29,30.3,50.5,45.7,76.17V270c-.48,1.69,1.47,2.72,1.08,4.54a24.78,24.78,0,0,0-.08,5.24c2.5.6,4.81-.26,7.12.57V284H680c1.67.18,1,1.49,1,2.29,0,11.83,0,23.65,0,35.48v20.08H644.24v7H677.9v15.05H692v16h5V373h91c0,20.29,0,40.25,0,60.22a.89.89,0,0,0,.15.43,2.75,2.75,0,0,0,.31.35H812v38.82a50.45,50.45,0,0,1-7.28.17c-2.48.05-5,0-7.57,0v14.77h76.77V434.21h76.8c1.55,4.28,4.58,8.07,7.13,12.14,3.06,4.9,6.07,9.83,9.16,14.7,3.27,5.16,6.63,10.25,9.92,15.39,3,4.74,6.22,9.4,9,14.3.85,1.51,2.16,2.38,3.08,3.85V596l-39.29,52.87H820.16v154h-38V780.13h-46.9V788h30.61V910.49c-4,.77-68.81,1.06-85.51.35-.63-1.07-.16-2.24-.38-3.71H658.11V876.45c-4.35-.57-55.47-.7-63.05-.17V882H520v41H427V895c2.14-.79.93-2.58.93-3.79q.13-42.21.07-84.42c0-1,0-2,0-3a.77.77,0,0,0-1-.79V788H297V772H281V681a.85.85,0,0,0-1-1H220.54a2.82,2.82,0,0,1-.36-.33.77.77,0,0,1-.17-.42c0-38,0-75.92,0-114.21H141.1V531.39c.72-.74,1.6-.21,2.38-.39.69-.65,1-43.37.34-58H111V459H91a3,3,0,0,1-2.59-1c-4.71-4.13-8.14-9.43-12.65-13.76-4.86-4.65-9.11-9.91-13.62-14.88-3.3-3.63-7-6.95-10-10.78A162.62,162.62,0,0,0,40.82,406.3c-1.2-1.25-1.3-3.25-3.31-4l34-45.34H85v6h23.22a.86.86,0,0,0,.43-.15,3.83,3.83,0,0,0,.35-.3ZM566,633.84a2.71,2.71,0,0,0,1.73,3.12c.7-2-.64-2.38-1.77-2.8a2.71,2.71,0,0,0-1.73-3.12C563.55,633,564.89,633.42,566,633.84ZM682,817a2.46,2.46,0,0,0,3-2,47.94,47.94,0,0,0,9-9c1.45-.28,1.89-1.76,3.15-2.58v-15.2c2.36-.64,4.71.32,6.66-.47V780h-6.89V764.89h-8.06v-8h-7.69c-.63-15-.4-41.8.41-46H780.9V696h-15V648.9h-15V633h-7.59c-.68,0-1.37,0-1.29-1a3.43,3.43,0,0,0,0-5c-2.22-1.29-3.83-1.35-7.11-.13V615.15h-7V687.9H643V665.12h-8v7h-8v15.77h-60V665c-2.23-.15-4.26.42-5.8-.69a6.12,6.12,0,0,0-2.86-5.09c.24,2,.84,3.74,2.76,4.74-.23,1.92-2,.47-3,1.55v22.51H495.2v77h24.59v46H505.24v15H520c0,2.81,0,5.46,0,8.1a68,68,0,0,0,.12,7.6H628c0-4.8,0-9.44,0-14.08,0-.24-.33-.49-.85-1.25V840.8h-38V803.21h54v38.56H681V825.58a29.21,29.21,0,0,0,0-4.49C680.7,819.5,682.47,818.56,682,817Zm22-252H670V442.18c16.13-.69,60.88-.43,65.19.4v5.3h3.59v-14H718.24c-.1-.48-.07-.88-.25-1.07-7-7.14-13.94-14.26-21.17-21.63V403.1h-4.88v28.77H657.89V411.16H643c-.15,7,.16,14-.16,20.66H601V405.21H595.9v5.91h-77v7.06h-8.05v7.71H473.92v-15H458.24v-61H481c-.08-3.08.07-6-.1-9h-22.8v-29.9h15.74V249.32c-.94-.74-2.15.22-3-1.07V236.1H458v50.79h-107V249.14H320.24v54H433.81c.67,13.94.4,111.64-.34,116H419.1v14.88h39v8.05h8.06V450c2.48,0,4.79-.05,7.1,0s4.55-.26,6.94.26v53.62h8.89V480.13h94v15.71H597c0-18.13,0-36.1,0-54.07a.76.76,0,0,1,.16-.43c.09-.13.23-.23.16-.16H665.9v46.88H643.13v62.05h23V611c7.74-.06,15.31.08,22.87-.08V580h46.15V548.85h30.62v-61h-26.9V466c-1.46.1-2.63-.31-3.69.3-.6,2.21.35,4.56-.5,6.7H704v92ZM556,607c-.13-.62.32-1.34-.4-1.9h-4.18l-3.33,2.18V612l2.12,2.71H556V613c.62.13,1.34-.32,2,.57v12c.88.81,1.77.21,2.55.51.69.9.56,2.47,1.87,2.71,2.56-1.09-1.29-1.69.21-2.91H567c.06-7.74,0-15.31.06-23h29.85V557.21h-62v30.55H488.85V535c-3.08.08-6-.11-9,.15v37.93h-67.9v14.06H389c0,2.81,0,5.45,0,8.09a72.15,72.15,0,0,0,.13,7.79c1.36,0,2.36,0,3.36,0,.12,0,.24.22.53.51v16.53h11.06v59.7h5.06V603h33.1a.85.85,0,0,1,.42.17,2.35,2.35,0,0,1,.33.37v99.33H408.91v-6.73h-4.65c-.71,2,.32,4.05-.76,6H397v6.61H356.91v-5.55H320.16V742h60.09a.77.77,0,0,1,.42.17,5.55,5.55,0,0,1,.52.58v14.3h45.9v7.79h39.66v-77H447.1V664.94H462c0-12.84,0-25.33,0-37.81a5.63,5.63,0,0,0-.36-1.25H447.16v-22.7c14.55-.66,57.77-.41,62,.4v15.3h13.9V603.15h34.75c.16,1.4.49,2.67-.28,3.85ZM350.5,587c-8-8.07-16.32-15.89-23.48-25-.17-6.49.23-13.25-.24-20.17H289.12v-61.9H327V459l25-25c6.08,0,12.41,0,18.74,0s12.85.23,19.06-.18V418.94h-15.9V348.89H353.86V334.17H339v7.88h-7.06v7.06H257.87V396H189.78a.86.86,0,0,0-.43.15c-.14.09-.25.22-.17.14V480h72.87V648.88h81v-46H361V587ZM542.92,157.18H458.1V187.8h29V173.21h48.8v61.9H504.14v75.65c1.3.68,2.78-.35,3.69.54v29.62c-3.71.32-7.32-.26-10.64.27v8.87h21.89v23h65.81c3.05,4.46,8.16,6.62,11.43,10.79h4.74v-35h9.71v-7.05H574.25v-39H596c0-17.65-.09-35.12.08-52.59a13.9,13.9,0,0,0-2.49-8c-.86-1.3-1.71-2.67-2.54-4-3-4.73-5.82-9.57-8.65-14.4-3.21-5.49-6.43-11-9.52-16.55-2.64-4.75-5.43-9.43-8.27-14-4.09-6.63-7.91-13.41-11.9-20.09C549.51,167.87,546.22,162.57,542.92,157.18ZM804,515.09V618.81c13.79.64,65.81.4,69.84-.29V515.09ZM356.08,563.83h96.75c.69-16.16.41-101.53-.31-105.66H356.08Zm-31.91-67.74v29.82h2.66V496.09Zm229,153.84c.52,3,.77,3.41,3.15,5C555.4,652.91,555.08,651.12,553.21,649.93Zm17.44-7.78a6.06,6.06,0,0,0,.34-.9c.15-1.17-1-1.52-1.49-2.25a1.76,1.76,0,0,0-.33.34c-.61,1.17.4,1.66,1,2.32Z"/><path class="cls-3" d="M320,788h76v61.79h16c0-15.48,0-30.76,0-46a.77.77,0,0,1,.17-.42,2.28,2.28,0,0,1,.36-.33H427a.77.77,0,0,1,1,.79c.06,1,0,2,0,3q0,42.21-.07,84.42c0,1.21,1.21,3-.93,3.79H381v39c-2.61,0-4.91,0-7.22,0s-4.54-.26-6.74.22V941c.08,1-.61,1-1.29,1H320V872h15c0-2.8,0-5.28,0-7.75s.24-4.88-.18-7.25H320V788Z"/><path class="cls-3" d="M392,200H336V103h14V88h82V200H413c-.76-2-1.81-3.9-2.07-6.14-.21-1.7-.39-3.6-1.93-4.86-.29-1.39-.29-2.84-.5-4.22-.49-3.29-2-6.2-2.63-9.44-1.05-5.44-3-10.68-4.25-16.13-1-4.48-2.69-8.82-4.11-13.3-6.45.48-12.24,3.52-19.11,4.48,1.89,3.29,1.9,6.83,3.45,9.89.45.9-.76,2.49,1.15,2.72.28,1.39,0,2.74.54,4.24a65.23,65.23,0,0,1,2.35,7.95,69,69,0,0,0,2.41,9.46c1.11,3.07,1.38,6.31,2.57,9.36C391.57,195.8,392.69,197.82,392,200Z"/><path class="cls-4" d="M336,146v58c-7.92.06-15.85,0-23.79,0H288.12v12.9h-14V249H288.9v53.87H259.47c-.67-4-.93-102.66-.27-115.7h70.28c.95-1.35.46-2.71.49-4,.09-3.16,0-6.33,0-9.49,0-4.84-.17-9.68.05-14.5s-.32-9.68.74-14.63c1-4.62.13-9.62.23-14.45.09-4.4-1.46-8.62-1.1-13.09.36-4.3.08-8.66.08-13h1.88c.26,7,.06,14,.12,21v20.91h2V125h1c0,6.41,0,12.83,0,19.24C335,145,334.65,146,336,146Zm-49.09,58.16H274.25v11.68h12.66Zm44.26-57.07v29.15c1.37-.69,2.73.47,3.66-.59V147.09Z"/><path class="cls-2" d="M697,364V350.51c4.34-.75,99.11-1,115-.33V426H797c0-20.65,0-40.95,0-61.26a.78.78,0,0,0-.18-.42,2.83,2.83,0,0,0-.36-.32Z"/><path class="cls-2" d="M426,923v18H382V896.18c13.89-.61,39.84-.4,44,.34Z"/><path class="cls-5" d="M812,427v6H789c0-20.31,0-40.28,0-60.25a.85.85,0,0,0-.17-.42,2.82,2.82,0,0,0-.36-.33H697v-7h99c0,20.62,0,40.92,0,61.22a.89.89,0,0,0,.15.43,2.15,2.15,0,0,0,.32.35Z"/><path class="cls-2" d="M297,120.1h1.85v36.65H267.17V134.32c-.07.06,0-.07.18-.16a.89.89,0,0,1,.43-.15H297Z"/><path class="cls-5" d="M593,164c.67-2.12,2.6-.36,3.69-1.2,1-1.76,3-2.91,6.31-3.8a3,3,0,0,1,3.46,2.11c1,2.42,2.8,4.36,4,6.68A8.69,8.69,0,0,1,611,171a2.46,2.46,0,0,0-3,2h-1.54l-.92,2H604a2.46,2.46,0,0,0-3,2c-1.27.49-1.94-.86-3-1-1,.08-.9-.62-1-1.28-.41-2.43-1.29-4.52-4-5.23V168a2.31,2.31,0,0,0-.91-2.43C592.23,164.93,593.17,164.83,593,164Z"/><path class="cls-4" d="M812,427H796.48a2.15,2.15,0,0,1-.32-.35.89.89,0,0,1-.15-.43c0-20.3,0-40.6,0-61.22H697v-1h99.45a2.83,2.83,0,0,1,.36.32.78.78,0,0,1,.18.42c0,20.31,0,40.61,0,61.26h15Z"/><path class="cls-5" d="M110,473h-7.37A84.29,84.29,0,0,1,91,460h19Z"/><path class="cls-4" d="M697,372h91.46a2.82,2.82,0,0,1,.36.33.85.85,0,0,1,.17.42c0,20,0,39.94,0,60.25h23v1H788.47a2.75,2.75,0,0,1-.31-.35.89.89,0,0,1-.15-.43c0-20,0-39.93,0-60.22H697Z"/><path class="cls-5" d="M810.84,486.91H798.16V474.09c1.91,0,4-.07,6.11-.09h6.57Z"/><path class="cls-5" d="M679.1,350h11.65c.5,2,.19,4.15.24,6.23s0,4.28,0,6.59H679.2c-.46-2-.13-4.3-.18-6.55C679,354.17,679.06,352.07,679.1,350Z"/><path class="cls-4" d="M426,923V896.52c-4.16-.74-30.11-.95-44-.34V941c.07.94-.57,1.06-1.24,1a.78.78,0,0,1-.76-1v-6c-2.31,0-4.28,0-6.25,0s-3.85.08-5.75.12V941h-1v-6.77c2.2-.48,4.49-.16,6.74-.22s4.61,0,7.22,0V895h46v28Z"/><path class="cls-5" d="M680,273v6H660.27v-6Z"/><path class="cls-5" d="M86,357h22v5c-7.57-.15-14.79.18-22-.2Z"/><path class="cls-4" d="M350,88v15H336c-1.35,0-1-1-1-1.76,0-4.61,0-9.21,0-14.24,4.78,0,9.5,0,14.22,0A.76.76,0,0,1,350,88Zm-4.17,13.91V89c-3.07.07-6-.11-8.66.1v12.82Zm1.35-12.81v12.8h1.64V89.1Z"/><path class="cls-4" d="M281,772h16v16c0,1.36-1.05,1-1.77,1-4.93,0-9.87,0-15.23,0,0-5.45,0-10.84,0-16.22A.76.76,0,0,1,281,772Zm1.08,14.83H296c0-2.47.05-4.78,0-7.08s.25-4.55-.18-6.58H282.08Z"/><path class="cls-4" d="M680,273H660.27v6H680v1H667.09v3H680v1H666.12v-3.65c-2.31-.83-4.62,0-7.12-.57a24.78,24.78,0,0,1,.08-5.24c.39-1.82-1.56-2.85-1.08-4.54,1.55-.47,2.48,1.3,4.06,1.05a29,29,0,0,1,4.47-.05h14.22C681.06,272.12,681.29,272.92,680,273Z"/><path class="cls-2" d="M368,941v-5.88c1.9,0,3.82-.1,5.75-.12s3.94,0,6.25,0v6Z"/><path class="cls-4" d="M320,857h14.81c.42,2.37.13,4.83.18,7.25s0,5,0,7.75H320a.76.76,0,0,1-1-.79q0-6.71,0-13.42A.76.76,0,0,1,320,857Zm13.83,13.92V858c-2.31,0-4.44,0-6.58,0s-4.22-.25-6.08.18v12.73Z"/><path class="cls-5" d="M334,125v20.91h-2V125Z"/><path class="cls-5" d="M680,283H667.09v-3H680Z"/><path class="cls-4" d="M86,357v4.83c7.21.38,14.43.05,22,.2v-5h1v5.54a3.83,3.83,0,0,1-.35.3.86.86,0,0,1-.43.15H85v-6Z"/><path class="cls-4" d="M110,473V460H91v-1h20v14Z"/><path class="cls-5" d="M336,146c-1.35,0-1-1-1-1.76,0-6.41,0-12.83,0-19.24h1Z"/><path class="cls-4" d="M280,680a.85.85,0,0,1,1,1A.85.85,0,0,1,280,680Z"/><path class="cls-4" d="M320,788v1a.85.85,0,0,1-1-1Z"/><path class="cls-4" d="M561,664c1.64,1.46,3.67.89,5.9,1v22.83h60V672.1h8v-7h8V687.9h84.92V615.15h7v11.72c3.28-1.22,4.89-1.16,7.11.13h-4.41c-2.15,1.67-1.72,3.32-1.33,5H742c-.08,1,.61,1,1.29,1h7.59v15.9h15V696h15v14.87H681.58c-.81,4.22-1,31-.41,46h7.69v8h8.06V780h6.89v7.8c-1.95.79-4.3-.17-6.66.47v15.2c-1.26.82-1.7,2.3-3.15,2.58-.44-1.1.78-1.84.78-2.78H681v12.52c0,.68,0,1.33,1,1.26.47,1.56-1.3,2.5-1,4.09a29.21,29.21,0,0,1,0,4.49v16.19H643.09V803.21h-54V840.8h38V826.51c.52.76.85,1,.85,1.25,0,4.64,0,9.28,0,14.08H520.13a68,68,0,0,1-.12-7.6c0-2.64,0-5.29,0-8.1H505.24v-15h14.55v-46H495.2v-77H558V665.55C559.05,664.47,560.77,665.92,561,664Zm80.92,9.17H628c0,2.47,0,4.77,0,7.07s-.25,4.55.18,6.59h13.73Zm108-39H736c0,2.46,0,4.77,0,7.07s-.25,4.55.18,6.59h13.73ZM682.08,778.83H696c0-2.31,0-4.45,0-6.58s.25-4.22-.19-6.08H682.08Zm85-69H780v-6.57c0-2.09,0-4.19,0-6.09h-12.9ZM518.83,824.92V812h-6.58l-6.08,0v12.9Zm169.09-66.75h-6c.3,2.4-.18,4.65.3,6.66h5.72Zm-46-92h-5.66v5.66h5.66Z"/><path class="cls-4" d="M350.5,587H361v15.88H343.09v46h-81V480H189.18V396.3c-.08.08,0-.05.17-.14a.86.86,0,0,1,.43-.15h68.09V349.11h74.05v-7.06H339v-7.88h14.88v14.72h20.05v70.05h15.9v14.87c-6.21.41-12.64.13-19.06.18s-12.66,0-18.74,0l-25,25v20.87H289.12v61.9h37.66c.47,6.92.07,13.68.24,20.17C334.18,571.11,342.47,578.93,350.5,587ZM287.85,480.25h-6.67V541.9h6.67Zm52.32-145.17V348c2.31,0,4.44,0,6.58,0s4.22.25,6.08-.18V335.08ZM338.79,348a11.85,11.85,0,0,0,0-4.82H333c0,1.74-.35,3.33.27,4.82Z"/><path class="cls-4" d="M689,580v30.93c-7.56.16-15.13,0-22.87.08v-60.9h-23V488.06H665.9V441.18H597.33c.07-.07-.07,0-.16.16a.76.76,0,0,0-.16.43c0,18,0,35.94,0,54.07H583.11V480.13h-94v23.76h-8.89V450.27c-2.39-.52-4.68-.2-6.94-.26s-4.62,0-7.1,0v-7.89h-8.06v-8.05h-39V419.18h14.37c.74-4.39,1-102.09.34-116H320.24v-54h30.68v37.75H458V236.1h12.87v12.15c.88,1.29,2.09.33,3,1.07v61.59H458.12v29.9h22.8c.17,3.06,0,6,.1,9H458.24v61h15.68v15h36.89v-7.71h8.05v-7.06h77v-5.91H601v26.61h41.91c.32-6.7,0-13.61.16-20.66h14.86v20.71h34.05V403.1h4.88v8.08c7.23,7.37,14.21,14.49,21.17,21.63.18.19.15.59.25,1.07h20.54v14h-3.59v-5.3c-4.31-.83-49.06-1.09-65.19-.4V544c-.61.13-1.33-.31-2,.53V597c-.28.12-.81.23-.81.35,0,4.21,0,8.42,0,12.53H680V597c.15-.76-.5-1.91,1-2v15.08c2.56-.24,4.82.21,7-.33V580Zm-37.83-84.91V542c2.65,0,5.13,0,7.6,0s4.87.26,7.06-.16V495.09Zm-7-6v59.68h21.71v-5.92H650.14v-49h15.7v-4.78Zm0-77V431c2.31,0,4.46,0,6.6,0s4.21.26,6.06-.2v-18.7ZM472.83,425.92V412c-2.63,0-5.1,0-7.57,0s-4.88-.23-7.09.15v13.76Zm6.09,9.25H467c0,2.47-.05,4.78,0,7.08s-.26,4.55.18,6.58h11.73Zm105.16,59.66H596v-7.07c0-2.26,0-4.52,0-6.59H584.08ZM469.91,237.17H459c0,2-.06,3.79,0,5.59s-.35,3.56.18,5.07h10.71ZM667.17,495.1v46.8h1.66V495.1ZM459.08,440.83h6.66v-5.66h-6.66Z"/><path class="cls-4" d="M542.92,157.18c3.3,5.39,6.59,10.69,9.79,16,4,6.68,7.81,13.46,11.9,20.09,2.84,4.6,5.63,9.28,8.27,14,3.09,5.57,6.31,11.06,9.52,16.55,2.83,4.83,5.66,9.67,8.65,14.4.83,1.32,1.68,2.69,2.54,4a13.9,13.9,0,0,1,2.49,8c-.17,17.47-.08,34.94-.08,52.59H574.25v39h36.52v7.05h-9.71v35h-4.74c-3.27-4.17-8.38-6.33-11.43-10.79H519.08v-23H497.19v-8.87c3.32-.53,6.93.05,10.64-.27V311.3c-.91-.89-2.39.14-3.69-.54V235.11h31.73v-61.9h-48.8V187.8h-29V157.18Zm-83.75.91V187h26a.81.81,0,0,0,.43-.14c.14-.09.24-.23.19-.18V173c-2.3,0-4.44,0-6.58,0s-4.21.25-6.42-.26V158.09Z"/><path class="cls-4" d="M556,607h1.56c.77-1.18.44-2.45.28-3.85H523.09v15.73h-13.9v-15.3c-4.26-.81-47.48-1.06-62-.4v22.7h14.47a5.63,5.63,0,0,1,.36,1.25c0,12.48,0,25,0,37.81H447.1v22.88h19.65v77H427.09v-7.79h-45.9v-14.3a5.55,5.55,0,0,0-.52-.58.77.77,0,0,0-.42-.17H320.16V703.24h36.75v5.55H397v-6.61h6.53c1.08-2,.05-4,.76-6h4.65v6.73H443V603.55a2.35,2.35,0,0,0-.33-.37.85.85,0,0,0-.42-.17h-33.1v76.76h-5.06v-59.7H393V603.53c-.29-.29-.41-.51-.53-.51-1,0-2,0-3.36,0a72.15,72.15,0,0,1-.13-7.79c-.05-2.64,0-5.28,0-8.09h22.91V573.06h67.9V535.13c3.06-.26,6-.07,9-.15v52.78h46.06V557.21h62v45.61H567c-.09,7.74,0,15.31-.06,23h-4.32c-1.5,1.22,2.35,1.82-.21,2.91-1.31-.24-1.18-1.81-1.87-2.71-.78-.3-1.67.3-2.55-.51v-12c-.69-.89-1.41-.44-2-.57Zm-76.09-32.84H413v6.57c0,2.1,0,4.2,0,6.11h66.89Zm-54,169H397v6.58c0,2.09,0,4.19,0,6.1h28.89Zm21.19-79.33h13.67V627.14H447.24v6h9.52v25H447.1Zm8.73-6.92V634c-3.07.08-6-.07-8.66.08v22.85Zm-60,99V743H382.16v12.91ZM510.16,604.09V618c2.14,0,4.11,0,6.08,0s3.86-.08,5.6-.12V604.09Zm-66,23v36.8h1.64V627.1Z"/><path class="cls-1" d="M804,515.09h69.84V618.52c-4,.69-56.05.93-69.84.29V515.09Z"/><path class="cls-3" d="M356.08,563.83V458.17h96.44c.72,4.13,1,89.5.31,105.66ZM434.84,526V496c-2.64,0-5.11,0-7.58,0s-4.88.24-7.44-.21V473c-6.64,0-13.11,0-19.58,0s-12.84-.22-19.09.17v75.58h39V526Z"/><path class="cls-1" d="M681,595c-1.5.09-.85,1.24-1,2H668V544.53c.67-.84,1.39-.4,2-.53v21c.13.61-.32,1.34.53,2,10.77,0,21.73,0,32.68,0,.27,0,.53-.32.79-.48V476c1.67.33,2.63-1.15,4-1.55V473h26.68c.85-2.14-.1-4.49.5-6.7,1.06-.61,2.23-.2,3.69-.3v21.88h26.9v61H735.15V580H681Z"/><path class="cls-4" d="M427,803H412.54a2.28,2.28,0,0,0-.36.33.77.77,0,0,0-.17.42c0,15.28,0,30.56,0,46H396V788h31Zm-16.15,45.9V789h-13.7V848.9Zm1.23-47.07H426v-6.57c0-2.1,0-4.19,0-6.09h-13.9Z"/><path class="cls-4" d="M392,200c.69-2.18-.43-4.2-1.13-6-1.19-3-1.46-6.29-2.57-9.36a69,69,0,0,1-2.41-9.46,65.23,65.23,0,0,0-2.35-7.95c-.52-1.5-.26-2.85-.54-4.24,2.17,1.61,2.36,4.23,2.91,6.48,1.52,6.18,3.15,12.31,5,18.4,1.61,5.19,2.56,10.58,4.15,15.78.56,1.82.4,4.2,2.51,5.31,4.72-1.58,9.73-2.11,14.48-4.43-.5-1.09.06-2.23-.51-3.62C410,197.14,408.4,193.28,409,189c1.54,1.26,1.72,3.16,1.93,4.86.26,2.24,1.31,4.12,2.07,6.14-.57,1.87,1.32,3.26,1,5.17a2.54,2.54,0,0,1-1.93,1.81c-4.49.65-8.74,2.19-13,3.57a10,10,0,0,1-4.1.28,9.13,9.13,0,0,0-1.52-6.69C392.52,202.76,394.31,200.67,392,200Z"/><path class="cls-5" d="M682,817c-1,.07-1-.58-1-1.26V803.22h13.78c0,.94-1.22,1.68-.78,2.78a47.94,47.94,0,0,1-9,9A2.46,2.46,0,0,0,682,817Z"/><path class="cls-4" d="M704,565v1.5c-.26.16-.52.48-.79.48-11,0-21.91,0-32.68,0-.85-.66-.4-1.39-.53-2Z"/><path class="cls-4" d="M324.17,496.09h2.66v29.82h-2.66Zm1,28.74c1.27-9,1.05-24.71,0-28.12Z"/><path class="cls-4" d="M556,613v1.75h-5.79L548.09,612v-4.76l3.33-2.18h4.18c.72.56.27,1.28.4,1.9-1.28.46-2-.91-3.45-1-.14,1.4-1.74.61-2.65,1.67,1.2,1.25-1.28,1.22-.9,2.38-.17.62.48.79.69,1.2a16.74,16.74,0,0,1,.62,1.72c1.38-.43,1.84,1.46,3.13,1.07A2.56,2.56,0,0,1,556,613Z"/><path class="cls-4" d="M708,473v1.45c-1.37.4-2.33,1.88-4,1.55v-3Z"/><path class="cls-4" d="M561.1,664.35a6.46,6.46,0,0,1-2.86-5.09A6.12,6.12,0,0,1,561.1,664.35Z"/><path class="cls-4" d="M553.21,649.93c1.87,1.19,2.19,3,3.15,5C554,653.34,553.73,652.89,553.21,649.93Z"/><path class="cls-4" d="M593,164c.17.83-.77.93-.91,1.57A2.31,2.31,0,0,1,593,168c-1.84-1.48-1.84-1.48-1.82-3.69C591.7,163.71,592.4,164.12,593,164Z"/><path class="cls-4" d="M742,627a3.43,3.43,0,0,1,0,5Z"/><path class="cls-4" d="M598,176c1.06.14,1.73,1.49,3,1,0,1-1,1.19-1.32,1.85A2.42,2.42,0,0,1,598,176Z"/><path class="cls-4" d="M566,634.16c-1.09-.74-2.43-1.17-1.73-3.12A2.71,2.71,0,0,1,566,634.16Z"/><path class="cls-4" d="M570.65,642.15l-.49-.49c-.59-.66-1.6-1.15-1-2.32a1.76,1.76,0,0,1,.33-.34c.53.73,1.64,1.08,1.49,2.25A6.06,6.06,0,0,1,570.65,642.15Z"/><path class="cls-4" d="M608,173a2.46,2.46,0,0,1,3-2A2.46,2.46,0,0,1,608,173Z"/><path class="cls-4" d="M682,817a2.46,2.46,0,0,1,3-2A2.46,2.46,0,0,1,682,817Z"/><path class="cls-4" d="M601,177a2.46,2.46,0,0,1,3-2A2.46,2.46,0,0,1,601,177Z"/><path class="cls-4" d="M566,633.84c1.09.74,2.43,1.17,1.73,3.12A2.71,2.71,0,0,1,566,633.84Z"/><path class="cls-4" d="M383,163c-1.91-.23-.7-1.82-1.15-2.72-1.55-3.06-1.56-6.6-3.45-9.89,6.87-1,12.66-4,19.11-4.48,1.42,4.48,3.1,8.82,4.11,13.3,1.22,5.45,3.2,10.69,4.25,16.13.63,3.24,2.14,6.15,2.63,9.44.21,1.38.21,2.83.5,4.22-.63.11-.85-.28-1-.79a96,96,0,0,1-2.93-9.72c-.91-4.58-2.46-9-3.59-13.46-1.44-5.68-3.16-11.29-4.8-17.05-5.19-.15-9.69,2.41-14.53,3.42-.51.11-.89.85-1.35,1.32C382.92,156,383.21,159.45,383,163Z"/><path class="cls-5" d="M286.91,204.16v11.68H274.25V204.16Z"/><path class="cls-5" d="M331.17,147.09h3.66v28.56c-.93,1.06-2.29-.1-3.66.59Z"/><path class="cls-5" d="M345.83,101.91h-8.66V89.09c2.69-.21,5.59,0,8.66-.1Z"/><path class="cls-2" d="M347.18,89.1h1.64v12.8h-1.64Z"/><path class="cls-5" d="M282.08,786.83V773.17h13.73c.43,2,.12,4.32.18,6.58s0,4.61,0,7.08Z"/><path class="cls-5" d="M333.83,870.92H321.17V858.19c1.86-.43,4-.13,6.08-.18s4.27,0,6.58,0Z"/><path class="cls-5" d="M641.92,673.17v13.66H628.19c-.43-2-.12-4.33-.18-6.59s0-4.6,0-7.07Z"/><path class="cls-5" d="M749.92,634.17v13.66H736.19c-.43-2-.12-4.33-.18-6.59s0-4.61,0-7.07Z"/><path class="cls-5" d="M682.08,778.83V766.17H695.8c.44,1.86.14,4,.19,6.08s0,4.27,0,6.58Z"/><path class="cls-5" d="M767.08,709.83V697.17H780c0,1.9,0,4,0,6.09v6.57Z"/><path class="cls-5" d="M518.83,824.92H506.17V812l6.08,0h6.58Z"/><path class="cls-5" d="M687.92,758.17v6.66H682.2c-.48-2,0-4.26-.3-6.66Z"/><path class="cls-5" d="M641.92,666.17v5.66h-5.66v-5.66Z"/><path class="cls-5" d="M742,627v5h-5.74c-.39-1.68-.82-3.33,1.33-5Z"/><path class="cls-2" d="M287.85,480.25V541.9h-6.67V480.25Z"/><path class="cls-2" d="M340.17,335.08h12.66v12.73c-1.86.43-4,.13-6.08.18s-4.27,0-6.58,0Z"/><path class="cls-5" d="M338.79,348h-5.48c-.62-1.49-.23-3.08-.27-4.82h5.76A11.85,11.85,0,0,1,338.79,348Z"/><path class="cls-2" d="M651.17,495.09h14.66v46.74c-2.19.42-4.64.1-7.06.16s-4.95,0-7.6,0Z"/><path class="cls-5" d="M644.14,489.09h21.7v4.78h-15.7v49h15.71v5.92H644.14Z"/><path class="cls-2" d="M644.17,412.09h12.66v18.7c-1.85.46-4,.15-6.06.2s-4.29,0-6.6,0Z"/><path class="cls-5" d="M681,595V580h7v29.75c-2.18.54-4.44.09-7,.33Z"/><path class="cls-5" d="M472.83,425.92H458.17V412.16c2.21-.38,4.66-.1,7.09-.15s4.94,0,7.57,0Z"/><path class="cls-5" d="M668,597h12v12.88H667.15c0-4.11,0-8.32,0-12.53C667.19,597.23,667.72,597.12,668,597Z"/><path class="cls-5" d="M478.92,435.17v13.66H467.19c-.44-2-.12-4.32-.18-6.58s0-4.61,0-7.08Z"/><path class="cls-5" d="M584.08,494.83V481.17H596c0,2.07,0,4.33,0,6.59v7.07Z"/><path class="cls-5" d="M469.91,237.17v10.66H459.2c-.53-1.51-.1-3.32-.18-5.07s0-3.61,0-5.59Z"/><path class="cls-5" d="M667.17,495.1h1.66v46.8h-1.66Z"/><path class="cls-5" d="M459.08,440.83v-5.66h6.66v5.66Z"/><path class="cls-5" d="M459.17,158.09h13.66v14.64c2.21.51,4.33.21,6.42.26s4.28,0,6.58,0v13.67c.05,0-.05.09-.19.18a.81.81,0,0,1-.43.14h-26Z"/><path class="cls-5" d="M479.91,574.16v12.68H413c0-1.91,0-4,0-6.11v-6.57Z"/><path class="cls-5" d="M425.91,743.16v12.68H397c0-1.91,0-4,0-6.1v-6.58Z"/><path class="cls-5" d="M447.1,663.83v-5.69h9.66v-25h-9.52v-6h13.53v36.69Z"/><path class="cls-2" d="M455.83,656.91h-8.66V634.06c2.69-.15,5.59,0,8.66-.08Z"/><path class="cls-5" d="M395.84,755.91H382.16V743h13.68Z"/><path class="cls-5" d="M510.16,604.09h11.68v13.79c-1.74,0-3.67.1-5.6.12s-3.94,0-6.08,0Z"/><path class="cls-5" d="M444.18,627.1h1.64v36.8h-1.64Z"/><path class="cls-5" d="M556,613a2.56,2.56,0,0,0-2.56,1c-1.29.39-1.75-1.5-3.13-1.07a16.74,16.74,0,0,0-.62-1.72c-.21-.41-.86-.58-.69-1.2-.38-1.16,2.1-1.13.9-2.38.91-1.06,2.51-.27,2.65-1.67,1.48.13,2.17,1.5,3.45,1Z"/><path class="cls-4" d="M434.84,526h-14.7v22.74h-39V473.18c6.25-.39,12.67-.12,19.09-.17s12.94,0,19.58,0v22.78c2.56.45,5,.16,7.44.21s4.94,0,7.58,0ZM419,524.83h15c0-9.13,0-18.1,0-27.07a.84.84,0,0,0-.16-.42,5.09,5.09,0,0,0-.55-.52H419V474.18H382.25v73.66H419Z"/><path class="cls-5" d="M410.85,848.9h-13.7V789h13.7Z"/><path class="cls-5" d="M412.08,801.83V789.17H426c0,1.9,0,4,0,6.09v6.57Z"/><path class="cls-5" d="M383,163c.21-3.55-.08-7-2.2-10.28.46-.47.84-1.21,1.35-1.32,4.84-1,9.34-3.57,14.53-3.42,1.64,5.76,3.36,11.37,4.8,17.05,1.13,4.5,2.68,8.88,3.59,13.46a96,96,0,0,0,2.93,9.72c.15.51.37.9,1,.79-.6,4.28,1,8.14,2.57,11.92.57,1.39,0,2.53.51,3.62-4.75,2.32-9.76,2.85-14.48,4.43-2.11-1.11-2-3.49-2.51-5.31-1.59-5.2-2.54-10.59-4.15-15.78-1.88-6.09-3.51-12.22-5-18.4C385.36,167.23,385.17,164.61,383,163Z"/><path class="cls-5" d="M325.17,524.83V496.71C326.22,500.12,326.44,515.87,325.17,524.83Z"/><path class="cls-2" d="M419,524.83v23H382.25V474.18H419v22.64h14.3a5.09,5.09,0,0,1,.55.52.84.84,0,0,1,.16.42c0,9,0,17.94,0,27.07Z"/></svg>