<svg id="Layer_1" data-name="Layer 1" xmlns="http://www.w3.org/2000/svg" viewBox="0 0 1024 1024"><defs><style>.cls-1{fill:#fefefe;}.cls-2{fill:#7f7f7f;}.cls-3{fill:#a5a289;}.cls-4{fill:#e4e4e4;}.cls-5{fill:#e6e6e5;}.cls-6{fill:#fdfdfd;}.cls-7{fill:#d0d0d0;}.cls-8{fill:#aeaeae;}</style></defs><path class="cls-1" d="M1024,1024H0V0H1024ZM690,449v27H589.21v16.06h100.9v26.75h68.8V452.6a15,15,0,0,1-.9-1.43c-4-8.34-8-16.69-12-25-2.75-5.69-5.5-11.4-8.43-17a2.76,2.76,0,0,1,0-3.27h32.22V379.27c-2.47-1.11-4.18.94-6.34.77-2.32-.18-4.66,0-7,0H714.91v10.76h-6.06V334.13l-5.66-.31v-6.88h5.59V223.15H688v6.56c0,.68,0,1.37-1,1.29H644.86V183.15H616.21v86.73h28.57v-6h-8.53v-8H645V250h42c1,.13,2-.31,2.76.27q0,88.82,0,177.47c0,.09-.24.17-.37.26-1,.39-1.27-.75-2-.86L687,428h-1c-1.37,0-1-1.06-1-1.79,0-1.66.06-3.32,0-5s.37-3.56-.19-5.05H671.24v33.67H685c0-2.12,0-4.09,0-6.06a.76.76,0,0,1,1-.79h1c.19,2.1,2.45.14,3,1.55V449ZM430,81H418V201H394.2v49h15.58v80.05H369.85v72.7H356V389.2H311.92v51.91H236.15v70.62c.29.14.43.26.57.26l27.5,0a.89.89,0,0,1,.43.15,2.15,2.15,0,0,1,.35.31V584H222.83V445.17H189q0,53.19,0,106.05a.86.86,0,0,1-.15.43,5.79,5.79,0,0,1-.45.51H66.25v101h125.9v51.68H224c0-25.46,0-50.76,0-76.06a.81.81,0,0,1,.16-.43,2.26,2.26,0,0,1,.35-.34H265v1l-2.89,1.38c-.09.77-.17,1.55-.26,2.31-.34.11-.63.2-.92.31s-.55.26-.94.45c.06,2.82-.06,5.7.06,8.58,2.33-.11,4.31.37,5.95-1-.13.62.32,1.34-.57,2h-5.22v11.06H269c0,1.13,0,2.1,0,3.08.33,10.38-1.76,20.68-1,31.08a.73.73,0,0,1-.17.42,2.28,2.28,0,0,1-.36.33c-.77.17-1.66-.35-2.52.56v8.52H237.13V899.94h25.16c1.41.78,1.59,2,2.08,2.95H364.61c.9-.86-.18-2.11.72-2.75h18.8v12h13.66c.6,2.36-.28,4.71.59,7h6.69v4.58H440c0-44.21,0-88.19,0-132.18,0-.13.16-.28.28-.37s.23-.07.71-.18V923.81c15.71.72,159.7.43,164-.32V867h14.83c5.89,16.81,11.67,33.35,17.44,49.83,1.59.57,3.33-.42,4.74.68,0,.4,0,.72-.07,1.18-1.26-.05-2.42-1.57-4-.12,1.07,1.53.62,3.78,2.65,5.43H775V668.88H733.15v-8.67h73.77c.69,33.61.4,110-.43,114.79H796V669c-6.89.15-13.45-.13-20,.17V923.8h18q0-58.69,0-117a.81.81,0,0,1,.14-.43,2.38,2.38,0,0,1,.35-.36h12.15c.8,1.49-.32,3,.65,3.8H834V691.73c0-.34,0-.67,0-1a.85.85,0,0,1,.19-.42,5.55,5.55,0,0,1,.67-.51V797.05h16.21v8.67c2,.76,4.07-.28,6,.75V810c8.81,0,17.44,0,26.08,0,.26,0,.53-.31.79-.48V808c1.62-.2.48,1.78.64,1.81h17.7c-2.21-6.71-3.61-13.35-6.19-19.4-1.37-1-3.11.53-3.92-1.15,1.14-.79,2.64.36,3.72-.69-.29-3.59,1.58-6.9,1.11-10.55s1.58-6.93,1-10.54c2.39-2.82,1.36-6.68,2.89-9.68.33-.8-1.06-.71-.69-1.52,1.11-1,1.61.4,2.47.6l4.62-12c-3.44.35-6.38-.57-9.27.94,0-.77-.23-1.28.54-1.84,1.69,0,3.66,0,5.63,0a.76.76,0,0,0,.79-1,2.64,2.64,0,0,1,2.54.94c1.94-3.19,3-6.77,4.19-10.23,1.3-3.63,2.77-7.17,4.26-10.71s2.72-6.86,4-10c.08-.94-1.09-1-.62-2h4.29c3.56-1.27,4.79-5.42,8.34-6.27-2.51-4.33-3.29-9.2-6-13.57.64-2-.72-4-1-6.21,0-.33.13-.73,0-1-1.93-3-3.69-6.2-7-8,.55-1.88-1.36-2.43-1.94-3.56v-7.57c2.46-5.15,6.5-8.67,8.78-13.46V647c-2.29,0-4.43,0-6.57,0s-4.23.24-6.45-.26V617H896.69c-5,0-10,0-15,0s-9.77.31-14.62-.9h56.58c.32-.93.53-1.51.68-2,10.16-.7,20.24.94,29.82-1.13l20.15,15.85h46.46V500h-38.4L954.3,521c-6.74,0-13.41,0-20.07,0s-13.33-1.25-20.09-1.11c-14.82.32-29.66.12-44.49.06-.82,0-1.95.69-2.74-.91H912c0-10,0-19.63,0-29.27a.86.86,0,0,1,.15-.43,5.93,5.93,0,0,1,.47-.53h5.31c-4.09-1.91-7.62-2.58-10.52-4.8h-12.9c-2.22-2.22-4.35-4.58-6.72-6.66-2.92-2.57-4-5.89-4.85-9.52-.63-2.85-1.71-5.6-2.56-8.29-2-.81-3.95-.87-5.07-2.35L861.4,435H838V407c-2,0-3.63.05-5.27,0s-3.2.33-5-.4c1.77-1.15,3.53-.11,5-.85v-26.6H771.23v26.74c3.68.43,7.2-.31,10.61,1.14H764c0,40.31,0,80.26,0,120.22a.77.77,0,0,1-.17.42,1.88,1.88,0,0,1-.35.34H686c-1.67-.18-1-1.49-1-2.29,0-9.47,0-18.94,0-28.71H567v-5h21c0-3,0-5.61,0-8.25s.1-5.2-.06-7.75H567c-.18-1.28.35-2.62-.29-3.93-6.59-.27-13.15.21-19.67-1.07h98.73c6.49,0,13,0,19.48,0s13.18.21,19.57-.16V451H670V415H615.18V313h69.05a.76.76,0,0,0,.43-.16,2.26,2.26,0,0,0,.34-.35v-61.3c-14.34-.6-35-.4-39.19.4v19.31H615.19V182.11h30.88v47.76h41c-.18-2.81,0-5.4-.87-8.15-.76-2.43-.16-5.28-.16-7.94,0-2.84,0-5.67,0-8.5s-.06-5.54.06-8.28h80.1V377.84H836.6c-.8-6.18-3.8-11.39-6.6-16.68,0-2.83.11-5.67,0-8.49a6,6,0,0,1,1-3.59c1.4-2.25,2.71-4.56,4.2-6.75,2.89-4.25,5.79-8.45,4.82-14a2.67,2.67,0,0,1,.15-1.9c1.67-1.93.43-4.08,1-6.44h-42v-64H839.9c.08-1.47.14-2.59.19-3.37.77-1.43,2.12-1.34,2.95-2.09,4.83-4.41,10.38-7.86,15.7-11.61,4.38-3.08,8.3-6.81,13.11-9.31A3.88,3.88,0,0,0,874,227c2.83.17,3.36-2.59,5.27-3.65-2.72-4.67-5.25-9-7.77-13.35H870v-1c.12-2.38-2-3.84-2.32-5.84H857.24c-.65,1.66.33,3.39-.76,4.92-1-1.55,0-3.31-.73-4.87H839c.34,1.23,1.63.4,2.07,1.52a4,4,0,0,1-2.75.1l-2-2H831V107.38a12.34,12.34,0,0,1-1.85-.72c-5.88-3.51-11.86-6.87-17.51-10.72-1.24-.85-2.5-.46-3.51-1.27C803.53,91,803.52,91,799.28,91c-1.5,0-3,0-4.5,0-.27,0-.52.32-.78.49-.3.39.47,1.39-.71,1.3l-.6-1.69H729.08v16.15L697.68,145H663.42l-30.54-37.63V81H430ZM840.11,257.17h-40c-.67,17.09-.41,57.67.35,61.65H841V277.51c2.08-2,2.76-4.71,5.11-6C845.66,265.88,841.88,262,840.11,257.17Zm-576.19,277H239c0,9.46,0,18.76,0,28.06a.81.81,0,0,0,.16.43c.09.13.23.23.17.17h24.58Zm-5,99H237c.15,7.06-.19,14,.2,20.66h21.75Zm-6,39H237c0,8.14,0,16.1,0,24.06a.84.84,0,0,0,.16.43c.09.13.24.23.17.17h15.58Zm-2.84-139.34H264c-.15-6.73.19-13.29-.2-19.66H250.08ZM237,655c0,2.58,0,5.17,0,7.77s-.08,5.52.07,8.05H253c0-2.81,0-5.45,0-8.09s.1-5.19-.06-7.73Zm.17-141.92V533c2.13,0,4.1,0,6.08,0s3.85-.08,5.58-.11V513.08Zm17,157V688c2.31,0,4.46,0,6.59,0s4.21.26,6.07-.19V670.09Zm659-167V519c2.48,0,4.79,0,7.09,0s4.54.27,6.57-.19V503.09ZM263.91,564.16H248c0,2.47,0,4.77,0,7.08s-.24,4.55.17,6.6h15.73Zm4,91H254c0,2.47,0,4.77,0,7.08s-.25,4.54.18,6.58h13.73Zm582,143H835.25v11.68h14.66Zm73.76-181H913.25v13.68H924.9V618.4ZM927,493.51c-1.73-2-4.18-2.06-5.53-3.41h-8.28v11.67H927ZM369,389.12c-1.9,0-3.84-.14-5.77-.1-2.09,0-4.21-.27-6.05.19V402h6.09c1.92,0,3.84-.07,5.73-.11Zm27.83,534.8V913c-2.31,0-4.45,0-6.59,0s-4.21-.25-6.07.19v10.72ZM237.16,564.09v13.66h9.68V564.09Zm597-185v27.16c1.37-.72,2.74.43,3.66-.6V379.1Zm85.66,266.81v-14c-2.4.22-4.65-.22-6.66.27v13.7ZM263.91,689.16h-9.66v7.68h9.66ZM616.09,495.83h21.82v-2.66H616.09ZM237.83,562.77V534.34a1.38,1.38,0,0,0-1.66-.11v28.43A1.38,1.38,0,0,0,237.83,562.77Zm407.09-305.6h-7.66v5.66h7.66ZM921.08,640.05c1.53-.18,2.7.27,3.67-.31V632c-1.36.16-2.53-.29-3.67.39ZM708.79,333a12,12,0,0,0,0-4.82H704c0,1.74-.35,3.33.27,4.82ZM398.08,923.83h5.79c.08-1.41.49-2.68-.21-3.66h-5.58ZM924.92,640.94c-1.55.2-2.71-.26-3.87.44,0,1.53-.35,3.12.26,4.65,1.32-.17,2.48.29,3.61-.39Zm-69,166.23h-4.82v2.66h4.82Z"/><path class="cls-2" d="M712,528h51.47a1.88,1.88,0,0,0,.35-.34.77.77,0,0,0,.17-.42c0-40,0-79.91,0-120.22h17.84c-3.41-1.45-6.93-.71-10.61-1.14V379.14h61.55v26.6c-1.52.74-3.28-.3-5,.85,1.8.73,3.43.34,5,.4s3.29,0,5.27,0v27H810.09c1.95,4.37.11,8.84,1.78,13V435H861.4l13.92,22.2c1.12,1.48,3.09,1.54,5.07,2.35.85,2.69,1.93,5.44,2.56,8.29.81,3.63,1.93,7,4.85,9.52,2.37,2.08,4.5,4.44,6.72,6.66h12.9c2.9,2.22,6.43,2.89,10.52,4.8h-5.31a5.93,5.93,0,0,0-.47.53.86.86,0,0,0-.15.43c0,9.64,0,19.28,0,29.27H866.91c.79,1.6,1.92.91,2.74.91,14.83.06,29.67.26,44.49-.06,6.76-.14,13.37,1.14,20.09,1.11s13.33,0,20.07,0l28.06-21h38.4V628.85H974.3L954.15,613c-9.58,2.07-19.66.43-29.82,1.13-.15.44-.36,1-.68,2H867.07c4.85,1.21,9.74.84,14.62.9s10,0,15,0h15.13v29.73c2.22.5,4.35.21,6.45.26s4.28,0,6.57,0v4.41c-2.28,4.79-6.32,8.31-8.78,13.46v7.57c.58,1.13,2.49,1.68,1.94,3.56a4.58,4.58,0,0,0-4,2c-1.37,1-1.37,2,0,3v2.82c0,.69.13,1.24,1,1.18l3,3c.09,1.5,1.24.85,2,1h1c.12.61-.29,1.31.56,2,.64-.41,1.64.49,2.42-.51-.28-1-2.16.08-2-1.52v-2a.85.85,0,0,0,1-1l2-1c.26,2.2,1.62,4.22,1,6.21,2.69,4.37,3.47,9.24,6,13.57-3.55.85-4.78,5-8.34,6.27h-4.29c-.47,1,.7,1,.62,2-1.24,3.13-2.54,6.59-4,10s-3,7.08-4.26,10.71c-1.24,3.46-2.25,7-4.19,10.23a2.57,2.57,0,0,0-2.78-.81,5,5,0,0,0-.39-4.4c-.47,1.67-.63,3,.39,4.4.35.5,0,.84-.55.85-2,0-3.94,0-5.63,0-.77.56-.54,1.07-.54,1.84,2.89-1.51,5.83-.59,9.27-.94l-4.62,12c-.86-.2-1.36-1.6-2.47-.6-.37.81,1,.72.69,1.52-1.53,3-.5,6.86-2.89,9.68.62,3.61-1.41,7-1,10.54s-1.4,7-1.11,10.55c-1.08,1-2.58-.1-3.72.69.81,1.68,2.55.16,3.92,1.15,2.58,6.05,4,12.69,6.19,19.4h-17.7c-.16,0,1-2-.55-1.45-.32-1.33.46-2.49-.66-3.32-.69,1-.79,2,.66,3.32a3.52,3.52,0,0,0-.09,1.14c-.26.17-.53.48-.79.48-8.64,0-17.27,0-26.08,0v-3.53c-2-1-4,0-6-.75v-8.67H834.87V689.8a5.55,5.55,0,0,0-.67.51.85.85,0,0,0-.19.42c0,.33,0,.66,0,1V809.8H807.3c-1-.82.15-2.31-.65-3.8H799V775h7.49c.83-4.76,1.12-81.18.43-114.79H733.15v8.67H775V736H691v33H656.2v98.06H693V924H640.55c-2-1.65-1.58-3.9-2.65-5.43,1.62-1.45,2.78.07,4,.12,0-.46,0-.78.07-1.18-1.41-1.1-3.15-.11-4.74-.68-5.77-16.48-11.55-33-17.44-49.83H578c0,11.32,0,22.29,0,33.26a.78.78,0,0,1-.18.42c-.1.13-.24.22-.15.14H493.11v-3.69c1.26-.47,2.71.42,3.84-.57-1-1.41-2.88.23-3.79-.87V856h55.05a.89.89,0,0,0,.44-.15c.13-.08.24-.22.19-.17V768H523.76a.83.83,0,0,0-.43.17,4.26,4.26,0,0,0-.5.54v85.12c-13.38.54-29.23.32-29.81-.38-.21-.79.38-1.69-.6-2.53H482.9v-14H469.17c-.16-1.43-.5-2.7.27-3.88a15.17,15.17,0,0,1,1.64.06c1.23,1,1.23,1,2.89.06-1.12,0-2.05,0-2.89-.06.12-1.68-1.87-.54-2.08-1.69V779c1.94-.61.95-2.21.95-3.29q.1-34.23,0-68.46c0-1.08.54-2.31-.28-3.07H416.25V876a165.64,165.64,0,0,0,.75-19.28v-39c0-6.49,0-13,0-19.49s-.2-12.85.16-19.25H468v73.11h24.1v49.71H579c0-11.14,0-22.11,0-33.07a.77.77,0,0,1,.17-.42,2.82,2.82,0,0,1,.36-.33H605v55.49c-4.3.75-148.29,1-164,.32V791.05c-.48.11-.63.11-.71.18s-.28.24-.28.37c0,44,0,88,0,132.18H405.07V919.2h-6.69c-.87-2.33,0-4.68-.59-7H384.13v-12h-18.8c-.9.64.18,1.89-.72,2.75H264.37c-.49-1-.67-2.17-2.08-2.95H237.13V698.08h27.81v-8.52c.86-.91,1.75-.39,2.52-.56a2.28,2.28,0,0,0,.36-.33.73.73,0,0,0,.17-.42c-.75-10.4,1.34-20.7,1-31.08,0-1,0-1.95,0-3.08h-8.79V643h5.22c.89-.69.44-1.41.57-2s-.5-1.91,1-2a2.44,2.44,0,0,0,2-2c1-.38,2.53.93,3-1,.61-.13,1.34.32,2-.57V629c19.6,0,39,0,58.47,0,.12,0,.26-.2.35-.34.35-.56-.69-.14.82-.64H224.52a2.26,2.26,0,0,0-.35.34.81.81,0,0,0-.16.43c0,25.3,0,50.6,0,76.06H192.15V653.15H66.25v-101H188.39a5.79,5.79,0,0,0,.45-.51.86.86,0,0,0,.15-.43q0-52.94,0-106h33.83V584H331.46c.12,0,.26-.19.36-.32.42-.51-.64-.16,1.08-.67H265V512.47a2.15,2.15,0,0,0-.35-.31.89.89,0,0,0-.43-.15l-27.5,0c-.14,0-.28-.12-.57-.26V441.11h75.77V389.2H356v13.62h13.88v-72.7h39.93V250.07H394.2V201H418V97h12.09V88.94H439V81H632.88v26.36L663.42,145h34.26l31.4-37.72V91.12h63.61l.6,1.69c1.18.09.41-.91.71-1.3.26-.17.51-.48.78-.49,1.5,0,3,0,4.5,0,4.24,0,4.25,0,8.88,3.67,1,.81,2.27.42,3.51,1.27,5.65,3.85,11.63,7.21,17.51,10.72a12.34,12.34,0,0,0,1.85.72v95.48h5.33l2,2a4,4,0,0,0,2.75-.1c-.44-1.12-1.73-.29-2.07-1.52h16.74c.71,1.56-.31,3.32.73,4.87,1.09-1.53.11-3.26.76-4.92h10.44c.32,2,2.44,3.46,2.32,5.84-.49,0-1.19-.21-1.44,0-2.17,2.14-4.86,2-7.58,2-2,0-4-.35-6.52.47,2.3.62,3.92,1.06,5.62,1.56,1.23,1,1.23,1,2.89.06-1.12,0-2.05,0-2.89-.06-.19-.66.18-1,.66-1,1.92-.05,3.84,0,5.39,0l3.87-2h1.5c2.52,4.34,5,8.68,7.77,13.35-1.91,1.06-2.44,3.82-5.27,3.65-.09-1.5-1.24-.85-2-1-1-.76-.3-2.69-2-3,0-1.67,0-3.33,0-5,1-.49,2-1,3.08-1.58l-2.74-1.29c-.64.87-.2,1.88-.34,2.87a3.4,3.4,0,0,0,0,5v3h2c.09,1.5,1.24.85,2,1a3.88,3.88,0,0,1-2.15,2.56c-4.81,2.5-8.73,6.23-13.11,9.31-5.32,3.75-10.87,7.2-15.7,11.61-.83.75-2.18.66-2.95,2.09-.05.78-.11,1.9-.19,3.37H799.11v64h42c-.56,2.36.68,4.51-1,6.44a2.67,2.67,0,0,0-.15,1.9c1,5.57-1.93,9.77-4.82,14-1.49,2.19-2.8,4.5-4.2,6.75a6,6,0,0,0-1,3.59c.16,2.82,0,5.66,0,8.49,2.8,5.29,5.8,10.5,6.6,16.68H766.16V197H700V165.17c-18.36-.74-136.6-.43-141,.35V215H497V319.05H482.13v16.06h14.71V438H471.76a.84.84,0,0,1-.42-.16c-.13-.1-.23-.24-.15-.16V365h8.63c2.66,0,5.33,0,8,0s5.44.14,8.1-.78H445.87v107H347V491h-5.87v8.7c2,.74,4-.3,6,.73V548.8c1.63.14.27-1.5,1.4-1.69h3.54v25.75h76.06v-71H460c0-10.48,0-20.79,0-31.1a.78.78,0,0,1,.18-.42,4.4,4.4,0,0,1,.59-.51h87.28V362.91h41.79V349H575V286H685v26.48a2.26,2.26,0,0,1-.34.35.76.76,0,0,1-.43.16H615.18V415H670v36h14.87v19.86c-6.39.37-13,.11-19.57.16s-13,0-19.48,0H547c6.52,1.28,13.08.8,19.67,1.07.64,1.31.11,2.65.29,3.93v20H483.07c-.24-8.53.15-16.78-.82-25v26H685c0,9.77,0,19.24,0,28.71,0,.8-.7,2.11,1,2.29v51H638.22v33h73a.78.78,0,0,0,.42-.18,2.27,2.27,0,0,0,.32-.36V590h17.13V557c4.3,0,8.28,0,12.25,0s7.71.19,11.53-.89H712ZM893.27,773.19c1.7-.42,2.86.36,3.69-.76a1.87,1.87,0,0,0-3,.54l-1.68.12c-.45.74-.49,1.29,0,1.79C893.14,774.45,893.85,774,893.27,773.19ZM915,704c0-1.33,0-2.67.12-4.19,1.18-1.9,1.77-3.42,1.37-3.82l-1.37.18c0,1.34,0,2.58-.12,3.83-1.35,1.27-1.35,2.73.48,3.75a4.52,4.52,0,0,0,.15,4.52C916.1,706.6,916.26,705.29,915,704ZM702,733h26c0-10,0-19.58,0-29.21,0-.26-.31-.53-.83-1.34v14c-.47.39-.59.58-.71.58H684V659H598.74a.78.78,0,0,1-.42-.18,6.07,6.07,0,0,1-.51-.58V628.94H583.22V569.08l2.54-.17V542.16H504c0,7.81,0,15.45,0,23.09a.85.85,0,0,1-.17.42,5.55,5.55,0,0,1-.58.52H477v92.6H405.13v-24.9H476c-3.78-1.08-67.71-1.11-72-.38-.15,1.11.35,2.29-.44,3.52h-5.62v8.06h-8.06v6.06h-7.71c-.55,2.71.32,5.37-.57,8h-8.66v36.9h-6.8v13H373c0,1.69-.34,3.14.09,4.32.53,1.46-2.49,2-.73,3.41h11.75V668.14H554v14.45l2.06.82V697h22.86V720.1H560.15V735h12.56c2.11,0,4.21.06,6.29.1v83.72c14.77.64,48.88.41,53-.35V734h8.26c13.65,0,27.3,0,41,0,.92,0,2.44,1,2.79-1ZM414.83,440.9V363.1H390.15v6.24l8.73,8.73v56H332.15v6.81ZM368,766.09v77.35a33.36,33.36,0,0,0,.07,5.48c.3,1.8-1.23,3.21-1,5h16.8V766.09ZM534,126.15H460.25v30h58.9v14.68H534V126.15ZM437.81,282c.34,1-.21,1.87.88,1.85.22-.61.43-1.18.62-1.69h6.46v4.66c-1.66.6-3.3-.31-4.87.71,1.73,1.11,3.51-.11,5,.81.24.61,0,1.39.24,1.48h24.82c.63-27.28.36-67.75-.8-71.73V288.8h-23V217h21.45c.12,0,.28-.2.34-.34.28-.61-.77-.12-.08-.38H445.9v50.89H431.15V282ZM789,435.34V439c0,1.5,0,3,0,4.49.05,1.12-.38,2.37.72,3.87.79-4.79-.54-9.15.94-13.24h-4.46c-.83,14.72-.49,46.76.81,50.48v-49.2A1.58,1.58,0,0,1,789,435.34Zm26.85-28.52c-8.86-1.22-17.86-1-21,0Zm-9-310V96c-1.78,0-3.57-.06-5.34,0s-3.64-.36-5.3.81Zm82.33,692c.61-3.2,1.22-6.45,0-9.65ZM412.83,296.2c-.63,2.53-1.12,5.12,0,7.65Zm438.31-87.68a2.88,2.88,0,0,0-3.27,0A2.89,2.89,0,0,0,851.14,208.52ZM503.5,896.87a2.86,2.86,0,0,0,0,3.26A2.86,2.86,0,0,0,503.5,896.87ZM843,206.5a2.32,2.32,0,0,0,3.1,0A2.32,2.32,0,0,0,843,206.5Zm-195.9,716a2.32,2.32,0,0,0-3.1,0A2.32,2.32,0,0,0,647.05,922.5ZM923,692.5a1.21,1.21,0,0,0,2,0A1.21,1.21,0,0,0,923,692.5Z"/><path class="cls-2" d="M687,428l.35-.86c.75.11,1.06,1.25,2,.86.13-.09.37-.17.37-.26q0-88.69,0-177.47c-.8-.58-1.81-.14-2.76-.27V231c1,.08,1-.61,1-1.29v-6.56h20.78V326.94h-5.59v6.88l5.66.31v56.63h6.06V380h41.51c2.33,0,4.67-.14,7,0,2.16.17,3.87-1.88,6.34-.77v26.61H737.53a2.76,2.76,0,0,0,0,3.27c2.93,5.6,5.68,11.31,8.43,17,4,8.33,8,16.68,12,25a15,15,0,0,0,.9,1.43v66.24h-68.8V492.09H589.21V476H690V457h6c-.08-3.23.09-6.13-.12-9H690v-3.45c-.55-1.41-2.81.55-3-1.55Zm8.85,76.88c-1.16-.93-1.16-.93-2.82,0a13.47,13.47,0,0,1,3.12.24c1.16.93,1.16.93,2.82,0A13.47,13.47,0,0,1,695.85,504.88Zm8,3c-1.16-.93-1.16-.93-2.82,0a13.47,13.47,0,0,1,3.12.24c1.16.93,1.16.93,2.82,0A13.47,13.47,0,0,1,703.85,507.88Zm8,3c-1.16-.93-1.16-.93-2.82,0,1.12,0,2.05,0,3,0,0,.37,0,.74,0,1.11,6.76.06,13.53,0,20.29,0H753c0-19.44,0-38.4,0-57.35a.71.71,0,0,0-.24-.39,3.33,3.33,0,0,0-.66-.29v56.89C738.53,510.86,725.26,510.86,711.85,510.88Z"/><path class="cls-3" d="M691,769V736h84V924H708V897.91H694c0-10.6,0-20.87,0-31.13a.83.83,0,0,0-.15-.43,3.83,3.83,0,0,0-.3-.35H691V769Zm48,120c-.28.12-.8.21-.81.35a22.45,22.45,0,0,0,0,6.65H745c.12.28.21.8.35.82a36.23,36.23,0,0,0,7.65,0V890c.28-.12.8-.21.82-.35a35.57,35.57,0,0,0,0-7.65H746c-.12-.28-.21-.8-.35-.82a22.45,22.45,0,0,0-6.65,0Zm-16.82-50v13h28.07a.77.77,0,0,0,.42-.17.66.66,0,0,0,.18-.19V763.24h-29v53.89h-9.71V839Z"/><path class="cls-3" d="M559,215V165.52c4.4-.78,122.64-1.09,141-.35V197H686.06c-.12,2.74,0,5.51-.06,8.28s0,5.66,0,8.5c0,2.66-.6,5.51.16,7.94.85,2.75.69,5.34.87,8.15h-41V182.11H615.19v88.78h30.62V251.58c4.19-.8,24.85-1,39.19-.4V286H575q0-35.13,0-70.26a.78.78,0,0,0-.18-.42,2.74,2.74,0,0,0-.36-.32Z"/><path class="cls-3" d="M796,806h-1.5a2.38,2.38,0,0,0-.35.36.81.81,0,0,0-.14.43q0,58.41,0,117H776V736h20v70Z"/><path class="cls-3" d="M687,231v19H645v5.83h-8.76v8h8.53v6H616.21V183.15h28.65V231Z"/><path class="cls-2" d="M840.11,257.17c1.77,4.83,5.55,8.71,6,14.31-2.35,1.32-3,4.06-5.11,6v41.31H800.51c-.76-4-1-44.56-.35-61.65Z"/><path class="cls-2" d="M796,736H776V669.13c6.55-.3,13.11,0,20-.17Z"/><path class="cls-2" d="M687,528h24v51H687Z"/><path class="cls-2" d="M263.92,534.17v28.66H239.34c.06.06-.08,0-.17-.17a.81.81,0,0,1-.16-.43c0-9.3,0-18.6,0-28.06Z"/><path class="cls-4" d="M605,868H579.54a2.82,2.82,0,0,0-.36.33.77.77,0,0,0-.17.42c0,11,0,21.93,0,33.07H492.1V852.11H468V779h1v52.37c.21,1.15,2.2,0,2,1.63h-1.56c-.77,1.18-.43,2.45-.27,3.88H482.9v14h9.52c1,.84.39,1.74.6,2.53.58.7,16.43.92,29.81.38V768.72a4.26,4.26,0,0,1,.5-.54.83.83,0,0,1,.43-.17h25.08v87.67s-.06.09-.19.17a.89.89,0,0,1-.44.15H493.16v39.69c.91,1.1,2.75-.54,3.79.87-1.13,1-2.58.1-3.84.57v3.69h84.55c-.09.08.05,0,.15-.14a.78.78,0,0,0,.18-.42c0-11,0-21.94,0-33.26h27Zm-57.17-13.09V769H524.74a.78.78,0,0,0-.42.18c-.12.09-.21.24-.15.16v85.56Zm-78.66-16.83V851c2.3,0,4.44,0,6.58,0s4.21.24,6.08-.18V838.08Z"/><path class="cls-2" d="M686,443a.76.76,0,0,0-1,.79c0,2,0,3.94,0,6.06H671.24V416.18h13.55c.56,1.49.1,3.3.19,5.05s0,3.32,0,5c0,.73-.38,1.78,1,1.79Z"/><path class="cls-2" d="M258.92,633.17v20.66H237.17c-.39-6.7,0-13.6-.2-20.66Z"/><path class="cls-2" d="M252.92,672.17v24.66H237.34c.07.06-.08,0-.17-.17a.84.84,0,0,1-.16-.43c0-8,0-15.92,0-24.06Z"/><path class="cls-5" d="M691,866h2.54a3.83,3.83,0,0,1,.3.35.83.83,0,0,1,.15.43c0,10.26,0,20.53,0,31.13h14V924h-1V899c-2.47,0-4.61,0-6.75,0s-4.22-.26-6.25.23V924h-1V867.06H656.2V769H691v1H657c0,2.29,0,4.27,0,6.24s.08,3.86.12,5.94h25.63v74H657c.18,3.4-.15,6.64.2,9.84Zm-9.16-11.09V783c-8.39.07-16.62-.06-24.68.08v71.85Z"/><path class="cls-3" d="M694,924V899.24c2-.49,4.16-.18,6.25-.23s4.28,0,6.75,0v25Z"/><path class="cls-2" d="M568,476h19.93c.16,2.55,0,5.16.06,7.75s0,5.28,0,8.25H568Z"/><path class="cls-2" d="M250.08,532.83V513.17h13.75c.39,6.37.05,12.93.2,19.66Z"/><path class="cls-2" d="M237,655h15.93c.16,2.54,0,5.14.06,7.73s0,5.28,0,8.09H237.07c-.15-2.53,0-5.3-.07-8.05S237,657.58,237,655Z"/><path class="cls-2" d="M237.17,513.08h11.66v19.81c-1.73,0-3.66.09-5.58.11s-3.95,0-6.08,0Z"/><path class="cls-2" d="M254.17,670.09h12.66V687.8c-1.86.45-4,.14-6.07.19s-4.28,0-6.59,0Z"/><path class="cls-2" d="M913.17,503.09h13.66V518.8c-2,.46-4.31.13-6.57.19s-4.61,0-7.09,0Z"/><path class="cls-2" d="M263.91,564.16v13.68H248.18c-.41-2.05-.11-4.34-.17-6.6s0-4.61,0-7.08Z"/><path class="cls-2" d="M267.92,655.17v13.66H254.19c-.43-2-.12-4.33-.18-6.58s0-4.61,0-7.08Z"/><path class="cls-2" d="M849.91,798.16v11.68H835.25V798.16Z"/><path class="cls-2" d="M923.67,617.17l1.23,1.23v12.45H913.25V617.17Z"/><path class="cls-2" d="M418,96V81h11V96Z"/><path class="cls-2" d="M927,493.51v8.26H913.17V490.1h8.28C922.8,491.45,925.25,491.52,927,493.51Z"/><path class="cls-2" d="M369,389.12v12.77c-1.89,0-3.81.09-5.73.11h-6.09V389.21c1.84-.46,4-.16,6.05-.19C365.16,389,367.1,389.08,369,389.12Z"/><path class="cls-2" d="M396.83,923.92H384.17V913.2c1.86-.44,4-.14,6.07-.19s4.28,0,6.59,0Z"/><path class="cls-4" d="M711,579V528h1v28.1h40.91c-3.82,1.08-7.68.85-11.53.89s-8,0-12.25,0v33H712v-1h15.79V557.11H712V579Z"/><path class="cls-2" d="M237.16,564.09h9.68v13.66h-9.68Z"/><path class="cls-2" d="M267,639c-1.5.09-.85,1.24-1,2-1.64,1.4-3.62.92-5.95,1-.12-2.88,0-5.76-.06-8.58.39-.19.66-.33.94-.45s.58-.2.92-.31c.09-.76.17-1.54.26-2.31L265,629h8.08c-.32,2.51.6,4.89-1.08,7-1,.38-2.53-.93-3,1h-2Z"/><path class="cls-4" d="M567,497H482.25V471c1,8.23.58,16.48.82,25H567Z"/><path class="cls-2" d="M834.17,379.1h3.66v26.56c-.92,1-2.29-.12-3.66.6Z"/><path class="cls-2" d="M919.83,645.91h-6.66v-13.7c2-.49,4.26-.05,6.66-.27Z"/><path class="cls-2" d="M796,806V775h3v31Z"/><path class="cls-2" d="M922,687v2h-2c-.09-1.5-1.24-.85-2-1l-3-3v-2.82c0-.69-.13-1.24-1-1.18v-3a4.58,4.58,0,0,1,4-2c3.29,1.84,5,5,7,8,.15.23,0,.63,0,1l-2,1c-.62.21-1.57-.51-1.87.65Z"/><path class="cls-2" d="M263.91,689.16v7.68h-9.66v-7.68Z"/><path class="cls-4" d="M272,636c1.68-2.11.76-4.49,1.08-7H265v-1h68.67c-1.51.5-.47.08-.82.64-.09.14-.23.34-.35.34-19.43,0-38.87,0-58.47,0v6.43C273.34,636.32,272.61,635.87,272,636Z"/><path class="cls-4" d="M265,583h67.9c-1.72.51-.66.16-1.08.67-.1.13-.24.32-.36.32H265Z"/><path class="cls-2" d="M616.09,495.83v-2.66h21.82v2.66Z"/><path class="cls-2" d="M237.83,562.77a1.38,1.38,0,0,1-1.66-.11V534.23a1.38,1.38,0,0,1,1.66.11Z"/><path class="cls-2" d="M430,81h8v7c-2.9-.11-5.47.12-8-.16Z"/><path class="cls-4" d="M687,528v51h-1V528Z"/><path class="cls-3" d="M644.92,257.17v5.66h-7.66v-5.66Z"/><path class="cls-4" d="M430,81v6.87c2.53.28,5.1,0,8,.16V81h1v7.94h-8.91V97H418V96h11V81Z"/><path class="cls-4" d="M838,435H811.87v12c-1.67-4.16.17-8.63-1.78-13H838Z"/><path class="cls-2" d="M690,456v-7h5.12c-.32,2.56.16,4.82-.36,7Z"/><path class="cls-2" d="M921.08,640.05v-7.69c1.14-.68,2.31-.23,3.67-.39v7.77C923.78,640.32,922.61,639.87,921.08,640.05Z"/><path class="cls-2" d="M708.79,333h-4.48c-.62-1.49-.23-3.08-.27-4.82h4.76A12,12,0,0,1,708.79,333Z"/><path class="cls-2" d="M398.08,923.83v-3.66h5.58c.7,1,.29,2.25.21,3.66Z"/><path class="cls-2" d="M924.92,640.94v4.7c-1.13.68-2.29.22-3.61.39-.61-1.53-.24-3.12-.26-4.65C922.21,640.68,923.37,641.14,924.92,640.94Z"/><path class="cls-4" d="M690,456h4.76c.52-2.18,0-4.44.36-7H690v-1h5.9c.21,2.87,0,5.77.12,9h-6Z"/><path class="cls-4" d="M860,213l-5.54-1.5C857,210.68,859,211,861,211c2.72,0,5.41.14,7.58-2,.25-.24,1,0,1.44,0v1l-3.87,2c-1.55,0-3.47,0-5.39,0A.76.76,0,0,0,860,213Z"/><path class="cls-4" d="M568,476v16h-1V476Z"/><path class="cls-2" d="M855.91,807.17v2.66h-4.82v-2.66Z"/><path class="cls-4" d="M686,443V428h1v15Z"/><path class="cls-1" d="M559,215h15.45a2.74,2.74,0,0,1,.36.32.78.78,0,0,1,.18.42q0,35.13,0,70.26v63h14.85v13.91H548.06v106.9H460.78a4.4,4.4,0,0,0-.59.51.78.78,0,0,0-.18.42c0,10.31,0,20.62,0,31.1H428.13v71H352.07V547.11h-3.54c-1.13.19.23,1.83-1.4,1.69V500.47c-2-1-4,0-6-.73V491H347V471.16h98.88v-107h50.05c-2.66.92-5.39.75-8.1.78s-5.34,0-8,0h-8.63v72.67c-.08-.08,0,.06.15.16a.84.84,0,0,0,.42.16h25.08V335.11H482.13V319.05H497V215ZM469.83,437.91V365H447.75a.85.85,0,0,0-.42.17c-.13.1-.22.24-.16.17v72.56Zm13.35-117.82V334c2.47,0,4.78.05,7.09,0s4.53.27,6.55-.19V320.09Zm92,30V362h13.66V350.08ZM342.08,498.83h4.67v-6.66h-4.67Z"/><path class="cls-6" d="M684,733c-.35,2-1.87,1-2.79,1-13.65.07-27.3,0-41,0H632v27H617.84v44.16h-8.55c-.67,1,.26,2.18-.53,2.66H592c0-15.47,0-30.76,0-46.05a.81.81,0,0,0-.16-.43,2.26,2.26,0,0,0-.35-.34H579V735.1c-2.08,0-4.18-.08-6.29-.1H560.15V720.1h18.73V697H556V683.41l-2.06-.82V668.14H384.11v48.73H372.36c-1.76-1.45,1.26-2,.73-3.41-.43-1.18-.09-2.63-.09-4.32h-6.86v-13h6.8v-36.9h8.66c.89-2.67,0-5.33.57-8h7.71v-6.06h8.06V637h5.62c.79-1.23.29-2.41.44-3.52,4.25-.73,68.18-.7,72,.38H405.13v24.9H477v-92.6h26.29a5.55,5.55,0,0,0,.58-.52.85.85,0,0,0,.17-.42c0-7.64,0-15.28,0-23.09h81.76v26.75l-2.54.17v59.86h14.59v29.29a6.07,6.07,0,0,0,.51.58.78.78,0,0,0,.42.18H684v74Zm-76.08,28.17H593.17c-.59,14.12-.38,41.63.3,45.66h14.45Zm1.24-.08v43c2.73-.27,5.31.19,7.68-.25V761.09Zm-54.07-79.25H579c0-2.47,0-4.77,0-7.08s.25-4.55-.18-6.6H555.09Zm6,52H579c0-2.32,0-4.46,0-6.6s.26-4.21-.2-6.06h-17.7Zm35.74-74.91V645c-2.46,0-4.77,0-7.07,0s-4.55-.25-6.59.18v13.73Zm-13.75-15.09H597c0-2.48,0-4.78,0-7.09s.26-4.54-.18-6.57H583.08Zm-19,52H579v-6.57c0-2.09,0-4.19,0-6.09h-14.9ZM403.92,646.17H391c0,2.3,0,4.44,0,6.58s-.24,4.21.18,6.08h12.73Zm-31,51H367c0,2,0,3.78,0,5.58s.09,3.52.13,5.08h5.78Zm16.92-38.26v-6.66h-6.68v6.66ZM556.93,683c.27,2.33-.24,4.67.27,6.82h5.86c-.22-2.39.22-4.64-.3-6.82ZM399.08,644.83h4.67v-6.66h-4.67Zm163.84,46.34h-5.87c0,1.74-.34,3.33.18,4.66h5.69Z"/><path class="cls-6" d="M469,779H417.17c-.36,6.4-.12,12.83-.16,19.25s0,13,0,19.49v39a165.64,165.64,0,0,1-.75,19.28V704.18h53.44c.82.76.28,2,.28,3.07q.06,34.23,0,68.46C470,776.79,470.94,778.39,469,779Z"/><path class="cls-1" d="M686,579h26v32.45a2.27,2.27,0,0,1-.32.36.78.78,0,0,1-.42.18h-73V579Z"/><path class="cls-1" d="M414.83,440.9H332.15v-6.81h66.73v-56l-8.73-8.73V363.1h24.68Z"/><path class="cls-1" d="M368,766.09h15.83V853.9H367c-.19-1.77,1.34-3.18,1-5a33.36,33.36,0,0,1-.07-5.48V766.09Z"/><path class="cls-4" d="M534,126.15v44.68H519.15V156.15h-58.9v-30Zm-1.09,1H461c0,9.12,0,18.08,0,27.05a.81.81,0,0,0,.14.43c.09.14.23.24.19.2h71.57Zm0,29H520c0,2.48,0,4.78,0,7.09s-.26,4.54.18,6.57h12.73Z"/><path class="cls-4" d="M437.81,282h-6.66V267.11H445.9V216.22h22.91c-.69.26.36-.23.08.38-.06.14-.22.34-.34.34H447.1V288.8h23V218.06c1.16,4,1.43,44.45.8,71.73H446.09c-.26-.09,0-.87-.24-1.48-1.44-.92-3.22.3-5-.81,1.57-1,3.21-.11,4.87-.71v-4.66h-6.46c-.19.51-.4,1.08-.62,1.69C437.6,283.84,438.15,283,437.81,282Zm-5.72-1.14H446c0-2.31,0-4.45,0-6.59s.26-4.21-.19-6.07H432.09Z"/><path class="cls-4" d="M631,761h1v57.47c-4.12.76-38.23,1-53,.35V761h1v56.82c14.64.64,46.89.4,51-.35Z"/><path class="cls-4" d="M684,718v-1h42.44c.12,0,.24-.19.71-.58v-14c.52.81.83,1.08.83,1.34,0,9.63,0,19.26,0,29.21H702v-1h25c0-2.64,0-5,0-7.26s.27-4.54-.23-6.74Z"/><path class="cls-4" d="M789,435.34a1.58,1.58,0,0,0-2,.08v49.2c-1.3-3.72-1.64-35.76-.81-50.48h4.46c-1.48,4.09-.15,8.45-.94,13.24-1.1-1.5-.67-2.75-.72-3.87-.07-1.49,0-3,0-4.49Z"/><path class="cls-4" d="M815.85,406.82h-21C798,405.78,807,405.6,815.85,406.82Z"/><path class="cls-7" d="M702,732v1H684v-1Z"/><path class="cls-4" d="M806.84,96.83H796.19c1.66-1.17,3.52-.73,5.3-.81s3.56,0,5.34,0Z"/><path class="cls-4" d="M889.17,788.81v-9.65C890.39,782.36,889.78,785.61,889.17,788.81Z"/><path class="cls-8" d="M412.83,296.2v7.65C411.71,301.32,412.2,298.73,412.83,296.2Z"/><path class="cls-4" d="M870,218.09c.14-1-.3-2.05.34-2.92l2.74,1.29Z"/><path class="cls-4" d="M870,218v5A3.43,3.43,0,0,1,870,218Z"/><path class="cls-4" d="M915.12,699.81v-3.64l1.37-.18C916.89,696.39,916.3,697.91,915.12,699.81Z"/><path class="cls-4" d="M904.52,743.25a5.67,5.67,0,0,1-.15-4.52A4.52,4.52,0,0,1,904.52,743.25Z"/><path class="cls-4" d="M915.48,703.75a5.67,5.67,0,0,1,.15,4.52A4.52,4.52,0,0,1,915.48,703.75Z"/><path class="cls-4" d="M921,689h1c-.18,1.6,1.7.52,2,1.52-.78,1-1.78.1-2.42.51C920.71,690.31,921.12,689.61,921,689Z"/><path class="cls-4" d="M915,700v4A2.48,2.48,0,0,1,915,700Z"/><path class="cls-4" d="M872,226h-2v-3C871.7,223.31,871,225.24,872,226Z"/><path class="cls-4" d="M914,681c.87-.06,1,.49,1,1.18V685c-.87.06-1-.49-1-1.18Z"/><path class="cls-4" d="M269,637c.47-1.93,2-.62,3-1C271.53,637.93,270,636.62,269,637Z"/><path class="cls-4" d="M267,639v-2h2A2.44,2.44,0,0,1,267,639Z"/><path class="cls-4" d="M851.14,208.52a2.89,2.89,0,0,1-3.27,0A2.88,2.88,0,0,1,851.14,208.52Z"/><path class="cls-4" d="M860.15,213.12H863C861.31,214.05,861.31,214.05,860.15,213.12Z"/><path class="cls-4" d="M893.27,773.19c1.67-1.55,2.65-1.45,3.69-.76C896.13,773.55,895,772.77,893.27,773.19Z"/><path class="cls-4" d="M894,773a2.69,2.69,0,0,1-1.64,1.91c-.53-.5-.49-1,0-1.79Z"/><path class="cls-4" d="M884.19,808.73c-1.55-1.67-1.45-2.65-.76-3.69C884.55,805.87,883.77,807,884.19,808.73Z"/><path class="cls-4" d="M471.15,833.12H474C472.31,834.05,472.31,834.05,471.15,833.12Z"/><path class="cls-4" d="M503.5,896.87a2.86,2.86,0,0,1,0,3.26A2.86,2.86,0,0,1,503.5,896.87Z"/><path class="cls-4" d="M914,678v3C912.63,680,912.63,679,914,678Z"/><path class="cls-4" d="M843,206.5a2.32,2.32,0,0,1,3.1,0A2.32,2.32,0,0,1,843,206.5Z"/><path class="cls-4" d="M647.05,922.5a2.32,2.32,0,0,1-3.1,0A2.32,2.32,0,0,1,647.05,922.5Z"/><path class="cls-1" d="M872,226c.76.15,1.91-.5,2,1C873.24,226.85,872.09,227.5,872,226Z"/><path class="cls-4" d="M918,688c.76.15,1.91-.5,2,1C919.24,688.85,918.09,689.5,918,688Z"/><path class="cls-1" d="M923,692.5a1.21,1.21,0,0,1,2,0A1.21,1.21,0,0,1,923,692.5Z"/><path class="cls-4" d="M922,687l-.87-.35c.3-1.16,1.25-.44,1.87-.65A.85.85,0,0,1,922,687Z"/><path class="cls-4" d="M712,510.86h40.09V454a3.33,3.33,0,0,1,.66.29.71.71,0,0,1,.24.39c0,19,0,37.91,0,57.35H732.24c-6.76,0-13.53,0-20.29,0C712,511.6,712,511.23,712,510.86Z"/><path class="cls-4" d="M711.85,510.88H709C710.69,510,710.69,510,711.85,510.88Z"/><path class="cls-4" d="M704.15,508.12H707C705.31,509.05,705.31,509.05,704.15,508.12Z"/><path class="cls-4" d="M703.85,507.88H701C702.69,507,702.69,507,703.85,507.88Z"/><path class="cls-4" d="M696.15,505.12H699C697.31,506.05,697.31,506.05,696.15,505.12Z"/><path class="cls-4" d="M695.85,504.88H693C694.69,504,694.69,504,695.85,504.88Z"/><path class="cls-2" d="M691,866H657.15c-.35-3.2,0-6.44-.2-9.84h25.8v-74H657.12c0-2.08-.1-4-.12-5.94s0-4,0-6.24h34Z"/><path class="cls-5" d="M722.18,839h-10V817.13h9.71V763.24h29v88.39a.66.66,0,0,1-.18.19.77.77,0,0,1-.42.17H722.18Zm1-74.89V851h26.09a.78.78,0,0,0,.42-.18c.12-.09.21-.24.15-.16V764.09Zm-10,54v20c3.06-.27,6,.21,8.66-.23V818.09Z"/><path class="cls-5" d="M746,882h7.83a35.57,35.57,0,0,1,0,7.65c0,.14-.54.23-.82.35v-7c-2.28,0-4.25,0-6.22,0A.76.76,0,0,1,746,882Z"/><path class="cls-5" d="M753,890v6.84a36.23,36.23,0,0,1-7.65,0c-.14,0-.23-.54-.35-.82h7c0-2,0-3.59,0-5.22A.77.77,0,0,1,753,890Z"/><path class="cls-5" d="M739,889v-7.78a22.45,22.45,0,0,1,6.65,0c.14,0,.23.54.35.82h-6c0,2.29,0,4.25,0,6.22A.76.76,0,0,1,739,889Z"/><path class="cls-5" d="M745,896h-6.79a22.45,22.45,0,0,1,0-6.65c0-.14.53-.23.81-.35v6c2,0,3.59,0,5.22,0A.77.77,0,0,1,745,896Z"/><path class="cls-2" d="M547.83,854.91H524.17V769.35c-.06.08,0-.07.15-.16a.78.78,0,0,1,.42-.18h23.09Z"/><path class="cls-2" d="M469.17,838.08h12.66v12.73c-1.87.42-4,.13-6.08.18s-4.28,0-6.58,0Z"/><path class="cls-2" d="M681.84,854.91H657.16V783.06c8.06-.14,16.29,0,24.68-.08Z"/><path class="cls-2" d="M712,589V557.11h15.79V589Z"/><path class="cls-2" d="M469.83,437.91H447.17V365.35c-.06.07,0-.07.16-.17a.85.85,0,0,1,.42-.17h22.08Z"/><path class="cls-2" d="M483.18,320.09h13.64V333.8c-2,.46-4.3.13-6.55.19s-4.62,0-7.09,0Z"/><path class="cls-2" d="M575.17,350.08h13.66V362H575.17Z"/><path class="cls-2" d="M342.08,498.83v-6.66h4.67v6.66Z"/><path class="cls-2" d="M631,761v56.47c-4.11.75-36.36,1-51,.35V761h11.48a2.26,2.26,0,0,1,.35.34.81.81,0,0,1,.16.43c0,15.29,0,30.58,0,46.05h16.76c.79-.48-.14-1.68.53-2.66h8.55V761Z"/><path class="cls-2" d="M607.92,761.17v45.66H593.47c-.68-4-.89-31.54-.3-45.66Z"/><path class="cls-2" d="M702,732H684V718h42.76c.5,2.2.17,4.49.23,6.74s0,4.62,0,7.26Z"/><path class="cls-2" d="M609.16,761.09h7.68v42.74c-2.37.44-5,0-7.68.25Z"/><path class="cls-2" d="M555.09,681.84V668.16h23.72c.43,2.05.12,4.34.18,6.6s0,4.61,0,7.08Z"/><path class="cls-2" d="M561.09,733.83V721.17h17.7c.46,1.85.15,4,.2,6.06s0,4.28,0,6.6Z"/><path class="cls-2" d="M596.83,658.92H583.17V645.19c2-.43,4.33-.12,6.59-.18s4.61,0,7.07,0Z"/><path class="cls-2" d="M583.08,643.83V630.17h13.73c.44,2,.12,4.32.18,6.57s0,4.61,0,7.09Z"/><path class="cls-2" d="M564.08,695.83V683.17H579c0,1.9,0,4,0,6.09v6.57Z"/><path class="cls-2" d="M403.92,646.17v12.66H391.19c-.42-1.87-.13-4-.18-6.08s0-4.28,0-6.58Z"/><path class="cls-2" d="M372.92,697.17v10.66h-5.78c0-1.56-.11-3.32-.13-5.08s0-3.61,0-5.58Z"/><path class="cls-2" d="M389.84,658.91h-6.68v-6.66h6.68Z"/><path class="cls-2" d="M556.93,683h5.83c.52,2.18.08,4.43.3,6.82H557.2C556.69,687.67,557.2,685.33,556.93,683Z"/><path class="cls-2" d="M399.08,644.83v-6.66h4.67v6.66Z"/><path class="cls-2" d="M562.92,691.17v4.66h-5.69c-.52-1.33-.16-2.92-.18-4.66Z"/><path class="cls-2" d="M532.91,127.16v27.68H461.34s-.1-.06-.19-.2a.81.81,0,0,1-.14-.43c0-9,0-17.93,0-27.05Z"/><path class="cls-2" d="M532.92,156.17v13.66H520.19c-.44-2-.12-4.32-.18-6.57s0-4.61,0-7.09Z"/><path class="cls-2" d="M432.09,280.83V268.17H445.8c.45,1.86.14,4,.19,6.07s0,4.28,0,6.59Z"/><path class="cls-3" d="M723.17,764.09h26.66v86.56c.06-.08,0,.07-.15.16a.78.78,0,0,1-.42.18H723.17Z"/><path class="cls-3" d="M713.17,818.09h8.66v19.75c-2.69.44-5.6,0-8.66.23Z"/><path class="cls-3" d="M745,896a.77.77,0,0,0-.78-1c-1.63,0-3.27,0-5.22,0v-6a.76.76,0,0,0,1-.78c0-2,0-3.93,0-6.22h6a.76.76,0,0,0,.78,1c2,0,3.94,0,6.22,0v7a.77.77,0,0,0-1,.78c0,1.63,0,3.27,0,5.22Z"/></svg>