<svg id="Layer_1" data-name="Layer 1" xmlns="http://www.w3.org/2000/svg" viewBox="0 0 1024 1024"><defs><style>.cls-1{fill:#fefefe;}.cls-2{fill:#7f7f7f;}.cls-3{fill:#a5a28a;}.cls-4{fill:#ebebeb;}</style></defs><path class="cls-1" d="M1024,1024H0V0H1024ZM951,271V216.25H899V256h29.22a.86.86,0,0,1,.43.15,3.83,3.83,0,0,1,.35.3v29.29H913.85V271H843V256h54.8V215.92H733.9v-55H717c0-12.48,0-24.79,0-37.1a.81.81,0,0,0-.16-.43c-.09-.13-.23-.23-.16-.16H699c-.1,4.71.07,9.25-1,13.77V123.11H530.39c-.48.48-.95,1-1.43,1.43-1,1-2.37,0-3.27.51-2.78,1.63-6,1.44-8.94,2.58a49.66,49.66,0,0,1-9.53,2.32c-3,.53-5.24,1.76-6.49,4.76a45.4,45.4,0,0,1-4.26,8.22c-2.67,3.87-4.21,8.29-6.52,12.3-2.41,4.19-2.73,8.89-4,13.37-1.15,4.18-2.49,8.32-3.57,12.51s-2.28,8.42-3.56,12.55c-1.14,3.64-1.48,7.59-3.78,10.94-1.14,1.65-2.06,3.48-3.27,5.13C468,215,468,215,468,221.64v14.48H233.86v78.05H99.1V328H225.54c.12,0,.28.2.35.35.28.6-.76.12.83.7H99.15V369h12.56c2.11,0,4.21.06,6.29.1V458H58.77a.84.84,0,0,0-.43.16,2.33,2.33,0,0,0-.34.36V503c0,21.82.08,43.65-.09,65.47,0,3.14,1.72,5.94,1.13,9.07,1.6,1.86,1.36,4.37,2.35,6.53,3.08,6.7,7.26,12.43,13.54,16.24,5,3.06,10.4,5.71,16.62,5.7q36.49,0,73,0h4.52v-7.08h8.06v-7.06h15.06V577.09h36.69V680.75c12.33,12.33,24.68,24.69,36.9,36.9v29.51H229.09v33.48a22.37,22.37,0,0,0,2,1.43c8.3,4.1,16.47,8.44,25,12a20.68,20.68,0,0,1,5.7,3.05c1.93,1.65,4.39,1.56,6.41,2.7,1.28.71,2.67.25,4.13.91,6.73,3,13.17,6.69,20.05,9.51,6.1,2.49,11.86,5.91,17.9,8.68,7.7,3.54,15.26,7.4,23,10.88,5.62,2.53,11,5.53,16.71,7.91,7.25,3,14.19,6.78,21.29,10.15,5.45,2.58,10.69,5.64,16.21,7.94,3.57,1.49,7,3.23,10.5,4.82s7.2,3.55,11.16,5.52h56.85v49.79h138v-117H731.78v-111H684.24v-7h188.9V521h33.29L951,476.45V271ZM733.92,123.17H718c.16,7.72-.15,15.28.17,22.66h15.79Zm0,24H718v6.57c0,2.1,0,4.19,0,6.09h15.9ZM927.84,284.91V271h-6.57c-2.1,0-4.2.06-6.11.09v13.82Zm-736,321V593c-2.46,0-4.77,0-7.07,0s-4.55-.25-6.59.18v12.73ZM177,606c-.11-2,.35-4-.19-5.82h-6.51V606Z"/><path class="cls-2" d="M118,421V369.1c-2.08,0-4.18-.08-6.29-.1H99.15V329.1H226.72c-1.59-.58-.55-.1-.83-.7-.07-.15-.23-.35-.35-.35H99.1V314.17H233.86V236.12H468V221.64c0-6.61,0-6.64,3.81-11.91,1.21-1.65,2.13-3.48,3.27-5.13,2.3-3.35,2.64-7.3,3.78-10.94,1.28-4.13,2.47-8.34,3.56-12.55s2.42-8.33,3.57-12.51c1.23-4.48,1.55-9.18,4-13.37,2.31-4,3.85-8.43,6.52-12.3a45.4,45.4,0,0,0,4.26-8.22c1.25-3,3.45-4.23,6.49-4.76a49.66,49.66,0,0,0,9.53-2.32c2.92-1.14,6.16-.95,8.94-2.58.9-.53,2.29.46,3.27-.51.48-.47.95-1,1.43-1.43H698.07V137c1-4.52.86-9.06,1-13.77h17.64c-.07-.07.07,0,.16.16a.81.81,0,0,1,.16.43c0,12.31,0,24.62,0,37.1h16.9v55H897.8V256H843v15c-3.21,2-3.76,6.21-6.83,8.33-4.57,7.91-10.46,14.91-15.41,22.54-2.21,3.41-5.19,6.3-6.76,10.13H792V242.2H776.92v13.9H671.15v15h113V329h7.64v35.06H769.22a5.94,5.94,0,0,0,.23,4.05H792v6.59c0,2.34,0,4.67,0,7,0,2.11.06,4.21.1,6.29H869c.18,1.28-.34,2.61.33,4,2.48,0,4.95,0,7.42,0a48.65,48.65,0,0,0,7.25-.18V388h67v88.45L906.43,521H873.14V680.86H684.24v7h47.54v111H604.07v117h-138V866.1H409.2c-4-2-7.51-3.86-11.16-5.52s-6.93-3.33-10.5-4.82c-5.52-2.3-10.76-5.36-16.21-7.94-7.1-3.37-14-7.12-21.29-10.15-5.71-2.38-11.09-5.38-16.71-7.91-7.73-3.48-15.29-7.34-23-10.88-6-2.77-11.8-6.19-17.9-8.68-6.88-2.82-13.32-6.46-20.05-9.51-1.46-.66-2.85-.2-4.13-.91-2-1.14-4.48-1-6.41-2.7a20.68,20.68,0,0,0-5.7-3.05c-8.58-3.52-16.75-7.86-25-12a22.37,22.37,0,0,1-2-1.43V747.16h36.67V717.65c-12.22-12.21-24.57-24.57-36.9-36.9V577.09H192.17v14.77H177.11v7.06h-8.06V606h-4.52q-36.48,0-73,0c-6.22,0-11.57-2.64-16.62-5.7-6.28-3.81-10.46-9.54-13.54-16.24-1-2.16-.75-4.67-2.35-6.53.59-3.13-1.15-5.93-1.13-9.07.17-21.82.09-43.65.09-65.47H95v48c2.8,0,5.28,0,7.75,0s4.88.25,7.25-.19V521h58.82c.68-15.77.41-95.7-.33-100H118ZM292.15,671.12c1.16.93,1.16.93,2.82,0a23,23,0,0,1-3-.12c-.47-1.93-2-.62-3.15-1.12-1.16-.93-1.16-.93-2.82,0a23,23,0,0,1,3,.12C289.47,671.93,291,670.62,292.15,671.12Zm-11-4c1.16.93,1.16.93,2.82,0a23,23,0,0,1-3-.12c-.47-1.93-2-.62-3-1-.47-1.93-2-.62-3-1-.47-1.93-2-.62-3-1-.47-1.93-2-.62-3.15-1.12-1.16-.93-1.16-.93-2.82,0a23,23,0,0,1,3,.12c.47,1.93,2,.62,3,1,.47,1.93,2,.62,3,1,.47,1.93,2,.62,3,1C278.47,667.93,280,666.62,281.15,667.12Zm-15.88-57.93c1.7-.42,2.86.36,3.69-.76-1-.69-2-.79-2.23.38-1.7.42-2.86-.36-3.69.76C264.08,610.26,265.06,610.36,265.27,609.19Zm-4.12,50.93c1.16.93,1.16.93,2.82,0a23,23,0,0,1-3-.12c-.47-1.93-2-.62-3-1a2.69,2.69,0,0,0-1.64-1.91c-.53.5-.49,1,0,1.79.49,0,1.08.08,1.67.09C258.47,660.93,260,659.62,261.15,660.12Zm13.58-54.31c-1.7.42-2.86-.36-3.69.76a1.87,1.87,0,0,0,3-.57c1-.38,2.53.93,3-1h4c-.06.89.51,1,1.2,1H286c-.06.87.49,1,1.18,1H290c-.06.89.51,1,1.2,1H295c-.06.89.51,1,1.2,1H300c-.06.87.49,1,1.18,1H304c-.06.89.51,1,1.2,1,1.26,0,2.53,0,3.95.12,1.16.93,1.16.93,2.82,0a23,23,0,0,1-3-.12c.06-.89-.51-1-1.2-1H304c.06-.87-.49-1-1.18-1H300c.06-.89-.51-1-1.2-1H295c.06-.89-.51-1-1.2-1H290c.06-.87-.49-1-1.18-1H286c.06-.89-.51-1-1.2-1H281a2.48,2.48,0,0,0-4,0C276,605.38,274.47,604.07,274.73,605.81Zm278.39-127c.93-1.16.93-1.16,0-2.82a13.47,13.47,0,0,1-.24,3.12c-.93,1.16-.93,1.16,0,2.82A13.47,13.47,0,0,1,553.12,478.85ZM724.81,587.27c.42,1.7-.36,2.86.76,3.69a1.87,1.87,0,0,0-.57-3v-2.82c0-.69-.13-1.24-1-1.18-.38-1,.93-2.53-1-3-.54-1.88,1.36-2.43,1.91-3.49.42-2.21-.55-4.37,1-6.32a3.38,3.38,0,0,0,0-2.92c-1.83-3.94-.5-8-1.08-12.36h22V532.24h-22v14.59c-14.78.63-43.8.4-48-.41V473.11h-7.88v44.95H466.2v47.81h28.9V543.15h51.67v189H532c.07,7.74-.08,15.31.1,22.7H636V702.4c1.91-.79,3.55-1.9,5-1.48l4-3.33c.22-1.69-.33-3.2.44-4.58h3.88c2.39-1.31,2.86-4,4.93-5.76v-49.1c1.54-.46,3.24.51,4.26-1.11,3.62-.34,6.81-2.16,10.26-3a61.8,61.8,0,0,0,12.72-4.28,16.51,16.51,0,0,1,7.27-1.83c.8,0,2.11.71,2.29-1h2.82c.69,0,1.24-.13,1.18-1h3.8c.69,0,1.26-.11.47-.81,1.7-.42,2.86.36,3.69-.76a1.87,1.87,0,0,0-3,.57h-3.8c-.69,0-1.26.11-1.2,1h-2.82c-.69,0-1.24.13-1.18,1-1-.13-2,.31-3-.48a5.21,5.21,0,0,0,3.27-3.9c.84-3.16,1-6.48,2.13-9.37,3.33-1.61,6.94-2.58,8.35-6.45,4.76-4.55,7.7-10.38,10.82-16,2.38-4.28,5.73-7.42,8.93-10.77.72.54.92,1.12,1.55,1,.38,1-.93,2.53,1,3v2.82C724,587.51,724.13,588.06,724.81,587.27ZM317,659c.87.06,1-.49,1-1.18V655c.87.06,1-.49,1-1.18V651c.87.06,1-.49,1-1.18V647c.87.06,1-.49,1-1.18V643c.87.06,1-.49,1-1.18V639c.87.06,1-.49,1-1.18a25.85,25.85,0,0,1,.12-3c.93-1.16.93-1.16,0-2.82a23,23,0,0,1-.12,3c-.87-.06-1,.49-1,1.18V639c-.87-.06-1,.49-1,1.18V643c-.87-.06-1,.49-1,1.18V647c-.87-.06-1,.49-1,1.18V651c-.87-.06-1,.49-1,1.18V655c-.87-.06-1,.49-1,1.18a12.07,12.07,0,0,1-.12,2.32L315,662.08l1.89-.24A21.79,21.79,0,0,1,317,659Zm409-40h2.82c.69,0,1.24-.13,1.18-1,.94.13,2-.29,2.82.31.62,1.17-.43,2.63,1.19,4.19-.06-3.72.14-6.93-.2-10.15,0-.14-.53-.23-.81-.35v-2.82c0-.69-.13-1.24-1-1.18v-2.82c0-.69-.13-1.24-1.48-.93a4.52,4.52,0,0,0-.15-4.52c-.47,1.67-.63,3,.63,4.27v2.82c0,.69.13,1.24,1,1.18v2.82c0,.69.13,1.24,1,1.18v4.17c-1,1.5-2.79-.11-3,1.83h-2.82c-.69,0-1.24.13-1.18,1h-2.82c-.69,0-1.24.13-1.18,1h-3.8c-.69,0-1.26.11-1.2,1h-2.82c-.69,0-1.24.13-1.18,1h-2.82c-.69,0-1.24.13-.44,1.54-2.39-.73-4-.73-5.66.09,1.65.37,3.29.58,4.92-.63h2.2c1.2.56.26,1.88,1.8,1.79V622h2.82c.69,0,1.24-.13,1.18-1h3.8c.69,0,1.26-.11,1.2-1h2.82C725.51,620,726.06,619.87,726,619Zm-2,10.74.08-.74a27.08,27.08,0,0,0-3,0c-1,.12-2.19-.56-3.19.72,2.16,0,4.13,0,5.37-.55,1.7-.42,2.86.36,3.69-.76C725.92,627.74,724.94,627.64,724,629.74ZM808,606c-.07.9.53,1,1.21,1H814c.18,1.67,1.49,1,2.29,1,10,0,20,0,29.94.06,1.25,0,2.62-.49,3.77.43V617c-1.33,2.77-.73,5.81-1.13,8.81H798c0-3.34-.09-6.5,0-9.64s-.61-6.06.66-8.93H778.17v19.58c14.79.65,67.58.4,71.83-.33V617a.76.76,0,0,0,1-.79c0-3,0-5.94,0-9.21H814c.07-.9-.53-1-1.21-1-1.6,0-3.19,0-5-.12-2-1.19-4.58-1.27-7.84,0C802.84,605.88,805.42,605.88,808,606ZM556,470h6v7h7.06v14.84h15.05V442.15H669c0,2.46,0,4.76,0,7.07s-.24,4.56.21,6.78H743c0-2.64,0-4.94,0-7.25s.26-4.55-.22-6.75H729V384.18c5.12-3.58,8.37-8.86,10.9-15.26,1-6.65-.73-12.91-6.89-17.23V337.94c.88-2,2.17-3.27,3.09-4.71,1.4-2.2,3.81-4,3.86-6.86.12-7.1,0-14.21,0-21.23H641.86v94H546.94c.22,2.4-.23,4.66.36,7h21.58v43.59H504.15V420.86h20.68V399H510.2V347.13h53.9v14.72H586c0-2.63,0-5.1,0-7.58a48,48,0,0,0-.21-7.45H571V214.21h-53v84.9H414.15v66.62c.29.14.43.26.57.26l87.49,0a.83.83,0,0,1,.43.15,1.88,1.88,0,0,1,.36.33V392H429v22.05h-85v88.73H285.88V488.25H192.17V531.9h36.7v-7.14l14.49-14.57h74.52v36.9H303.15v14.66h48V547H428.8V517.93H399.22v-75h6.57c.63-2.37-.33-4.73.53-6.88H429v34h42c.13,1-.33,2.07.54,3,.75-1.1.34-2.1.46-3h83c.22,1.28-.44,2.71,1,4.82ZM501.82,640V606H443V592.13H428.89v14h-93v111.1c-7.43-1.14-14.34,1.54-21.43.79a41,41,0,0,0-4.29,0v14.11h78V814c2.64,0,5.11,0,7.58,0a53.63,53.63,0,0,0,7.11-.14V784h-7.88V768.91h-5.71V732.16H429c0,26.79,0,53.43,0,80.07a.81.81,0,0,0,.16.43c.09.13.23.23.16.16H466V738.94h30.84v-7.05H443.15V640ZM151.1,384.17H199v7.88h8.05v7.06H221V446.8c13.3.65,75.85.4,80.17-.34V355h79.09a.78.78,0,0,0,.42-.18c.12-.09.21-.24.13-.14V299H285.93V284.14H270.88v85H151.1Zm678,57.66H914c0-2.13,0-4.11,0-6.09s-.07-3.85-.11-5.56H790.1V475h31v56.74h8V475.06h9.34l4.42-4.42c.24-6.64-.11-7.35-5.59-10.77H829.1ZM503.2,505.17c7.38,1.18,17.56,1,21.28,0ZM471,671.08c.18,1.54-.27,2.7.38,3.8,1.25.07,2.52.48,3.68-.34-.14-1.16.31-2.32-.36-3.46Zm.13,34.22c1.52-.61,2.71.11,4-.79-.47-1,.6-2.39-.66-3.6-1,.4-2.19-.32-3.32.48Zm-224.6-68.16a2.88,2.88,0,0,0,0-3.27A2.89,2.89,0,0,0,246.48,637.14Zm227-159a2.86,2.86,0,0,0,0-3.26A2.86,2.86,0,0,0,473.5,478.13ZM250.27,643.2c0,.89-.63,1.87.28,2.88C251.15,644.92,251.2,644,250.27,643.2Zm3.23,6.67a2.86,2.86,0,0,0,0,3.26A2.86,2.86,0,0,0,253.5,649.87Zm45.36,18.61a2.88,2.88,0,0,0,3.27,0A2.88,2.88,0,0,0,298.86,668.48ZM728.73,597.8c0-.89.63-1.87-.28-2.88C727.85,596.08,727.8,597,728.73,597.8ZM527.87,502.5a2.86,2.86,0,0,0,3.26,0A2.86,2.86,0,0,0,527.87,502.5Zm-52.14-19.7c0-.89.63-1.87-.28-2.88C474.85,481.08,474.8,482,475.73,482.8ZM311.13,664.48a2.85,2.85,0,0,0-3.26,0A2.89,2.89,0,0,0,311.13,664.48Z"/><path class="cls-3" d="M951,388H884V377.07c7.56-.24,14.8.16,21.84-.22V331.26h-7v13.58c-14.81.58-39.6.38-44-.37V331c-2.73.1-5.31-.14-7.66.13V377c7.39.07,14.62-.05,21.83.07V388H814V312c1.57-3.83,4.55-6.72,6.76-10.13,5-7.63,10.84-14.63,15.41-22.54,3.07-2.12,3.62-6.32,6.83-8.33h70.85v14.75H929V271h22Z"/><path class="cls-3" d="M118,421h37v30.15h12.88v68.67H118c0-3,0-5.79,0-8.6s.09-5.51-.08-8.22H58V458.53a2.33,2.33,0,0,1,.34-.36.84.84,0,0,1,.43-.16H118Z"/><path class="cls-2" d="M951,271H929V256.46a3.83,3.83,0,0,0-.35-.3.86.86,0,0,0-.43-.15H899V216.25h52Z"/><path class="cls-2" d="M733.92,123.17v22.66H718.13c-.32-7.38,0-14.94-.17-22.66Z"/><path class="cls-2" d="M733.92,147.17v12.66H718c0-1.9,0-4,0-6.09v-6.57Z"/><path class="cls-2" d="M927.84,284.91H915.16V271.09c1.91,0,4-.07,6.11-.09h6.57Z"/><path class="cls-2" d="M191.83,605.92H178.17V593.19c2-.43,4.33-.12,6.59-.18s4.61,0,7.07,0Z"/><path class="cls-2" d="M177,606h-6.7v-5.82h6.51C177.32,602,176.86,604,177,606Z"/><path class="cls-1" d="M691,627c-.18,1.67-1.49,1-2.29,1a16.51,16.51,0,0,0-7.27,1.83,61.8,61.8,0,0,1-12.72,4.28c-3.45.81-6.64,2.63-10.26,3-1,1.62-2.72.65-4.26,1.11v49.1c-2.07,1.73-2.54,4.45-4.93,5.76h-3.88c-.77,1.38-.22,2.89-.44,4.58l-4,3.33c-1.45-.42-3.09.69-5,1.48v52.43H532.08c-.18-7.39,0-15-.1-22.7h14.79v-189H495.1v22.72H466.2V518.06H668.94V473.11h7.88v73.31c4.22.81,33.24,1,48,.41V532.24h22v23.67h-22c.58,4.35-.75,8.42,1.08,12.36a3.38,3.38,0,0,1,0,2.92c-1.56,1.95-.59,4.11-1,6.32-.55,1.06-2.45,1.61-1.91,3.49-.63.16-.83-.42-1.55-1-3.2,3.35-6.55,6.49-8.93,10.77-3.12,5.61-6.06,11.44-10.82,16-1.41,3.87-5,4.84-8.35,6.45-1.12,2.89-1.29,6.21-2.13,9.37a5.21,5.21,0,0,1-3.27,3.9C689,627.31,690.05,626.87,691,627Zm42-94c0,4.67-.2,9.34.16,13.82H746c0-2.48,0-4.78,0-7.09s.27-4.54-.23-6.73ZM533.1,733c0,2.07-.13,4.17-.08,6.27s-.28,4.54.18,6.55H547c0-2.31,0-4.45,0-6.59s.26-4.21-.24-6.23Zm13.81,14.17h-14c.22,2.4-.23,4.65.27,6.66h13.7ZM726.16,533.09v13.65h5.68V533.09Z"/><path class="cls-1" d="M729,456H669.22c-.45-2.22-.15-4.51-.21-6.78s0-4.61,0-7.07H584.11v49.72H569.06V477H562V451c-2.61,0-4.91,0-7.21,0a.76.76,0,0,0-.79,1c-1.35-1.16-3-1-4.58-1q-21,0-42,0H503V425.94h-9.5c1.15-7.08.13-14,.7-21.1H503V366.49a1.88,1.88,0,0,0-.36-.33.83.83,0,0,0-.43-.15l-87.49,0c-.14,0-.28-.12-.57-.26V299.11H517.92v-84.9h53V346.82h14.82a48,48,0,0,1,.21,7.45c0,2.48,0,5,0,7.58H564.1V347.13H510.2V399h14.63v21.88H504.15v28.92h64.73V406.19H547.3c-.59-2.37-.14-4.63-.36-7h94.92v-94H740c0,7,.08,14.13,0,21.23-.05,2.86-2.46,4.66-3.86,6.86-.92,1.44-2.21,2.71-3.09,4.71v13.75c6.16,4.32,7.87,10.58,6.89,17.23-2.53,6.4-5.78,11.68-10.9,15.26V456ZM502.92,406.17H495c0,6.39,0,12.62,0,18.66h7.91Zm65.91,69.74V451.27h-5.66v24.64Z"/><path class="cls-1" d="M501.82,640H443.15v91.87h53.72v7.05H466v73.88h-36.7c.07.07-.07,0-.16-.16a.81.81,0,0,1-.16-.43c0-26.64,0-53.28,0-80.07H389.23v36.75h5.71V784h7.88v29.88a53.63,53.63,0,0,1-7.11.14c-2.47,0-4.94,0-7.58,0V732.11h-78V718a41,41,0,0,1,4.29,0c7.09.75,14-1.93,21.43-.79V606.13h93v-14H443V606h58.87Zm-100,172.89V785c-2.31,0-4.46,0-6.6,0s-4.21-.27-6.06.2v27.7Zm-90.66-93.83V731c2.47,0,4.77,0,7.07,0s4.55.25,6.59-.18V719.08Zm119-126v12.66h11.68V593.09Zm-41,177v14c1.72-.44,3.35.37,4.68-.46V770.09Z"/><path class="cls-1" d="M429,436H406.32c-.86,2.15.1,4.51-.53,6.88h-6.57v75H428.8V547H351.17v14.77h-48V547.09h14.73v-36.9H243.36l-14.49,14.57v7.14h-36.7V488.25h93.71v14.53h58.05V414.05h85V392h29v29H429.77a.75.75,0,0,0-.42.16,1.93,1.93,0,0,0-.35.35Zm-1.09-14.83H399c0,2.47-.05,4.78,0,7.09s-.26,4.54.19,6.57h28.71ZM304.1,548c0,2.07-.13,4.17-.08,6.27s-.28,4.54.18,6.55H318c0-2.31,0-4.45,0-6.59s.26-4.21-.24-6.23ZM404.92,436.17h-5.66v5.66h5.66Z"/><path class="cls-1" d="M151.1,384.17v-15H270.88v-85h15.05V299h94.88v55.72c.08-.1,0,.05-.13.14a.78.78,0,0,1-.42.18H301.17v91.46c-4.32.74-66.87,1-80.17.34V399.11H207.08v-7.06H199v-7.88Zm121-85.33H285v-7.08c0-2.26,0-4.52,0-6.6h-12.9ZM208,397.9c2.07,0,4.17.13,6.27.08s4.54.28,6.55-.18V384c-2.31,0-4.45,0-6.59,0s-4.21-.26-6.23.24Zm-1.17-7v-6.66h-6.66v6.66Z"/><path class="cls-3" d="M429,436V421.52a1.93,1.93,0,0,1,.35-.35.75.75,0,0,1,.42-.16H458V392h45v12.84h-8.84c-.57,7.13.45,14-.7,21.1H503V451h4.5q21,0,42,0c1.61,0,3.23-.15,4.58,1,.38,1-.93,2.53,1,3v2.82c0,.69.13,1.24,1,1.18v8c-1.93.47-.62,2-1,3H472c0-2.66.07-5.32,0-8s.37-5.3-1-7.85V470H429Zm45.12,12.85c.93-1.16.93-1.16,0-2.82a13.47,13.47,0,0,1-.24,3.12c-.93,1.16-.93,1.16,0,2.82A13.47,13.47,0,0,1,474.12,448.85Z"/><path class="cls-1" d="M814,312v76H792.1c0-2.08-.08-4.18-.1-6.29,0-2.33,0-4.66,0-7v-6.59H769.45a5.94,5.94,0,0,1-.23-4.05H791.8V329h-7.64V271.14h-113v-15H776.92V242.2H792V312Zm-23.08-68.83H778v6.58c0,2.09,0,4.18,0,6.08h12.9Z"/><path class="cls-1" d="M829.1,441.83v18h8.17c5.48,3.42,5.83,4.13,5.59,10.77l-4.42,4.42H829.1v56.72h-8V475h-31V430.18H913.89c0,1.71.09,3.64.11,5.56s0,4,0,6.09Z"/><path class="cls-1" d="M869,388V377.05c-7.21-.12-14.44,0-21.83-.07V331.11c2.35-.27,4.93,0,7.66-.13v13.49c4.39.75,29.18.95,44,.37V331.26h7v45.59c-7,.38-14.28,0-21.84.22v14.74a48.65,48.65,0,0,1-7.25.18c-2.47.05-4.94,0-7.42,0C868.66,390.61,869.18,389.28,869,388Zm14,3c0-4.67.2-9.34-.16-13.82H870c0,2.48,0,4.78,0,7.09s-.27,4.54.23,6.73Z"/><path class="cls-1" d="M95,503h22.92c.17,2.71.06,5.47.08,8.22s0,5.62,0,8.6h49.88V451.15H155V421h13.49c.74,4.3,1,84.23.33,100H95Z"/><path class="cls-1" d="M850,617v9.49c-4.25.73-57,1-71.83.33V607.24h20.52c-1.27,2.87-.55,5.94-.66,8.93s0,6.3,0,9.64h50.87C849.27,622.81,848.67,619.77,850,617Z"/><path class="cls-3" d="M554,452a.76.76,0,0,1,.79-1c2.3,0,4.6,0,7.21,0v19h-6v-3a.77.77,0,0,0,1-.78c0-2.15,0-4.29,0-6.44a.77.77,0,0,0-1-.78v-2.82c0-.69-.13-1.24-1-1.18C554.62,454,555.93,452.47,554,452Z"/><path class="cls-4" d="M95,521h1v29c2.47,0,4.61,0,6.75,0s4.22.26,6.25-.23V521h1v29.8c-2.37.44-4.83.14-7.25.19s-5,0-7.75,0Z"/><path class="cls-4" d="M814,607h37c0,3.27,0,6.24,0,9.21a.76.76,0,0,1-1,.79v-8.54c-1.15-.92-2.52-.43-3.77-.43-10,0-20,0-29.94-.06C815.49,608,814.18,608.67,814,607Z"/><path class="cls-4" d="M729,443v-1h13.77c.48,2.2.16,4.49.22,6.75s0,4.61,0,7.25H729v-1h13c0-2.3,0-4.28,0-6.25s-.08-3.85-.12-5.75Z"/><path class="cls-4" d="M503.2,505.17h21.28C520.76,506.2,510.58,506.35,503.2,505.17Z"/><path class="cls-4" d="M471,470V454.17c1.35,2.55.89,5.23,1,7.85s0,5.32,0,8c-.12.94.29,1.94-.46,3C470.67,472.07,471.13,471,471,470Z"/><path class="cls-1" d="M471,671.08h3.7c.67,1.14.22,2.3.36,3.46-1.16.82-2.43.41-3.68.34C470.68,673.78,471.13,672.62,471,671.08Z"/><path class="cls-1" d="M471.08,705.3v-3.91c1.13-.8,2.32-.08,3.32-.48,1.26,1.21.19,2.55.66,3.6C473.79,705.41,472.6,704.69,471.08,705.3Z"/><path class="cls-4" d="M733,612c.28.12.8.21.81.35.34,3.22.14,6.43.2,10.15-1.62-1.56-.57-3-1.19-4.19-.87-.6-1.88-.18-2.82-.31.21-1.94,2-.33,3-1.83Z"/><path class="cls-4" d="M807.81,605.88H800C803.23,604.61,805.81,604.69,807.81,605.88Z"/><path class="cls-4" d="M556,467v7.82c-1.44-2.11-.78-3.54-1-4.82C555.38,469,554.07,467.47,556,467Z"/><path class="cls-4" d="M808,606h4.79c.68,0,1.28.1,1.21,1h-4.79C808.53,607,807.93,606.9,808,606Z"/><path class="cls-4" d="M709,623c-.06-.87.49-1,1.18-1H713v2.79c-1.54.09-.6-1.23-1.8-1.79Z"/><path class="cls-4" d="M724,629.74h-6.1c1-1.28,2.18-.6,3.19-.72a27.08,27.08,0,0,1,3,0Z"/><path class="cls-4" d="M295,608h3.8c.69,0,1.26.11,1.2,1h-3.8C295.51,609,294.94,608.89,295,608Z"/><path class="cls-4" d="M717,621c-.06-.89.51-1,1.2-1H722c.06.89-.51,1-1.2,1Z"/><path class="cls-4" d="M295,608h-3.8c-.69,0-1.26-.11-1.2-1h3.8C294.49,607,295.06,607.11,295,608Z"/><path class="cls-4" d="M709.74,623.54a10.48,10.48,0,0,1-5.66.09C705.71,622.81,707.35,622.81,709.74,623.54Z"/><path class="cls-4" d="M304,610h3.8c.69,0,1.26.11,1.2,1h-3.8C304.51,611,303.94,610.89,304,610Z"/><path class="cls-4" d="M700,625c.06.89-.51,1-1.2,1H695c-.06-.89.51-1,1.2-1Z"/><path class="cls-4" d="M286,606h-3.8c-.69,0-1.26-.11-1.2-1h3.8C285.49,605,286.06,605.11,286,606Z"/><path class="cls-4" d="M732,608c-.87.06-1-.49-1-1.18V604c.87-.06,1,.49,1,1.18Z"/><path class="cls-4" d="M730,618c.06.87-.49,1-1.18,1H726c-.06-.87.49-1,1.18-1Z"/><path class="cls-4" d="M726,619c.06.87-.49,1-1.18,1H722c-.06-.87.49-1,1.18-1Z"/><path class="cls-4" d="M320,647v2.82c0,.69-.13,1.24-1,1.18v-2.82C319,647.49,319.13,646.94,320,647Z"/><path class="cls-4" d="M717,621c.06.87-.49,1-1.18,1H713c-.06-.87.49-1,1.18-1Z"/><path class="cls-4" d="M290,607h-2.82c-.69,0-1.24-.13-1.18-1h2.82C289.51,606,290.06,606.13,290,607Z"/><path class="cls-4" d="M281,605h-4A2.48,2.48,0,0,1,281,605Z"/><path class="cls-4" d="M733,612c-.87.06-1-.49-1-1.18V608c.87-.06,1,.49,1,1.18Z"/><path class="cls-4" d="M695,626c.06.87-.49,1-1.18,1H691c-.06-.87.49-1,1.18-1Z"/><path class="cls-4" d="M300,609h2.82c.69,0,1.24.13,1.18,1h-2.82C300.49,610,299.94,609.87,300,609Z"/><path class="cls-4" d="M322,639v-2.82c0-.69.13-1.24,1-1.18v2.82C323,638.51,322.87,639.06,322,639Z"/><path class="cls-4" d="M730.52,604.25a5.67,5.67,0,0,1-.15-4.52A4.52,4.52,0,0,1,730.52,604.25Z"/><path class="cls-4" d="M320,647v-2.82c0-.69.13-1.24,1-1.18v2.82C321,646.51,320.87,647.06,320,647Z"/><path class="cls-4" d="M319,651v2.82c0,.69-.13,1.24-1,1.18v-2.82C318,651.49,318.13,650.94,319,651Z"/><path class="cls-4" d="M317,659v-2.82c0-.69.13-1.24,1-1.18v2.82C318,658.51,317.87,659.06,317,659Z"/><path class="cls-4" d="M316.88,658.5v3.34l-1.89.24Z"/><path class="cls-4" d="M321,643v-2.82c0-.69.13-1.24,1-1.18v2.82C322,642.51,321.87,643.06,321,643Z"/><path class="cls-4" d="M724,584c.87-.06,1,.49,1,1.18V588c-.87.06-1-.49-1-1.18Z"/><path class="cls-4" d="M309.15,611.12H312C310.31,612.05,310.31,612.05,309.15,611.12Z"/><path class="cls-4" d="M699.27,625.19c1.67-1.55,2.65-1.45,3.69-.76C702.13,625.55,701,624.77,699.27,625.19Z"/><path class="cls-4" d="M323.12,634.85V632C324.05,633.69,324.05,633.69,323.12,634.85Z"/><path class="cls-4" d="M246.48,637.14a2.89,2.89,0,0,1,0-3.27A2.88,2.88,0,0,1,246.48,637.14Z"/><path class="cls-4" d="M473.5,478.13a2.86,2.86,0,0,1,0-3.26A2.86,2.86,0,0,1,473.5,478.13Z"/><path class="cls-4" d="M250.27,643.2c.93.83.88,1.72.28,2.88C249.64,645.07,250.27,644.09,250.27,643.2Z"/><path class="cls-4" d="M553.12,478.85V476C554.05,477.69,554.05,477.69,553.12,478.85Z"/><path class="cls-4" d="M723.27,629.19c1.67-1.55,2.65-1.45,3.69-.76C726.13,629.55,725,628.77,723.27,629.19Z"/><path class="cls-4" d="M253.5,649.87a2.86,2.86,0,0,1,0,3.26A2.86,2.86,0,0,1,253.5,649.87Z"/><path class="cls-4" d="M274.73,605.81c-1.67,1.55-2.65,1.45-3.69.76C271.87,605.45,273,606.23,274.73,605.81Z"/><path class="cls-4" d="M277,605c-.47,1.93-2,.62-3,1C274.47,604.07,276,605.38,277,605Z"/><path class="cls-4" d="M258,659l-1.68-.12c-.45-.74-.49-1.29,0-1.79A2.69,2.69,0,0,1,258,659Z"/><path class="cls-4" d="M258,659c1,.38,2.53-.93,3,1C260,659.62,258.47,660.93,258,659Z"/><path class="cls-4" d="M265.27,609.19c1.67-1.55,2.65-1.45,3.69-.76C268.13,609.55,267,608.77,265.27,609.19Z"/><path class="cls-4" d="M261.15,660.12H264C262.31,661.05,262.31,661.05,261.15,660.12Z"/><path class="cls-4" d="M268.85,662.88H266C267.69,662,267.69,662,268.85,662.88Z"/><path class="cls-4" d="M272,664c-1-.38-2.53.93-3-1C270,663.38,271.53,662.07,272,664Z"/><path class="cls-4" d="M275,665c-1-.38-2.53.93-3-1C273,664.38,274.53,663.07,275,665Z"/><path class="cls-4" d="M552.88,479.15V482C552,480.31,552,480.31,552.88,479.15Z"/><path class="cls-4" d="M278,666c-1-.38-2.53.93-3-1C276,665.38,277.53,664.07,278,666Z"/><path class="cls-4" d="M278,666c1,.38,2.53-.93,3,1C280,666.62,278.47,667.93,278,666Z"/><path class="cls-4" d="M281.15,667.12H284C282.31,668.05,282.31,668.05,281.15,667.12Z"/><path class="cls-4" d="M298.86,668.48a2.89,2.89,0,0,1,3.27,0A2.89,2.89,0,0,1,298.86,668.48Z"/><path class="cls-4" d="M288.85,669.88H286C287.69,669,287.69,669,288.85,669.88Z"/><path class="cls-4" d="M292,671c-1-.38-2.53.93-3-1C290,670.38,291.53,669.07,292,671Z"/><path class="cls-4" d="M292.15,671.12H295C293.31,672.05,293.31,672.05,292.15,671.12Z"/><path class="cls-4" d="M728.73,597.8c-.93-.83-.88-1.72-.28-2.88C729.36,595.93,728.73,596.91,728.73,597.8Z"/><path class="cls-4" d="M724.81,587.27c1.55,1.67,1.45,2.65.76,3.69C724.45,590.13,725.23,589,724.81,587.27Z"/><path class="cls-4" d="M266.73,608.81c-1.67,1.55-2.65,1.45-3.69.76C263.87,608.45,265,609.23,266.73,608.81Z"/><path class="cls-4" d="M724,584c-1.93-.47-.62-2-1-3C724.93,581.47,723.62,583,724,584Z"/><path class="cls-4" d="M527.87,502.5a2.86,2.86,0,0,1,3.26,0A2.86,2.86,0,0,1,527.87,502.5Z"/><path class="cls-4" d="M475.73,482.8c-.93-.83-.88-1.72-.28-2.88C476.36,480.93,475.73,481.91,475.73,482.8Z"/><path class="cls-4" d="M311.13,664.48a2.89,2.89,0,0,1-3.26,0A2.85,2.85,0,0,1,311.13,664.48Z"/><path class="cls-2" d="M733,533h12.75c.5,2.19.17,4.48.23,6.73s0,4.61,0,7.09H733.17C732.81,542.34,733.06,537.67,733,533Z"/><path class="cls-2" d="M533.1,733h13.65c.5,2,.19,4.15.24,6.23s0,4.28,0,6.59H533.2c-.46-2-.13-4.3-.18-6.55S533.06,735.07,533.1,733Z"/><path class="cls-2" d="M546.91,747.17v6.66h-13.7c-.5-2-.05-4.26-.27-6.66Z"/><path class="cls-2" d="M726.16,533.09h5.68v13.65h-5.68Z"/><path class="cls-2" d="M729,443h12.88c0,1.9.1,3.82.12,5.75s0,3.95,0,6.25H729Z"/><path class="cls-2" d="M502.92,406.17v18.66H495c0-6,0-12.27,0-18.66Z"/><path class="cls-2" d="M568.83,475.91h-5.66V451.27h5.66Z"/><path class="cls-2" d="M401.83,812.91H389.17v-27.7c1.85-.47,4-.15,6.06-.2s4.29,0,6.6,0Z"/><path class="cls-2" d="M311.17,719.08h13.66v11.73c-2,.43-4.33.12-6.59.18s-4.6,0-7.07,0Z"/><path class="cls-2" d="M430.16,593.09h11.68v12.66H430.16Z"/><path class="cls-2" d="M389.16,770.09h4.68v13.58c-1.33.83-3,0-4.68.46Z"/><path class="cls-2" d="M427.91,421.17v13.66H399.2c-.45-2-.13-4.32-.19-6.57s0-4.62,0-7.09Z"/><path class="cls-2" d="M304.1,548h13.65c.5,2,.19,4.15.24,6.23s0,4.28,0,6.59H304.2c-.46-2-.13-4.3-.18-6.55S304.06,550.07,304.1,548Z"/><path class="cls-2" d="M404.92,436.17v5.66h-5.66v-5.66Z"/><path class="cls-2" d="M272.09,298.84V285.16H285c0,2.08,0,4.34,0,6.6v7.08Z"/><path class="cls-2" d="M208,397.9V384.25c2-.5,4.15-.19,6.23-.24s4.28,0,6.59,0v13.8c-2,.46-4.3.13-6.55.18S210.07,397.94,208,397.9Z"/><path class="cls-2" d="M206.83,390.92h-6.66v-6.66h6.66Z"/><path class="cls-4" d="M556,459a.77.77,0,0,1,1,.78c0,2.15,0,4.29,0,6.44a.77.77,0,0,1-1,.78Z"/><path class="cls-4" d="M555,455c.87-.06,1,.49,1,1.18V459c-.87.06-1-.49-1-1.18Z"/><path class="cls-4" d="M474.12,448.85V446C475.05,447.69,475.05,447.69,474.12,448.85Z"/><path class="cls-4" d="M473.88,449.15V452C473,450.31,473,450.31,473.88,449.15Z"/><path class="cls-4" d="M554,452c1.93.47.62,2,1,3C553.07,454.53,554.38,453,554,452Z"/><path class="cls-2" d="M790.92,243.17v12.66H778c0-1.9,0-4,0-6.08v-6.58Z"/><path class="cls-2" d="M883,391H870.24c-.5-2.19-.17-4.48-.23-6.73s0-4.61,0-7.09h12.83C883.19,381.66,882.94,386.33,883,391Z"/><path class="cls-2" d="M109,521v28.76c-2,.49-4.16.18-6.25.23s-4.28,0-6.75,0V521Z"/></svg>