<svg id="Layer_1" data-name="Layer 1" xmlns="http://www.w3.org/2000/svg" viewBox="0 0 1024 1024"><defs><style>.cls-1{fill:#fefefe;}.cls-2{fill:#7f7f7f;}.cls-3{fill:#bebb9e;}.cls-4{fill:#dedede;}</style></defs><path class="cls-1" d="M0,1024V0H1024V1024ZM911,274c3.84,0,7.68,0,11.53,0,.11,0,.27.2.34.34.32.59-.73.13.9.71h-7.62v67.66H959V242.53q-65.78-65.78-131.71-131.71H643V100.2c0-2,.39-4.1-.07-6-1.35-5.42-2.38-10.93-4.37-16.18-.93-2.45-1.14-5.41-2.67-7.35-3.69-4.63-6-10.26-10.77-14.09-2.54-2.06-4.45-4.77-7.23-6.66-4.14-2.83-8.79-4.58-13.11-7A34.4,34.4,0,0,0,589.41,39c-3-.15-6,0-9-.05a33.85,33.85,0,0,0-13.2,1.94c-5.53,2-11.06,4.31-15.85,7.51a57.85,57.85,0,0,0-16.29,16c-2.56,3.88-4.31,8.21-6.47,12.31-.61,1.16-.09,2.44-.67,3.21-1.44,1.9-.74,4.26-1.83,6.27S525,90.5,525,92.8q.1,52.5,0,105V203h-5.08q-47.25,0-94.5,0a15.16,15.16,0,0,0-4.73.57c-8.4,2.65-16.76,5.44-25,8.48s-16.93,5.77-25.34,8.8c-7.69,2.76-15.59,4.89-23.19,8-6.13,2.51-12.72,3.87-18.94,6.18a31.88,31.88,0,0,1-11.7,2c-12.83-.11-25.67,0-38.5,0h-5V387.05h-8.85v38.06h9v23.7c12.42.59,35.88.39,40-.37V267.11h9.61v80h-7.55v37.73H373V274.2h18.06v7.9h7.06V289c2.31,0,4.46,0,6.6,0s4.23-.24,6.45.26v19.62h87.89v-52h70.06V232.84H577V173.2h10.06v32.9h27.78V239H579.78a.83.83,0,0,0-.43.15,2.38,2.38,0,0,0-.35.36c0,5-.25,10,.07,15,.34,5.27-1.48,10-2.83,14.85-1,3.44-2.39,6.71-3.22,10.17-1.49,6.19-3.64,12.18-5.49,18.25q-3.16,10.41-6.53,20.78c-1.75,5.44-3.46,10.89-5.19,16.32-1.26-.23-1.75,1-2.68,1.11-5,.72-9.57,2.61-14.34,4-8,2.33-16.13,4.46-24.11,7-4.72,1.5-9.57,2.61-14.32,4.06-4.14,1.26-8.26,2.72-12.4,3.75-2.86.72-5.68,1.75-8.58,2.41s-5.93,1.78-8.86,2.61c-5.23,1.47-10.3,3.63-15.77,4.26-.66.08-1.23,1-2,1.59V475.12H381c0,8.82,0,17.46,0,26.1a.89.89,0,0,0,.15.43,2.83,2.83,0,0,0,.32.36q31,0,62,0c.11,0,.26.2.34.34.35.57-.69.14,1,.7H332.13v7.06H423c-4.06,1.1-88.09,1.08-92.17.3v-7.3h-49.9v14.73H263.28c-.14-.29-.27-.42-.27-.56q0-50.25,0-100.5a.84.84,0,0,0-.14-.43,2.38,2.38,0,0,0-.35-.36H213c.16-6.89-.19-13.46.23-20H263V384.93h7.82V346.87h-8V283.09H96.2v55h16.57v9.06H45.2c-.64,12.86-.41,54.81.35,59.05h14.5v7.9h8.06v7.06H91.83V438H45.13V546.37l-39.95,40V612.9H36.06V598.13h8.7v121H40.18c-.72,16-.44,73.71.33,77.66H187.06V765.22h52.06V873H425.48l23.68,23.68V910h6.64v21.06h-6.57v34.06H514c0,5.81,0,11.46,0,17.1a.84.84,0,0,0,.16.42c.1.13.24.23.16.15h46.72V964.92h81.81V933.86h-5.69V913h5.89V849.05H715.2l87.58-87.59V718.88H787c0-6.08,0-12,0-18.06h16V638.94h56.06v-15.7h26.06v15.67h73.51c1.4-1.66,2.73-3.26,4-4.91,4.19-5.37,7.54-11.29,11.59-16.72,3-4,5.46-8.49,8.54-12.45,4-5.14,7.19-10.78,11.15-15.92,2.39-3.09,4.08-6.72,6.5-9.78,6-7.56,10.71-16,16.54-23.43V508.57l-55.36-55.38H888.94v23.59H871.15V427h48.06c7.93,0,15.87,0,23.79,0V348.9H910.8V288.84H906c0-2.64,0-5.11,0-7.58a48.75,48.75,0,0,1,.18-7.26ZM642.91,966.16H562c0,3,0,5.78,0,8.58s-.07,5.54.06,8.1h80.85Zm-130,0H449c0,3,0,5.76,0,8.57s-.07,5.54.06,8.11h63.85ZM45.1,436.85H91v-14.7H45.1ZM613.91,207.18H587c.17,7.39-.17,14.62.19,21.64h26.76ZM230.5,397c-.72,4.26-.69,14.25,0,17.82H263c0-5.81,0-11.45,0-17.08a.78.78,0,0,0-.18-.42,2.17,2.17,0,0,0-.36-.32Zm-16.42,17.83H229c0-5.79,0-11.42,0-17.05a.89.89,0,0,0-.15-.43c-.09-.14-.22-.24-.16-.18h-14.6ZM912.15,288V342.9h2.68V275.24h-7.67V288ZM788.09,717.82H803c0-2.81,0-5.45,0-8.09s.1-5.18,0-7.55H788.09ZM389.92,275.17H374c0,2.46,0,4.77,0,7.07s-.25,4.55.18,6.59h15.73Zm-110,228H264c0,2.48-.05,4.78,0,7.09s-.26,4.54.19,6.57h15.71Zm-221-96H45v7.08c0,2.26,0,4.52,0,6.6h13.9ZM454.84,929.91V911.26h-5.68v18.65Zm-411-317V599.26H37.16v13.65ZM643,933c0-6.33.07-12.67-.07-18.82h-5c0,6.39-.06,12.61.07,18.82ZM60.09,420.84h6.66v-5.68H60.09ZM391.16,283.09v5.66h5.68v-5.66Z"/><path class="cls-2" d="M235,416h27.5a2.38,2.38,0,0,1,.35.36.84.84,0,0,1,.14.43q0,50.25,0,100.5c0,.14.13.27.27.56h17.63V503.12h49.9v7.3c4.08.78,88.11.8,92.17-.3H332.13v-7.06h112.7c-1.67-.56-.63-.13-1-.7-.08-.14-.23-.34-.34-.34q-31,0-62,0a2.83,2.83,0,0,1-.32-.36.89.89,0,0,1-.15-.43c0-8.64,0-17.28,0-26.1h71.78V365.65c.74-.63,1.31-1.51,2-1.59,5.47-.63,10.54-2.79,15.77-4.26,2.93-.83,5.92-1.95,8.86-2.61s5.72-1.69,8.58-2.41c4.14-1,8.26-2.49,12.4-3.75,4.75-1.45,9.6-2.56,14.32-4.06,8-2.53,16.07-4.66,24.11-7,4.77-1.38,9.39-3.27,14.34-4,.93-.14,1.42-1.34,2.68-1.11,1.73-5.43,3.44-10.88,5.19-16.32q3.35-10.37,6.53-20.78c1.85-6.07,4-12.06,5.49-18.25.83-3.46,2.27-6.73,3.22-10.17,1.35-4.89,3.17-9.58,2.83-14.85-.32-5-.07-10-.07-15a2.38,2.38,0,0,1,.35-.36.83.83,0,0,1,.43-.15h35.07V206.1H587.07V173.2H577v59.64h-7.88V256.9H499.07v52H411.18V289.27c-2.22-.5-4.35-.21-6.45-.26s-4.29,0-6.6,0v-6.9h-7.06v-7.9H373V384.83H315.24V347.1h7.55v-80h-9.61V448.44c-4.16.76-27.62,1-40,.37v-23.7h-9V387.05H273V237h5c12.83,0,25.67-.07,38.5,0a31.88,31.88,0,0,0,11.7-2c6.22-2.31,12.81-3.67,18.94-6.18,7.6-3.12,15.5-5.25,23.19-8,8.41-3,17-5.71,25.34-8.8s16.61-5.83,25-8.48a15.16,15.16,0,0,1,4.73-.57q47.25-.07,94.5,0H525v-5.21q0-52.5,0-105c0-2.3.1-4.62,1.15-6.54s.39-4.37,1.83-6.27c.58-.77.06-2,.67-3.21,2.16-4.1,3.91-8.43,6.47-12.31a57.85,57.85,0,0,1,16.29-16c4.79-3.2,10.32-5.46,15.85-7.51A33.85,33.85,0,0,1,580.41,39c3,.1,6-.1,9,.05A34.4,34.4,0,0,1,604.78,43c4.32,2.41,9,4.16,13.11,7,2.78,1.89,4.69,4.6,7.23,6.66,4.72,3.83,7.08,9.46,10.77,14.09,1.53,1.94,1.74,4.9,2.67,7.35,2,5.25,3,10.76,4.37,16.18.46,1.88.07,4,.07,6v10.62H827.29q66,66,131.71,131.71V342.75H916.15V275.09h7.62c-1.63-.58-.58-.12-.9-.71-.07-.14-.23-.34-.34-.34-3.85,0-7.69,0-11.53,0-4.31-5.39-9.62-9.81-14.31-14.83-2.56-2.73-5.6-5-7.69-8.17V233H861.81l-48.87-48.87V162.44c-4.81-7.24-9.59-14.41-14.12-21.22H755.88v8.92H674c.09.81-.18,1.35.64,1.86h87.63a.8.8,0,0,1,.43.17,4.62,4.62,0,0,1,.52.56v7.31h7.71v34.43c3,1.61,18.73,17.2,21.17,20.94l-9.14,9.16L809.34,251H817V383.09q-44.43.14-88.9.09v16.88h15V502.78l19.7,19.62v48.47H628.88V560.16h-9.7c-.61,13.5-.4,36.88.4,41h31.3v87.9H619.15v33.63c.29.14.42.27.56.27l72.5,0a.83.83,0,0,1,.43.15,3.78,3.78,0,0,1,.54.5V794.9H707c2.62-5.21,5.27-10.46,8.09-16V714.2H742c0,15.85,0,31.5,0,47.16,0,.13.14.28.25.38s.23.11.54.24V713h-27a.84.84,0,0,1-.43-.16c-.13-.09-.23-.24-.16-.16V585H830.81c3.56,0,7.1.13,10.6-1,4.32-1.33,8.8-2.15,13.17-3.28,6.32-1.64,12.66-3.2,19-4.8,4.38-1.1,8.78-2.16,13.15-3.28,6.18-1.57,12.4-3,18.54-4.72,3.87-1.09,7.93-1.58,11.63-3.34v-17.5c-2.57-.79-5.35-1.11-7.52-2.43a34.39,34.39,0,0,0-9.06-3.45c-3.32-.9-6.38-2.43-9.64-3.41a90.9,90.9,0,0,1-12.24-4.17,60.74,60.74,0,0,0-9.07-3.41c-3.29-.94-6.37-2.43-9.63-3.42-4.12-1.24-8.41-2.32-12.26-4.13a64.39,64.39,0,0,0-9.05-3.47c-3.28-1-6.49-2.22-9.62-3.4-5-1.91-10.33-3.07-15.21-5.55-3.53-1.8-7.63-2.45-11.47-3.62V476.91h23.73V427.85H817V383.09q63-.13,126-.09v44c-7.92.08-15.86,0-23.79,0H871.15v49.78h17.79V453.19h72.69L1017,508.57V555.7c-5.83,7.43-10.55,15.87-16.54,23.43-2.42,3.06-4.11,6.69-6.5,9.78-4,5.14-7.17,10.78-11.15,15.92-3.08,4-5.52,8.41-8.54,12.45-4,5.43-7.4,11.35-11.59,16.72-1.28,1.65-2.61,3.25-4,4.91H885.15V623.24H859.09v15.7H803v61.88H787c0,6.07,0,12,0,18.06h15.78v42.58L715.2,849.05H643.06V913h-5.89v20.89h5.69v31.06H561.05v17.89H514.33c.08.08-.06,0-.16-.15a.84.84,0,0,1-.16-.42c0-5.64,0-11.29,0-17.1H449.23V931.08h6.57V910h-6.64V896.66L425.48,873H239.12V765.22H187.06v31.59H40.51c-.77-3.95-1-61.66-.33-77.66h4.58v-121h-8.7V612.9H5.18V586.32l40-40V438h46.7V421.14H68.11v-7.06H60.05v-7.9H45.55c-.76-4.24-1-46.19-.35-59.05h67.57v-9.06H96.2v-55H262.84v63.78h8v38.06H263V396H235q0-24.11,0-48.22a.86.86,0,0,0-.15-.43,2.18,2.18,0,0,0-.32-.35H233V313.17c-16.94-.7-89.68-.42-94,.35V531.19h7.82V581h-7.63V719h149a.84.84,0,0,1,.43.16,2.33,2.33,0,0,1,.34.36V766q0,24.74,0,49.46c0,.12.19.26.32.36.51.42.16-.64.67,1.08V766c2.18,2.84,2.16,2.9,5.77,4a11.23,11.23,0,0,1,2.68.81,3.92,3.92,0,0,0,3.68-.29,9.31,9.31,0,0,1,3.87-1.59,3.33,3.33,0,0,0,2.88-2.87,8,8,0,0,1,1.29-3.49,4.62,4.62,0,0,0,.09-4.87,35.15,35.15,0,0,1-1.61-5.79l-5.73-3h-3.69V719.15h39.92V826.83H377q0-99.71,0-199.07a.84.84,0,0,1,.16-.42,2.69,2.69,0,0,1,.35-.33h69l15.85,15.85h6.76V563h35c3.85-2.52,6.8-5.73,10.4-8.2,2.41-1.67,4.76-3.93,4.42-7.75A39.48,39.48,0,0,0,506,542.69l-1.3-1.5H394.94v31.68H332.35c-3.45-2.64-7.13-5.19-10.81-7.55-6.87-4.41-13.43-9.26-20.24-13.73a13.59,13.59,0,0,0-8-2.62q-35,.07-70,0c-1.44,0-3,.37-4.21-.28V491c2.78,0,5.42,0,8.06,0a72.15,72.15,0,0,0,7.79-.13V416ZM959,569c.12.61-.3,1.31.33,1.84,1,0,2.28,1,2.67-.84,1.72-1.23,1.87-3.41,3-5,1.7-.31,1-2.24,2-3,1.72-1.23,1.87-3.41,3-5,1.72-1.23,1.87-3.41,3-5,1.72-1.23,1.87-3.41,3-5,1.7-.31,1-2.24,2-3a11.22,11.22,0,0,0,3.11-6.26A6.43,6.43,0,0,0,976,535c-.31-1.7-2.24-1-3-2a11,11,0,0,0-5.29-3c-.63-.19-1.71-.36-1.71,1-1.81,2-3.17,4.16-3,7h-1.43c-.91,1.54-1.88,3.07-1.57,5h-1.76c-.08,1.63-1.62,2.5-1.24,4-1.93.47-.62,2-1,3h-1.43c-.91,1.54-1.88,3.07-1.49,5h-1.62l-3.63,7.37c2.42,1.87,3.73,2.17,4,1-.34-.85-1.85.24-1.87-1.15.8-2.48,2.72-4.51,3-7.22,2.27-.91,2.65-3,3-5,1.93-.47.62-2,1-3h1.76c.08-1.63,1.62-2.5,1.24-4,1.72-1.23,1.87-3.41,3-5,1.81-2,3.17-4.16,3-7a4.32,4.32,0,0,1,2.21.59c1.44.79,2.95,1.8,4.79,1.41v2h3v1.52l4,1.94a6.8,6.8,0,0,0-2,5.54h-2v3h-1.43c-.91,1.54-1.88,3.07-1.57,5h-1.43c-.91,1.54-1.88,3.07-1.57,5h-1.43c-.91,1.54-1.88,3.07-1.57,5h-2v3h-1.43c-.91,1.54-1.88,3.07-1.57,5-1.27.49-1.94-.86-3-1-.31-1.7-2.24-1-2.5-2.12L952.92,565c.12.91.17,1.34.25,1.89A21.71,21.71,0,0,1,956,567v2ZM777.89,254.34,765.56,242c-3.44,3.19-6.82,7-10.46,10.24l-22.2-22.2V189.11h-9.17l-7.28,3.72h-71.4c-.18-6.72.13-13.29-.17-19.64H635v83.87H601c.28,5.78,0,11.09,1.81,16.55a47.62,47.62,0,0,1,2.36,16.08c-.35,15.31-.12,30.62-.12,45.54,5.39,9.49,8.8,19.49,14.11,28.74v59.11H636c0,6.34.06,12.32,0,18.31a7.26,7.26,0,0,0,2,5.75c.19-2.88-1.36-5.18-1.05-7.79a70.66,70.66,0,0,0,.08-8.49v-8h38.12V317c8.16,0,16,0,23.81,0a8.82,8.82,0,0,1,4.1,1c7.07,3.44,13.93,7.27,21.29,10.15,5.14,2,9.9,5,14.85,7.56a11.49,11.49,0,0,0,5.45,1.39c17.32-.09,34.65-.05,52-.05h4.28V289.07h-9.3l-23.49-23.5c-.09-.09-.07-.31-.08-.47s0-.33,0-.88ZM519.79,567.43c.62,2.37,2.41,1.71,2.63,1.49,2.25-2.2,5.52-2,8-3.69s5.36-2.19,8.46-3.37v9.26h8.22V625c6.07,0,12,0,18-.06V571h15.87v-52h95v-48h16.7v-18H643.34c-.64-1.42-1.2-2.65-1.79-3.94-1.18,1.47-.26,2.67.24,3.9-15.07.64-48.68.41-53-.4V381.11h-5.88V397H557.13a8.85,8.85,0,0,0-4.11.93c-5.66,2.82-11.23,5.78-17.12,8.15-5.56,2.24-10.85,5.18-16.27,7.78q-14.37,6.92-28.77,13.78a10.82,10.82,0,0,1-5.44,1.41c-3.44-.19-6.89-.05-10.3-.05v46.09h33v14.66h17V475.1h13.64v84.26Zm151.12,201.4H575.16c-.62-15.43-.4-41.81.39-45.83.47,0,1,.16,1.33-.38v-9.53H519.59l-44-44H438.91v51H424.23V830H425v-92.8h26V745h7.88v95.57c-2,2-3.91,3.85-5.75,5.77a59.21,59.21,0,0,0-5.5,5.76c3.87,3.87,7.47,7.53,11.14,11.13S466,870.91,470,874.16L493.16,851v-71.9h156.3c3.26,5.24,4.66,11.38,8.74,15.75h12.71ZM81.17,573.08v41c7.39-.2,14.62.18,21.66-.22V573.08ZM84,765.82h16V758h7.88v-16.8H76c0,3,0,5.77,0,8.57s-.06,5.53.07,8.43H84ZM739.83,606.19l-.83,0q0,38.13,0,76.27c0,.13.18.27.3.37.49.46.17-.6.52.64Zm-19.91-70H704c0,2.8,0,5.44,0,8.07a70.31,70.31,0,0,0,.12,7.59h15.79Z"/><path class="cls-3" d="M943,383H817V251h72c2.09,3.17,5.13,5.44,7.69,8.17,4.69,5,10,9.44,14.31,14.83h-4.81a48.75,48.75,0,0,0-.18,7.26c0,2.47,0,4.94,0,7.58h4.8V348.9H943Zm-63.17-58V304.25H832.16V340h16V325Z"/><path class="cls-3" d="M139,469V347h16c0,3,0,5.62,0,8.26s-.1,5.19.05,7.56h18V347h61.48a2.18,2.18,0,0,1,.32.35.86.86,0,0,1,.15.43q0,24.11,0,48.22H213.19c-.42,6.54-.07,13.11-.23,20h22v53H194c0-2.78,0-5.25,0-7.73a51.91,51.91,0,0,0-.14-7.1H178c0,2.65,0,5.13,0,7.6s.26,4.87-.2,7.23Z"/><path class="cls-2" d="M642.91,966.16v16.68H562.06c-.13-2.56,0-5.33-.06-8.1s0-5.61,0-8.58Z"/><path class="cls-2" d="M512.91,966.16v16.68H449.06c-.13-2.57,0-5.34-.06-8.11s0-5.61,0-8.57Z"/><path class="cls-2" d="M45.1,436.85v-14.7H91v14.7Z"/><path class="cls-2" d="M613.91,207.18v21.64H587.15c-.36-7,0-14.25-.19-21.64Z"/><path class="cls-2" d="M230.5,397h31.95a2.17,2.17,0,0,1,.36.32.78.78,0,0,1,.18.42c0,5.63,0,11.27,0,17.08H230.52C229.81,411.25,229.78,401.26,230.5,397Z"/><path class="cls-2" d="M214.08,414.83V397.17h14.6c-.06-.06.07,0,.16.18a.89.89,0,0,1,.15.43c0,5.63,0,11.26,0,17.05Z"/><path class="cls-2" d="M912.15,288h-5V275.24h7.67V342.9h-2.68Z"/><path class="cls-2" d="M788.09,717.82V702.18h14.85c.15,2.37,0,5,0,7.55s0,5.28,0,8.09Z"/><path class="cls-2" d="M389.92,275.17v13.66H374.19c-.43-2-.12-4.33-.18-6.59s0-4.61,0-7.07Z"/><path class="cls-2" d="M279.91,503.17v13.66H264.2c-.45-2-.13-4.32-.19-6.57s0-4.61,0-7.09Z"/><path class="cls-2" d="M58.91,407.16v13.68H45c0-2.08,0-4.34,0-6.6v-7.08Z"/><path class="cls-2" d="M454.84,929.91h-5.68V911.26h5.68Z"/><path class="cls-2" d="M43.84,612.91H37.16V599.26h6.68Z"/><path class="cls-2" d="M643,933h-5c-.13-6.21,0-12.43-.07-18.82h5C643.08,920.33,643,926.67,643,933Z"/><path class="cls-2" d="M60.09,420.84v-5.68h6.66v5.68Z"/><path class="cls-2" d="M391.16,283.09h5.68v5.66h-5.68Z"/><path class="cls-1" d="M139,469h38.79c.46-2.36.14-4.81.2-7.23s0-4.95,0-7.6h15.85a51.91,51.91,0,0,1,.14,7.1c0,2.48,0,5,0,7.73h41v21.86a72.15,72.15,0,0,1-7.79.13c-2.64.05-5.28,0-8.06,0v57.7c1.26.65,2.77.28,4.21.28q35,0,70,0a13.59,13.59,0,0,1,8,2.62c6.81,4.47,13.37,9.32,20.24,13.73,3.68,2.36,7.36,4.91,10.81,7.55h62.59V541.19H504.72l1.3,1.5A39.48,39.48,0,0,1,519,547.07c.34,3.82-2,6.08-4.42,7.75-3.6,2.47-6.55,5.68-10.4,8.2h-35v79.84h-6.76L446.51,627h-69a2.69,2.69,0,0,0-.35.33.84.84,0,0,0-.16.42q0,99.45,0,199.07H339.15V719.15H299.23v29.77h3.69l5.73,3a35.15,35.15,0,0,0,1.61,5.79,4.62,4.62,0,0,1-.09,4.87,8,8,0,0,0-1.29,3.49,3.33,3.33,0,0,1-2.88,2.87,9.31,9.31,0,0,0-3.87,1.59,3.92,3.92,0,0,1-3.68.29,11.23,11.23,0,0,0-2.68-.81c-3.61-1.06-3.59-1.12-5.77-4h-1V719.53a2.33,2.33,0,0,0-.34-.36.84.84,0,0,0-.43-.16h-149V581h7.63V531.19H139ZM297.84,748.82V719.25h-7.62c0,11.32,0,22.4,0,33.47,0,.07.22.14.42.25.21-.59.41-1.17.62-1.75C293.49,750.59,295.27,748.79,297.84,748.82ZM192.91,455.18H179c0,2.47-.05,4.78,0,7.09s-.27,4.53.19,6.55h13.71Z"/><path class="cls-1" d="M817,383.18v44.67h8.85v49.06H802.12v29.75c3.84,1.17,7.94,1.82,11.47,3.62,4.88,2.48,10.17,3.64,15.21,5.55,3.13,1.18,6.34,2.44,9.62,3.4a64.39,64.39,0,0,1,9.05,3.47c3.85,1.81,8.14,2.89,12.26,4.13,3.26,1,6.34,2.48,9.63,3.42a60.74,60.74,0,0,1,9.07,3.41,90.9,90.9,0,0,0,12.24,4.17c3.26,1,6.32,2.51,9.64,3.41a34.39,34.39,0,0,1,9.06,3.45c2.17,1.32,5,1.64,7.52,2.43v17.5c-3.7,1.76-7.76,2.25-11.63,3.34-6.14,1.71-12.36,3.15-18.54,4.72-4.37,1.12-8.77,2.18-13.15,3.28-6.33,1.6-12.67,3.16-19,4.8-4.37,1.13-8.85,2-13.17,3.28-3.5,1.09-7,1-10.6,1H715.18V712.67c-.07-.08,0,.07.16.16a.84.84,0,0,0,.43.16h27v49c-.31-.13-.46-.15-.54-.24s-.25-.25-.25-.38c0-15.66,0-31.31,0-47.16H715.1v64.66c-2.82,5.58-5.47,10.83-8.09,16H693.18V723.66a3.78,3.78,0,0,0-.54-.5.83.83,0,0,0-.43-.15l-72.5,0c-.14,0-.27-.13-.56-.27V689.09h31.73v-87.9h-31.3c-.8-4.15-1-27.53-.4-41h9.7v10.71H762.79V522.4l-19.7-19.62V400.06h-15V383.18Zm-87.83.9V399c2.46,0,4.77,0,7.07,0s4.55.25,6.59-.18V384.08Z"/><path class="cls-1" d="M777.89,254.34,768,264.22c0,.55,0,.72,0,.88s0,.38.08.47l23.49,23.5h9.3V337h-4.28c-17.32,0-34.65,0-52,.05a11.49,11.49,0,0,1-5.45-1.39c-4.95-2.53-9.71-5.54-14.85-7.56C717,325.22,710.1,321.39,703,318a8.82,8.82,0,0,0-4.1-1c-7.83,0-15.65,0-23.81,0V422.88H637v8a70.66,70.66,0,0,1-.08,8.49c-.31,2.61,1.24,4.91,1.05,7.79a7.26,7.26,0,0,1-2-5.75c.09-6,0-12,0-18.31H619.11V364c-5.31-9.25-8.72-19.25-14.11-28.74,0-14.92-.23-30.23.12-45.54a47.62,47.62,0,0,0-2.36-16.08c-1.8-5.46-1.53-10.77-1.81-16.55h34V173.19h9.93c.3,6.35,0,12.92.17,19.64h71.4l7.28-3.72h9.17v40.94l22.2,22.2c3.64-3.26,7-7.05,10.46-10.24Z"/><path class="cls-1" d="M519.79,567.43l19-8.07V475.1H525.17v14.65h-17V475.09h-33V429c3.41,0,6.86-.14,10.3.05a10.82,10.82,0,0,0,5.44-1.41q14.38-6.88,28.77-13.78c5.42-2.6,10.71-5.54,16.27-7.78,5.89-2.37,11.46-5.33,17.12-8.15a8.85,8.85,0,0,1,4.11-.93h25.81V381.11h5.88v71.32c4.29.81,37.9,1,53,.4-.5-1.23-1.42-2.43-.24-3.9.59,1.29,1.15,2.52,1.79,3.94h49.43v18h-16.7v48h-95v52H565.18v54c-6.07.11-12,0-18,.06V571.12h-8.22v-9.26c-3.1,1.18-6.09,1.8-8.46,3.37s-5.79,1.49-8,3.69C522.2,569.14,520.41,569.8,519.79,567.43Zm28.38,3.66V624c2.8,0,5.45,0,8.09,0s5.19.1,7.57,0V571.09Zm25-52v51c2.39-.3,4.65.19,6.68-.3V519.09Zm-64.08-30.26H524c0-2.47,0-4.77,0-7.08s.25-4.54-.18-6.58H509.08Z"/><path class="cls-1" d="M670.91,768.83v26H658.2c-4.08-4.37-5.48-10.51-8.74-15.75H493.16V851L470,874.16c-4-3.25-7.45-7.22-11.21-10.89s-7.27-7.26-11.14-11.13a59.21,59.21,0,0,1,5.5-5.76c1.84-1.92,3.76-3.78,5.75-5.77V745H451v-7.87H425V830h-.77V720.11h14.68v-51h36.71l44,44h57.29v9.53c-.32.54-.86.34-1.33.38-.79,4-1,30.4-.39,45.83Zm-245.83-33H439c0-2.63,0-5.1,0-7.57s.23-4.88-.15-7.09H425.08Zm27,8h6.66v-6.66h-6.66Z"/><path class="cls-1" d="M889,251H809.34l-26.41-26.42,9.14-9.16c-2.44-3.74-18.17-19.33-21.17-20.94V160.05h-7.71v-7.31a4.62,4.62,0,0,0-.52-.56.8.8,0,0,0-.43-.17H674.61c-.82-.51-.55-1.05-.64-1.86h81.91v-8.92h42.94c4.53,6.81,9.31,14,14.12,21.22v21.67L861.81,233H889ZM770.92,142.16H757.09v7.27l1.2,1.39h12.63Zm-6.84,16.67h7c-.21-2.4.21-4.65-.26-6.66h-6.72Z"/><path class="cls-1" d="M233,347H173v15.82h-18c-.15-2.37,0-5-.05-7.56s0-5.28,0-8.26H139V313.52c4.32-.77,77.06-1,94-.35Zm-76.83.08V362c2.81,0,5.45,0,8.09,0s5.19.1,7.57-.05V347.08Z"/><path class="cls-1" d="M81.17,573.08h21.66v40.75c-7,.4-14.27,0-21.66.22Z"/><path class="cls-4" d="M84,765.82v-7.65H76.07c-.13-2.9,0-5.67-.07-8.43s0-5.61,0-8.57h31.9V758H100v7.85Zm22.81-8.9V742h-29a.84.84,0,0,0-.43.16c-.13.09-.23.24-.16.17v14.58Zm-8,8V758c-2.48,0-4.78,0-7.08,0s-4.55-.25-6.58.18v6.73Z"/><path class="cls-4" d="M739.83,606.19v77.25c-.35-1.24,0-.18-.52-.64-.12-.1-.3-.24-.3-.37q0-38.13,0-76.27Z"/><path class="cls-4" d="M719.92,536.17v15.66H704.13a70.31,70.31,0,0,1-.12-7.59c0-2.63,0-5.27,0-8.07Zm-1.08,14.74V537H705.16v13.9Z"/><path class="cls-4" d="M289,766h1v50.9c-.51-1.72-.16-.66-.67-1.08-.13-.1-.32-.24-.32-.36Q289,790.73,289,766Z"/><path class="cls-4" d="M953.08,555c-.36,2.71-2.28,4.74-3.08,7.22,0,1.39,1.53.3,1.87,1.15-.31,1.17-1.62.87-4-1l3.63-7.37Z"/><path class="cls-4" d="M978,544a6.8,6.8,0,0,1,2-5.54l-4-1.94V535a6.43,6.43,0,0,1,5.11,2.74A11.22,11.22,0,0,1,978,544Z"/><path class="cls-4" d="M956,550c-.35,2-.73,4.09-3,5-.31-1.93.66-3.46,1.57-5Z"/><path class="cls-4" d="M963,538c-.17-2.84,1.19-5,3-7C966.17,533.84,964.81,536,963,538Z"/><path class="cls-4" d="M973,533c-1.84.39-3.35-.62-4.79-1.41A4.32,4.32,0,0,0,966,531c0-1.32,1.08-1.15,1.71-1A11,11,0,0,1,973,533Z"/><path class="cls-4" d="M957,547c-.38-1.5,1.16-2.37,1.24-4H960c.38,1.5-1.16,2.37-1.24,4Z"/><path class="cls-4" d="M976,547c-1.13,1.59-1.28,3.77-3,5-.31-1.93.66-3.46,1.57-5Z"/><path class="cls-4" d="M973,552c-1.13,1.59-1.28,3.77-3,5-.31-1.93.66-3.46,1.57-5Z"/><path class="cls-4" d="M963,538c-1.13,1.59-1.28,3.77-3,5-.31-1.93.66-3.46,1.57-5Z"/><path class="cls-4" d="M967,562c-.31-1.93.66-3.46,1.57-5H970C968.87,558.59,968.72,560.77,967,562Z"/><path class="cls-4" d="M962,570c-.31-1.93.66-3.46,1.57-5H965C963.87,566.59,963.72,568.77,962,570Z"/><path class="cls-4" d="M965,565v-3h2C966,562.76,966.7,564.69,965,565Z"/><path class="cls-4" d="M956.5,566.88h-3.33c-.08-.55-.13-1-.25-1.89Z"/><path class="cls-4" d="M959,569h-3v-2C956.76,568,958.69,567.3,959,569Z"/><path class="cls-4" d="M959,569c1.06.14,1.73,1.49,3,1-.39,1.88-1.7.82-2.67.84C958.7,570.31,959.12,569.61,959,569Z"/><path class="cls-4" d="M973,533c.76,1,2.69.3,3,2h-3Z"/><path class="cls-4" d="M976,547v-3h2C977,544.76,977.7,546.69,976,547Z"/><path class="cls-4" d="M956,550c.38-1-.93-2.53,1-3C956.62,548,957.93,549.53,956,550Z"/><path class="cls-4" d="M879.83,325H848.17v15h-16V304.25h47.67Zm-.92-19.84H833.24v33.68H847c0-2.63,0-5.1,0-7.58a47.59,47.59,0,0,1,.21-7.42h31.69Z"/><path class="cls-2" d="M297.84,748.82c-2.57,0-4.35,1.77-6.56,2.4-.21.58-.41,1.16-.62,1.75-.2-.11-.42-.18-.42-.25,0-11.07,0-22.15,0-33.47h7.62Z"/><path class="cls-2" d="M192.91,455.18v13.64H179.2c-.46-2-.13-4.3-.19-6.55s0-4.62,0-7.09Z"/><path class="cls-2" d="M729.17,384.08h13.66v14.73c-2,.43-4.33.12-6.59.18s-4.61,0-7.07,0Z"/><path class="cls-2" d="M548.17,571.09h15.66v52.85c-2.38.15-5,0-7.57,0s-5.29,0-8.09,0Z"/><path class="cls-2" d="M573.16,519.09h6.68V569.8c-2,.49-4.29,0-6.68.3Z"/><path class="cls-2" d="M509.08,488.83V475.17h14.73c.43,2,.12,4.33.18,6.58s0,4.61,0,7.08Z"/><path class="cls-2" d="M425.08,735.83V721.17h13.76c.38,2.21.1,4.66.15,7.09s0,4.94,0,7.57Z"/><path class="cls-2" d="M452.08,743.83v-6.66h6.66v6.66Z"/><path class="cls-2" d="M770.92,142.16v8.66H758.29l-1.2-1.39v-7.27Z"/><path class="cls-2" d="M764.08,158.83v-6.66h6.72c.47,2,.05,4.26.26,6.66Z"/><path class="cls-2" d="M156.17,347.08h15.66v14.86c-2.38.15-5,0-7.57.05s-5.28,0-8.09,0Z"/><path class="cls-2" d="M106.82,756.92H77.18V742.34c-.07.07,0-.08.16-.17a.84.84,0,0,1,.43-.16h29.05Z"/><path class="cls-2" d="M98.83,764.92H85.17v-6.73c2-.43,4.32-.12,6.58-.18s4.6,0,7.08,0Z"/><path class="cls-2" d="M718.84,550.91H705.16V537h13.68Z"/><path class="cls-2" d="M878.91,305.16v18.68H847.22a47.59,47.59,0,0,0-.21,7.42c0,2.48,0,4.95,0,7.58H833.24V305.16Z"/></svg>