<svg id="Layer_1" data-name="Layer 1" xmlns="http://www.w3.org/2000/svg" viewBox="0 0 1024 1024"><defs><style>.cls-1{fill:#fefefe;}.cls-2{fill:#7f7f7f;}.cls-3{fill:#a5a289;}.cls-4{fill:#959595;}</style></defs><path class="cls-1" d="M0,1024V0H1024V1024ZM294,838v93H258.94v9.06h-9.06v7.06h-14.7c-.63,14-.4,42.84.33,46.66h97.55V953.22h18.05v40.53h66.06V977c6.49,0,12.8,0,19.11,0,.23,0,.45.35,1.09.89H418.23v15.93H438c0-2.63,0-5.11,0-7.59s-.24-4.86.87-7.25v14.78h15V977.85H439.64c.48-.47.59-.69.71-.69,4.46,0,8.91,0,13.44,0v-15H438.88V976a57.51,57.51,0,0,1-.67-15.19h63.85V946.22h17.06V961h78.09c1.33,0,2.67,0,4,0a.77.77,0,0,0,.79-1h3v-3c1,.08,1-.61,1-1.29V944.94h12.08V923.36c1.31-.9,2.81.28,3.77-.69v-32.4c-.29-.14-.43-.26-.57-.26l-30.49,0a.75.75,0,0,1-.43-.15c-.14-.08-.25-.22-.19-.17V833h62.08a.77.77,0,0,0,.42-.17,5.05,5.05,0,0,0,.52-.57v-6.14h9.89v31.81c18.12.34,119.91.2,125.84-.17V828.39l2.08-.76c0-1.89,0-3.87,0-5.84a.76.76,0,0,1,1-.79v7.76l-1.81.47v28.66h15.63V776.1H792.2v19.77l2.48.27c.15.24.3.36.31.5.61,5.41-1.39,10.63-1.17,16,0,.1-.54.23-.82.35-.79-5.34,1.6-10.56.86-15.89l-2.62-.23v-22h40.58c.74-16.13.43-135.63-.39-140h-7.32V617.22h14v3.53H939.17V598.14l2.83-.31a20.17,20.17,0,0,1,0-3.89c.29-1.47-1.11-2.22-1.1-3.6a100,100,0,0,0-.8-16.1c-.72-4.73-.16-9.65-.13-14.48,0-.25.33-.51.51-.76.78-.18,1.66.35,2.35-.38.63-5.49.13-11,.89-16.56a135,135,0,0,0,1.29-24.56c-.29-6.15-.06-12.33-.06-18.49v-7H827v-170H750.91v-176H741v-14.7H724v7.61H686.91v-7.55H670.85V146h-25.1a.77.77,0,0,1-.42-.17,5.55,5.55,0,0,1-.52-.58V84.12H589.92v31H463.25V129H591.48c.12,0,.26.2.35.33.39.54-.66.15,1.09.7H463.12V177.1h32.73v24.69c-12.72.66-101.72.41-105.85-.29V128.31c1.49-.14.86-1.73,1.69-2.61,2.95-3.1,5.11-6.82,7.5-10.35,3-4.43,6.05-8.87,9.29-13.1,4.25-5.55,8.18-11.35,12.38-16.94,4-5.27,7.41-11,11.48-16.19a6.43,6.43,0,0,0,1.59-3.3c.15-5.93.07-11.87.07-17.67H403.28c-.75,1.31.35,2.79-.61,3.7H283.29c-.77-1.29.33-2.78-.59-3.69H250V68.24c0,11.82,0,23.65,0,35.47,0,.8.7,2.11-1,2.29H214v93h-15v5.73H190V162.21c-12-.61-50.93-.4-54.83.27V353h54.08a.85.85,0,0,1,.42.17c.13.1.22.24.15.16V500H55.2v78H247.79v136H195.23V844.85h46.56c.64-2.34-.34-4.7.54-6.85Zm367.92-3.83H606c0,7.8,0,15.43,0,23.07a.84.84,0,0,0,.16.42c.1.13.24.23.18.17h55.57ZM334.17,954.08V994c2.8,0,5.44,0,8.08,0s5.2.09,7.58-.06V954.08ZM722.9,131.17H688.1v6.66h34.8ZM622,946c-2.41,0-4.84,0-7.27,0-2.59,0-5.19-.1-7.55,0V961c2.64,0,5.12,0,7.59,0s4.86.25,7.23-.19Zm24.16-814.91V145c2.64,0,5.11,0,7.58,0a53.59,53.59,0,0,0,7.1-.14V131.09ZM235.08,945.83H249c0-2.63,0-5.1,0-7.57s.23-4.88-.15-7.09H235.08Zm282.83,1.33H503c0,2.47,0,4.77,0,7.08s-.24,4.55.17,6.6h14.73ZM669.84,144.91v-14c-2.73.23-5.31-.16-7.68.22v13.76Zm72.24-.08h7.67V131.17h-7.67ZM242.76,847.17H194.34a1.37,1.37,0,0,0-.1,1.66h48.42A1.37,1.37,0,0,0,242.76,847.17Zm376.41,76.92v20.82h2.66V924.09ZM251.09,938.84h6.66v-6.68h-6.66Zm403-107h8.07c-.49-1.72.35-3.35-.49-4.68h-7.58Z"/><path class="cls-2" d="M390,156v45.5c4.13.7,93.13.95,105.85.29V177.1H463.12V130h129.8c-1.75-.55-.7-.16-1.09-.7-.09-.13-.23-.33-.35-.33H463.25V115.11H589.92v-31h54.89v61.12a5.55,5.55,0,0,0,.52.58.77.77,0,0,0,.42.17h25.1V131.24h16.06v7.55H724v-7.61h17v14.7h9.91V321.93H827V492H945v7c0,6.16-.23,12.34.06,18.49a135,135,0,0,1-1.29,24.56c-.76,5.57-.26,11.07-.89,16.57-.69.72-1.57.19-2.35.37-.18.25-.51.51-.51.76,0,4.83-.59,9.75.13,14.48a100,100,0,0,1,.8,16.1c0,1.38,1.39,2.13,1.1,3.6a20.17,20.17,0,0,0,0,3.89l-2.83.31v22.61H838.11v-3.53h-14v17.59h7.32c.82,4.41,1.13,123.91.39,140H791.24v22l2.62.23c.74,5.33-1.65,10.55-.86,15.89-.92-.07-1,.55-1,1.23V821a.76.76,0,0,0-1,.79c0,2,0,4,0,5.84l-2.08.76v29.36c-5.93.37-107.72.51-125.84.17V826.11h-9.89v6.14a5.05,5.05,0,0,1-.52.57.77.77,0,0,1-.42.17H590.17v56.67c-.06,0,.05.09.19.17a.75.75,0,0,0,.43.15l30.49,0c.14,0,.28.12.57.26v32.4c-1,1-2.46-.21-3.77.69v21.58H606v10.77c0,.68,0,1.37-1,1.29-1-1.37-2-1.37-3,0-1.37,1-1.37,2,0,3a.77.77,0,0,1-.79,1c-1.33.06-2.67,0-4,0H519.12V946.22H502.06v14.59H438.21a57.51,57.51,0,0,0,.67,15.19V962.13h14.91v15c-4.53,0-9,0-13.44,0-.12,0-.23.22-.71.69h14.21v15.93h-15V979c-1.11,2.39-.82,4.84-.87,7.25s0,5,0,7.59H418.23V977.91h19.14c-.64-.54-.86-.89-1.09-.89-6.31,0-12.62,0-19.11,0v16.75H351.11V953.22H333.06v40.59H235.51c-.73-3.82-1-32.7-.33-46.66h14.7v-7.06h9.06V931H294V914h21c0-3,0-5.62,0-8.26s-.11-5.19.06-7.74H362v16.77h37.09V855h15.8V838H375V779h40V766.2h39V914.8h64V857.91h16.78V841h-6.56c-.68,0-1.37,0-1.29-1a.77.77,0,0,0,1-.78c0-2.15,0-4.29,0-6.44a5.55,5.55,0,0,1-1.76-1.76c-2.15,0-4.29,0-6.44,0a.77.77,0,0,0-.78,1c-1,.08-1-.61-1-1.29V797.2h72.07v4.57h16.06V761.85h83.7V737H607.19V698.11c5.06-.38,10,.27,14.8-.37,0-.86.06-1.37-.73-1.86h-14v-66H622V614h15.85V605.9h-80V586.25H506V665.6l35.8,35.76v24.7H440.43c-.92.93.13,2.17-1.1,3.05H402.24v34h11.67v14.65H294.11V764.92h91.76v-67h-48V642.2c-12.51-.62-47.79-.4-52,.34V738H270v16.06H226.23v32h15.69c.26,8.07-.16,16,.24,23.87H294v28H242.33c-.88,2.15.1,4.51-.54,6.85H195.23V714.09h52.56v-136H55.2V500H189.82V353.34c.07.08,0-.06-.15-.16a.85.85,0,0,0-.42-.17H135.17V162.48c3.9-.67,42.83-.88,54.83-.27v42.56h8.93V199h15V106h35v23h-9.78v68.89H294V156ZM687,584a3.43,3.43,0,0,0,0,5,.76.76,0,0,1-.79,1c-2,0-4,0-5.88,0-.27,1.35-.87,2.12-2.09,2.26v12.35c.66.63,1.59,0,1.59,1.42h-9.71v8.06h32.73v53H670.17V698H718v64.05h8.06v16.78H743c0-22.13,0-44.1,0-66.07a.89.89,0,0,1,.15-.43,1.8,1.8,0,0,1,.32-.35h39l7.37-7.37V511.89H763.16V492c7.72-.15,15.29.12,22.66-.15V397H701.21v-19h16.55V345.85H701V275.26q0-34,0-68c0-1.69-.43-3.48,1-5.35H653.9V186.24H631.17V191h6.63v29.87H606.23v-30h6.71c0-1.76.34-3.35-.3-5.05H590V170.21H542.13v16.66c10.62,10.61,21.21,21.21,31.65,31.65v47.59H523.24V330l.76,0V307.2h30.88v63.1c-3.62,2.38-6.06,5.53-8.88,8.23s-5.44,5.41-8.15,8.12l-8.11,8.11H461.85V374c-2.82,0-5.46,0-8.11,0s-5.19-.11-7.93.08v12h-7.9v8.79H394v-4.06c0-7.5,0-15,0-22.5,0-.8.7-2.11-1-2.29V353.09h-2V366c-1.68.18-1,1.49-1,2.29,0,8.34,0,16.67,0,25V419.8H361.92V385.89H330.86V371.06a104.23,104.23,0,0,1-10.72-.87c-4.5-.78-9.24-.19-14.22-.19v52.11H222.11v85.15l22.75,18.92h53v51.89H286.13v35h72V666h70.09a.83.83,0,0,1,.43.17,4.62,4.62,0,0,1,.52.56v15.15h16.89v-16h27.67V649.83H442.1V595h31.77V585.9h-24V537.79c-1.4.62-2.74-.46-3.58.41-.64,1.41.17,2.63-.8,3.84H434.4l-19.75,19.78H390.11V474.93h29V459.24h27.06v58.63c1.42.07,2.7.52,3.81-.33.08-.56-.13-1.11.74-1.61H461.1v-8.78H506c0,3,0,5.76,0,8.57s-.06,5.54.05,8.1h16V507.21h34.83v32.91H506c4,1.09,48.05,1.08,52.17.3V518.94h7.9v-7.79h25v30.68H605.9V426H592.13V401.9h60.72V254H629.29c-7.77,0-15.54.06-23.11-.05V222.1H685.8v204H638.22v85.05H694v58.09c0,4.33,0,8.66,0,13,0,.72.4,1.78-1,1.79A4.78,4.78,0,0,0,687,584ZM222.18,290V398h19.11a.75.75,0,0,0,.41-.2,2.08,2.08,0,0,0,.24-.34l-.35-.36a3.85,3.85,0,0,1-.35-.35,1,1,0,0,1-.23-.4c0-.5,0-1,0-1.5v-97a1,1,0,0,1,.1-.46,3.42,3.42,0,0,1,.52-.52H298.3c-.71-1.07.24-2.08-1-3.06h-10.2V267.19h77.8V280.9H346.73c-8.11,4.93-16.8,7.93-24.68,12.17,0,1.5-.32,2.64.33,3.93h15.8v9.85a15.78,15.78,0,0,0,1.7,1.14c4.86,2.35,10,4.23,14.52,7.12,6.43,4.12,13.43,7.1,20,10.86,4.3,2.45,8.75,4.62,13,6.85H394V317.15h30.28c7.33,3.67,14.55,7.19,21.67,10.9a9.39,9.39,0,0,0,4.61,1q17.49,0,35,0h4.3V266.34c-1.25-.88-2.76.29-4-.95V249.85h-32V234.1H422v46.78h-56V250.14H349.87v15.7H287c0-2,.07-3.78,0-5.59s.35-3.57-.31-5.44H244v-6.26c-3.79-4.57-8.95-7.17-12.47-11.74H199v-6.59h-9.06v51.91H169.16V290Z"/><path class="cls-3" d="M390,156H294V145.84h15.85V129H249V106c1.67-.18,1-1.49,1-2.29,0-11.82,0-23.65,0-35.47V48.16h32.7c.92.91-.18,2.4.59,3.69H402.67c1-.91-.14-2.39.61-3.7H434c0,5.8.08,11.74-.07,17.67a6.43,6.43,0,0,1-1.59,3.3c-4.07,5.23-7.51,10.92-11.48,16.19-4.2,5.59-8.13,11.39-12.38,16.94-3.24,4.23-6.29,8.67-9.29,13.1-2.39,3.53-4.55,7.25-7.5,10.35-.83.88-.2,2.47-1.69,2.61Zm-32.17-47.08V94h-30a.89.89,0,0,0-.44.15c-.13.08-.24.22-.18.17v14.59Z"/><path class="cls-3" d="M294,838V779.21h33.07V793.8h15V779H375v59H361.88v28.08H346.2v16H362v16H315.07c-.17,2.55,0,5.15-.06,7.74s0,5.28,0,8.26H294Z"/><path class="cls-2" d="M661.92,834.17v23.66H606.35c.06.06-.08,0-.18-.17a.84.84,0,0,1-.16-.42c0-7.64,0-15.27,0-23.07Z"/><path class="cls-2" d="M793,813c.28-.12.82-.25.82-.35-.22-5.38,1.78-10.6,1.17-16,0-.14-.16-.26-.31-.5l-2.48-.27V776.1h13.62v81.79H790.19V829.23l1.81-.47V821c.92.07,1-.55,1-1.23Z"/><path class="cls-2" d="M334.17,954.08h15.66v39.86c-2.38.15-5,0-7.58.06s-5.28,0-8.08,0Z"/><path class="cls-2" d="M722.9,131.17v6.66H688.1v-6.66Z"/><path class="cls-2" d="M622,946v14.8c-2.37.44-4.81.13-7.23.19s-4.95,0-7.59,0V946.06c2.36-.15,5,0,7.55,0C617.16,946,619.59,946,622,946Z"/><path class="cls-2" d="M646.16,131.09h14.68v13.76a53.59,53.59,0,0,1-7.1.14c-2.47,0-4.94,0-7.58,0Z"/><path class="cls-2" d="M235.08,945.83V931.17h13.76c.38,2.21.1,4.66.15,7.09s0,4.94,0,7.57Z"/><path class="cls-2" d="M517.91,947.16v13.68H503.18c-.41-2.05-.11-4.34-.17-6.6s0-4.61,0-7.08Z"/><path class="cls-2" d="M669.84,144.91h-7.68V131.15c2.37-.38,5,0,7.68-.22Z"/><path class="cls-2" d="M742.08,144.83V131.17h7.67v13.66Z"/><path class="cls-2" d="M242.76,847.17a1.37,1.37,0,0,1-.1,1.66H194.24a1.37,1.37,0,0,1,.1-1.66Z"/><path class="cls-2" d="M619.17,924.09h2.66v20.82h-2.66Z"/><path class="cls-2" d="M251.09,938.84v-6.68h6.66v6.68Z"/><path class="cls-2" d="M654.09,831.84v-4.68h7.58c.84,1.33,0,3,.49,4.68Z"/><path class="cls-2" d="M605,957v3h-3v-3Z"/><path class="cls-1" d="M393,366c1.67.18,1,1.49,1,2.29,0,7.5,0,15,0,22.5v4.06h43.91v-8.79h7.9v-12c2.74-.19,5.34-.06,7.93-.08s5.29,0,8.11,0v20.76h67.89l8.11-8.11c2.71-2.71,5.38-5.47,8.15-8.12s5.26-5.85,8.88-8.23V307.2H524V330l-.76,0V266.11h50.54V218.52c-10.44-10.44-21-21-31.65-31.65V170.21H590v15.61h22.68c.64,1.7.3,3.29.3,5.05h-6.71v30H637.8V191h-6.63v-4.77H653.9v15.68h48.15c-1.47,1.87-1,3.66-1,5.35q0,34,0,68v70.59h16.76v32.06H701.21v19h84.61v94.93c-7.37.27-14.94,0-22.66.15v19.85h26.71V704.63L782.5,712h-39a1.8,1.8,0,0,0-.32.35.89.89,0,0,0-.15.43c0,22,0,43.94,0,66.07H726.1V762.07H718V698H670.17V667.14h32.68v-53H670.12V606h9.71c0-1.46-.93-.79-1.59-1.42V592.26c1.22-.14,1.82-.91,2.09-2.26,1.93,0,3.91,0,5.88,0a.76.76,0,0,0,.79-1,32.1,32.1,0,0,0,5.91-.36c.32,1.33-.46,2.49.66,3.32.69-1,.79-2-.66-3.32.09-1.31.09-3,.09-4.64,1.38,0,1-1.07,1-1.79,0-4.34,0-8.67,0-13V511.12H638.22V426.07H685.8v-204H606.18V254c7.57.11,15.34,0,23.11.05h23.56V401.9H592.13V426H605.9V541.83H591.14V511.15h-25v7.79h-7.9v21.48c-4.12.78-48.16.79-52.17-.3h50.85V507.21H522v16.61h-16c-.11-2.56,0-5.33-.05-8.1s0-5.62,0-8.57H461.1v8.78H450.71c-.87.5-.66,1.05-.74,1.61-1.11.85-2.39.4-3.81.33V459.24H419.1v15.69h-29v86.89h24.54L434.4,542h11.09c1-1.21.16-2.43.8-3.84.84-.87,2.18.21,3.58-.41V585.9h24V595H442.1v54.88h31.65v16.06H446.08v16H429.19V666.74a4.62,4.62,0,0,0-.52-.56.83.83,0,0,0-.43-.17H358.15V613.12h-72v-35h11.76V526.18h-53l-22.75-18.92V422.11h83.81V370c5,0,9.72-.59,14.22.19a104.23,104.23,0,0,0,10.72.87v14.83h31.06V419.8H390V393.29c0-8.33,0-16.66,0-25,0-.8-.71-2.11,1-2.29Zm-30.91,91.85h83.67V432c-4.56,0-8.89,0-13.21,0s-8.19-1.71-12.59-.94v-9.89H362.09Zm242.83,53.32H592c0,9.8,0,19.42,0,29.05a.89.89,0,0,0,.15.43c.09.14.22.25.15.18h12.61ZM447.17,375.08V395c2.47,0,4.78.05,7.08,0s4.55.26,6.58-.18V375.08Zm269.66,1.84V362c-2.8,0-5.44,0-8.07,0a70.31,70.31,0,0,0-7.59.12v14.79Zm10.34,385.16V778c2.63,0,5.1,0,7.57,0s4.88.23,7.09-.15V762.08ZM444.82,680.91V666c-2.64,0-5.11,0-7.59,0s-4.86-.25-7.05.16v14.74ZM701.16,347.09V361h15.68V347.09Zm-194,161V523c2.47,0,4.78,0,7.08,0s4.55.25,6.58-.18V508.08Zm172,85v10.76c1.75-.24,1.64,1.25,2.2,2h10.38c.06-1.45,1-1.87,2.15-2.22V593.33a3.19,3.19,0,0,1-2.52-2.29h-9.95C680.82,591.87,680.93,593.36,679.18,593.12ZM307.08,384.83H321c0-2.47.05-4.78,0-7.08s.26-4.55-.18-6.58H307.08Zm137.83,37.34H429c.07,3.07-.12,6,.11,8.66h15.81ZM322.17,372.09V385c2.74-.1,5.31.14,7.66-.13v-12.8ZM558.09,517.83h7c-.21-2.4.22-4.65-.26-6.66h-6.71ZM426.92,422.17H421c.09,2.73-.13,5.3.13,7.66h5.81ZM445.07,394c-.27-2.33.24-4.67-.27-6.82h-5.86c.22,2.39-.22,4.64.3,6.82Z"/><path class="cls-1" d="M375,779H342.06v14.8h-15V779.21H294V810H242.16c-.4-7.88,0-15.8-.24-23.87H226.23v-32H270V738h15.88V642.54c4.24-.74,39.52-1,52-.34v55.68h48v67H294.11v12.89h119.8V763.16H402.24v-34h37.09c1.23-.88.18-2.12,1.1-3.05H541.8v-24.7L506,665.6V586.25h51.88V605.9h80V614H622v15.88H607.25v66h14c.79.49.75,1,.73,1.86-4.82.64-9.74,0-14.8.37V737h82.64v24.87h-83.7v39.92H590.07V797.2H518v33.51c0,.68,0,1.37,1,1.29v8h8c-.08,1,.61,1,1.29,1h6.56v16.91H518.07V914.8h-64V766.2H415V779Zm100.82,22.66V730.1H403.2v32h11.4c.86,1-.15,2.19,1.1,3.06H455c0,18.81,0,37.45,0,56.08a.89.89,0,0,0,.15.44,2.1,2.1,0,0,0,.31.35Zm131.27-55.83H689c-.1-2.73.14-5.3-.14-7.66H607.09Zm-88.92,96.25V857c2.81,0,5.45,0,8.09,0s5.19.09,7.57-.06V842.08ZM284.91,739.17H271c0,2.48-.05,4.79,0,7.09s-.26,4.54.19,6.57h13.71ZM607.08,628.83H621c0-2.46,0-4.77,0-7.07s.25-4.55-.18-6.59H607.08Zm-279,164H341c0-2.48.05-4.78,0-7.09s.26-4.54-.18-6.57H328.08Z"/><path class="cls-1" d="M222.18,290h-53v-7.87h20.73V230.22H199v6.59h32.53c3.52,4.57,8.68,7.17,12.47,11.74v6.26h42.72c.66,1.87.23,3.69.31,5.44s0,3.62,0,5.59h62.87v-15.7h16.05v30.74h56V234.1h31.87v15.75h32v15.54c1.25,1.24,2.76.07,4,.95V329h-4.3q-17.5,0-35,0a9.39,9.39,0,0,1-4.61-1c-7.12-3.71-14.34-7.23-21.67-10.9H394v15.67h-6.6c-4.26-2.23-8.71-4.4-13-6.85-6.59-3.76-13.59-6.74-20-10.86-4.51-2.89-9.66-4.77-14.52-7.12a15.78,15.78,0,0,1-1.7-1.14V297h-15.8c-.65-1.29-.32-2.43-.33-3.93,7.88-4.24,16.57-7.24,24.68-12.17h18.16V267.19h-77.8v26.64h10.2c1.25,1,.3,2,1,3.06H241.62a3.42,3.42,0,0,0-.52.52,1,1,0,0,0-.1.46v97c0,.5,0,1,0,1.5a1,1,0,0,0,.23.4,3.85,3.85,0,0,0,.35.35l.36.36a3,3,0,0,1-.25.34.75.75,0,0,1-.41.2H222.18Zm231.91-24.16H485c0-2.63,0-5.1,0-7.57s.23-4.89-.15-7.11H454.09Zm-103,0H365c0-2.63,0-5.1,0-7.57s.23-4.88-.15-7.09H351.08Z"/><path class="cls-1" d="M249,129h60.85v16.84H294v52H239.22V129Zm45.08,15.83H309c0-2.64,0-5.11,0-7.58s.24-4.88-.15-7.08H294.08Z"/><path class="cls-1" d="M362,898V882H346.2v-16h15.68V838h53v17h-15.8v59.82H362Zm51.92-58.83H399c0,2.64,0,5.11,0,7.58s-.24,4.88.15,7.08h14.76Zm-66.84,41.66H362c0-2.46,0-4.77,0-7.07s.25-4.55-.18-6.59H347.08Z"/><path class="cls-4" d="M393,366h-2V353.09h2Z"/><path class="cls-1" d="M519,832a.77.77,0,0,1,.78-1c2.15,0,4.29,0,6.44,0a.77.77,0,0,1,.78,1Z"/><path class="cls-1" d="M527,832a.77.77,0,0,1,1,.78c0,2.15,0,4.29,0,6.44a.77.77,0,0,1-1,.78Z"/><path class="cls-1" d="M793,813v6.77c0,.68-.08,1.3-1,1.23v-6.77C792,813.55,792.08,812.93,793,813Z"/><path class="cls-1" d="M687,584a4.78,4.78,0,0,1,6,0Z"/><path class="cls-1" d="M687,589a3.43,3.43,0,0,1,0-5Z"/><path class="cls-1" d="M605,957h-3C603,955.63,604,955.63,605,957Z"/><path class="cls-1" d="M602,957v3C600.63,959,600.63,958,602,957Z"/><path class="cls-1" d="M357.83,108.92H327.17V94.33c-.06,0,.05-.09.18-.17a.89.89,0,0,1,.44-.15h30Zm-1-1V95H328.78a.89.89,0,0,0-.43.15c-.14.08-.24.22-.18.16v12.6Z"/><path class="cls-2" d="M362.09,457.85V421.18H420v9.89c4.4-.77,8.39,1,12.59.94s8.65,0,13.21,0v25.85Z"/><path class="cls-2" d="M604.92,511.17v29.66H592.31c.07.07-.06,0-.15-.18a.89.89,0,0,1-.15-.43c0-9.63,0-19.25,0-29.05Z"/><path class="cls-2" d="M447.17,375.08h13.66v19.73c-2,.44-4.32.12-6.58.18s-4.61,0-7.08,0Z"/><path class="cls-2" d="M716.83,376.92H701.17V362.13a70.31,70.31,0,0,1,7.59-.12c2.63-.05,5.27,0,8.07,0Z"/><path class="cls-2" d="M727.17,762.08h14.66v15.76c-2.21.38-4.66.1-7.09.15s-4.94,0-7.57,0Z"/><path class="cls-2" d="M444.82,680.91H430.18V666.17c2.19-.41,4.64-.1,7.05-.16s4.95,0,7.59,0Z"/><path class="cls-2" d="M701.16,347.09h15.68V361H701.16Z"/><path class="cls-2" d="M507.17,508.08h13.66v14.73c-2,.43-4.32.12-6.58.18s-4.61,0-7.08,0Z"/><path class="cls-2" d="M679.18,593.12c1.75.24,1.64-1.25,2.26-2.08h9.95a3.19,3.19,0,0,0,2.52,2.29v10.32c-1.14.35-2.09.77-2.15,2.22H681.38c-.56-.74-.45-2.23-2.2-2Z"/><path class="cls-2" d="M307.08,384.83V371.17h13.73c.44,2,.12,4.32.18,6.58s0,4.61,0,7.08Z"/><path class="cls-2" d="M444.91,422.17v8.66H429.1c-.23-2.69,0-5.59-.11-8.66Z"/><path class="cls-2" d="M322.17,372.09h7.66v12.8c-2.35.27-4.92,0-7.66.13Z"/><path class="cls-2" d="M558.09,517.83v-6.66h6.71c.48,2,.05,4.26.26,6.66Z"/><path class="cls-2" d="M426.92,422.17v7.66h-5.81c-.26-2.36,0-4.93-.13-7.66Z"/><path class="cls-2" d="M445.07,394h-5.83c-.52-2.18-.08-4.43-.3-6.82h5.86C445.31,389.33,444.8,391.67,445.07,394Z"/><path class="cls-2" d="M687,589v-5h6v5Z"/><path class="cls-2" d="M692.81,588.27c1.55,1.67,1.45,2.65.76,3.69C692.45,591.13,693.23,590,692.81,588.27Z"/><path class="cls-2" d="M475.82,801.66,455.47,822a2.1,2.1,0,0,1-.31-.35.89.89,0,0,1-.15-.44c0-18.63,0-37.27,0-56.08H415.7c-1.25-.87-.24-2.1-1.1-3.06H403.2v-32h72.62Z"/><path class="cls-2" d="M607.09,745.83v-7.66h81.79c.28,2.36,0,4.93.14,7.66Z"/><path class="cls-2" d="M518.17,842.08h15.66v14.86c-2.38.15-5,0-7.57.06s-5.28,0-8.09,0Z"/><path class="cls-2" d="M284.91,739.17v13.66H271.2c-.45-2-.13-4.32-.19-6.57s0-4.61,0-7.09Z"/><path class="cls-2" d="M607.08,628.83V615.17h13.73c.43,2,.12,4.33.18,6.59s0,4.61,0,7.07Z"/><path class="cls-2" d="M328.08,792.83V779.17h12.73c.44,2,.12,4.32.18,6.57s0,4.61,0,7.09Z"/><path class="cls-2" d="M527,832v8h-8v-8Z"/><path class="cls-2" d="M454.09,265.84V251.16h30.75c.38,2.22.1,4.68.15,7.11s0,4.94,0,7.57Z"/><path class="cls-2" d="M351.08,265.83V251.17h13.76c.38,2.21.1,4.66.15,7.09s0,4.94,0,7.57Z"/><path class="cls-2" d="M294.08,144.83V130.17h14.76c.39,2.2.1,4.65.15,7.08s0,4.94,0,7.58Z"/><path class="cls-2" d="M413.92,839.17v14.66H399.16c-.39-2.2-.1-4.66-.15-7.08s0-4.94,0-7.58Z"/><path class="cls-2" d="M347.08,880.83V867.17h14.73c.43,2,.12,4.33.18,6.59s0,4.61,0,7.07Z"/><path class="cls-2" d="M356.83,107.92H328.17V95.32c-.06.06,0-.08.18-.16a.89.89,0,0,1,.43-.15h28.05Z"/></svg>