<svg id="Layer_1" data-name="Layer 1" xmlns="http://www.w3.org/2000/svg" viewBox="0 0 1024 1024"><defs><style>.cls-1{fill:#fefefe;}.cls-2{fill:#7f7f7f;}.cls-3{fill:#a6a38a;}.cls-4{fill:#dedede;}</style></defs><path class="cls-1" d="M1024,1024H0V0H1024Zm-536-17c-1.38.11-.81-1.15-1.2-1.74s-1.67.22-1.61-1.13a10.39,10.39,0,0,1,1.5-.12c6.36.39,12.7-.28,19.12.76a39.47,39.47,0,0,0,14.6-.56c4.58-1,9.55-.21,14.7-.21v5.84h33.65c.66-2-.31-4.05.61-5.84,3.49,0,6.85.26,10.15-.07,3.5-.35,6.68,1,10.09,1.17,7.09.3,14-1.74,21.09-1.13,2.42.2,4.88,0,7.88,0-.69.63-.81.83-.93.83-5.45,0-10.9,0-16.45,0v5h13.63c.56-1.29-.45-2.76.7-3.91,1.16,1.16-.28,3,.75,3.85h7.6v-6.66c-1.28-.51-2.74.44-3.84-.6,1-1.43,2.91.28,4-1v-74L751.83,799.67V736H720.2V671.93H848.09V512.15H880v18.09l13.54,13.54h98.35V439.86h-8V432H976V415.92H960.23V383.86h31.58c.7-14.72.42-91.71-.31-95.67H928.08c-.06,1.3-.12,2.42-.18,3.59h-32v-4.92H887v-.71h8.82v-6.23h-5c-6.49-6.5-12.6-12.61-19.07-19.07v-4.67h-5.67c-.28,3,.23,5.95-1,8.79V256.4c-1.85-.86-3.61.16-4.93-.72V224c6.14,0,12.11,0,18.09,0s11.85.11,17.75-.08V194c0-1.16.34-2.48-.09-3.46-1.84-4.24-1.41-9-3.4-13.49-3.49-3.49-7.26-7.27-11-11-1-1-1.94-2.12-3.46-2.49-5.17-1.27-10-3.54-15.56-3.54q-90.48.12-180.71.05l-10-9.78V34c-29.37,0-58.52-.07-87.68.1-3.31,0-6.29-1.68-9.58-1.1-1.78-2.15-4.89.13-6.67-2-2.5.6-4.64-1.53-7.08-1-1.48.35-2.11-1.4-3.61-1.1a7.46,7.46,0,0,1-3.87-.21,42.16,42.16,0,0,0-7.8-1.65,69.28,69.28,0,0,1-6.76-1.81c-9.52-2.69-18.65-6.46-27.93-9.82-2.18-.78-4.17-2.24-6.5-2.39-3.38-.23-6.83.37-10.08-1.05-7.23.46-14.4-.55-21.3-1.18l-13.41,11c-8.67.85-17-.67-25.44,1-2.9.58-5.9,1.93-9.05,1.17-2,1.55-4.54.36-6.53,1.15-3,1.2-6.18,1.14-9.25,1.74-2.06.41-4.11.4-5.73,2.08-.73,2.13-1.87,4.14-2.69,6.33A24.45,24.45,0,0,1,393,46.53c-.87.66-2,.83-2.79,1.75C384.28,55,376.84,60.1,370.8,66.67a21.13,21.13,0,0,1-3.38,2.61,18.21,18.21,0,0,0-6.49,9.23c-2.43,7.14-5.32,14.13-7.86,21.23a6.28,6.28,0,0,1-1,1.42v106.9h31.76V256h-218c-5.77,0-11.63-.61-16.77,3-.22.16-.7-.09-1,0-3.58,1.65-7.37,3.2-9.83,6.34-2.83,3.61-6.11,6.91-8.11,11.14-.6,1.59.72,3.63-1.15,5,.31,2.94-1.15,5.59-1.1,8.59.23,13.83.1,27.66.1,41.49v4.51h23.76v16.06H104c0,2.81,0,5.46,0,8.1s.1,5.2,0,7.56h-16V352.22H48.15V383h91.06c1.33,0,2.67,0,4,0a.77.77,0,0,1,.79,1H48.19c-.65,14.12-.41,59.84.32,64H80v64H48.31c-.5,6.36-.42,59.53.11,64.06H87.77v32H59.2c-.65,13.07-.4,75.75.28,79.69H104V672.21h16.06v15.56h88V656h31.1a.77.77,0,0,1,.42.17,4.24,4.24,0,0,1,.52.55v79.16h57.39c2.3-2.09,4.16-4.41,6.56-6.26,2.15,2.15,4.09,4,5.88,5.92s4.06,3.33,5.15,5.73L304,752.41v30.94l19.54,19.54h27.05c.87-.88-.18-2.12,1.05-3H464.13V784.17H480q0,108.71,0,217.08a.77.77,0,0,0,.17.42,2.28,2.28,0,0,0,.36.33c.77.14,1.74-.3,2.46.51-1,1-2.24-.07-2.85.8V1010c1.45,0,2.76.08,4.06,0s2.63.47,3.79-.43a22.32,22.32,0,0,0-.47-4.47c1,1.94,1.81,3.32,1.65,4.79h13.6v-4.79C497.82,1005.08,493.08,1005.08,488,1007ZM977.17,416.08V431c2.64,0,5.11,0,7.58,0s4.88.24,7.08-.15V416.08Zm-512,369V800c2.47,0,4.77,0,7.08,0s4.54.25,6.58-.18V785.08Zm-360-112V688c2.47,0,4.77,0,7.08,0s4.54.25,6.58-.18V673.08Zm-16-321V367c2.47,0,4.78.05,7.09,0s4.54.27,6.55-.19V352.09Zm494.73,653.07h-14c.42,1.72-.35,3.34.45,4.68h13.58Zm-63.74-.08v4.77c4.61,0,9,0,13.48,0,.12,0,.24-.21.18-.15v-4.6Zm79.73,1.07H584.8c.61,1.38-.46,2.71.54,3.7H599.9Zm-81,0H503.8c.61,1.38-.46,2.71.54,3.7H518.9ZM985.09,438.84h6.66v-6.68h-6.66Z"/><path class="cls-2" d="M144,384a.77.77,0,0,0-.79-1c-1.33-.06-2.67,0-4,0H48.15V352.22H87.94v15.59h16c.15-2.36,0-5,0-7.56s0-5.29,0-8.1h47.76V336.09H128v-4.51c0-13.83.13-27.66-.1-41.49-.05-3,1.41-5.65,1.1-8.59,1.87-1.37.55-3.41,1.15-5,2-4.23,5.28-7.53,8.11-11.14,2.46-3.14,6.25-4.69,9.83-6.34.27-.13.75.12,1,0,5.14-3.59,11-3,16.77-3h218V208.06H352.11V101.16a6.28,6.28,0,0,0,1-1.42c2.54-7.1,5.43-14.09,7.86-21.23a18.21,18.21,0,0,1,6.49-9.23,21.13,21.13,0,0,0,3.38-2.61c6-6.57,13.48-11.67,19.37-18.39.8-.92,1.92-1.09,2.79-1.75a24.45,24.45,0,0,0,7.87-11.23c.82-2.19,2-4.2,2.69-6.33,1.62-1.68,3.67-1.67,5.73-2.08,3.07-.6,6.23-.54,9.25-1.74,2-.79,4.53.4,6.53-1.15,3.15.76,6.15-.59,9.05-1.17,8.39-1.68,16.77-.16,25.44-1l13.41-11c6.9.63,14.07,1.64,21.3,1.18,3.25,1.42,6.7.82,10.08,1.05,2.33.15,4.32,1.61,6.5,2.39,9.28,3.36,18.41,7.13,27.93,9.82a69.28,69.28,0,0,0,6.76,1.81,42.16,42.16,0,0,1,7.8,1.65,7.46,7.46,0,0,0,3.87.21c1.5-.3,2.13,1.45,3.61,1.1,2.44-.56,4.58,1.57,7.08,1,1.78,2.13,4.89-.15,6.67,2,3.29-.58,6.27,1.12,9.58,1.1,29.16-.17,58.31-.1,87.68-.1V150.22l10,9.78q90.09,0,180.71-.05c5.53,0,10.39,2.27,15.56,3.54,1.52.37,2.45,1.48,3.46,2.49,3.78,3.76,7.55,7.54,11,11,2,4.52,1.56,9.25,3.4,13.49.43,1,.09,2.3.09,3.46v29.95c-5.9.19-11.83.06-17.75.08s-12,0-18.09,0v31.68c1.32.88,3.08-.14,4.93.72V265c1.22-2.84.71-5.77,1-8.79h5.67v4.67c6.47,6.46,12.58,12.57,19.07,19.07h5v6.23H887v.71h8.91v4.92h32c.06-1.17.12-2.29.18-3.59H991.5c.73,4,1,80.95.31,95.67H960.23v32.06H976V432h7.88v7.88h8V543.78H893.51L880,530.24V512.15H848.09V671.93H720.2V736h31.63v63.68L624,927.5v74c-1,1.33-2.92-.38-4,1,1.1,1,2.56.09,3.84.6v6.66h-7.6c-1-.88.41-2.69-.75-3.85-1.15,1.15-.14,2.62-.7,3.91H601.2v-5c5.55,0,11,0,16.45,0,.12,0,.24-.2.93-.83-3,0-5.46.17-7.88,0-7.08-.61-14,1.43-21.09,1.13-3.41-.14-6.59-1.52-10.09-1.17-3.3.33-6.66.07-10.15.07-.92,1.79,0,3.84-.61,5.84H535.11V1004c-5.15,0-10.12-.78-14.7.21a39.47,39.47,0,0,1-14.6.56c-6.42-1-12.76-.37-19.12-.76a10.39,10.39,0,0,0-1.5.12c-.06,1.35,1.22.55,1.61,1.13s-.18,1.85,1.2,1.74v2.55c-1.16.9-2.53.32-3.79.43s-2.61,0-4.06,0v-6.69c.61-.87,1.85.18,2.85-.8-.72-.81-1.69-.37-2.46-.51a2.28,2.28,0,0,1-.36-.33.77.77,0,0,1-.17-.42q0-108.46,0-217.08H464.13v15.72H351.67c-1.23.88-.18,2.12-1.05,3H323.57L304,783.35V752.41l11.13-11.13c-1.09-2.4-3.41-3.83-5.15-5.73s-3.73-3.77-5.88-5.92c-2.4,1.85-4.26,4.17-6.56,6.26H240.18V656.73a4.24,4.24,0,0,0-.52-.55.77.77,0,0,0-.42-.17h-31.1v31.77h-88V672.21H104v15.61H59.48c-.68-3.94-.93-66.62-.28-79.69H87.77v-32H48.42c-.53-4.53-.61-57.7-.11-64.06H80V448h32v31.79h8.08V464H144v31.83c16.06.66,59.8.41,64-.36V448h32v54c3,0,5.62,0,8.26,0s5.19.11,7.58-.05V336.13c-3.38-.38-6.66.18-10-.39v-15.8H231.92v-8.05h-8.06v-7.72H208c0,10.47,0,20.78,0,31.08a.75.75,0,0,1-.18.42,4.24,4.24,0,0,1-.57.52h-7.12v15.89h39.75v40H224.16V408c2.79,0,5.43,0,8.07,0a67,67,0,0,1,7.77.14V446H208V384Zm337.88,85.15c-.93,1.16-.93,1.16,0,2.82a23,23,0,0,1,.12-3,.71.71,0,0,0,.89-.6c0-.07-.22-.31-.29-.29C482.14,468.21,481.92,468.52,481.88,469.15ZM462,490.06l2.93-1.58c-.36-.61-.87-.46-1.32-.48-.61,0-1.26-.13-1.61.6a1.21,1.21,0,0,0,.54,1.24c-1.18.34-2.08-.3-2.46.76C460.77,491.26,461.4,491.18,462,490.06ZM472,500c-1,.25-2.17-.53-3,.59.85.56,1.24,2,2.87,1.12a1.85,1.85,0,0,0-.39-1.56c1.45-.36,2.61.42,3.9-1.33C473.94,499.38,472.93,498.35,472,500Zm312-52h-8V432.2h-16v15.71h-11.7c-9.61,4.25-13.84,10.84-11.85,21.59,0,1.15,1.68,2.39,2.74,3.81,3,4.07,7,6.76,12.57,6.75q85.93-.15,171.86-.06h4.32c.77-27.14.45-127.32-.41-132H896V320H832v-8H800.2V256.1l3.57-.21v-32H800c0-7.82,0-15.46,0-23.1a.77.77,0,0,0-.17-.43c-.09-.13-.23-.22-.15-.14H784v23.89H648.14V256H719l33,33c0,17.95,0,36.11,0,54.28a.89.89,0,0,1-.15.43,5.05,5.05,0,0,1-.48.53H736v6.89H702.91v63.69H687.85V304c-2.81,0-5.46,0-8.1,0s-5.2-.1-7.94.07v16H543.92v32.05h-7.67v32.06H544V425l22,22c-3.76,0-7.38-.08-11,0s-7.3-.44-10.87,1h79.72v96.05H608.14v31.68h63.63c.55-1.34-.19-2.55.62-3.66H752v36h8.06v15.78H776c0-2.8,0-5.44,0-8.08a64.48,64.48,0,0,1,.17-7.95h7.71V544.21h-31.8c-.07,1.34-.13,2.46-.19,3.55H688.16V416c2.81,0,5.45,0,8.1,0s5.19.11,7.93-.08V352.12h31.9v8H752c.17,8.07-.17,16,.2,23.88H784ZM416,288v32c3,0,5.61,0,8.25,0s5.2.1,7.75-.06V288h63.75l.47,1.81h31.62c.16-.65.27-1.1.47-1.89h79.62c0-.31,0-.61,0-.92H448.15V271.87H607.86V144.24h-32v31.51h-128V144H416.74a.78.78,0,0,0-.42.18,2.74,2.74,0,0,0-.32.36ZM612.85,671.82H448V655.94h-8.06v-7.7H423.85v8h-7.66v79.87h127.9V858.85h18.06V848h61.71l48-48V608.21H640V641.6c-2.71,2.2-4.81,5.09-7.07,7.87-2.47,3-5.3,5.75-7.89,8.68C621,662.81,616.71,667.4,612.85,671.82ZM368,543.83H209c-2.52-5-5-9.94-7.61-15.12l-28.58,15q2.51,7.51,5,15.11l-1.89.42v16.85H136.25v47.7H152V608.17H335.91v89.38c-2.1,2.25-4.32,4.2-6.34,6.52,2.17,2.18,4,4.09,5.92,5.9s3.45,3.93,5.7,5.25l11-11.06V608H480.25a.85.85,0,0,0,.42-.17c.13-.1.22-.24.14-.15V576H455.93V560.14H439.87v15.7H416c0-31.79,0-63.42,0-95.05a.89.89,0,0,0-.15-.44c-.08-.13-.22-.24-.16-.18H368Zm-48.65-96h98.73c-.29-3.39.26-6.64-.31-9.8-.8-.06-1.33.11-1.64-.4V399.91h64V383.86h7.71V352H352.75a.77.77,0,0,1-.42-.17,5.05,5.05,0,0,1-.52-.57V288.11H288.14V416.64ZM543.82,488.1V584H528.21v16.06h15.91v31.75H576c0-7.81,0-15.45,0-23.09a.85.85,0,0,0-.17-.42,5.55,5.55,0,0,0-.58-.52H560.12v-95.9h15.73V488.1Zm-261,148.1c-1.26,8.18-1,36.52,0,40.28Zm14.65,0c-1,9.93-.72,36.69.21,39.63C298.13,670.44,298.11,641,297.48,636.18Zm6.69-122.37c1.27-8.5,1.05-32.55,0-36.24Zm15.66-35.61c-1.25,8.13-1,32.54,0,36.27ZM296,634.75v-.5H284v.5Zm10.18-119.58c3.89.7,7.79,1.06,11.65,0ZM295.85,677.82c-3.94-.51-7.82-1.27-11.7-.45,0,0,0,.22.07.45Zm10.34-201.65c3.87.64,7.78,1.18,11.65,0Zm181.23,10.92,2.95-3c-1.95,0-3.2-.46-4.38.32C486.83,485,487,486,487.42,487.09Zm-10.13-14.38c2.34,2.12-1.64,2.32.12,4.2H479c-.16-1.31-.28-2.67,1.15-3.63Zm-11.2,13.91a2.6,2.6,0,0,0,2.82,0v-1.25a2.6,2.6,0,0,0-2.82,0Zm19,2.29c-1,.15-1.55-.11-1.91.44-.14.88-.52,1.81.32,2.64Zm2-17.4-3-1.36v1.5A2.78,2.78,0,0,0,487.1,471.51Zm4.37,8.49a2.33,2.33,0,0,0,.07,3.1c.46-1.05.88-2,1.36-3.1Zm-26,17.14a2.88,2.88,0,0,0,0-3.27A2.89,2.89,0,0,0,465.48,497.14Zm24.38-20.66a2.88,2.88,0,0,0,3.27,0A2.88,2.88,0,0,0,489.86,476.48ZM476.5,494c-.47.32-.47.66,0,1C477,494.67,477,494.33,476.5,494Zm2,3c.47-.32.47-.66,0-1C478,496.33,478,496.67,478.5,497ZM494,478.5c.32.47.66.47,1,0C494.67,478,494.33,478,494,478.5Z"/><path class="cls-3" d="M112,448H48.51c-.73-4.16-1-49.88-.32-64H208v62c-3.82,0-7.67.25-11.46-.07s-7.27,1.51-11.07,1.13c-3.13-.31-6.31-.06-9.47-.06V416.18c-15.72-.66-59.79-.41-64,.34Z"/><path class="cls-2" d="M977.17,416.08h14.66v14.76c-2.2.39-4.65.1-7.08.15s-4.94,0-7.58,0Z"/><path class="cls-2" d="M465.17,785.08h13.66v14.73c-2,.43-4.33.12-6.58.18s-4.61,0-7.08,0Z"/><path class="cls-2" d="M105.17,673.08h13.66v14.73c-2,.43-4.33.12-6.58.18s-4.61,0-7.08,0Z"/><path class="cls-2" d="M89.18,352.09h13.64V366.8c-2,.46-4.3.13-6.55.19s-4.62,0-7.09,0Z"/><path class="cls-2" d="M487.53,1005.08h15.25v4.79h-13.6C489.34,1008.4,488.5,1007,487.53,1005.08Z"/><path class="cls-2" d="M583.91,1005.16v4.68H570.33c-.8-1.34,0-3-.45-4.68Z"/><path class="cls-2" d="M520.17,1005.08h13.66v4.6c.06-.06-.06.15-.18.15-4.44,0-8.87,0-13.48,0Z"/><path class="cls-2" d="M599.9,1006.15v3.7H585.34c-1-1,.07-2.32-.54-3.7Z"/><path class="cls-2" d="M518.9,1006.15v3.7H504.34c-1-1,.07-2.32-.54-3.7Z"/><path class="cls-2" d="M985.09,438.84v-6.68h6.66v6.68Z"/><path class="cls-1" d="M784,384H752.16c-.37-7.89,0-15.81-.2-23.88H736.09v-8h-31.9v63.79c-2.74.19-5.34.06-7.93.08s-5.29,0-8.1,0V547.76H751.9c.06-1.09.12-2.21.19-3.55h31.8v63.61h-7.71a64.48,64.48,0,0,0-.17,7.95c0,2.64,0,5.28,0,8.08H760.1V608.07H752v-36H672.39c-.81,1.11-.07,2.32-.62,3.66H608.14V544.08h15.75V448H544.17c3.57-1.45,7.25-.9,10.87-1s7.24,0,11,0l-22-22V384.17h-7.77V352.11h7.67V320.06H671.81v-16c2.74-.17,5.35-.05,7.94-.07s5.29,0,8.1,0V414.76h15.06V351.07H736v-6.89h15.4a5.05,5.05,0,0,0,.48-.53.89.89,0,0,0,.15-.43c0-18.17,0-36.33,0-54.28l-33-33H648.14V224.08H784V200.19h15.72c-.08-.08.06,0,.15.14a.77.77,0,0,1,.17.43c0,7.64,0,15.28,0,23.1h3.77v32l-3.57.21V312H832v16H784.75a.77.77,0,0,0-.42.17,2.82,2.82,0,0,0-.33.36Zm46.92-70.84H800.21c-.62,2.36.3,4.7-.59,7H784.1v6.65h46.82ZM785.16,201.09V224c2.47,0,4.77,0,7.07,0s4.56.25,6.61-.18V201.09ZM686.84,319.91V305c-2.47,0-4.77,0-7.08,0s-4.55-.24-6.6.17v14.73Zm88,303V608c-2.48,0-4.78,0-7.09,0s-4.54-.26-6.57.18v14.73Z"/><path class="cls-1" d="M612.85,671.82c3.86-4.42,8.11-9,12.23-13.67,2.59-2.93,5.42-5.65,7.89-8.68,2.26-2.78,4.36-5.67,7.07-7.87V608.21h31.85V800l-48,48H562.15v10.85H544.09V736.06H416.19V656.19h7.66v-8h16.06v7.7H448v15.88ZM446.91,657.17H417c0,2.65,0,5.12,0,7.6s-.25,4.86.16,7.06h29.74ZM439,649c-4.67,0-9.33-.16-13.82.13V656c2.47,0,4.78,0,7.08,0s4.54.26,6.74-.22Z"/><path class="cls-1" d="M368,543.83V480.17h47.69c-.06-.06.08.05.16.18a.89.89,0,0,1,.15.44c0,31.63,0,63.26,0,95.05h23.87v-15.7h16.06V576h24.88v31.72c.08-.09,0,.05-.14.15a.85.85,0,0,1-.42.17H352.18v96.16l-11,11.06c-2.25-1.32-3.81-3.47-5.7-5.25s-3.75-3.72-5.92-5.9c2-2.32,4.24-4.27,6.34-6.52V608.17H152v15.66H136.25v-47.7H175.9V559.28l1.89-.42q-2.52-7.59-5-15.11l28.58-15c2.6,5.18,5.09,10.12,7.61,15.12ZM454.86,576a138.1,138.1,0,0,0,0-14.82H441c0,2.64,0,5.12,0,7.59s-.25,4.86.19,7.23ZM137.17,608.08V623c2.46,0,4.77,0,7.07,0s4.55.25,6.59-.18V608.08Z"/><path class="cls-1" d="M416,288V144.55a2.74,2.74,0,0,1,.32-.36.78.78,0,0,1,.42-.18h31.09v31.75h128V144.24h32V271.87H448.15V287H607.94c0,.31,0,.61,0,.92H528.31c-.2.79-.31,1.24-.47,1.89H496.22l-.47-1.81H416Zm110.83.83c-9.14-1.28-26.71-1.06-30.11,0Z"/><path class="cls-1" d="M319.34,447.83l-31.2-31.19V288.11h63.67v63.14a5.05,5.05,0,0,0,.52.57.77.77,0,0,0,.42.17H487.83v31.86h-7.71v16.05h-64v37.72c.31.51.84.34,1.64.4.57,3.16,0,6.41.31,9.8Zm159.57-63.66H416c0,2.64,0,5.12,0,7.59s-.26,4.88.16,7.07h62.74Z"/><path class="cls-3" d="M784,384V328.54a2.82,2.82,0,0,1,.33-.36.77.77,0,0,1,.42-.17H832v-8h64V448H784Z"/><path class="cls-1" d="M784,448H896V348h31.47c.86,4.68,1.18,104.86.41,132h-4.32q-85.93,0-171.86.06c-5.62,0-9.53-2.68-12.57-6.75-1.06-1.42-2.79-2.66-2.74-3.81-2-10.75,2.24-17.34,11.85-21.59h11.7V432.2h16V448Zm-22.83-14.92V448c2.47,0,4.77,0,7.08,0s4.54.25,6.58-.18V433.08Z"/><path class="cls-1" d="M240,446V408.15a67,67,0,0,0-7.77-.14c-2.64-.05-5.28,0-8.07,0V392.11h15.71v-40H200.12V336.19h7.12a4.24,4.24,0,0,0,.57-.52.75.75,0,0,0,.18-.42c0-10.3,0-20.61,0-31.08h15.86v7.72h8.06v8.05h13.89v15.8c3.37.57,6.65,0,10,.39V501.94c-2.39.16-5,0-7.58.05s-5.29,0-8.26,0V446ZM209.09,335.82h35.82V321.18H209.09Zm13.74-15.9V305c-2.47,0-4.77,0-7.08,0s-4.54-.25-6.58.18v14.73Zm17.09,73.25H225c0,2.47-.05,4.78,0,7.08s-.25,4.55.18,6.58h14.73Zm-8.92-80a27.28,27.28,0,0,0-6.82,0v6.87c2.39-.22,4.64.22,6.82-.31Z"/><path class="cls-1" d="M112,448V416.52c4.21-.75,48.28-1,64-.34v63.59h-8.1V464H120.08v15.79H112Z"/><path class="cls-1" d="M543.82,488.1h32v23.81H560.12v95.9h15.12a5.55,5.55,0,0,1,.58.52.85.85,0,0,1,.17.42c0,7.64,0,15.28,0,23.09H544.12V600.09H528.21V584h15.61ZM529.09,598.84H544v-7.07c0-2.26,0-4.53,0-6.61h-14.9Z"/><path class="cls-3" d="M144,464h23.9v15.77H176V464h16.16v-8.17h8V448H208v47.47c-4.2.77-47.94,1-64,.36Z"/><path class="cls-4" d="M208,448h-7.82v7.83h-8V464H176v-1h15c0-2.8,0-5.28,0-7.75s.24-4.88-.18-7.25H176v-1c3.16,0,6.34-.25,9.47.06,3.8.38,7.27-1.45,11.07-1.13s7.64.07,11.46.07h32v2Zm-9.08.17h-7c.21,2.4-.21,4.65.26,6.66h6.72Z"/><path class="cls-4" d="M416,288h1v31c2.63,0,4.94.05,7.25,0s4.55.26,6.75-.22V288h1v31.93c-2.55.16-5.16,0-7.75.06s-5.28,0-8.25,0Z"/><path class="cls-4" d="M282.83,636.2v40.28C281.79,672.72,281.57,644.38,282.83,636.2Z"/><path class="cls-4" d="M297.48,636.18c.63,4.85.65,34.26.21,39.63C296.76,672.87,296.5,646.11,297.48,636.18Z"/><path class="cls-4" d="M304.17,513.81V477.57C305.22,481.26,305.44,505.31,304.17,513.81Z"/><path class="cls-4" d="M319.83,478.2v36.27C318.79,510.74,318.58,486.33,319.83,478.2Z"/><path class="cls-4" d="M296,634.75H284v-.5h12Z"/><path class="cls-4" d="M306.18,515.17h11.65C314,516.23,310.07,515.87,306.18,515.17Z"/><path class="cls-4" d="M295.85,677.82H284.22c0-.23-.07-.45-.07-.45C288,676.55,291.91,677.31,295.85,677.82Z"/><path class="cls-4" d="M306.19,476.17h11.65C314,477.35,310.06,476.81,306.19,476.17Z"/><path class="cls-4" d="M487.42,487.09c-.46-1.12-.59-2-1.43-2.66,1.18-.78,2.43-.36,4.38-.32Z"/><path class="cls-4" d="M477.29,472.71l2.9.57c-1.43,1-1.31,2.32-1.15,3.63h-1.63C475.65,475,479.63,474.83,477.29,472.71Z"/><path class="cls-4" d="M466.09,486.62v-1.25a2.6,2.6,0,0,1,2.82,0v1.25A2.6,2.6,0,0,1,466.09,486.62Z"/><path class="cls-4" d="M472,500l-.13,1.71c-1.63.91-2-.56-2.87-1.12C469.87,499.45,471,500.23,472,500Z"/><path class="cls-4" d="M485.07,488.91,483.48,492c-.84-.83-.46-1.76-.32-2.64C483.52,488.8,484.05,489.06,485.07,488.91Z"/><path class="cls-4" d="M462,490.06V488.6c.35-.73,1-.61,1.61-.6.45,0,1-.13,1.32.48Z"/><path class="cls-4" d="M487.1,471.51a2.78,2.78,0,0,1-3,.14v-1.5Z"/><path class="cls-4" d="M491.47,480h1.43c-.48,1.08-.9,2.05-1.36,3.1A2.33,2.33,0,0,1,491.47,480Z"/><path class="cls-4" d="M465.48,497.14a2.89,2.89,0,0,1,0-3.27A2.88,2.88,0,0,1,465.48,497.14Z"/><path class="cls-4" d="M489.86,476.48a2.89,2.89,0,0,1,3.27,0A2.89,2.89,0,0,1,489.86,476.48Z"/><path class="cls-4" d="M471.52,500.13c1.41-1.78,2.42-.75,3.9-1.33C474.13,500.55,473,499.77,471.52,500.13Z"/><path class="cls-4" d="M481.88,469.15V472C481,470.31,481,470.31,481.88,469.15Z"/><path class="cls-4" d="M462.54,489.84c-1.14,1.34-1.77,1.42-2.46.76C460.46,489.54,461.36,490.18,462.54,489.84Z"/><path class="cls-4" d="M476.5,494c.47.32.47.66,0,1C476,494.67,476,494.33,476.5,494Z"/><path class="cls-4" d="M478.5,497c-.47-.32-.47-.66,0-1C479,496.33,479,496.67,478.5,497Z"/><path class="cls-4" d="M482,469a.71.71,0,0,1,.6-.89c.07,0,.31.22.29.29A.71.71,0,0,1,482,469Z"/><path class="cls-4" d="M494,478.5c.32-.47.66-.47,1,0C494.67,479,494.33,479,494,478.5Z"/><path class="cls-2" d="M830.92,313.16v13.67H784.1v-6.65h15.52c.89-2.32,0-4.66.59-7Z"/><path class="cls-2" d="M785.16,201.09h13.68v22.72c-2.05.43-4.34.12-6.61.18s-4.6,0-7.07,0Z"/><path class="cls-2" d="M686.84,319.91H673.16V305.18c2.05-.41,4.34-.11,6.6-.17s4.61,0,7.08,0Z"/><path class="cls-2" d="M774.83,622.92H761.17V608.19c2-.44,4.32-.12,6.57-.18s4.61,0,7.09,0Z"/><path class="cls-2" d="M446.91,657.17v14.66H417.17c-.41-2.2-.1-4.65-.16-7.06s0-4.95,0-7.6Z"/><path class="cls-2" d="M439,649v6.76c-2.2.48-4.49.16-6.74.22s-4.61,0-7.08,0v-6.86C429.67,648.85,434.33,649.05,439,649Z"/><path class="cls-2" d="M454.86,576H441.2c-.44-2.37-.13-4.81-.19-7.23s0-4.95,0-7.59h13.82A138.1,138.1,0,0,1,454.86,576Z"/><path class="cls-2" d="M137.17,608.08h13.66v14.73c-2,.43-4.33.12-6.59.18s-4.61,0-7.07,0Z"/><path class="cls-2" d="M431,288v30.77c-2.2.48-4.49.16-6.75.22s-4.62,0-7.25,0V288Z"/><path class="cls-2" d="M526.83,288.83H496.72C500.12,287.77,517.69,287.55,526.83,288.83Z"/><path class="cls-2" d="M478.91,384.17v14.66H416.17c-.42-2.19-.1-4.65-.16-7.07s0-4.95,0-7.59Z"/><path class="cls-2" d="M761.17,433.08h13.66v14.73c-2,.43-4.33.12-6.58.18s-4.61,0-7.08,0Z"/><path class="cls-2" d="M209.09,335.82V321.18h35.82v14.64Z"/><path class="cls-2" d="M222.83,319.92H209.17V305.19c2-.43,4.33-.12,6.58-.18s4.61,0,7.08,0Z"/><path class="cls-2" d="M239.92,393.17v13.66H225.19c-.43-2-.12-4.32-.18-6.58s0-4.61,0-7.08Z"/><path class="cls-2" d="M231,313.18v6.57c-2.18.53-4.43.09-6.82.31v-6.87A27.28,27.28,0,0,1,231,313.18Z"/><path class="cls-3" d="M176,448h14.81c.42,2.37.13,4.83.18,7.25s0,4.95,0,7.75H176Z"/><path class="cls-2" d="M529.09,598.84V585.16H544c0,2.08,0,4.35,0,6.61v7.07Z"/><path class="cls-3" d="M198.92,448.17v6.66H192.2c-.47-2,0-4.26-.26-6.66Z"/></svg>